<?xml version="1.0" encoding="UTF-8" standalone="no"?>
<!DOCTYPE svg PUBLIC "-//W3C//DTD SVG 1.1//EN"
 "http://www.w3.org/Graphics/SVG/1.1/DTD/svg11.dtd">
<!-- Generated by graphviz version 12.2.0 (20241103.1931)
 -->
<!-- Title: GalacticShrine.Modele.Configuration.Ini.ProprieteCollection Pages: 1 -->
<svg width="399pt" height="78pt"
 viewBox="0.00 0.00 398.50 78.00" xmlns="http://www.w3.org/2000/svg" xmlns:xlink="http://www.w3.org/1999/xlink">
<g id="graph0" class="graph" transform="scale(1 1) rotate(0) translate(4 74)">
<title>GalacticShrine.Modele.Configuration.Ini.ProprieteCollection</title>
<!-- Node1 -->
<g id="Node000001" class="node">
<title>Node1</title>
<g id="a_Node000001"><a xlink:title="[FR] Représente une collection de données de clé. &#160;[EN] Represents a collection of key data.">
<polygon fill="#999999" stroke="#666666" points="390.5,-48 212.5,-48 212.5,-16 390.5,-16 390.5,-48"/>
<text text-anchor="start" x="220.5" y="-34.5" font-family="Helvetica,sans-Serif" font-size="10.00">GalacticShrine.Modele.Configuration.</text>
<text text-anchor="middle" x="301.5" y="-22.5" font-family="Helvetica,sans-Serif" font-size="10.00">Ini.ProprieteCollection</text>
</a>
</g>
</g>
<!-- Node2 -->
<g id="Node000002" class="node">
<title>Node2</title>
<g id="a_Node000002"><a xlink:href="../../d7/d03/interface_galactic_shrine_1_1_interface_1_1_configuration_1_1_clonable_interface-1-g.html" target="_top" xlink:title="[FR] Crée une copie en profondeur du type T , c&#39;est&#45;à&#45;dire que tous les types de référence sont égale...">
<polygon fill="white" stroke="#666666" points="176.5,-70 0,-70 0,-38 176.5,-38 176.5,-70"/>
<text text-anchor="start" x="8" y="-56.5" font-family="Helvetica,sans-Serif" font-size="10.00">GalacticShrine.Interface.</text>
<text text-anchor="middle" x="88.25" y="-44.5" font-family="Helvetica,sans-Serif" font-size="10.00">Configuration.ClonableInterface&lt; T &gt;</text>
</a>
</g>
</g>
<!-- Node2&#45;&gt;Node1 -->
<g id="edge1_Node000001_Node000002" class="edge">
<title>Node2&#45;&gt;Node1</title>
<g id="a_edge1_Node000001_Node000002"><a xlink:title=" ">
<path fill="none" stroke="#63b8ff" d="M188.01,-43.72C196.05,-42.88 204.14,-42.04 212.09,-41.21"/>
<polygon fill="#63b8ff" stroke="#63b8ff" points="187.79,-40.22 178.2,-44.74 188.51,-47.18 187.79,-40.22"/>
</a>
</g>
</g>
<!-- Node3 -->
<g id="Node000003" class="node">
<title>Node3</title>
<g id="a_Node000003"><a xlink:title=" ">
<polygon fill="white" stroke="#666666" points="152.12,-20 24.38,-20 24.38,0 152.12,0 152.12,-20"/>
<text text-anchor="middle" x="88.25" y="-6.5" font-family="Helvetica,sans-Serif" font-size="10.00">IEnumerable&lt; Propriete &gt;</text>
</a>
</g>
</g>
<!-- Node3&#45;&gt;Node1 -->
<g id="edge2_Node000001_Node000003" class="edge">
<title>Node3&#45;&gt;Node1</title>
<g id="a_edge2_Node000001_Node000003"><a xlink:title=" ">
<path fill="none" stroke="#63b8ff" d="M163.61,-17.74C179.37,-19.38 196.14,-21.13 212.34,-22.82"/>
<polygon fill="#63b8ff" stroke="#63b8ff" points="164.16,-14.28 153.85,-16.73 163.43,-21.24 164.16,-14.28"/>
</a>
</g>
</g>
</g>
</svg>
