<?xml version="1.0" encoding="UTF-8" standalone="no"?>
<!DOCTYPE svg PUBLIC "-//W3C//DTD SVG 1.1//EN"
 "http://www.w3.org/Graphics/SVG/1.1/DTD/svg11.dtd">
<!-- Generated by graphviz version 12.2.0 (20241103.1931)
 -->
<!-- Title: GalacticShrine.UI.Terminal.ThemeLumineux.ThemeLumineux Pages: 1 -->
<!--zoomable 90 -->

<svg id="main" version="1.1" xmlns="http://www.w3.org/2000/svg" xmlns:xlink="http://www.w3.org/1999/xlink" xml:space="preserve" onload="init(evt)">

<style type="text/css"><![CDATA[
.node, .edge {opacity: 0.7;}
.node.selected, .edge.selected {opacity: 1;}
.edge:hover path { stroke: red; }
.edge:hover polygon { stroke: red; fill: red; }
]]></style>

<defs>
  <circle id="rim" cx="0" cy="0" r="7"/>
  <circle id="rim2" cx="0" cy="0" r="3.5"/>
  <g id="zoomPlus">
    <use xlink:href="#rim" fill="#404040"><set attributeName="fill" to="#808080" begin="zoomplus.mouseover" end="zoomplus.mouseout"/></use>
    <path d="M-4,0h8M0,-4v8" fill="none" stroke="white" stroke-width="1.5" pointer-events="none"/>
  </g>
  <g id="zoomMin">
    <use xlink:href="#rim" fill="#404040"><set attributeName="fill" to="#808080" begin="zoomminus.mouseover" end="zoomminus.mouseout"/></use>
    <path d="M-4,0h8" fill="none" stroke="white" stroke-width="1.5" pointer-events="none"/>
  </g>
  <g id="arrowUp" transform="translate(30 24)">
    <use xlink:href="#rim"/>
    <path pointer-events="none" fill="none" stroke="white" stroke-width="1.5" d="M0,-3.0v7 M-2.5,-0.5L0,-3.0L2.5,-0.5"/>
  </g>
  <g id="arrowRight" transform="rotate(90) translate(36 -43)">
    <use xlink:href="#rim"/>
    <path pointer-events="none" fill="none" stroke="white" stroke-width="1.5" d="M0,-3.0v7 M-2.5,-0.5L0,-3.0L2.5,-0.5"/>
  </g>
  <g id="arrowDown" transform="rotate(180) translate(-30 -48)">
    <use xlink:href="#rim"/>
    <path pointer-events="none" fill="none" stroke="white" stroke-width="1.5" d="M0,-3.0v7 M-2.5,-0.5L0,-3.0L2.5,-0.5"/>
  </g>
  <g id="arrowLeft" transform="rotate(270) translate(-36 17)">
    <use xlink:href="#rim"/>
    <path pointer-events="none" fill="none" stroke="white" stroke-width="1.5" d="M0,-3.0v7 M-2.5,-0.5L0,-3.0L2.5,-0.5"/>
  </g>
  <g id="resetDef">
    <use xlink:href="#rim2" fill="#404040"><set attributeName="fill" to="#808080" begin="reset.mouseover" end="reset.mouseout"/></use>
  </g>
</defs>
<script type="application/ecmascript">
var viewWidth = 584;
var viewHeight = 90;
var sectionId = 'dynsection-2';
</script>
<script type="application/ecmascript" xlink:href="../../svg.min.js"/>
<svg id="graph" class="graph">
<g id="viewport">
<title>GalacticShrine.UI.Terminal.ThemeLumineux.ThemeLumineux</title>
<!-- Node1 -->
<g id="Node000001" class="node">
<title>Node1</title>
<g id="a_Node000001"><a xlink:title="[FR] Constructeur du thème lumineux. Initialise et configure les couleurs et composants....">
<polygon fill="#999999" stroke="#666666" points="163,-57 0,-57 0,-25 163,-25 163,-57"/>
<text text-anchor="start" x="8" y="-43.5" font-family="Helvetica,sans-Serif" font-size="10.00">GalacticShrine.UI.Terminal.</text>
<text text-anchor="middle" x="81.5" y="-31.5" font-family="Helvetica,sans-Serif" font-size="10.00">ThemeLumineux.ThemeLumineux</text>
</a>
</g>
</g>
<!-- Node2 -->
<g id="Node000002" class="node">
<title>Node2</title>
<g id="a_Node000002"><a xlink:href="../../df/d96/class_galactic_shrine_1_1_u_i_1_1_terminal_1_1_theme_lumineux.html#a30d4193d0b1fcc9964b8f165f04f38e3" target="_top" xlink:title="[FR] Configure les différents composants (textes, fonds) avec des couleurs claires....">
<polygon fill="white" stroke="#666666" points="389.75,-82 199,-82 199,-50 389.75,-50 389.75,-82"/>
<text text-anchor="start" x="207" y="-68.5" font-family="Helvetica,sans-Serif" font-size="10.00">GalacticShrine.UI.Terminal.</text>
<text text-anchor="middle" x="294.38" y="-56.5" font-family="Helvetica,sans-Serif" font-size="10.00">ThemeLumineux.DefinirLesComposants</text>
</a>
</g>
</g>
<!-- Node1&#45;&gt;Node2 -->
<g id="edge1_Node000001_Node000002" class="edge">
<title>Node1&#45;&gt;Node2</title>
<g id="a_edge1_Node000001_Node000002"><a xlink:title=" ">
<path fill="none" stroke="#63b8ff" d="M163.43,-50.59C171.24,-51.52 179.25,-52.47 187.26,-53.42"/>
<polygon fill="#63b8ff" stroke="#63b8ff" points="186.72,-56.88 197.07,-54.58 187.55,-49.93 186.72,-56.88"/>
</a>
</g>
</g>
<!-- Node4 -->
<g id="Node000004" class="node">
<title>Node4</title>
<g id="a_Node000004"><a xlink:href="../../df/d96/class_galactic_shrine_1_1_u_i_1_1_terminal_1_1_theme_lumineux.html#a6c1835520fe4de471bc0f4df2358713f" target="_top" xlink:title="[FR] Définit les couleurs principales du thème lumineux, soit par défaut console, soit en clair....">
<polygon fill="white" stroke="#666666" points="381.5,-32 207.25,-32 207.25,0 381.5,0 381.5,-32"/>
<text text-anchor="start" x="215.25" y="-18.5" font-family="Helvetica,sans-Serif" font-size="10.00">GalacticShrine.UI.Terminal.</text>
<text text-anchor="middle" x="294.38" y="-6.5" font-family="Helvetica,sans-Serif" font-size="10.00">ThemeLumineux.DefinirLesCouleurs</text>
</a>
</g>
</g>
<!-- Node1&#45;&gt;Node4 -->
<g id="edge3_Node000001_Node000004" class="edge">
<title>Node1&#45;&gt;Node4</title>
<g id="a_edge3_Node000001_Node000004"><a xlink:title=" ">
<path fill="none" stroke="#63b8ff" d="M163.43,-31.41C174.03,-30.15 184.98,-28.85 195.82,-27.56"/>
<polygon fill="#63b8ff" stroke="#63b8ff" points="196.04,-31.06 205.56,-26.41 195.22,-24.11 196.04,-31.06"/>
</a>
</g>
</g>
<!-- Node3 -->
<g id="Node000003" class="node">
<title>Node3</title>
<g id="a_Node000003"><a xlink:href="../../d4/dd5/class_galactic_shrine_1_1_u_i_1_1_terminal_1_1_theme_params.html#aa34e36adfde77fb1d09783d65926c5cc" target="_top" xlink:title="[FR] Crée et retourne un objet Couleur en tenant compte d&#39;éventuelles couleurs de fallback....">
<polygon fill="white" stroke="#666666" points="574.5,-82 427.25,-82 427.25,-50 574.5,-50 574.5,-82"/>
<text text-anchor="start" x="435.25" y="-68.5" font-family="Helvetica,sans-Serif" font-size="10.00">GalacticShrine.UI.Terminal.</text>
<text text-anchor="middle" x="500.88" y="-56.5" font-family="Helvetica,sans-Serif" font-size="10.00">ThemeParams.AjouterCouleur</text>
</a>
</g>
</g>
<!-- Node2&#45;&gt;Node3 -->
<g id="edge2_Node000002_Node000003" class="edge">
<title>Node2&#45;&gt;Node3</title>
<g id="a_edge2_Node000002_Node000003"><a xlink:title=" ">
<path fill="none" stroke="#63b8ff" d="M390.14,-66C398.62,-66 407.16,-66 415.54,-66"/>
<polygon fill="#63b8ff" stroke="#63b8ff" points="415.33,-69.5 425.33,-66 415.33,-62.5 415.33,-69.5"/>
</a>
</g>
</g>
<!-- Node5 -->
<g id="Node000005" class="node">
<title>Node5</title>
<g id="a_Node000005"><a xlink:href="../../d4/dd5/class_galactic_shrine_1_1_u_i_1_1_terminal_1_1_theme_params.html#aff504db1be705b7e839ef8e02b1ab71f" target="_top" xlink:title="[FR] Rétablit la couleur par défaut de la console et met à jour ConsoleArrierePlan / ConsolePremierPl...">
<polygon fill="white" stroke="#666666" points="576,-32 425.75,-32 425.75,0 576,0 576,-32"/>
<text text-anchor="start" x="433.75" y="-18.5" font-family="Helvetica,sans-Serif" font-size="10.00">GalacticShrine.UI.Terminal.</text>
<text text-anchor="middle" x="500.88" y="-6.5" font-family="Helvetica,sans-Serif" font-size="10.00">ThemeParams.RetablirCouleur</text>
</a>
</g>
</g>
<!-- Node4&#45;&gt;Node5 -->
<g id="edge4_Node000004_Node000005" class="edge">
<title>Node4&#45;&gt;Node5</title>
<g id="a_edge4_Node000004_Node000005"><a xlink:title=" ">
<path fill="none" stroke="#63b8ff" d="M381.8,-16C392.45,-16 403.33,-16 413.97,-16"/>
<polygon fill="#63b8ff" stroke="#63b8ff" points="413.89,-19.5 423.89,-16 413.89,-12.5 413.89,-19.5"/>
</a>
</g>
</g>
</g>
</svg>

<g id="navigator" transform="translate(0 0)" fill="#404254">
  <rect fill="#f2f5e9" fill-opacity="0.5" stroke="#606060" stroke-width=".5" x="0" y="0" width="60" height="60"/>
  <use id="zoomplus" xlink:href="#zoomPlus" x="17" y="9" onmousedown="handleZoom(evt,'in')"/>
  <use id="zoomminus" xlink:href="#zoomMin" x="42" y="9" onmousedown="handleZoom(evt,'out')"/>
  <use id="reset" xlink:href="#resetDef" x="30" y="36" onmousedown="handleReset()"/>
   <use id="arrowup" xlink:href="#arrowUp" x="0" y="0" onmousedown="handlePan(0,-1)"/>
  <use id="arrowright" xlink:href="#arrowRight" x="0" y="0" onmousedown="handlePan(1,0)"/>
  <use id="arrowdown" xlink:href="#arrowDown" x="0" y="0" onmousedown="handlePan(0,1)"/>
  <use id="arrowleft" xlink:href="#arrowLeft" x="0" y="0" onmousedown="handlePan(-1,0)"/>
</g>
<svg viewBox="0 0 15 15" width="100%" height="30px" preserveAspectRatio="xMaxYMin meet">
 <g id="arrow_out" transform="scale(0.3 0.3)">
  <a xlink:href="class_galactic_shrine_1_1_u_i_1_1_terminal_1_1_theme_lumineux_af0fce102a9735023fe98f2d6da78ed2d_cgraph_org.svg" target="_base">
   <rect id="button" ry="5" rx="5" y="6" x="6" height="38" width="38"
        fill="#f2f5e9" fill-opacity="0.5" stroke="#606060" stroke-width="1.0"/>
   <path id="arrow"
     d="M 11.500037,31.436501 C 11.940474,20.09759 22.043105,11.32322 32.158766,21.979434 L 37.068811,17.246167 C 37.068811,17.246167 37.088388,32 37.088388,32 L 22.160133,31.978069 C 22.160133,31.978069 26.997745,27.140456 26.997745,27.140456 C 18.528582,18.264221 13.291696,25.230495 11.500037,31.436501 z"
     style="fill:#404040;"/>
  </a>
 </g>
</svg>

<style type='text/css'>
<![CDATA[
[data-mouse-over-selected='false'] { opacity: 0.7; }
[data-mouse-over-selected='true']  { opacity: 1.0; }
]]>
</style>
<script type="application/ecmascript"><![CDATA[
document.addEventListener('DOMContentLoaded', (event) => {
  highlightEdges();
  highlightAdjacentNodes();
});
]]></script>
</svg>
