<?xml version="1.0" encoding="UTF-8" standalone="no"?>
<!DOCTYPE svg PUBLIC "-//W3C//DTD SVG 1.1//EN"
 "http://www.w3.org/Graphics/SVG/1.1/DTD/svg11.dtd">
<!-- Generated by graphviz version 12.2.0 (20241103.1931)
 -->
<!-- Title: GalacticShrine.UI.Terminal.ThemeLumineux.ThemeLumineux Pages: 1 -->
<svg width="584pt" height="90pt"
 viewBox="0.00 0.00 584.00 90.00" xmlns="http://www.w3.org/2000/svg" xmlns:xlink="http://www.w3.org/1999/xlink">
<g id="graph0" class="graph" transform="scale(1 1) rotate(0) translate(4 86)">
<title>GalacticShrine.UI.Terminal.ThemeLumineux.ThemeLumineux</title>
<!-- Node1 -->
<g id="Node000001" class="node">
<title>Node1</title>
<g id="a_Node000001"><a xlink:title="[FR] Constructeur du thème lumineux. Initialise et configure les couleurs et composants....">
<polygon fill="#999999" stroke="#666666" points="163,-57 0,-57 0,-25 163,-25 163,-57"/>
<text text-anchor="start" x="8" y="-43.5" font-family="Helvetica,sans-Serif" font-size="10.00">GalacticShrine.UI.Terminal.</text>
<text text-anchor="middle" x="81.5" y="-31.5" font-family="Helvetica,sans-Serif" font-size="10.00">ThemeLumineux.ThemeLumineux</text>
</a>
</g>
</g>
<!-- Node2 -->
<g id="Node000002" class="node">
<title>Node2</title>
<g id="a_Node000002"><a xlink:href="../../df/d96/class_galactic_shrine_1_1_u_i_1_1_terminal_1_1_theme_lumineux.html#a30d4193d0b1fcc9964b8f165f04f38e3" target="_top" xlink:title="[FR] Configure les différents composants (textes, fonds) avec des couleurs claires....">
<polygon fill="white" stroke="#666666" points="389.75,-82 199,-82 199,-50 389.75,-50 389.75,-82"/>
<text text-anchor="start" x="207" y="-68.5" font-family="Helvetica,sans-Serif" font-size="10.00">GalacticShrine.UI.Terminal.</text>
<text text-anchor="middle" x="294.38" y="-56.5" font-family="Helvetica,sans-Serif" font-size="10.00">ThemeLumineux.DefinirLesComposants</text>
</a>
</g>
</g>
<!-- Node1&#45;&gt;Node2 -->
<g id="edge1_Node000001_Node000002" class="edge">
<title>Node1&#45;&gt;Node2</title>
<g id="a_edge1_Node000001_Node000002"><a xlink:title=" ">
<path fill="none" stroke="#63b8ff" d="M163.43,-50.59C171.24,-51.52 179.25,-52.47 187.26,-53.42"/>
<polygon fill="#63b8ff" stroke="#63b8ff" points="186.72,-56.88 197.07,-54.58 187.55,-49.93 186.72,-56.88"/>
</a>
</g>
</g>
<!-- Node4 -->
<g id="Node000004" class="node">
<title>Node4</title>
<g id="a_Node000004"><a xlink:href="../../df/d96/class_galactic_shrine_1_1_u_i_1_1_terminal_1_1_theme_lumineux.html#a6c1835520fe4de471bc0f4df2358713f" target="_top" xlink:title="[FR] Définit les couleurs principales du thème lumineux, soit par défaut console, soit en clair....">
<polygon fill="white" stroke="#666666" points="381.5,-32 207.25,-32 207.25,0 381.5,0 381.5,-32"/>
<text text-anchor="start" x="215.25" y="-18.5" font-family="Helvetica,sans-Serif" font-size="10.00">GalacticShrine.UI.Terminal.</text>
<text text-anchor="middle" x="294.38" y="-6.5" font-family="Helvetica,sans-Serif" font-size="10.00">ThemeLumineux.DefinirLesCouleurs</text>
</a>
</g>
</g>
<!-- Node1&#45;&gt;Node4 -->
<g id="edge3_Node000001_Node000004" class="edge">
<title>Node1&#45;&gt;Node4</title>
<g id="a_edge3_Node000001_Node000004"><a xlink:title=" ">
<path fill="none" stroke="#63b8ff" d="M163.43,-31.41C174.03,-30.15 184.98,-28.85 195.82,-27.56"/>
<polygon fill="#63b8ff" stroke="#63b8ff" points="196.04,-31.06 205.56,-26.41 195.22,-24.11 196.04,-31.06"/>
</a>
</g>
</g>
<!-- Node3 -->
<g id="Node000003" class="node">
<title>Node3</title>
<g id="a_Node000003"><a xlink:href="../../d4/dd5/class_galactic_shrine_1_1_u_i_1_1_terminal_1_1_theme_params.html#aa34e36adfde77fb1d09783d65926c5cc" target="_top" xlink:title="[FR] Crée et retourne un objet Couleur en tenant compte d&#39;éventuelles couleurs de fallback....">
<polygon fill="white" stroke="#666666" points="574.5,-82 427.25,-82 427.25,-50 574.5,-50 574.5,-82"/>
<text text-anchor="start" x="435.25" y="-68.5" font-family="Helvetica,sans-Serif" font-size="10.00">GalacticShrine.UI.Terminal.</text>
<text text-anchor="middle" x="500.88" y="-56.5" font-family="Helvetica,sans-Serif" font-size="10.00">ThemeParams.AjouterCouleur</text>
</a>
</g>
</g>
<!-- Node2&#45;&gt;Node3 -->
<g id="edge2_Node000002_Node000003" class="edge">
<title>Node2&#45;&gt;Node3</title>
<g id="a_edge2_Node000002_Node000003"><a xlink:title=" ">
<path fill="none" stroke="#63b8ff" d="M390.14,-66C398.62,-66 407.16,-66 415.54,-66"/>
<polygon fill="#63b8ff" stroke="#63b8ff" points="415.33,-69.5 425.33,-66 415.33,-62.5 415.33,-69.5"/>
</a>
</g>
</g>
<!-- Node5 -->
<g id="Node000005" class="node">
<title>Node5</title>
<g id="a_Node000005"><a xlink:href="../../d4/dd5/class_galactic_shrine_1_1_u_i_1_1_terminal_1_1_theme_params.html#aff504db1be705b7e839ef8e02b1ab71f" target="_top" xlink:title="[FR] Rétablit la couleur par défaut de la console et met à jour ConsoleArrierePlan / ConsolePremierPl...">
<polygon fill="white" stroke="#666666" points="576,-32 425.75,-32 425.75,0 576,0 576,-32"/>
<text text-anchor="start" x="433.75" y="-18.5" font-family="Helvetica,sans-Serif" font-size="10.00">GalacticShrine.UI.Terminal.</text>
<text text-anchor="middle" x="500.88" y="-6.5" font-family="Helvetica,sans-Serif" font-size="10.00">ThemeParams.RetablirCouleur</text>
</a>
</g>
</g>
<!-- Node4&#45;&gt;Node5 -->
<g id="edge4_Node000004_Node000005" class="edge">
<title>Node4&#45;&gt;Node5</title>
<g id="a_edge4_Node000004_Node000005"><a xlink:title=" ">
<path fill="none" stroke="#63b8ff" d="M381.8,-16C392.45,-16 403.33,-16 413.97,-16"/>
<polygon fill="#63b8ff" stroke="#63b8ff" points="413.89,-19.5 423.89,-16 413.89,-12.5 413.89,-19.5"/>
</a>
</g>
</g>
</g>
</svg>
