<?xml version="1.0" encoding="UTF-8" standalone="no"?>
<!DOCTYPE svg PUBLIC "-//W3C//DTD SVG 1.1//EN"
 "http://www.w3.org/Graphics/SVG/1.1/DTD/svg11.dtd">
<!-- Generated by graphviz version 12.2.0 (20241103.1931)
 -->
<!-- Title: GalacticShrine.Configuration.DonneesIni.DonneesIni Pages: 1 -->
<svg width="404pt" height="152pt"
 viewBox="0.00 0.00 403.75 152.00" xmlns="http://www.w3.org/2000/svg" xmlns:xlink="http://www.w3.org/1999/xlink">
<g id="graph0" class="graph" transform="scale(1 1) rotate(0) translate(4 148)">
<title>GalacticShrine.Configuration.DonneesIni.DonneesIni</title>
<!-- Node1 -->
<g id="Node000001" class="node">
<title>Node1</title>
<g id="a_Node000001"><a xlink:title="[FR] Initialise une instance DonneesIni. &#160;[EN] Initializes an IniData instance.">
<polygon fill="#999999" stroke="#666666" points="395.75,-88 252.25,-88 252.25,-56 395.75,-56 395.75,-88"/>
<text text-anchor="start" x="260.25" y="-74.5" font-family="Helvetica,sans-Serif" font-size="10.00">GalacticShrine.Configuration.</text>
<text text-anchor="middle" x="324" y="-62.5" font-family="Helvetica,sans-Serif" font-size="10.00">DonneesIni.DonneesIni</text>
</a>
</g>
</g>
<!-- Node2 -->
<g id="Node000002" class="node">
<title>Node2</title>
<g id="a_Node000002"><a xlink:href="../../d2/d45/class_galactic_shrine_1_1_configuration_1_1_donnees_ini.html#a9642ba6cb2fcaa90b88f939c12ade18c" target="_top" xlink:title="[FR] Initialise une instance DonneesIni. &#160;[EN] Initializes an IniData instance.">
<polygon fill="white" stroke="#666666" points="179.88,-144 36.38,-144 36.38,-112 179.88,-112 179.88,-144"/>
<text text-anchor="start" x="44.38" y="-130.5" font-family="Helvetica,sans-Serif" font-size="10.00">GalacticShrine.Configuration.</text>
<text text-anchor="middle" x="108.12" y="-118.5" font-family="Helvetica,sans-Serif" font-size="10.00">DonneesIni.DonneesIni</text>
</a>
</g>
</g>
<!-- Node1&#45;&gt;Node2 -->
<g id="edge1_Node000001_Node000002" class="edge">
<title>Node1&#45;&gt;Node2</title>
<g id="a_edge1_Node000001_Node000002"><a xlink:title=" ">
<path fill="none" stroke="#63b8ff" d="M257.55,-91.6C243.94,-95.51 229.66,-99.49 216.25,-103 204.61,-106.05 192.21,-109.11 180.13,-111.99"/>
<polygon fill="#63b8ff" stroke="#63b8ff" points="258.21,-95.06 266.85,-88.91 256.27,-88.33 258.21,-95.06"/>
</a>
</g>
</g>
<!-- Node3 -->
<g id="Node000003" class="node">
<title>Node3</title>
<g id="a_Node000003"><a xlink:href="../../df/da5/class_galactic_shrine_1_1_modele_1_1_configuration_1_1_ini_1_1_donnees_ini_insensible_a___la_casse.html#ad080218198a71aaf88312025d16a6add" target="_top" xlink:title="[FR] Copie une instance de la classe GalacticShrine.Modele.Configuration.Ini.DonneesIniInsensibleA_La...">
<polygon fill="white" stroke="#666666" points="216.25,-94 0,-94 0,-50 216.25,-50 216.25,-94"/>
<text text-anchor="start" x="8" y="-80.5" font-family="Helvetica,sans-Serif" font-size="10.00">GalacticShrine.Modele.Configuration.</text>
<text text-anchor="start" x="8" y="-68.5" font-family="Helvetica,sans-Serif" font-size="10.00">Ini.DonneesIniInsensibleA_LaCasse.Donnees</text>
<text text-anchor="middle" x="108.12" y="-56.5" font-family="Helvetica,sans-Serif" font-size="10.00">IniInsensibleA_LaCasse</text>
</a>
</g>
</g>
<!-- Node1&#45;&gt;Node3 -->
<g id="edge2_Node000001_Node000003" class="edge">
<title>Node1&#45;&gt;Node3</title>
<g id="a_edge2_Node000001_Node000003"><a xlink:title=" ">
<path fill="none" stroke="#63b8ff" d="M240.48,-72C232.67,-72 224.67,-72 216.67,-72"/>
<polygon fill="#63b8ff" stroke="#63b8ff" points="240.27,-75.5 250.27,-72 240.27,-68.5 240.27,-75.5"/>
</a>
</g>
</g>
<!-- Node4 -->
<g id="Node000004" class="node">
<title>Node4</title>
<g id="a_Node000004"><a xlink:href="../../d2/d45/class_galactic_shrine_1_1_configuration_1_1_donnees_ini.html#addd473fd59f8f71989ab837ac8064aba" target="_top" xlink:title="[FR] Fusionne les autres iniData dans celle&#45;ci en écrasant les valeurs existantes....">
<polygon fill="white" stroke="#666666" points="179.88,-32 36.38,-32 36.38,0 179.88,0 179.88,-32"/>
<text text-anchor="start" x="44.38" y="-18.5" font-family="Helvetica,sans-Serif" font-size="10.00">GalacticShrine.Configuration.</text>
<text text-anchor="middle" x="108.12" y="-6.5" font-family="Helvetica,sans-Serif" font-size="10.00">DonneesIni.Fusionner</text>
</a>
</g>
</g>
<!-- Node1&#45;&gt;Node4 -->
<g id="edge3_Node000001_Node000004" class="edge">
<title>Node1&#45;&gt;Node4</title>
<g id="a_edge3_Node000001_Node000004"><a xlink:title=" ">
<path fill="none" stroke="#63b8ff" d="M257.55,-52.4C243.94,-48.49 229.66,-44.51 216.25,-41 204.61,-37.95 192.21,-34.89 180.13,-32.01"/>
<polygon fill="#63b8ff" stroke="#63b8ff" points="256.27,-55.67 266.85,-55.09 258.21,-48.94 256.27,-55.67"/>
</a>
</g>
</g>
</g>
</svg>
