<?xml version="1.0" encoding="UTF-8" standalone="no"?>
<!DOCTYPE svg PUBLIC "-//W3C//DTD SVG 1.1//EN"
 "http://www.w3.org/Graphics/SVG/1.1/DTD/svg11.dtd">
<!-- Generated by graphviz version 12.2.0 (20241103.1931)
 -->
<!-- Title: GalacticShrine.Configuration.Ini.SectionDeProcessus Pages: 1 -->
<!--zoomable 367 -->

<svg id="main" version="1.1" xmlns="http://www.w3.org/2000/svg" xmlns:xlink="http://www.w3.org/1999/xlink" xml:space="preserve" onload="init(evt)">

<style type="text/css"><![CDATA[
.node, .edge {opacity: 0.7;}
.node.selected, .edge.selected {opacity: 1;}
.edge:hover path { stroke: red; }
.edge:hover polygon { stroke: red; fill: red; }
]]></style>

<defs>
  <circle id="rim" cx="0" cy="0" r="7"/>
  <circle id="rim2" cx="0" cy="0" r="3.5"/>
  <g id="zoomPlus">
    <use xlink:href="#rim" fill="#404040"><set attributeName="fill" to="#808080" begin="zoomplus.mouseover" end="zoomplus.mouseout"/></use>
    <path d="M-4,0h8M0,-4v8" fill="none" stroke="white" stroke-width="1.5" pointer-events="none"/>
  </g>
  <g id="zoomMin">
    <use xlink:href="#rim" fill="#404040"><set attributeName="fill" to="#808080" begin="zoomminus.mouseover" end="zoomminus.mouseout"/></use>
    <path d="M-4,0h8" fill="none" stroke="white" stroke-width="1.5" pointer-events="none"/>
  </g>
  <g id="arrowUp" transform="translate(30 24)">
    <use xlink:href="#rim"/>
    <path pointer-events="none" fill="none" stroke="white" stroke-width="1.5" d="M0,-3.0v7 M-2.5,-0.5L0,-3.0L2.5,-0.5"/>
  </g>
  <g id="arrowRight" transform="rotate(90) translate(36 -43)">
    <use xlink:href="#rim"/>
    <path pointer-events="none" fill="none" stroke="white" stroke-width="1.5" d="M0,-3.0v7 M-2.5,-0.5L0,-3.0L2.5,-0.5"/>
  </g>
  <g id="arrowDown" transform="rotate(180) translate(-30 -48)">
    <use xlink:href="#rim"/>
    <path pointer-events="none" fill="none" stroke="white" stroke-width="1.5" d="M0,-3.0v7 M-2.5,-0.5L0,-3.0L2.5,-0.5"/>
  </g>
  <g id="arrowLeft" transform="rotate(270) translate(-36 17)">
    <use xlink:href="#rim"/>
    <path pointer-events="none" fill="none" stroke="white" stroke-width="1.5" d="M0,-3.0v7 M-2.5,-0.5L0,-3.0L2.5,-0.5"/>
  </g>
  <g id="resetDef">
    <use xlink:href="#rim2" fill="#404040"><set attributeName="fill" to="#808080" begin="reset.mouseover" end="reset.mouseout"/></use>
  </g>
</defs>
<script type="application/ecmascript">
var viewWidth = 869;
var viewHeight = 367;
var sectionId = 'dynsection-11';
</script>
<script type="application/ecmascript" xlink:href="../../svg.min.js"/>
<svg id="graph" class="graph">
<g id="viewport">
<title>GalacticShrine.Configuration.Ini.SectionDeProcessus</title>
<!-- Node1 -->
<g id="Node000001" class="node">
<title>Node1</title>
<g id="a_Node000001"><a xlink:title="[FR] Traite une chaîne de caractères contenant une section ini. &#160;[EN] Processes a string containing a...">
<polygon fill="#999999" stroke="#666666" points="143.5,-200 0,-200 0,-168 143.5,-168 143.5,-200"/>
<text text-anchor="start" x="8" y="-186.5" font-family="Helvetica,sans-Serif" font-size="10.00">GalacticShrine.Configuration.</text>
<text text-anchor="middle" x="71.75" y="-174.5" font-family="Helvetica,sans-Serif" font-size="10.00">Ini.SectionDeProcessus</text>
</a>
</g>
</g>
<!-- Node2 -->
<g id="Node000002" class="node">
<title>Node2</title>
<g id="a_Node000002"><a xlink:href="../../d2/dc5/class_galactic_shrine_1_1_modele_1_1_configuration_1_1_ini_1_1_section_collection.html#ab439f8ed108317714dae058d645f56c0" target="_top" xlink:title="[FR] Crée une nouvelle section avec des données vides. &#160;[EN] Creates a new section with empty data.">
<polygon fill="white" stroke="#666666" points="375.5,-318 197.5,-318 197.5,-286 375.5,-286 375.5,-318"/>
<text text-anchor="start" x="205.5" y="-304.5" font-family="Helvetica,sans-Serif" font-size="10.00">GalacticShrine.Modele.Configuration.</text>
<text text-anchor="middle" x="286.5" y="-292.5" font-family="Helvetica,sans-Serif" font-size="10.00">Ini.SectionCollection.Ajouter</text>
</a>
</g>
</g>
<!-- Node1&#45;&gt;Node2 -->
<g id="edge1_Node000001_Node000002" class="edge">
<title>Node1&#45;&gt;Node2</title>
<g id="a_edge1_Node000001_Node000002"><a xlink:title=" ">
<path fill="none" stroke="#63b8ff" d="M86.55,-200.14C105.4,-221.11 141.23,-257.36 179.5,-277 182.56,-278.57 185.71,-280.04 188.94,-281.42"/>
<polygon fill="#63b8ff" stroke="#63b8ff" points="187.45,-284.59 198.03,-284.98 189.99,-278.08 187.45,-284.59"/>
</a>
</g>
</g>
<!-- Node3 -->
<g id="Node000003" class="node">
<title>Node3</title>
<g id="a_Node000003"><a xlink:href="../../d2/dc5/class_galactic_shrine_1_1_modele_1_1_configuration_1_1_ini_1_1_section_collection.html#a059d00b51e709988710f540717083478" target="_top" xlink:title="[FR] Permet de savoir si une section portant le nom spécifié existe dans la collection....">
<polygon fill="white" stroke="#666666" points="623.25,-325 445.25,-325 445.25,-293 623.25,-293 623.25,-325"/>
<text text-anchor="start" x="453.25" y="-311.5" font-family="Helvetica,sans-Serif" font-size="10.00">GalacticShrine.Modele.Configuration.</text>
<text text-anchor="middle" x="534.25" y="-299.5" font-family="Helvetica,sans-Serif" font-size="10.00">Ini.SectionCollection.Contient</text>
</a>
</g>
</g>
<!-- Node1&#45;&gt;Node3 -->
<g id="edge8_Node000001_Node000003" class="edge">
<title>Node1&#45;&gt;Node3</title>
<g id="a_edge8_Node000001_Node000003"><a xlink:title=" ">
<path fill="none" stroke="#63b8ff" d="M79.05,-200.36C92.17,-231.83 125.77,-300.06 179.5,-327 274.27,-374.52 401.83,-349.87 475.03,-328.71"/>
<polygon fill="#63b8ff" stroke="#63b8ff" points="475.83,-332.12 484.42,-325.92 473.83,-325.41 475.83,-332.12"/>
</a>
</g>
</g>
<!-- Node6 -->
<g id="Node000006" class="node">
<title>Node6</title>
<g id="a_Node000006"><a xlink:href="../../dd/da8/class_galactic_shrine_1_1_configuration_1_1_analyseur_1_1_tampon_de_chaine.html#aa1784d12ea6aefb26d219e9010a90653" target="_top" xlink:title=" ">
<polygon fill="white" stroke="#666666" points="388.62,-206 184.38,-206 184.38,-162 388.62,-162 388.62,-206"/>
<text text-anchor="start" x="192.38" y="-192.5" font-family="Helvetica,sans-Serif" font-size="10.00">GalacticShrine.Configuration.</text>
<text text-anchor="start" x="192.38" y="-180.5" font-family="Helvetica,sans-Serif" font-size="10.00">Analyseur.TamponDeChaine.Changements</text>
<text text-anchor="middle" x="286.5" y="-168.5" font-family="Helvetica,sans-Serif" font-size="10.00">DansLesRejets</text>
</a>
</g>
</g>
<!-- Node1&#45;&gt;Node6 -->
<g id="edge5_Node000001_Node000006" class="edge">
<title>Node1&#45;&gt;Node6</title>
<g id="a_edge5_Node000001_Node000006"><a xlink:title=" ">
<path fill="none" stroke="#63b8ff" d="M143.89,-184C153.18,-184 162.87,-184 172.64,-184"/>
<polygon fill="#63b8ff" stroke="#63b8ff" points="172.61,-187.5 182.61,-184 172.61,-180.5 172.61,-187.5"/>
</a>
</g>
</g>
<!-- Node9 -->
<g id="Node000009" class="node">
<title>Node9</title>
<g id="a_Node000009"><a xlink:href="../../dd/da8/class_galactic_shrine_1_1_configuration_1_1_analyseur_1_1_tampon_de_chaine.html#a5ff6a33ce5c9c8b1c634b3242304a1b7" target="_top" xlink:title=" ">
<polygon fill="white" stroke="#666666" points="378.12,-32 194.88,-32 194.88,0 378.12,0 378.12,-32"/>
<text text-anchor="start" x="202.88" y="-18.5" font-family="Helvetica,sans-Serif" font-size="10.00">GalacticShrine.Configuration.</text>
<text text-anchor="middle" x="286.5" y="-6.5" font-family="Helvetica,sans-Serif" font-size="10.00">Analyseur.TamponDeChaine.Garniture</text>
</a>
</g>
</g>
<!-- Node1&#45;&gt;Node9 -->
<g id="edge9_Node000001_Node000009" class="edge">
<title>Node1&#45;&gt;Node9</title>
<g id="a_edge9_Node000001_Node000009"><a xlink:title=" ">
<path fill="none" stroke="#63b8ff" d="M80.1,-167.77C94.58,-137.75 129.76,-73.63 179.5,-41 181.37,-39.77 183.29,-38.61 185.25,-37.5"/>
<polygon fill="#63b8ff" stroke="#63b8ff" points="186.68,-40.7 194.06,-33.1 183.55,-34.44 186.68,-40.7"/>
</a>
</g>
</g>
<!-- Node11 -->
<g id="Node000011" class="node">
<title>Node11</title>
<g id="a_Node000011"><a xlink:href="../../dd/da8/class_galactic_shrine_1_1_configuration_1_1_analyseur_1_1_tampon_de_chaine.html#ad657925f38944e77f8ac413d45a9fe21" target="_top" xlink:title=" ">
<polygon fill="white" stroke="#666666" points="393.5,-268 179.5,-268 179.5,-224 393.5,-224 393.5,-268"/>
<text text-anchor="start" x="187.5" y="-254.5" font-family="Helvetica,sans-Serif" font-size="10.00">GalacticShrine.Configuration.</text>
<text text-anchor="start" x="187.5" y="-242.5" font-family="Helvetica,sans-Serif" font-size="10.00">Analyseur.TamponDeChaine.Redimensionner</text>
<text text-anchor="middle" x="286.5" y="-230.5" font-family="Helvetica,sans-Serif" font-size="10.00">EntreLesIndex</text>
</a>
</g>
</g>
<!-- Node1&#45;&gt;Node11 -->
<g id="edge11_Node000001_Node000011" class="edge">
<title>Node1&#45;&gt;Node11</title>
<g id="a_edge11_Node000001_Node000011"><a xlink:title=" ">
<path fill="none" stroke="#63b8ff" d="M129.2,-200.45C150.14,-206.55 174.41,-213.63 197.49,-220.35"/>
<polygon fill="#63b8ff" stroke="#63b8ff" points="196.32,-223.66 206.9,-223.09 198.28,-216.94 196.32,-223.66"/>
</a>
</g>
</g>
<!-- Node12 -->
<g id="Node000012" class="node">
<title>Node12</title>
<g id="a_Node000012"><a xlink:href="../../dd/da8/class_galactic_shrine_1_1_configuration_1_1_analyseur_1_1_tampon_de_chaine.html#ac0a94fa81730c6f5fde7f2f842200620" target="_top" xlink:title=" ">
<polygon fill="white" stroke="#666666" points="376.25,-82 196.75,-82 196.75,-50 376.25,-50 376.25,-82"/>
<text text-anchor="start" x="204.75" y="-68.5" font-family="Helvetica,sans-Serif" font-size="10.00">GalacticShrine.Configuration.</text>
<text text-anchor="middle" x="286.5" y="-56.5" font-family="Helvetica,sans-Serif" font-size="10.00">Analyseur.TamponDeChaine.ToString</text>
</a>
</g>
</g>
<!-- Node1&#45;&gt;Node12 -->
<g id="edge13_Node000001_Node000012" class="edge">
<title>Node1&#45;&gt;Node12</title>
<g id="a_edge13_Node000001_Node000012"><a xlink:title=" ">
<path fill="none" stroke="#63b8ff" d="M86.55,-167.86C105.4,-146.89 141.23,-110.64 179.5,-91 182.56,-89.43 185.71,-87.96 188.94,-86.58"/>
<polygon fill="#63b8ff" stroke="#63b8ff" points="189.99,-89.92 198.03,-83.02 187.45,-83.41 189.99,-89.92"/>
</a>
</g>
</g>
<!-- Node13 -->
<g id="Node000013" class="node">
<title>Node13</title>
<g id="a_Node000013"><a xlink:href="../../dd/da8/class_galactic_shrine_1_1_configuration_1_1_analyseur_1_1_tampon_de_chaine.html#afa88b78cbdf391a2bdb3128d611760b6" target="_top" xlink:title=" ">
<polygon fill="white" stroke="#666666" points="374.75,-144 198.25,-144 198.25,-100 374.75,-100 374.75,-144"/>
<text text-anchor="start" x="206.25" y="-130.5" font-family="Helvetica,sans-Serif" font-size="10.00">GalacticShrine.Configuration.</text>
<text text-anchor="start" x="206.25" y="-118.5" font-family="Helvetica,sans-Serif" font-size="10.00">Analyseur.TamponDeChaine.Trouver</text>
<text text-anchor="middle" x="286.5" y="-106.5" font-family="Helvetica,sans-Serif" font-size="10.00">SousChaine</text>
</a>
</g>
</g>
<!-- Node1&#45;&gt;Node13 -->
<g id="edge14_Node000001_Node000013" class="edge">
<title>Node1&#45;&gt;Node13</title>
<g id="a_edge14_Node000001_Node000013"><a xlink:title=" ">
<path fill="none" stroke="#63b8ff" d="M129.2,-167.55C150.14,-161.45 174.41,-154.37 197.49,-147.65"/>
<polygon fill="#63b8ff" stroke="#63b8ff" points="198.28,-151.06 206.9,-144.91 196.32,-144.34 198.28,-151.06"/>
</a>
</g>
</g>
<!-- Node2&#45;&gt;Node3 -->
<g id="edge2_Node000002_Node000003" class="edge">
<title>Node2&#45;&gt;Node3</title>
<g id="a_edge2_Node000002_Node000003"><a xlink:title=" ">
<path fill="none" stroke="#63b8ff" d="M375.87,-304.52C394.54,-305.05 414.35,-305.61 433.41,-306.16"/>
<polygon fill="#63b8ff" stroke="#63b8ff" points="433.23,-309.65 443.32,-306.44 433.43,-302.66 433.23,-309.65"/>
</a>
</g>
</g>
<!-- Node4 -->
<g id="Node000004" class="node">
<title>Node4</title>
<g id="a_Node000004"><a xlink:href="../../d7/d03/interface_galactic_shrine_1_1_interface_1_1_configuration_1_1_clonable_interface-1-g.html#a105777a718fdc2d14973eecfe9ba182b" target="_top" xlink:title="[FR] Crée un nouvel objet qui est une copie de l&#39;instance actuelle. [EN] Creates a new object that is...">
<polygon fill="white" stroke="#666666" points="844.38,-359 691.12,-359 691.12,-315 844.38,-315 844.38,-359"/>
<text text-anchor="start" x="699.12" y="-345.5" font-family="Helvetica,sans-Serif" font-size="10.00">GalacticShrine.Interface.</text>
<text text-anchor="start" x="699.12" y="-333.5" font-family="Helvetica,sans-Serif" font-size="10.00">Configuration.ClonableInterface</text>
<text text-anchor="middle" x="767.75" y="-321.5" font-family="Helvetica,sans-Serif" font-size="10.00">&#45;1&#45;g.CloneEnProfondeur</text>
</a>
</g>
</g>
<!-- Node3&#45;&gt;Node4 -->
<g id="edge3_Node000003_Node000004" class="edge">
<title>Node3&#45;&gt;Node4</title>
<g id="a_edge3_Node000003_Node000004"><a xlink:title=" ">
<path fill="none" stroke="#63b8ff" d="M623.43,-319.67C641.84,-321.89 661.24,-324.24 679.62,-326.46"/>
<polygon fill="#63b8ff" stroke="#63b8ff" points="679.06,-329.92 689.4,-327.64 679.9,-322.97 679.06,-329.92"/>
</a>
</g>
</g>
<!-- Node5 -->
<g id="Node000005" class="node">
<title>Node5</title>
<g id="a_Node000005"><a xlink:href="../../d2/dc5/class_galactic_shrine_1_1_modele_1_1_configuration_1_1_ini_1_1_section_collection.html#ad60d92d481523dc4e20b4edea9ca9f0e" target="_top" xlink:title="[FR] Initialise une nouvelle instance de la classe GalacticShrine.Modele.Configuration....">
<polygon fill="white" stroke="#666666" points="860.5,-297 675,-297 675,-265 860.5,-265 860.5,-297"/>
<text text-anchor="start" x="683" y="-283.5" font-family="Helvetica,sans-Serif" font-size="10.00">GalacticShrine.Modele.Configuration.</text>
<text text-anchor="middle" x="767.75" y="-271.5" font-family="Helvetica,sans-Serif" font-size="10.00">Ini.SectionCollection.SectionCollection</text>
</a>
</g>
</g>
<!-- Node3&#45;&gt;Node5 -->
<g id="edge4_Node000003_Node000005" class="edge">
<title>Node3&#45;&gt;Node5</title>
<g id="a_edge4_Node000003_Node000005"><a xlink:title=" ">
<path fill="none" stroke="#63b8ff" d="M623.43,-298.33C636.51,-296.75 650.08,-295.11 663.44,-293.5"/>
<polygon fill="#63b8ff" stroke="#63b8ff" points="663.57,-297 673.08,-292.33 662.73,-290.06 663.57,-297"/>
</a>
</g>
</g>
<!-- Node7 -->
<g id="Node000007" class="node">
<title>Node7</title>
<g id="a_Node000007"><a xlink:href="../../da/dc8/struct_galactic_shrine_1_1_configuration_1_1_analyseur_1_1_tampon_de_chaine_1_1_plage.html#a2001d3beece21e14bb82661f749c60ae" target="_top" xlink:title=" ">
<polygon fill="white" stroke="#666666" points="626.25,-167 442.25,-167 442.25,-123 626.25,-123 626.25,-167"/>
<text text-anchor="start" x="450.25" y="-153.5" font-family="Helvetica,sans-Serif" font-size="10.00">GalacticShrine.Configuration.</text>
<text text-anchor="start" x="450.25" y="-141.5" font-family="Helvetica,sans-Serif" font-size="10.00">Analyseur.TamponDeChaine.Plage.De</text>
<text text-anchor="middle" x="534.25" y="-129.5" font-family="Helvetica,sans-Serif" font-size="10.00">L_IndexA_LaTaille</text>
</a>
</g>
</g>
<!-- Node6&#45;&gt;Node7 -->
<g id="edge6_Node000006_Node000007" class="edge">
<title>Node6&#45;&gt;Node7</title>
<g id="a_edge6_Node000006_Node000007"><a xlink:title=" ">
<path fill="none" stroke="#63b8ff" d="M388.87,-167.91C402.75,-165.71 417,-163.45 430.9,-161.24"/>
<polygon fill="#63b8ff" stroke="#63b8ff" points="431.12,-164.75 440.45,-159.73 430.03,-157.84 431.12,-164.75"/>
</a>
</g>
</g>
<!-- Node8 -->
<g id="Node000008" class="node">
<title>Node8</title>
<g id="a_Node000008"><a xlink:href="../../dd/da8/class_galactic_shrine_1_1_configuration_1_1_analyseur_1_1_tampon_de_chaine.html#a3660111c46db3c7f63414eaa29a7f844" target="_top" xlink:title=" ">
<polygon fill="white" stroke="#666666" points="629.62,-260 438.88,-260 438.88,-216 629.62,-216 629.62,-260"/>
<text text-anchor="start" x="446.88" y="-246.5" font-family="Helvetica,sans-Serif" font-size="10.00">GalacticShrine.Configuration.</text>
<text text-anchor="start" x="446.88" y="-234.5" font-family="Helvetica,sans-Serif" font-size="10.00">Analyseur.TamponDeChaine.TamponDe</text>
<text text-anchor="middle" x="534.25" y="-222.5" font-family="Helvetica,sans-Serif" font-size="10.00">Chaine</text>
</a>
</g>
</g>
<!-- Node6&#45;&gt;Node8 -->
<g id="edge7_Node000006_Node000008" class="edge">
<title>Node6&#45;&gt;Node8</title>
<g id="a_edge7_Node000006_Node000008"><a xlink:title=" ">
<path fill="none" stroke="#63b8ff" d="M388.87,-206.28C401.56,-209.06 414.55,-211.92 427.3,-214.72"/>
<polygon fill="#63b8ff" stroke="#63b8ff" points="426.43,-218.11 436.95,-216.84 427.93,-211.27 426.43,-218.11"/>
</a>
</g>
</g>
<!-- Node10 -->
<g id="Node000010" class="node">
<title>Node10</title>
<g id="a_Node000010"><a xlink:href="../../dd/da8/class_galactic_shrine_1_1_configuration_1_1_analyseur_1_1_tampon_de_chaine.html#ad4240aacc0c932e5f08443b756b82f27" target="_top" xlink:title=" ">
<polygon fill="white" stroke="#666666" points="639,-32 429.5,-32 429.5,0 639,0 639,-32"/>
<text text-anchor="start" x="437.5" y="-18.5" font-family="Helvetica,sans-Serif" font-size="10.00">GalacticShrine.Configuration.</text>
<text text-anchor="middle" x="534.25" y="-6.5" font-family="Helvetica,sans-Serif" font-size="10.00">Analyseur.TamponDeChaine.FinDeGarniture</text>
</a>
</g>
</g>
<!-- Node9&#45;&gt;Node10 -->
<g id="edge10_Node000009_Node000010" class="edge">
<title>Node9&#45;&gt;Node10</title>
<g id="a_edge10_Node000009_Node000010"><a xlink:title=" ">
<path fill="none" stroke="#63b8ff" d="M378.31,-16C391.24,-16 404.67,-16 417.98,-16"/>
<polygon fill="#63b8ff" stroke="#63b8ff" points="417.61,-19.5 427.61,-16 417.61,-12.5 417.61,-19.5"/>
</a>
</g>
</g>
<!-- Node11&#45;&gt;Node8 -->
<g id="edge12_Node000011_Node000008" class="edge">
<title>Node11&#45;&gt;Node8</title>
<g id="a_edge12_Node000011_Node000008"><a xlink:title=" ">
<path fill="none" stroke="#63b8ff" d="M393.86,-242.54C404.93,-242.18 416.19,-241.81 427.25,-241.45"/>
<polygon fill="#63b8ff" stroke="#63b8ff" points="427.31,-244.95 437.19,-241.13 427.08,-237.95 427.31,-244.95"/>
</a>
</g>
</g>
<!-- Node13&#45;&gt;Node7 -->
<g id="edge15_Node000013_Node000007" class="edge">
<title>Node13&#45;&gt;Node7</title>
<g id="a_edge15_Node000013_Node000007"><a xlink:title=" ">
<path fill="none" stroke="#63b8ff" d="M375.18,-130.21C393.1,-131.88 412.12,-133.66 430.51,-135.38"/>
<polygon fill="#63b8ff" stroke="#63b8ff" points="430.08,-138.86 440.36,-136.31 430.73,-131.89 430.08,-138.86"/>
</a>
</g>
</g>
</g>
</svg>

<g id="navigator" transform="translate(0 0)" fill="#404254">
  <rect fill="#f2f5e9" fill-opacity="0.5" stroke="#606060" stroke-width=".5" x="0" y="0" width="60" height="60"/>
  <use id="zoomplus" xlink:href="#zoomPlus" x="17" y="9" onmousedown="handleZoom(evt,'in')"/>
  <use id="zoomminus" xlink:href="#zoomMin" x="42" y="9" onmousedown="handleZoom(evt,'out')"/>
  <use id="reset" xlink:href="#resetDef" x="30" y="36" onmousedown="handleReset()"/>
   <use id="arrowup" xlink:href="#arrowUp" x="0" y="0" onmousedown="handlePan(0,-1)"/>
  <use id="arrowright" xlink:href="#arrowRight" x="0" y="0" onmousedown="handlePan(1,0)"/>
  <use id="arrowdown" xlink:href="#arrowDown" x="0" y="0" onmousedown="handlePan(0,1)"/>
  <use id="arrowleft" xlink:href="#arrowLeft" x="0" y="0" onmousedown="handlePan(-1,0)"/>
</g>
<svg viewBox="0 0 15 15" width="100%" height="30px" preserveAspectRatio="xMaxYMin meet">
 <g id="arrow_out" transform="scale(0.3 0.3)">
  <a xlink:href="class_galactic_shrine_1_1_configuration_1_1_ini_a23f514b3f12d239e58c39e45cd133d51_cgraph_org.svg" target="_base">
   <rect id="button" ry="5" rx="5" y="6" x="6" height="38" width="38"
        fill="#f2f5e9" fill-opacity="0.5" stroke="#606060" stroke-width="1.0"/>
   <path id="arrow"
     d="M 11.500037,31.436501 C 11.940474,20.09759 22.043105,11.32322 32.158766,21.979434 L 37.068811,17.246167 C 37.068811,17.246167 37.088388,32 37.088388,32 L 22.160133,31.978069 C 22.160133,31.978069 26.997745,27.140456 26.997745,27.140456 C 18.528582,18.264221 13.291696,25.230495 11.500037,31.436501 z"
     style="fill:#404040;"/>
  </a>
 </g>
</svg>

<style type='text/css'>
<![CDATA[
[data-mouse-over-selected='false'] { opacity: 0.7; }
[data-mouse-over-selected='true']  { opacity: 1.0; }
]]>
</style>
<script type="application/ecmascript"><![CDATA[
document.addEventListener('DOMContentLoaded', (event) => {
  highlightEdges();
  highlightAdjacentNodes();
});
]]></script>
</svg>
