<?xml version="1.0" encoding="UTF-8" standalone="no"?>
<!DOCTYPE svg PUBLIC "-//W3C//DTD SVG 1.1//EN"
 "http://www.w3.org/Graphics/SVG/1.1/DTD/svg11.dtd">
<!-- Generated by graphviz version 12.2.0 (20241103.1931)
 -->
<!-- Title: GalacticShrine.Configuration.Ini.Analyse Pages: 1 -->
<svg width="1235pt" height="540pt"
 viewBox="0.00 0.00 1235.00 539.79" xmlns="http://www.w3.org/2000/svg" xmlns:xlink="http://www.w3.org/1999/xlink">
<g id="graph0" class="graph" transform="scale(1 1) rotate(0) translate(4 535.79)">
<title>GalacticShrine.Configuration.Ini.Analyse</title>
<!-- Node1 -->
<g id="Node000001" class="node">
<title>Node1</title>
<g id="a_Node000001"><a xlink:title="[FR] Analyse une chaîne contenant des données ini valides. &#160;[EN] Parses a string containing valid ini...">
<polygon fill="#999999" stroke="#666666" points="143.5,-350.79 0,-350.79 0,-318.79 143.5,-318.79 143.5,-350.79"/>
<text text-anchor="start" x="8" y="-337.29" font-family="Helvetica,sans-Serif" font-size="10.00">GalacticShrine.Configuration.</text>
<text text-anchor="middle" x="71.75" y="-325.29" font-family="Helvetica,sans-Serif" font-size="10.00">Ini.Analyse</text>
</a>
</g>
</g>
<!-- Node2 -->
<g id="Node000002" class="node">
<title>Node2</title>
<g id="a_Node000002"><a xlink:href="../../d2/d45/class_galactic_shrine_1_1_configuration_1_1_donnees_ini.html#acc7e48b9185281a6d872a5598a728143" target="_top" xlink:title="[FR] Fonction de suppression. &#160;[EN] Deletion function.">
<polygon fill="white" stroke="#666666" points="323,-375.79 179.5,-375.79 179.5,-343.79 323,-343.79 323,-375.79"/>
<text text-anchor="start" x="187.5" y="-362.29" font-family="Helvetica,sans-Serif" font-size="10.00">GalacticShrine.Configuration.</text>
<text text-anchor="middle" x="251.25" y="-350.29" font-family="Helvetica,sans-Serif" font-size="10.00">DonneesIni.Effacer</text>
</a>
</g>
</g>
<!-- Node1&#45;&gt;Node2 -->
<g id="edge1_Node000001_Node000002" class="edge">
<title>Node1&#45;&gt;Node2</title>
<g id="a_edge1_Node000001_Node000002"><a xlink:title=" ">
<path fill="none" stroke="#63b8ff" d="M143.92,-344.82C151.79,-345.92 159.85,-347.06 167.84,-348.19"/>
<polygon fill="#63b8ff" stroke="#63b8ff" points="167.17,-351.63 177.56,-349.55 168.15,-344.69 167.17,-351.63"/>
</a>
</g>
</g>
<!-- Node3 -->
<g id="Node000003" class="node">
<title>Node3</title>
<g id="a_Node000003"><a xlink:href="../../dd/da8/class_galactic_shrine_1_1_configuration_1_1_ini.html#ab6c8c10782835b28847a24c919e2ad6c" target="_top" xlink:title="[FR] Traite une ligne et analyse les données qui s&#39;y trouvent (section ou paire clé/valeur avec ou sa...">
<polygon fill="white" stroke="#666666" points="323,-325.79 179.5,-325.79 179.5,-293.79 323,-293.79 323,-325.79"/>
<text text-anchor="start" x="187.5" y="-312.29" font-family="Helvetica,sans-Serif" font-size="10.00">GalacticShrine.Configuration.</text>
<text text-anchor="middle" x="251.25" y="-300.29" font-family="Helvetica,sans-Serif" font-size="10.00">Ini.LigneDeProcessus</text>
</a>
</g>
</g>
<!-- Node1&#45;&gt;Node3 -->
<g id="edge2_Node000001_Node000003" class="edge">
<title>Node1&#45;&gt;Node3</title>
<g id="a_edge2_Node000001_Node000003"><a xlink:title=" ">
<path fill="none" stroke="#63b8ff" d="M143.92,-324.77C151.79,-323.66 159.85,-322.52 167.84,-321.4"/>
<polygon fill="#63b8ff" stroke="#63b8ff" points="168.15,-324.89 177.56,-320.03 167.17,-317.96 168.15,-324.89"/>
</a>
</g>
</g>
<!-- Node4 -->
<g id="Node000004" class="node">
<title>Node4</title>
<g id="a_Node000004"><a xlink:href="../../dd/da8/class_galactic_shrine_1_1_configuration_1_1_analyseur_1_1_tampon_de_chaine.html#aa1784d12ea6aefb26d219e9010a90653" target="_top" xlink:title=" ">
<polygon fill="white" stroke="#666666" points="753.25,-331.79 549,-331.79 549,-287.79 753.25,-287.79 753.25,-331.79"/>
<text text-anchor="start" x="557" y="-318.29" font-family="Helvetica,sans-Serif" font-size="10.00">GalacticShrine.Configuration.</text>
<text text-anchor="start" x="557" y="-306.29" font-family="Helvetica,sans-Serif" font-size="10.00">Analyseur.TamponDeChaine.Changements</text>
<text text-anchor="middle" x="651.12" y="-294.29" font-family="Helvetica,sans-Serif" font-size="10.00">DansLesRejets</text>
</a>
</g>
</g>
<!-- Node3&#45;&gt;Node4 -->
<g id="edge3_Node000003_Node000004" class="edge">
<title>Node3&#45;&gt;Node4</title>
<g id="a_edge3_Node000003_Node000004"><a xlink:title=" ">
<path fill="none" stroke="#63b8ff" d="M323.38,-309.79C382.77,-309.79 468.52,-309.79 537.27,-309.79"/>
<polygon fill="#63b8ff" stroke="#63b8ff" points="537.07,-313.29 547.07,-309.79 537.07,-306.29 537.07,-313.29"/>
</a>
</g>
</g>
<!-- Node7 -->
<g id="Node000007" class="node">
<title>Node7</title>
<g id="a_Node000007"><a xlink:href="../../dd/da8/class_galactic_shrine_1_1_configuration_1_1_ini.html#ab33c61b1a5f2a6e45d63e48113f20750" target="_top" xlink:title=" ">
<polygon fill="white" stroke="#666666" points="506.25,-169.79 359,-169.79 359,-137.79 506.25,-137.79 506.25,-169.79"/>
<text text-anchor="start" x="367" y="-156.29" font-family="Helvetica,sans-Serif" font-size="10.00">GalacticShrine.Configuration.</text>
<text text-anchor="middle" x="432.62" y="-144.29" font-family="Helvetica,sans-Serif" font-size="10.00">Ini.CommentaireDeProcessus</text>
</a>
</g>
</g>
<!-- Node3&#45;&gt;Node7 -->
<g id="edge6_Node000003_Node000007" class="edge">
<title>Node3&#45;&gt;Node7</title>
<g id="a_edge6_Node000003_Node000007"><a xlink:title=" ">
<path fill="none" stroke="#63b8ff" d="M271.11,-293.39C303,-265.66 367.7,-209.38 404.48,-177.4"/>
<polygon fill="#63b8ff" stroke="#63b8ff" points="406.36,-180.4 411.61,-171.2 401.77,-175.12 406.36,-180.4"/>
</a>
</g>
</g>
<!-- Node10 -->
<g id="Node000010" class="node">
<title>Node10</title>
<g id="a_Node000010"><a xlink:href="../../dd/da8/class_galactic_shrine_1_1_configuration_1_1_ini.html#ac949b568fd2371b7546137b7092651dc" target="_top" xlink:title=" ">
<polygon fill="white" stroke="#666666" points="504.38,-393.79 360.88,-393.79 360.88,-361.79 504.38,-361.79 504.38,-393.79"/>
<text text-anchor="start" x="368.88" y="-380.29" font-family="Helvetica,sans-Serif" font-size="10.00">GalacticShrine.Configuration.</text>
<text text-anchor="middle" x="432.62" y="-368.29" font-family="Helvetica,sans-Serif" font-size="10.00">Ini.ProprieteDeProcessus</text>
</a>
</g>
</g>
<!-- Node3&#45;&gt;Node10 -->
<g id="edge10_Node000003_Node000010" class="edge">
<title>Node3&#45;&gt;Node10</title>
<g id="a_edge10_Node000003_Node000010"><a xlink:title=" ">
<path fill="none" stroke="#63b8ff" d="M299.53,-326.22C307.39,-329.03 315.44,-331.96 323,-334.79 341.81,-341.83 362.31,-349.86 380.39,-357.06"/>
<polygon fill="#63b8ff" stroke="#63b8ff" points="379.02,-360.28 389.61,-360.74 381.62,-353.78 379.02,-360.28"/>
</a>
</g>
</g>
<!-- Node12 -->
<g id="Node000012" class="node">
<title>Node12</title>
<g id="a_Node000012"><a xlink:href="../../dd/da8/class_galactic_shrine_1_1_configuration_1_1_analyseur_1_1_tampon_de_chaine.html#ac0a94fa81730c6f5fde7f2f842200620" target="_top" xlink:title=" ">
<polygon fill="white" stroke="#666666" points="740.88,-443.79 561.38,-443.79 561.38,-411.79 740.88,-411.79 740.88,-443.79"/>
<text text-anchor="start" x="569.38" y="-430.29" font-family="Helvetica,sans-Serif" font-size="10.00">GalacticShrine.Configuration.</text>
<text text-anchor="middle" x="651.12" y="-418.29" font-family="Helvetica,sans-Serif" font-size="10.00">Analyseur.TamponDeChaine.ToString</text>
</a>
</g>
</g>
<!-- Node3&#45;&gt;Node12 -->
<g id="edge30_Node000003_Node000012" class="edge">
<title>Node3&#45;&gt;Node12</title>
<g id="a_edge30_Node000003_Node000012"><a xlink:title=" ">
<path fill="none" stroke="#63b8ff" d="M310.63,-326.27C315.06,-328.73 319.25,-331.56 323,-334.79 348.89,-357.13 330.49,-383.92 359,-402.79 414.53,-439.56 489.68,-445.19 549.71,-441.95"/>
<polygon fill="#63b8ff" stroke="#63b8ff" points="549.85,-445.45 559.61,-441.31 549.4,-438.46 549.85,-445.45"/>
</a>
</g>
</g>
<!-- Node14 -->
<g id="Node000014" class="node">
<title>Node14</title>
<g id="a_Node000014"><a xlink:href="../../dd/da8/class_galactic_shrine_1_1_configuration_1_1_ini.html#a23f514b3f12d239e58c39e45cd133d51" target="_top" xlink:title="[FR] Traite une chaîne de caractères contenant une section ini. &#160;[EN] Processes a string containing a...">
<polygon fill="white" stroke="#666666" points="504.38,-272.79 360.88,-272.79 360.88,-240.79 504.38,-240.79 504.38,-272.79"/>
<text text-anchor="start" x="368.88" y="-259.29" font-family="Helvetica,sans-Serif" font-size="10.00">GalacticShrine.Configuration.</text>
<text text-anchor="middle" x="432.62" y="-247.29" font-family="Helvetica,sans-Serif" font-size="10.00">Ini.SectionDeProcessus</text>
</a>
</g>
</g>
<!-- Node3&#45;&gt;Node14 -->
<g id="edge17_Node000003_Node000014" class="edge">
<title>Node3&#45;&gt;Node14</title>
<g id="a_edge17_Node000003_Node000014"><a xlink:title=" ">
<path fill="none" stroke="#63b8ff" d="M308.02,-293.31C326.08,-287.98 346.28,-282.01 365.04,-276.47"/>
<polygon fill="#63b8ff" stroke="#63b8ff" points="365.84,-279.88 374.44,-273.69 363.85,-273.17 365.84,-279.88"/>
</a>
</g>
</g>
<!-- Node5 -->
<g id="Node000005" class="node">
<title>Node5</title>
<g id="a_Node000005"><a xlink:href="../../da/dc8/struct_galactic_shrine_1_1_configuration_1_1_analyseur_1_1_tampon_de_chaine_1_1_plage.html#a2001d3beece21e14bb82661f749c60ae" target="_top" xlink:title=" ">
<polygon fill="white" stroke="#666666" points="992.75,-393.79 808.75,-393.79 808.75,-349.79 992.75,-349.79 992.75,-393.79"/>
<text text-anchor="start" x="816.75" y="-380.29" font-family="Helvetica,sans-Serif" font-size="10.00">GalacticShrine.Configuration.</text>
<text text-anchor="start" x="816.75" y="-368.29" font-family="Helvetica,sans-Serif" font-size="10.00">Analyseur.TamponDeChaine.Plage.De</text>
<text text-anchor="middle" x="900.75" y="-356.29" font-family="Helvetica,sans-Serif" font-size="10.00">L_IndexA_LaTaille</text>
</a>
</g>
</g>
<!-- Node4&#45;&gt;Node5 -->
<g id="edge4_Node000004_Node000005" class="edge">
<title>Node4&#45;&gt;Node5</title>
<g id="a_edge4_Node000004_Node000005"><a xlink:title=" ">
<path fill="none" stroke="#63b8ff" d="M741.87,-332.26C760.39,-336.9 780,-341.81 798.88,-346.54"/>
<polygon fill="#63b8ff" stroke="#63b8ff" points="797.87,-349.89 808.42,-348.93 799.57,-343.1 797.87,-349.89"/>
</a>
</g>
</g>
<!-- Node6 -->
<g id="Node000006" class="node">
<title>Node6</title>
<g id="a_Node000006"><a xlink:href="../../dd/da8/class_galactic_shrine_1_1_configuration_1_1_analyseur_1_1_tampon_de_chaine.html#a3660111c46db3c7f63414eaa29a7f844" target="_top" xlink:title=" ">
<polygon fill="white" stroke="#666666" points="996.12,-269.79 805.38,-269.79 805.38,-225.79 996.12,-225.79 996.12,-269.79"/>
<text text-anchor="start" x="813.38" y="-256.29" font-family="Helvetica,sans-Serif" font-size="10.00">GalacticShrine.Configuration.</text>
<text text-anchor="start" x="813.38" y="-244.29" font-family="Helvetica,sans-Serif" font-size="10.00">Analyseur.TamponDeChaine.TamponDe</text>
<text text-anchor="middle" x="900.75" y="-232.29" font-family="Helvetica,sans-Serif" font-size="10.00">Chaine</text>
</a>
</g>
</g>
<!-- Node4&#45;&gt;Node6 -->
<g id="edge5_Node000004_Node000006" class="edge">
<title>Node4&#45;&gt;Node6</title>
<g id="a_edge5_Node000004_Node000006"><a xlink:title=" ">
<path fill="none" stroke="#63b8ff" d="M741.87,-287.32C760.39,-282.69 780,-277.78 798.88,-273.05"/>
<polygon fill="#63b8ff" stroke="#63b8ff" points="799.57,-276.48 808.42,-270.66 797.87,-269.69 799.57,-276.48"/>
</a>
</g>
</g>
<!-- Node8 -->
<g id="Node000008" class="node">
<title>Node8</title>
<g id="a_Node000008"><a xlink:href="../../dd/da8/class_galactic_shrine_1_1_configuration_1_1_analyseur_1_1_tampon_de_chaine.html#ac1b985808f0790b6eb9130ae2f5b01d2" target="_top" xlink:title=" ">
<polygon fill="white" stroke="#666666" points="750.62,-169.79 551.62,-169.79 551.62,-137.79 750.62,-137.79 750.62,-169.79"/>
<text text-anchor="start" x="559.62" y="-156.29" font-family="Helvetica,sans-Serif" font-size="10.00">GalacticShrine.Configuration.</text>
<text text-anchor="middle" x="651.12" y="-144.29" font-family="Helvetica,sans-Serif" font-size="10.00">Analyseur.TamponDeChaine.AvalezCopie</text>
</a>
</g>
</g>
<!-- Node7&#45;&gt;Node8 -->
<g id="edge7_Node000007_Node000008" class="edge">
<title>Node7&#45;&gt;Node8</title>
<g id="a_edge7_Node000007_Node000008"><a xlink:title=" ">
<path fill="none" stroke="#63b8ff" d="M506.62,-153.79C517.39,-153.79 528.69,-153.79 540.01,-153.79"/>
<polygon fill="#63b8ff" stroke="#63b8ff" points="539.81,-157.29 549.81,-153.79 539.81,-150.29 539.81,-157.29"/>
</a>
</g>
</g>
<!-- Node9 -->
<g id="Node000009" class="node">
<title>Node9</title>
<g id="a_Node000009"><a xlink:href="../../dd/da8/class_galactic_shrine_1_1_configuration_1_1_analyseur_1_1_tampon_de_chaine.html#ad4240aacc0c932e5f08443b756b82f27" target="_top" xlink:title=" ">
<polygon fill="white" stroke="#666666" points="1005.5,-47.79 796,-47.79 796,-15.79 1005.5,-15.79 1005.5,-47.79"/>
<text text-anchor="start" x="804" y="-34.29" font-family="Helvetica,sans-Serif" font-size="10.00">GalacticShrine.Configuration.</text>
<text text-anchor="middle" x="900.75" y="-22.29" font-family="Helvetica,sans-Serif" font-size="10.00">Analyseur.TamponDeChaine.FinDeGarniture</text>
</a>
</g>
</g>
<!-- Node7&#45;&gt;Node9 -->
<g id="edge9_Node000007_Node000009" class="edge">
<title>Node7&#45;&gt;Node9</title>
<g id="a_edge9_Node000007_Node000009"><a xlink:title=" ">
<path fill="none" stroke="#63b8ff" d="M441.65,-137.67C456.79,-109.33 492.54,-51.45 542.25,-28.79 631.83,12.04 747.64,1.12 822.79,-13.09"/>
<polygon fill="#63b8ff" stroke="#63b8ff" points="822.06,-16.51 832.55,-15.01 823.41,-9.65 822.06,-16.51"/>
</a>
</g>
</g>
<!-- Node8&#45;&gt;Node6 -->
<g id="edge8_Node000008_Node000006" class="edge">
<title>Node8&#45;&gt;Node6</title>
<g id="a_edge8_Node000008_Node000006"><a xlink:title=" ">
<path fill="none" stroke="#63b8ff" d="M695.54,-170.27C732.62,-184.35 786.66,-204.86 829.83,-221.25"/>
<polygon fill="#63b8ff" stroke="#63b8ff" points="828.55,-224.51 839.14,-224.78 831.03,-217.96 828.55,-224.51"/>
</a>
</g>
</g>
<!-- Node10&#45;&gt;Node4 -->
<g id="edge12_Node000010_Node000004" class="edge">
<title>Node10&#45;&gt;Node4</title>
<g id="a_edge12_Node000010_Node000004"><a xlink:title=" ">
<path fill="none" stroke="#63b8ff" d="M480.25,-361.36C499.39,-354.76 521.82,-347.2 542.25,-340.79 547.94,-339.01 553.82,-337.2 559.75,-335.41"/>
<polygon fill="#63b8ff" stroke="#63b8ff" points="560.43,-338.86 569.01,-332.65 558.43,-332.16 560.43,-338.86"/>
</a>
</g>
</g>
<!-- Node10&#45;&gt;Node5 -->
<g id="edge13_Node000010_Node000005" class="edge">
<title>Node10&#45;&gt;Node5</title>
<g id="a_edge13_Node000010_Node000005"><a xlink:title=" ">
<path fill="none" stroke="#63b8ff" d="M450.28,-394.23C470.2,-412.62 505.49,-441.34 542.25,-452.79 634.64,-481.59 666.54,-477.92 760,-452.79 797.67,-442.66 835.66,-419.63 862.51,-400.7"/>
<polygon fill="#63b8ff" stroke="#63b8ff" points="864.22,-403.78 870.29,-395.09 860.13,-398.1 864.22,-403.78"/>
</a>
</g>
</g>
<!-- Node11 -->
<g id="Node000011" class="node">
<title>Node11</title>
<g id="a_Node000011"><a xlink:href="../../da/dc8/struct_galactic_shrine_1_1_configuration_1_1_analyseur_1_1_tampon_de_chaine_1_1_plage.html#a4949516ec27473c61c29c8593b8c7be5" target="_top" xlink:title=" ">
<polygon fill="white" stroke="#666666" points="760,-531.79 542.25,-531.79 542.25,-499.79 760,-499.79 760,-531.79"/>
<text text-anchor="start" x="550.25" y="-518.29" font-family="Helvetica,sans-Serif" font-size="10.00">GalacticShrine.Configuration.</text>
<text text-anchor="middle" x="651.12" y="-506.29" font-family="Helvetica,sans-Serif" font-size="10.00">Analyseur.TamponDeChaine.Plage.AvecIndex</text>
</a>
</g>
</g>
<!-- Node10&#45;&gt;Node11 -->
<g id="edge11_Node000010_Node000011" class="edge">
<title>Node10&#45;&gt;Node11</title>
<g id="a_edge11_Node000010_Node000011"><a xlink:title=" ">
<path fill="none" stroke="#63b8ff" d="M445.42,-393.94C463.57,-417.62 500.64,-461.59 542.25,-485.79 548.31,-489.32 554.81,-492.45 561.5,-495.22"/>
<polygon fill="#63b8ff" stroke="#63b8ff" points="560.14,-498.45 570.73,-498.75 562.64,-491.91 560.14,-498.45"/>
</a>
</g>
</g>
<!-- Node10&#45;&gt;Node12 -->
<g id="edge14_Node000010_Node000012" class="edge">
<title>Node10&#45;&gt;Node12</title>
<g id="a_edge14_Node000010_Node000012"><a xlink:title=" ">
<path fill="none" stroke="#63b8ff" d="M504.82,-394.23C524.98,-398.89 547.09,-404 567.85,-408.79"/>
<polygon fill="#63b8ff" stroke="#63b8ff" points="566.89,-412.16 577.42,-411 568.46,-405.34 566.89,-412.16"/>
</a>
</g>
</g>
<!-- Node13 -->
<g id="Node000013" class="node">
<title>Node13</title>
<g id="a_Node000013"><a xlink:href="../../dd/da8/class_galactic_shrine_1_1_configuration_1_1_analyseur_1_1_tampon_de_chaine.html#afa88b78cbdf391a2bdb3128d611760b6" target="_top" xlink:title=" ">
<polygon fill="white" stroke="#666666" points="739.38,-393.79 562.88,-393.79 562.88,-349.79 739.38,-349.79 739.38,-393.79"/>
<text text-anchor="start" x="570.88" y="-380.29" font-family="Helvetica,sans-Serif" font-size="10.00">GalacticShrine.Configuration.</text>
<text text-anchor="start" x="570.88" y="-368.29" font-family="Helvetica,sans-Serif" font-size="10.00">Analyseur.TamponDeChaine.Trouver</text>
<text text-anchor="middle" x="651.12" y="-356.29" font-family="Helvetica,sans-Serif" font-size="10.00">SousChaine</text>
</a>
</g>
</g>
<!-- Node10&#45;&gt;Node13 -->
<g id="edge15_Node000010_Node000013" class="edge">
<title>Node10&#45;&gt;Node13</title>
<g id="a_edge15_Node000010_Node000013"><a xlink:title=" ">
<path fill="none" stroke="#63b8ff" d="M504.82,-375.82C519.69,-375.41 535.63,-374.97 551.3,-374.53"/>
<polygon fill="#63b8ff" stroke="#63b8ff" points="551.24,-378.03 561.13,-374.26 551.04,-371.04 551.24,-378.03"/>
</a>
</g>
</g>
<!-- Node13&#45;&gt;Node5 -->
<g id="edge16_Node000013_Node000005" class="edge">
<title>Node13&#45;&gt;Node5</title>
<g id="a_edge16_Node000013_Node000005"><a xlink:title=" ">
<path fill="none" stroke="#63b8ff" d="M739.78,-371.79C758.3,-371.79 778,-371.79 797.02,-371.79"/>
<polygon fill="#63b8ff" stroke="#63b8ff" points="796.93,-375.29 806.93,-371.79 796.93,-368.29 796.93,-375.29"/>
</a>
</g>
</g>
<!-- Node14&#45;&gt;Node4 -->
<g id="edge22_Node000014_Node000004" class="edge">
<title>Node14&#45;&gt;Node4</title>
<g id="a_edge22_Node000014_Node000004"><a xlink:title=" ">
<path fill="none" stroke="#63b8ff" d="M500.94,-273.27C515.77,-276.9 531.79,-280.82 547.65,-284.71"/>
<polygon fill="#63b8ff" stroke="#63b8ff" points="546.58,-288.05 557.12,-287.02 548.24,-281.25 546.58,-288.05"/>
</a>
</g>
</g>
<!-- Node14&#45;&gt;Node12 -->
<g id="edge28_Node000014_Node000012" class="edge">
<title>Node14&#45;&gt;Node12</title>
<g id="a_edge28_Node000014_Node000012"><a xlink:title=" ">
<path fill="none" stroke="#63b8ff" d="M446.08,-273.01C460.64,-292.03 485.4,-324.54 506.25,-352.79 522.51,-374.82 519.45,-387.62 542.25,-402.79 544.99,-404.61 547.84,-406.31 550.78,-407.87"/>
<polygon fill="#63b8ff" stroke="#63b8ff" points="549.18,-410.99 559.72,-412.1 552.18,-404.66 549.18,-410.99"/>
</a>
</g>
</g>
<!-- Node14&#45;&gt;Node13 -->
<g id="edge29_Node000014_Node000013" class="edge">
<title>Node14&#45;&gt;Node13</title>
<g id="a_edge29_Node000014_Node000013"><a xlink:title=" ">
<path fill="none" stroke="#63b8ff" d="M450.28,-272.99C470.48,-291.81 506.31,-322.58 542.25,-340.79 545.37,-342.37 548.57,-343.88 551.84,-345.32"/>
<polygon fill="#63b8ff" stroke="#63b8ff" points="550.5,-348.55 561.08,-349.13 553.17,-342.08 550.5,-348.55"/>
</a>
</g>
</g>
<!-- Node15 -->
<g id="Node000015" class="node">
<title>Node15</title>
<g id="a_Node000015"><a xlink:href="../../d2/dc5/class_galactic_shrine_1_1_modele_1_1_configuration_1_1_ini_1_1_section_collection.html#ab439f8ed108317714dae058d645f56c0" target="_top" xlink:title="[FR] Crée une nouvelle section avec des données vides. &#160;[EN] Creates a new section with empty data.">
<polygon fill="white" stroke="#666666" points="740.12,-119.79 562.12,-119.79 562.12,-87.79 740.12,-87.79 740.12,-119.79"/>
<text text-anchor="start" x="570.12" y="-106.29" font-family="Helvetica,sans-Serif" font-size="10.00">GalacticShrine.Modele.Configuration.</text>
<text text-anchor="middle" x="651.12" y="-94.29" font-family="Helvetica,sans-Serif" font-size="10.00">Ini.SectionCollection.Ajouter</text>
</a>
</g>
</g>
<!-- Node14&#45;&gt;Node15 -->
<g id="edge18_Node000014_Node000015" class="edge">
<title>Node14&#45;&gt;Node15</title>
<g id="a_edge18_Node000014_Node000015"><a xlink:title=" ">
<path fill="none" stroke="#63b8ff" d="M450.13,-240.3C465.28,-224.88 488.06,-200.97 506.25,-178.79 523.61,-157.62 519.45,-143.96 542.25,-128.79 545.16,-126.86 548.19,-125.07 551.33,-123.42"/>
<polygon fill="#63b8ff" stroke="#63b8ff" points="552.68,-126.65 560.26,-119.25 549.72,-120.31 552.68,-126.65"/>
</a>
</g>
</g>
<!-- Node16 -->
<g id="Node000016" class="node">
<title>Node16</title>
<g id="a_Node000016"><a xlink:href="../../d2/dc5/class_galactic_shrine_1_1_modele_1_1_configuration_1_1_ini_1_1_section_collection.html#a059d00b51e709988710f540717083478" target="_top" xlink:title="[FR] Permet de savoir si une section portant le nom spécifié existe dans la collection....">
<polygon fill="white" stroke="#666666" points="989.75,-163.79 811.75,-163.79 811.75,-131.79 989.75,-131.79 989.75,-163.79"/>
<text text-anchor="start" x="819.75" y="-150.29" font-family="Helvetica,sans-Serif" font-size="10.00">GalacticShrine.Modele.Configuration.</text>
<text text-anchor="middle" x="900.75" y="-138.29" font-family="Helvetica,sans-Serif" font-size="10.00">Ini.SectionCollection.Contient</text>
</a>
</g>
</g>
<!-- Node14&#45;&gt;Node16 -->
<g id="edge23_Node000014_Node000016" class="edge">
<title>Node14&#45;&gt;Node16</title>
<g id="a_edge23_Node000014_Node000016"><a xlink:title=" ">
<path fill="none" stroke="#63b8ff" d="M473.05,-240.32C493.43,-232.31 518.87,-223.08 542.25,-216.79 637.12,-191.27 663.63,-197.88 760,-178.79 778.56,-175.12 798.44,-170.89 817.21,-166.75"/>
<polygon fill="#63b8ff" stroke="#63b8ff" points="817.94,-170.18 826.95,-164.6 816.43,-163.34 817.94,-170.18"/>
</a>
</g>
</g>
<!-- Node19 -->
<g id="Node000019" class="node">
<title>Node19</title>
<g id="a_Node000019"><a xlink:href="../../dd/da8/class_galactic_shrine_1_1_configuration_1_1_analyseur_1_1_tampon_de_chaine.html#a5ff6a33ce5c9c8b1c634b3242304a1b7" target="_top" xlink:title=" ">
<polygon fill="white" stroke="#666666" points="742.75,-69.79 559.5,-69.79 559.5,-37.79 742.75,-37.79 742.75,-69.79"/>
<text text-anchor="start" x="567.5" y="-56.29" font-family="Helvetica,sans-Serif" font-size="10.00">GalacticShrine.Configuration.</text>
<text text-anchor="middle" x="651.12" y="-44.29" font-family="Helvetica,sans-Serif" font-size="10.00">Analyseur.TamponDeChaine.Garniture</text>
</a>
</g>
</g>
<!-- Node14&#45;&gt;Node19 -->
<g id="edge24_Node000014_Node000019" class="edge">
<title>Node14&#45;&gt;Node19</title>
<g id="a_edge24_Node000014_Node000019"><a xlink:title=" ">
<path fill="none" stroke="#63b8ff" d="M452.59,-240.52C468.75,-225.8 491.61,-202.8 506.25,-178.79 530.85,-138.46 506.94,-110.17 542.25,-78.79 544.56,-76.74 547.01,-74.84 549.57,-73.1"/>
<polygon fill="#63b8ff" stroke="#63b8ff" points="551.11,-76.25 557.95,-68.16 547.55,-70.22 551.11,-76.25"/>
</a>
</g>
</g>
<!-- Node20 -->
<g id="Node000020" class="node">
<title>Node20</title>
<g id="a_Node000020"><a xlink:href="../../dd/da8/class_galactic_shrine_1_1_configuration_1_1_analyseur_1_1_tampon_de_chaine.html#ad657925f38944e77f8ac413d45a9fe21" target="_top" xlink:title=" ">
<polygon fill="white" stroke="#666666" points="758.12,-269.79 544.12,-269.79 544.12,-225.79 758.12,-225.79 758.12,-269.79"/>
<text text-anchor="start" x="552.12" y="-256.29" font-family="Helvetica,sans-Serif" font-size="10.00">GalacticShrine.Configuration.</text>
<text text-anchor="start" x="552.12" y="-244.29" font-family="Helvetica,sans-Serif" font-size="10.00">Analyseur.TamponDeChaine.Redimensionner</text>
<text text-anchor="middle" x="651.12" y="-232.29" font-family="Helvetica,sans-Serif" font-size="10.00">EntreLesIndex</text>
</a>
</g>
</g>
<!-- Node14&#45;&gt;Node20 -->
<g id="edge26_Node000014_Node000020" class="edge">
<title>Node14&#45;&gt;Node20</title>
<g id="a_edge26_Node000014_Node000020"><a xlink:title=" ">
<path fill="none" stroke="#63b8ff" d="M504.82,-253.83C513.85,-253.46 523.28,-253.07 532.8,-252.67"/>
<polygon fill="#63b8ff" stroke="#63b8ff" points="532.64,-256.18 542.49,-252.27 532.35,-249.19 532.64,-256.18"/>
</a>
</g>
</g>
<!-- Node15&#45;&gt;Node16 -->
<g id="edge19_Node000015_Node000016" class="edge">
<title>Node15&#45;&gt;Node16</title>
<g id="a_edge19_Node000015_Node000016"><a xlink:title=" ">
<path fill="none" stroke="#63b8ff" d="M740.47,-119.49C759.84,-122.93 780.47,-126.6 800.23,-130.11"/>
<polygon fill="#63b8ff" stroke="#63b8ff" points="799.49,-133.53 809.94,-131.83 800.71,-126.64 799.49,-133.53"/>
</a>
</g>
</g>
<!-- Node17 -->
<g id="Node000017" class="node">
<title>Node17</title>
<g id="a_Node000017"><a xlink:href="../../d7/d03/interface_galactic_shrine_1_1_interface_1_1_configuration_1_1_clonable_interface-1-g.html#a105777a718fdc2d14973eecfe9ba182b" target="_top" xlink:title="[FR] Crée un nouvel objet qui est une copie de l&#39;instance actuelle. [EN] Creates a new object that is...">
<polygon fill="white" stroke="#666666" points="1210.88,-197.79 1057.62,-197.79 1057.62,-153.79 1210.88,-153.79 1210.88,-197.79"/>
<text text-anchor="start" x="1065.62" y="-184.29" font-family="Helvetica,sans-Serif" font-size="10.00">GalacticShrine.Interface.</text>
<text text-anchor="start" x="1065.62" y="-172.29" font-family="Helvetica,sans-Serif" font-size="10.00">Configuration.ClonableInterface</text>
<text text-anchor="middle" x="1134.25" y="-160.29" font-family="Helvetica,sans-Serif" font-size="10.00">&#45;1&#45;g.CloneEnProfondeur</text>
</a>
</g>
</g>
<!-- Node16&#45;&gt;Node17 -->
<g id="edge20_Node000016_Node000017" class="edge">
<title>Node16&#45;&gt;Node17</title>
<g id="a_edge20_Node000016_Node000017"><a xlink:title=" ">
<path fill="none" stroke="#63b8ff" d="M989.93,-158.46C1008.34,-160.68 1027.74,-163.03 1046.12,-165.25"/>
<polygon fill="#63b8ff" stroke="#63b8ff" points="1045.56,-168.71 1055.9,-166.44 1046.4,-161.76 1045.56,-168.71"/>
</a>
</g>
</g>
<!-- Node18 -->
<g id="Node000018" class="node">
<title>Node18</title>
<g id="a_Node000018"><a xlink:href="../../d2/dc5/class_galactic_shrine_1_1_modele_1_1_configuration_1_1_ini_1_1_section_collection.html#ad60d92d481523dc4e20b4edea9ca9f0e" target="_top" xlink:title="[FR] Initialise une nouvelle instance de la classe GalacticShrine.Modele.Configuration....">
<polygon fill="white" stroke="#666666" points="1227,-135.79 1041.5,-135.79 1041.5,-103.79 1227,-103.79 1227,-135.79"/>
<text text-anchor="start" x="1049.5" y="-122.29" font-family="Helvetica,sans-Serif" font-size="10.00">GalacticShrine.Modele.Configuration.</text>
<text text-anchor="middle" x="1134.25" y="-110.29" font-family="Helvetica,sans-Serif" font-size="10.00">Ini.SectionCollection.SectionCollection</text>
</a>
</g>
</g>
<!-- Node16&#45;&gt;Node18 -->
<g id="edge21_Node000016_Node000018" class="edge">
<title>Node16&#45;&gt;Node18</title>
<g id="a_edge21_Node000016_Node000018"><a xlink:title=" ">
<path fill="none" stroke="#63b8ff" d="M989.93,-137.13C1003.01,-135.55 1016.58,-133.9 1029.94,-132.29"/>
<polygon fill="#63b8ff" stroke="#63b8ff" points="1030.07,-135.8 1039.58,-131.12 1029.23,-128.85 1030.07,-135.8"/>
</a>
</g>
</g>
<!-- Node19&#45;&gt;Node9 -->
<g id="edge25_Node000019_Node000009" class="edge">
<title>Node19&#45;&gt;Node9</title>
<g id="a_edge25_Node000019_Node000009"><a xlink:title=" ">
<path fill="none" stroke="#63b8ff" d="M742.93,-45.73C756.43,-44.53 770.5,-43.28 784.43,-42.04"/>
<polygon fill="#63b8ff" stroke="#63b8ff" points="784.39,-45.55 794.05,-41.18 783.78,-38.58 784.39,-45.55"/>
</a>
</g>
</g>
<!-- Node20&#45;&gt;Node6 -->
<g id="edge27_Node000020_Node000006" class="edge">
<title>Node20&#45;&gt;Node6</title>
<g id="a_edge27_Node000020_Node000006"><a xlink:title=" ">
<path fill="none" stroke="#63b8ff" d="M758.58,-247.79C770.18,-247.79 781.99,-247.79 793.58,-247.79"/>
<polygon fill="#63b8ff" stroke="#63b8ff" points="793.58,-251.29 803.58,-247.79 793.58,-244.29 793.58,-251.29"/>
</a>
</g>
</g>
</g>
</svg>
