<?xml version="1.0" encoding="UTF-8" standalone="no"?>
<!DOCTYPE svg PUBLIC "-//W3C//DTD SVG 1.1//EN"
 "http://www.w3.org/Graphics/SVG/1.1/DTD/svg11.dtd">
<!-- Generated by graphviz version 12.2.0 (20241103.1931)
 -->
<!-- Title: GalacticShrine.Configuration.Ini.CommentaireDeProcessus Pages: 1 -->
<svg width="628pt" height="96pt"
 viewBox="0.00 0.00 627.50 96.00" xmlns="http://www.w3.org/2000/svg" xmlns:xlink="http://www.w3.org/1999/xlink">
<g id="graph0" class="graph" transform="scale(1 1) rotate(0) translate(4 92)">
<title>GalacticShrine.Configuration.Ini.CommentaireDeProcessus</title>
<!-- Node1 -->
<g id="Node000001" class="node">
<title>Node1</title>
<g id="a_Node000001"><a xlink:title=" ">
<polygon fill="#999999" stroke="#666666" points="147.25,-57 0,-57 0,-25 147.25,-25 147.25,-57"/>
<text text-anchor="start" x="8" y="-43.5" font-family="Helvetica,sans-Serif" font-size="10.00">GalacticShrine.Configuration.</text>
<text text-anchor="middle" x="73.62" y="-31.5" font-family="Helvetica,sans-Serif" font-size="10.00">Ini.CommentaireDeProcessus</text>
</a>
</g>
</g>
<!-- Node2 -->
<g id="Node000002" class="node">
<title>Node2</title>
<g id="a_Node000002"><a xlink:href="../../dd/da8/class_galactic_shrine_1_1_configuration_1_1_analyseur_1_1_tampon_de_chaine.html#ac1b985808f0790b6eb9130ae2f5b01d2" target="_top" xlink:title=" ">
<polygon fill="white" stroke="#666666" points="387.5,-82 188.5,-82 188.5,-50 387.5,-50 387.5,-82"/>
<text text-anchor="start" x="196.5" y="-68.5" font-family="Helvetica,sans-Serif" font-size="10.00">GalacticShrine.Configuration.</text>
<text text-anchor="middle" x="288" y="-56.5" font-family="Helvetica,sans-Serif" font-size="10.00">Analyseur.TamponDeChaine.AvalezCopie</text>
</a>
</g>
</g>
<!-- Node1&#45;&gt;Node2 -->
<g id="edge1_Node000001_Node000002" class="edge">
<title>Node1&#45;&gt;Node2</title>
<g id="a_edge1_Node000001_Node000002"><a xlink:title=" ">
<path fill="none" stroke="#63b8ff" d="M147.71,-49.6C157.21,-50.72 167.11,-51.89 177.05,-53.06"/>
<polygon fill="#63b8ff" stroke="#63b8ff" points="176.43,-56.51 186.77,-54.2 177.25,-49.56 176.43,-56.51"/>
</a>
</g>
</g>
<!-- Node4 -->
<g id="Node000004" class="node">
<title>Node4</title>
<g id="a_Node000004"><a xlink:href="../../dd/da8/class_galactic_shrine_1_1_configuration_1_1_analyseur_1_1_tampon_de_chaine.html#ad4240aacc0c932e5f08443b756b82f27" target="_top" xlink:title=" ">
<polygon fill="white" stroke="#666666" points="392.75,-32 183.25,-32 183.25,0 392.75,0 392.75,-32"/>
<text text-anchor="start" x="191.25" y="-18.5" font-family="Helvetica,sans-Serif" font-size="10.00">GalacticShrine.Configuration.</text>
<text text-anchor="middle" x="288" y="-6.5" font-family="Helvetica,sans-Serif" font-size="10.00">Analyseur.TamponDeChaine.FinDeGarniture</text>
</a>
</g>
</g>
<!-- Node1&#45;&gt;Node4 -->
<g id="edge3_Node000001_Node000004" class="edge">
<title>Node1&#45;&gt;Node4</title>
<g id="a_edge3_Node000001_Node000004"><a xlink:title=" ">
<path fill="none" stroke="#63b8ff" d="M147.71,-32.4C155.55,-31.47 163.65,-30.52 171.83,-29.56"/>
<polygon fill="#63b8ff" stroke="#63b8ff" points="171.98,-33.06 181.5,-28.42 171.16,-26.11 171.98,-33.06"/>
</a>
</g>
</g>
<!-- Node3 -->
<g id="Node000003" class="node">
<title>Node3</title>
<g id="a_Node000003"><a xlink:href="../../dd/da8/class_galactic_shrine_1_1_configuration_1_1_analyseur_1_1_tampon_de_chaine.html#a3660111c46db3c7f63414eaa29a7f844" target="_top" xlink:title=" ">
<polygon fill="white" stroke="#666666" points="619.5,-88 428.75,-88 428.75,-44 619.5,-44 619.5,-88"/>
<text text-anchor="start" x="436.75" y="-74.5" font-family="Helvetica,sans-Serif" font-size="10.00">GalacticShrine.Configuration.</text>
<text text-anchor="start" x="436.75" y="-62.5" font-family="Helvetica,sans-Serif" font-size="10.00">Analyseur.TamponDeChaine.TamponDe</text>
<text text-anchor="middle" x="524.12" y="-50.5" font-family="Helvetica,sans-Serif" font-size="10.00">Chaine</text>
</a>
</g>
</g>
<!-- Node2&#45;&gt;Node3 -->
<g id="edge2_Node000002_Node000003" class="edge">
<title>Node2&#45;&gt;Node3</title>
<g id="a_edge2_Node000002_Node000003"><a xlink:title=" ">
<path fill="none" stroke="#63b8ff" d="M387.95,-66C397.55,-66 407.31,-66 416.98,-66"/>
<polygon fill="#63b8ff" stroke="#63b8ff" points="416.75,-69.5 426.75,-66 416.75,-62.5 416.75,-69.5"/>
</a>
</g>
</g>
</g>
</svg>
