<?xml version="1.0" encoding="UTF-8" standalone="no"?>
<!DOCTYPE svg PUBLIC "-//W3C//DTD SVG 1.1//EN"
 "http://www.w3.org/Graphics/SVG/1.1/DTD/svg11.dtd">
<!-- Generated by graphviz version 12.2.0 (20241103.1931)
 -->
<!-- Title: GalacticShrine.DossierReference Pages: 1 -->
<svg width="336pt" height="96pt"
 viewBox="0.00 0.00 336.12 96.00" xmlns="http://www.w3.org/2000/svg" xmlns:xlink="http://www.w3.org/1999/xlink">
<g id="graph0" class="graph" transform="scale(1 1) rotate(0) translate(4 92)">
<title>GalacticShrine.DossierReference</title>
<!-- Node1 -->
<g id="Node000001" class="node">
<title>Node1</title>
<g id="a_Node000001"><a xlink:title="[FR] Représentation d&#39;un chemin de répertoire absolu. Permet un hachage et des comparaisons rapides....">
<polygon fill="#999999" stroke="#666666" points="242.25,-20 80.75,-20 80.75,0 242.25,0 242.25,-20"/>
<text text-anchor="middle" x="161.5" y="-6.5" font-family="Helvetica,sans-Serif" font-size="10.00">GalacticShrine.DossierReference</text>
</a>
</g>
</g>
<!-- Node2 -->
<g id="Node000002" class="node">
<title>Node2</title>
<g id="a_Node000002"><a xlink:href="class_galactic_shrine_1_1_fichier_systeme_reference.html" target="_top" xlink:title="[FR] Classe de base pour les objets du système de fichiers (fichiers ou répertoires)....">
<polygon fill="white" stroke="#666666" points="151,-88 0,-88 0,-56 151,-56 151,-88"/>
<text text-anchor="start" x="8" y="-74.5" font-family="Helvetica,sans-Serif" font-size="10.00">GalacticShrine.FichierSysteme</text>
<text text-anchor="middle" x="75.5" y="-62.5" font-family="Helvetica,sans-Serif" font-size="10.00">Reference</text>
</a>
</g>
</g>
<!-- Node2&#45;&gt;Node1 -->
<g id="edge1_Node000001_Node000002" class="edge">
<title>Node2&#45;&gt;Node1</title>
<g id="a_edge1_Node000001_Node000002"><a xlink:title=" ">
<path fill="none" stroke="#63b8ff" d="M107.05,-48.99C121.17,-39.14 137.06,-28.05 148.02,-20.41"/>
<polygon fill="#63b8ff" stroke="#63b8ff" points="105.09,-46.09 98.89,-54.68 109.09,-51.83 105.09,-46.09"/>
</a>
</g>
</g>
<!-- Node3 -->
<g id="Node000003" class="node">
<title>Node3</title>
<g id="a_Node000003"><a xlink:title=" ">
<polygon fill="white" stroke="#666666" points="328.12,-82 168.88,-82 168.88,-62 328.12,-62 328.12,-82"/>
<text text-anchor="middle" x="248.5" y="-68.5" font-family="Helvetica,sans-Serif" font-size="10.00">IEquatable&lt; DossierReference &gt;</text>
</a>
</g>
</g>
<!-- Node3&#45;&gt;Node1 -->
<g id="edge2_Node000001_Node000003" class="edge">
<title>Node3&#45;&gt;Node1</title>
<g id="a_edge2_Node000001_Node000003"><a xlink:title=" ">
<path fill="none" stroke="#63b8ff" d="M225.62,-55.22C209.51,-44.11 188.5,-29.62 175,-20.31"/>
<polygon fill="#63b8ff" stroke="#63b8ff" points="223.44,-57.97 233.66,-60.77 227.42,-52.21 223.44,-57.97"/>
</a>
</g>
</g>
</g>
</svg>
