<?xml version="1.0" encoding="UTF-8" standalone="no"?>
<!DOCTYPE svg PUBLIC "-//W3C//DTD SVG 1.1//EN"
 "http://www.w3.org/Graphics/SVG/1.1/DTD/svg11.dtd">
<!-- Generated by graphviz version 12.2.0 (20241103.1931)
 -->
<!-- Title: GalacticShrine.DossierReference.DossierReference Pages: 1 -->
<svg width="417pt" height="528pt"
 viewBox="0.00 0.00 417.25 528.00" xmlns="http://www.w3.org/2000/svg" xmlns:xlink="http://www.w3.org/1999/xlink">
<g id="graph0" class="graph" transform="scale(1 1) rotate(0) translate(4 524)">
<title>GalacticShrine.DossierReference.DossierReference</title>
<!-- Node1 -->
<g id="Node000001" class="node">
<title>Node1</title>
<g id="a_Node000001"><a xlink:title="[FR] Constructeur par défaut. [EN] Default constructor.">
<polygon fill="#999999" stroke="#666666" points="409.25,-270 244.75,-270 244.75,-238 409.25,-238 409.25,-270"/>
<text text-anchor="start" x="252.75" y="-256.5" font-family="Helvetica,sans-Serif" font-size="10.00">GalacticShrine.DossierReference.</text>
<text text-anchor="middle" x="327" y="-244.5" font-family="Helvetica,sans-Serif" font-size="10.00">DossierReference</text>
</a>
</g>
</g>
<!-- Node2 -->
<g id="Node000002" class="node">
<title>Node2</title>
<g id="a_Node000002"><a xlink:href="class_galactic_shrine_1_1_dossier_reference.html#a5a65f3ae81008c225632053b268cfa37" target="_top" xlink:title="[FR] Combiner plusieurs fragments avec un répertoire de base, à partir d&#39;un nouveau nom de répertoire...">
<polygon fill="white" stroke="#666666" points="186.62,-520 22.12,-520 22.12,-488 186.62,-488 186.62,-520"/>
<text text-anchor="start" x="30.12" y="-506.5" font-family="Helvetica,sans-Serif" font-size="10.00">GalacticShrine.DossierReference.</text>
<text text-anchor="middle" x="104.38" y="-494.5" font-family="Helvetica,sans-Serif" font-size="10.00">Combiner</text>
</a>
</g>
</g>
<!-- Node1&#45;&gt;Node2 -->
<g id="edge1_Node000001_Node000002" class="edge">
<title>Node1&#45;&gt;Node2</title>
<g id="a_edge1_Node000001_Node000002"><a xlink:title=" ">
<path fill="none" stroke="#63b8ff" d="M319.67,-281.29C307.13,-329.05 274.48,-427.58 208.75,-479 202.21,-484.12 194.77,-488.21 186.95,-491.48"/>
<polygon fill="#63b8ff" stroke="#63b8ff" points="323.02,-282.32 322.07,-271.77 316.23,-280.61 323.02,-282.32"/>
</a>
</g>
</g>
<!-- Node3 -->
<g id="Node000003" class="node">
<title>Node3</title>
<g id="a_Node000003"><a xlink:href="class_galactic_shrine_1_1_dossier_reference.html#aa3b70c305ebfc9152c461c7f635e0ee9" target="_top" xlink:title="[FR] Créer un répertoire [EN] Create a directory">
<polygon fill="white" stroke="#666666" points="186.62,-470 22.12,-470 22.12,-438 186.62,-438 186.62,-470"/>
<text text-anchor="start" x="30.12" y="-456.5" font-family="Helvetica,sans-Serif" font-size="10.00">GalacticShrine.DossierReference.</text>
<text text-anchor="middle" x="104.38" y="-444.5" font-family="Helvetica,sans-Serif" font-size="10.00">Creer</text>
</a>
</g>
</g>
<!-- Node1&#45;&gt;Node3 -->
<g id="edge2_Node000001_Node000003" class="edge">
<title>Node1&#45;&gt;Node3</title>
<g id="a_edge2_Node000001_Node000003"><a xlink:title=" ">
<path fill="none" stroke="#63b8ff" d="M315.6,-280.73C299.04,-319.6 262.95,-391.21 208.75,-429 202.09,-433.65 194.66,-437.43 186.93,-440.52"/>
<polygon fill="#63b8ff" stroke="#63b8ff" points="318.77,-282.21 319.35,-271.64 312.3,-279.54 318.77,-282.21"/>
</a>
</g>
</g>
<!-- Node4 -->
<g id="Node000004" class="node">
<title>Node4</title>
<g id="a_Node000004"><a xlink:href="class_galactic_shrine_1_1_dossier_reference.html#a9129130019ad5cc2b229c731a8620b74" target="_top" xlink:title="[FR] Énumérer les fichiers d&#39;un répertoire donné [EN] Enumerate files from a given directory">
<polygon fill="white" stroke="#666666" points="186.62,-420 22.12,-420 22.12,-388 186.62,-388 186.62,-420"/>
<text text-anchor="start" x="30.12" y="-406.5" font-family="Helvetica,sans-Serif" font-size="10.00">GalacticShrine.DossierReference.</text>
<text text-anchor="middle" x="104.38" y="-394.5" font-family="Helvetica,sans-Serif" font-size="10.00">FichiersEnumerer</text>
</a>
</g>
</g>
<!-- Node1&#45;&gt;Node4 -->
<g id="edge3_Node000001_Node000004" class="edge">
<title>Node1&#45;&gt;Node4</title>
<g id="a_edge3_Node000001_Node000004"><a xlink:title=" ">
<path fill="none" stroke="#63b8ff" d="M309.01,-279.61C288.62,-308.27 251.76,-353.95 208.75,-379 201.97,-382.95 194.59,-386.28 187,-389.08"/>
<polygon fill="#63b8ff" stroke="#63b8ff" points="311.82,-281.7 314.65,-271.49 306.07,-277.7 311.82,-281.7"/>
</a>
</g>
</g>
<!-- Node5 -->
<g id="Node000005" class="node">
<title>Node5</title>
<g id="a_Node000005"><a xlink:href="class_galactic_shrine_1_1_dossier_reference.html#a0730a46c3f01ad3c02a5018958c0e520" target="_top" xlink:title="[FR] Énumérer les fichiers d&#39;un répertoire donné [EN] Enumerate files from a given directory">
<polygon fill="white" stroke="#666666" points="186.62,-370 22.12,-370 22.12,-338 186.62,-338 186.62,-370"/>
<text text-anchor="start" x="30.12" y="-356.5" font-family="Helvetica,sans-Serif" font-size="10.00">GalacticShrine.DossierReference.</text>
<text text-anchor="middle" x="104.38" y="-344.5" font-family="Helvetica,sans-Serif" font-size="10.00">FichiersEnumerer</text>
</a>
</g>
</g>
<!-- Node1&#45;&gt;Node5 -->
<g id="edge4_Node000001_Node000005" class="edge">
<title>Node1&#45;&gt;Node5</title>
<g id="a_edge4_Node000001_Node000005"><a xlink:title=" ">
<path fill="none" stroke="#63b8ff" d="M296.03,-277.14C273.22,-293.74 240.45,-315.48 208.75,-329 201.28,-332.19 193.32,-335.02 185.26,-337.52"/>
<polygon fill="#63b8ff" stroke="#63b8ff" points="297.99,-280.05 303.95,-271.28 293.83,-274.42 297.99,-280.05"/>
</a>
</g>
</g>
<!-- Node6 -->
<g id="Node000006" class="node">
<title>Node6</title>
<g id="a_Node000006"><a xlink:href="class_galactic_shrine_1_1_dossier_reference.html#a7978b8dac894861a49ca2b86b9091dd6" target="_top" xlink:title="[FR] Fonction d&#39;aide à la création d&#39;une référence de répertoire distant. Contrairement à un objet Do...">
<polygon fill="white" stroke="#666666" points="186.62,-320 22.12,-320 22.12,-288 186.62,-288 186.62,-320"/>
<text text-anchor="start" x="30.12" y="-306.5" font-family="Helvetica,sans-Serif" font-size="10.00">GalacticShrine.DossierReference.</text>
<text text-anchor="middle" x="104.38" y="-294.5" font-family="Helvetica,sans-Serif" font-size="10.00">MarquerADistance</text>
</a>
</g>
</g>
<!-- Node1&#45;&gt;Node6 -->
<g id="edge5_Node000001_Node000006" class="edge">
<title>Node1&#45;&gt;Node6</title>
<g id="a_edge5_Node000001_Node000006"><a xlink:title=" ">
<path fill="none" stroke="#63b8ff" d="M242.49,-272.92C221.26,-277.74 198.61,-282.87 177.97,-287.55"/>
<polygon fill="#63b8ff" stroke="#63b8ff" points="243,-276.4 251.98,-270.78 241.45,-269.57 243,-276.4"/>
</a>
</g>
</g>
<!-- Node7 -->
<g id="Node000007" class="node">
<title>Node7</title>
<g id="a_Node000007"><a xlink:href="class_galactic_shrine_1_1_dossier_reference.html#ae4bc967f181b51f76aa4d01132d59412" target="_top" xlink:title="[FR] Récupère le chemin d&#39;accès d&#39;un dossier spécial [EN] Gets the path for a special folder">
<polygon fill="white" stroke="#666666" points="186.62,-270 22.12,-270 22.12,-238 186.62,-238 186.62,-270"/>
<text text-anchor="start" x="30.12" y="-256.5" font-family="Helvetica,sans-Serif" font-size="10.00">GalacticShrine.DossierReference.</text>
<text text-anchor="middle" x="104.38" y="-244.5" font-family="Helvetica,sans-Serif" font-size="10.00">ObtenirLeDossierSpecial</text>
</a>
</g>
</g>
<!-- Node1&#45;&gt;Node7 -->
<g id="edge6_Node000001_Node000007" class="edge">
<title>Node1&#45;&gt;Node7</title>
<g id="a_edge6_Node000001_Node000007"><a xlink:title=" ">
<path fill="none" stroke="#63b8ff" d="M233.35,-254C217.94,-254 202.05,-254 186.93,-254"/>
<polygon fill="#63b8ff" stroke="#63b8ff" points="232.96,-257.5 242.96,-254 232.96,-250.5 232.96,-257.5"/>
</a>
</g>
</g>
<!-- Node8 -->
<g id="Node000008" class="node">
<title>Node8</title>
<g id="a_Node000008"><a xlink:href="class_galactic_shrine_1_1_dossier_reference.html#a57be00912250e50daa61ee968cbb2680" target="_top" xlink:title="[FR] Obtient le nom du répertoire des niveaux supérieurs. [EN] Gets the top levels directory name.">
<polygon fill="white" stroke="#666666" points="186.62,-220 22.12,-220 22.12,-188 186.62,-188 186.62,-220"/>
<text text-anchor="start" x="30.12" y="-206.5" font-family="Helvetica,sans-Serif" font-size="10.00">GalacticShrine.DossierReference.</text>
<text text-anchor="middle" x="104.38" y="-194.5" font-family="Helvetica,sans-Serif" font-size="10.00">ObtenirLeNomDuRepertoire</text>
</a>
</g>
</g>
<!-- Node1&#45;&gt;Node8 -->
<g id="edge7_Node000001_Node000008" class="edge">
<title>Node1&#45;&gt;Node8</title>
<g id="a_edge7_Node000001_Node000008"><a xlink:title=" ">
<path fill="none" stroke="#63b8ff" d="M242.49,-235.08C221.26,-230.26 198.61,-225.13 177.97,-220.45"/>
<polygon fill="#63b8ff" stroke="#63b8ff" points="241.45,-238.43 251.98,-237.22 243,-231.6 241.45,-238.43"/>
</a>
</g>
</g>
<!-- Node9 -->
<g id="Node000009" class="node">
<title>Node9</title>
<g id="a_Node000009"><a xlink:href="class_galactic_shrine_1_1_dossier_reference.html#a02f583140d69a4e18d8a476ee2b10d85" target="_top" xlink:title="[FR] compare deux noms d&#39;objets du système de fichiers pour l&#39;égalité. Utilise la représentation du n...">
<polygon fill="white" stroke="#666666" points="208.75,-170 0,-170 0,-150 208.75,-150 208.75,-170"/>
<text text-anchor="middle" x="104.38" y="-156.5" font-family="Helvetica,sans-Serif" font-size="10.00">GalacticShrine.DossierReference.operator!=</text>
</a>
</g>
</g>
<!-- Node1&#45;&gt;Node9 -->
<g id="edge8_Node000001_Node000009" class="edge">
<title>Node1&#45;&gt;Node9</title>
<g id="a_edge8_Node000001_Node000009"><a xlink:title=" ">
<path fill="none" stroke="#63b8ff" d="M296.66,-230.64C273.95,-213.74 241.01,-191.71 208.75,-179 200.09,-175.59 190.78,-172.78 181.42,-170.47"/>
<polygon fill="#63b8ff" stroke="#63b8ff" points="294.45,-233.36 304.53,-236.62 298.68,-227.79 294.45,-233.36"/>
</a>
</g>
</g>
<!-- Node10 -->
<g id="Node000010" class="node">
<title>Node10</title>
<g id="a_Node000010"><a xlink:href="class_galactic_shrine_1_1_dossier_reference.html#ac672fd08ba21f294b9f26af8425f5795" target="_top" xlink:title="[FR] Énumérer un sous&#45;répertoire dans un répertoire donné [EN] Enumerate subdirectory in a given dire...">
<polygon fill="white" stroke="#666666" points="186.62,-132 22.12,-132 22.12,-100 186.62,-100 186.62,-132"/>
<text text-anchor="start" x="30.12" y="-118.5" font-family="Helvetica,sans-Serif" font-size="10.00">GalacticShrine.DossierReference.</text>
<text text-anchor="middle" x="104.38" y="-106.5" font-family="Helvetica,sans-Serif" font-size="10.00">RepertoireEnumerer</text>
</a>
</g>
</g>
<!-- Node1&#45;&gt;Node10 -->
<g id="edge9_Node000001_Node000010" class="edge">
<title>Node1&#45;&gt;Node10</title>
<g id="a_edge9_Node000001_Node000010"><a xlink:title=" ">
<path fill="none" stroke="#63b8ff" d="M306.81,-228.87C285.63,-202.92 249.14,-163.18 208.75,-141 201.95,-137.27 194.6,-134.09 187.06,-131.38"/>
<polygon fill="#63b8ff" stroke="#63b8ff" points="303.98,-230.94 312.95,-236.57 309.45,-226.57 303.98,-230.94"/>
</a>
</g>
</g>
<!-- Node11 -->
<g id="Node000011" class="node">
<title>Node11</title>
<g id="a_Node000011"><a xlink:href="class_galactic_shrine_1_1_dossier_reference.html#af2a2d441c99a0cd9e6089b61ed1a3683" target="_top" xlink:title="[FR] Énumérer un sous&#45;répertoire dans un répertoire donné [EN] Enumerate subdirectory in a given dire...">
<polygon fill="white" stroke="#666666" points="186.62,-82 22.12,-82 22.12,-50 186.62,-50 186.62,-82"/>
<text text-anchor="start" x="30.12" y="-68.5" font-family="Helvetica,sans-Serif" font-size="10.00">GalacticShrine.DossierReference.</text>
<text text-anchor="middle" x="104.38" y="-56.5" font-family="Helvetica,sans-Serif" font-size="10.00">RepertoireEnumerer</text>
</a>
</g>
</g>
<!-- Node1&#45;&gt;Node11 -->
<g id="edge10_Node000001_Node000011" class="edge">
<title>Node1&#45;&gt;Node11</title>
<g id="a_edge10_Node000001_Node000011"><a xlink:title=" ">
<path fill="none" stroke="#63b8ff" d="M314.21,-227.24C296.65,-190.64 260.12,-125.56 208.75,-91 202.09,-86.52 194.7,-82.83 187.03,-79.81"/>
<polygon fill="#63b8ff" stroke="#63b8ff" points="311.01,-228.66 318.4,-236.25 317.35,-225.71 311.01,-228.66"/>
</a>
</g>
</g>
<!-- Node12 -->
<g id="Node000012" class="node">
<title>Node12</title>
<g id="a_Node000012"><a xlink:href="class_galactic_shrine_1_1_dossier_reference.html#a1fa4597558c062acc7e03f1426fd4f06" target="_top" xlink:title="[FR] Énumérer un sous&#45;répertoire dans un répertoire donné [EN] Enumerate subdirectory in a given dire...">
<polygon fill="white" stroke="#666666" points="186.62,-32 22.12,-32 22.12,0 186.62,0 186.62,-32"/>
<text text-anchor="start" x="30.12" y="-18.5" font-family="Helvetica,sans-Serif" font-size="10.00">GalacticShrine.DossierReference.</text>
<text text-anchor="middle" x="104.38" y="-6.5" font-family="Helvetica,sans-Serif" font-size="10.00">RepertoireEnumerer</text>
</a>
</g>
</g>
<!-- Node1&#45;&gt;Node12 -->
<g id="edge11_Node000001_Node000012" class="edge">
<title>Node1&#45;&gt;Node12</title>
<g id="a_edge11_Node000001_Node000012"><a xlink:title=" ">
<path fill="none" stroke="#63b8ff" d="M318.85,-226.85C305.36,-181.14 271.7,-89.09 208.75,-41 202.22,-36.01 194.84,-32 187.1,-28.78"/>
<polygon fill="#63b8ff" stroke="#63b8ff" points="315.41,-227.55 321.51,-236.22 322.15,-225.64 315.41,-227.55"/>
</a>
</g>
</g>
</g>
</svg>
