<?xml version="1.0" encoding="UTF-8" standalone="no"?>
<!DOCTYPE svg PUBLIC "-//W3C//DTD SVG 1.1//EN"
 "http://www.w3.org/Graphics/SVG/1.1/DTD/svg11.dtd">
<!-- Generated by graphviz version 12.2.0 (20241103.1931)
 -->
<!-- Title: GalacticShrine.Modele.Configuration.Ini.SectionCollection.SectionCollection Pages: 1 -->
<!--zoomable 216 -->

<svg id="main" version="1.1" xmlns="http://www.w3.org/2000/svg" xmlns:xlink="http://www.w3.org/1999/xlink" xml:space="preserve" onload="init(evt)">

<style type="text/css"><![CDATA[
.node, .edge {opacity: 0.7;}
.node.selected, .edge.selected {opacity: 1;}
.edge:hover path { stroke: red; }
.edge:hover polygon { stroke: red; fill: red; }
]]></style>

<defs>
  <circle id="rim" cx="0" cy="0" r="7"/>
  <circle id="rim2" cx="0" cy="0" r="3.5"/>
  <g id="zoomPlus">
    <use xlink:href="#rim" fill="#404040"><set attributeName="fill" to="#808080" begin="zoomplus.mouseover" end="zoomplus.mouseout"/></use>
    <path d="M-4,0h8M0,-4v8" fill="none" stroke="white" stroke-width="1.5" pointer-events="none"/>
  </g>
  <g id="zoomMin">
    <use xlink:href="#rim" fill="#404040"><set attributeName="fill" to="#808080" begin="zoomminus.mouseover" end="zoomminus.mouseout"/></use>
    <path d="M-4,0h8" fill="none" stroke="white" stroke-width="1.5" pointer-events="none"/>
  </g>
  <g id="arrowUp" transform="translate(30 24)">
    <use xlink:href="#rim"/>
    <path pointer-events="none" fill="none" stroke="white" stroke-width="1.5" d="M0,-3.0v7 M-2.5,-0.5L0,-3.0L2.5,-0.5"/>
  </g>
  <g id="arrowRight" transform="rotate(90) translate(36 -43)">
    <use xlink:href="#rim"/>
    <path pointer-events="none" fill="none" stroke="white" stroke-width="1.5" d="M0,-3.0v7 M-2.5,-0.5L0,-3.0L2.5,-0.5"/>
  </g>
  <g id="arrowDown" transform="rotate(180) translate(-30 -48)">
    <use xlink:href="#rim"/>
    <path pointer-events="none" fill="none" stroke="white" stroke-width="1.5" d="M0,-3.0v7 M-2.5,-0.5L0,-3.0L2.5,-0.5"/>
  </g>
  <g id="arrowLeft" transform="rotate(270) translate(-36 17)">
    <use xlink:href="#rim"/>
    <path pointer-events="none" fill="none" stroke="white" stroke-width="1.5" d="M0,-3.0v7 M-2.5,-0.5L0,-3.0L2.5,-0.5"/>
  </g>
  <g id="resetDef">
    <use xlink:href="#rim2" fill="#404040"><set attributeName="fill" to="#808080" begin="reset.mouseover" end="reset.mouseout"/></use>
  </g>
</defs>
<script type="application/ecmascript">
var viewWidth = 1202;
var viewHeight = 216;
var sectionId = 'dynsection-2';
</script>
<script type="application/ecmascript" xlink:href="svg.min.js"/>
<svg id="graph" class="graph">
<g id="viewport">
<title>GalacticShrine.Modele.Configuration.Ini.SectionCollection.SectionCollection</title>
<!-- Node1 -->
<g id="Node000001" class="node">
<title>Node1</title>
<g id="a_Node000001"><a xlink:title="[FR] Initialise une nouvelle instance de la classe GalacticShrine.Modele.Configuration....">
<polygon fill="#999999" stroke="#666666" points="1194,-76 1008.5,-76 1008.5,-44 1194,-44 1194,-76"/>
<text text-anchor="start" x="1016.5" y="-62.5" font-family="Helvetica,sans-Serif" font-size="10.00">GalacticShrine.Modele.Configuration.</text>
<text text-anchor="middle" x="1101.25" y="-50.5" font-family="Helvetica,sans-Serif" font-size="10.00">Ini.SectionCollection.SectionCollection</text>
</a>
</g>
</g>
<!-- Node2 -->
<g id="Node000002" class="node">
<title>Node2</title>
<g id="a_Node000002"><a xlink:href="class_galactic_shrine_1_1_modele_1_1_configuration_1_1_ini_1_1_section_collection.html#a059d00b51e709988710f540717083478" target="_top" xlink:title="[FR] Permet de savoir si une section portant le nom spécifié existe dans la collection....">
<polygon fill="white" stroke="#666666" points="968.75,-142 790.75,-142 790.75,-110 968.75,-110 968.75,-142"/>
<text text-anchor="start" x="798.75" y="-128.5" font-family="Helvetica,sans-Serif" font-size="10.00">GalacticShrine.Modele.Configuration.</text>
<text text-anchor="middle" x="879.75" y="-116.5" font-family="Helvetica,sans-Serif" font-size="10.00">Ini.SectionCollection.Contient</text>
</a>
</g>
</g>
<!-- Node1&#45;&gt;Node2 -->
<g id="edge1_Node000001_Node000002" class="edge">
<title>Node1&#45;&gt;Node2</title>
<g id="a_edge1_Node000001_Node000002"><a xlink:title=" ">
<path fill="none" stroke="#63b8ff" d="M1034.49,-79.77C1002.83,-89.29 965.3,-100.58 935.25,-109.61"/>
<polygon fill="#63b8ff" stroke="#63b8ff" points="1035.41,-83.15 1043.98,-76.92 1033.39,-76.45 1035.41,-83.15"/>
</a>
</g>
</g>
<!-- Node5 -->
<g id="Node000005" class="node">
<title>Node5</title>
<g id="a_Node000005"><a xlink:href="class_galactic_shrine_1_1_modele_1_1_configuration_1_1_ini_1_1_section_collection.html#ac2f833e033dd9b7cb49023856a6ae7c9" target="_top" xlink:title=" ">
<polygon fill="white" stroke="#666666" points="537,-85 359,-85 359,-53 537,-53 537,-85"/>
<text text-anchor="start" x="367" y="-71.5" font-family="Helvetica,sans-Serif" font-size="10.00">GalacticShrine.Modele.Configuration.</text>
<text text-anchor="middle" x="448" y="-59.5" font-family="Helvetica,sans-Serif" font-size="10.00">Ini.SectionCollection.Fusionner</text>
</a>
</g>
</g>
<!-- Node1&#45;&gt;Node5 -->
<g id="edge9_Node000001_Node000005" class="edge">
<title>Node1&#45;&gt;Node5</title>
<g id="a_edge9_Node000001_Node000005"><a xlink:title=" ">
<path fill="none" stroke="#63b8ff" d="M997.08,-61.43C870.2,-63.18 656.99,-66.13 537.33,-67.78"/>
<polygon fill="#63b8ff" stroke="#63b8ff" points="996.86,-64.93 1006.81,-61.29 996.76,-57.93 996.86,-64.93"/>
</a>
</g>
</g>
<!-- Node9 -->
<g id="Node000009" class="node">
<title>Node9</title>
<g id="a_Node000009"><a xlink:href="class_galactic_shrine_1_1_modele_1_1_configuration_1_1_ini_1_1_section_collection.html#acae5236f53eea745b65df0ba6bc6ba57" target="_top" xlink:title="[FR] Initialise une nouvelle instance de la classe GalacticShrine.Modele.Configuration....">
<polygon fill="white" stroke="#666666" points="972.5,-32 787,-32 787,0 972.5,0 972.5,-32"/>
<text text-anchor="start" x="795" y="-18.5" font-family="Helvetica,sans-Serif" font-size="10.00">GalacticShrine.Modele.Configuration.</text>
<text text-anchor="middle" x="879.75" y="-6.5" font-family="Helvetica,sans-Serif" font-size="10.00">Ini.SectionCollection.SectionCollection</text>
</a>
</g>
</g>
<!-- Node1&#45;&gt;Node9 -->
<g id="edge10_Node000001_Node000009" class="edge">
<title>Node1&#45;&gt;Node9</title>
<g id="a_edge10_Node000001_Node000009"><a xlink:title=" ">
<path fill="none" stroke="#63b8ff" d="M1007.11,-41.33C992.47,-38.4 977.43,-35.38 963.06,-32.5"/>
<polygon fill="#63b8ff" stroke="#63b8ff" points="1006.23,-44.72 1016.72,-43.26 1007.6,-37.86 1006.23,-44.72"/>
</a>
</g>
</g>
<!-- Node3 -->
<g id="Node000003" class="node">
<title>Node3</title>
<g id="a_Node000003"><a xlink:href="class_galactic_shrine_1_1_modele_1_1_configuration_1_1_ini_1_1_section_collection.html#ae22f32de4181a433da5d6ab3bd28d365" target="_top" xlink:title="[FR] Ajoute une nouvelle instance de section à la collection. &#160;[EN] Adds a new section instance to th...">
<polygon fill="white" stroke="#666666" points="751,-208 573,-208 573,-176 751,-176 751,-208"/>
<text text-anchor="start" x="581" y="-194.5" font-family="Helvetica,sans-Serif" font-size="10.00">GalacticShrine.Modele.Configuration.</text>
<text text-anchor="middle" x="662" y="-182.5" font-family="Helvetica,sans-Serif" font-size="10.00">Ini.SectionCollection.Ajouter</text>
</a>
</g>
</g>
<!-- Node2&#45;&gt;Node3 -->
<g id="edge2_Node000002_Node000003" class="edge">
<title>Node2&#45;&gt;Node3</title>
<g id="a_edge2_Node000002_Node000003"><a xlink:title=" ">
<path fill="none" stroke="#63b8ff" d="M814.12,-145.77C782.99,-155.29 746.11,-166.58 716.57,-175.61"/>
<polygon fill="#63b8ff" stroke="#63b8ff" points="814.88,-149.2 823.42,-142.93 812.83,-142.51 814.88,-149.2"/>
</a>
</g>
</g>
<!-- Node4 -->
<g id="Node000004" class="node">
<title>Node4</title>
<g id="a_Node000004"><a xlink:href="class_galactic_shrine_1_1_modele_1_1_configuration_1_1_ini_1_1_section_collection.html#ab439f8ed108317714dae058d645f56c0" target="_top" xlink:title="[FR] Crée une nouvelle section avec des données vides. &#160;[EN] Creates a new section with empty data.">
<polygon fill="white" stroke="#666666" points="751,-120 573,-120 573,-88 751,-88 751,-120"/>
<text text-anchor="start" x="581" y="-106.5" font-family="Helvetica,sans-Serif" font-size="10.00">GalacticShrine.Modele.Configuration.</text>
<text text-anchor="middle" x="662" y="-94.5" font-family="Helvetica,sans-Serif" font-size="10.00">Ini.SectionCollection.Ajouter</text>
</a>
</g>
</g>
<!-- Node2&#45;&gt;Node4 -->
<g id="edge3_Node000002_Node000004" class="edge">
<title>Node2&#45;&gt;Node4</title>
<g id="a_edge3_Node000002_Node000004"><a xlink:title=" ">
<path fill="none" stroke="#63b8ff" d="M779.09,-115.84C769.8,-114.89 760.42,-113.93 751.24,-113"/>
<polygon fill="#63b8ff" stroke="#63b8ff" points="778.56,-119.3 788.87,-116.83 779.27,-112.34 778.56,-119.3"/>
</a>
</g>
</g>
<!-- Node6 -->
<g id="Node000006" class="node">
<title>Node6</title>
<g id="a_Node000006"><a xlink:href="class_galactic_shrine_1_1_configuration_1_1_ini.html#a23f514b3f12d239e58c39e45cd133d51" target="_top" xlink:title="[FR] Traite une chaîne de caractères contenant une section ini. &#160;[EN] Processes a string containing a...">
<polygon fill="white" stroke="#666666" points="519.75,-154 376.25,-154 376.25,-122 519.75,-122 519.75,-154"/>
<text text-anchor="start" x="384.25" y="-140.5" font-family="Helvetica,sans-Serif" font-size="10.00">GalacticShrine.Configuration.</text>
<text text-anchor="middle" x="448" y="-128.5" font-family="Helvetica,sans-Serif" font-size="10.00">Ini.SectionDeProcessus</text>
</a>
</g>
</g>
<!-- Node2&#45;&gt;Node6 -->
<g id="edge8_Node000002_Node000006" class="edge">
<title>Node2&#45;&gt;Node6</title>
<g id="a_edge8_Node000002_Node000006"><a xlink:title=" ">
<path fill="none" stroke="#63b8ff" d="M779.01,-128.79C699.72,-131 590.75,-134.04 520.09,-136.01"/>
<polygon fill="#63b8ff" stroke="#63b8ff" points="779.08,-132.28 788.97,-128.51 778.88,-125.29 779.08,-132.28"/>
</a>
</g>
</g>
<!-- Node4&#45;&gt;Node5 -->
<g id="edge4_Node000004_Node000005" class="edge">
<title>Node4&#45;&gt;Node5</title>
<g id="a_edge4_Node000004_Node000005"><a xlink:title=" ">
<path fill="none" stroke="#63b8ff" d="M561.31,-87.54C553.27,-86.21 545.18,-84.88 537.23,-83.57"/>
<polygon fill="#63b8ff" stroke="#63b8ff" points="560.7,-90.99 571.13,-89.16 561.84,-84.08 560.7,-90.99"/>
</a>
</g>
</g>
<!-- Node4&#45;&gt;Node6 -->
<g id="edge5_Node000004_Node000006" class="edge">
<title>Node4&#45;&gt;Node6</title>
<g id="a_edge5_Node000004_Node000006"><a xlink:title=" ">
<path fill="none" stroke="#63b8ff" d="M561.49,-119.96C547.53,-122.2 533.42,-124.46 520.14,-126.59"/>
<polygon fill="#63b8ff" stroke="#63b8ff" points="561.81,-123.45 571.13,-118.41 560.71,-116.54 561.81,-123.45"/>
</a>
</g>
</g>
<!-- Node7 -->
<g id="Node000007" class="node">
<title>Node7</title>
<g id="a_Node000007"><a xlink:href="class_galactic_shrine_1_1_configuration_1_1_ini.html#ab6c8c10782835b28847a24c919e2ad6c" target="_top" xlink:title="[FR] Traite une ligne et analyse les données qui s&#39;y trouvent (section ou paire clé/valeur avec ou sa...">
<polygon fill="white" stroke="#666666" points="323,-154 179.5,-154 179.5,-122 323,-122 323,-154"/>
<text text-anchor="start" x="187.5" y="-140.5" font-family="Helvetica,sans-Serif" font-size="10.00">GalacticShrine.Configuration.</text>
<text text-anchor="middle" x="251.25" y="-128.5" font-family="Helvetica,sans-Serif" font-size="10.00">Ini.LigneDeProcessus</text>
</a>
</g>
</g>
<!-- Node6&#45;&gt;Node7 -->
<g id="edge6_Node000006_Node000007" class="edge">
<title>Node6&#45;&gt;Node7</title>
<g id="a_edge6_Node000006_Node000007"><a xlink:title=" ">
<path fill="none" stroke="#63b8ff" d="M364.45,-138C350.73,-138 336.6,-138 323.19,-138"/>
<polygon fill="#63b8ff" stroke="#63b8ff" points="364.35,-141.5 374.35,-138 364.35,-134.5 364.35,-141.5"/>
</a>
</g>
</g>
<!-- Node8 -->
<g id="Node000008" class="node">
<title>Node8</title>
<g id="a_Node000008"><a xlink:href="class_galactic_shrine_1_1_configuration_1_1_ini.html#ac15c07bfff5ae1ddc1dc255904aa5f70" target="_top" xlink:title="[FR] Analyse une chaîne contenant des données ini valides. &#160;[EN] Parses a string containing valid ini...">
<polygon fill="white" stroke="#666666" points="143.5,-154 0,-154 0,-122 143.5,-122 143.5,-154"/>
<text text-anchor="start" x="8" y="-140.5" font-family="Helvetica,sans-Serif" font-size="10.00">GalacticShrine.Configuration.</text>
<text text-anchor="middle" x="71.75" y="-128.5" font-family="Helvetica,sans-Serif" font-size="10.00">Ini.Analyse</text>
</a>
</g>
</g>
<!-- Node7&#45;&gt;Node8 -->
<g id="edge7_Node000007_Node000008" class="edge">
<title>Node7&#45;&gt;Node8</title>
<g id="a_edge7_Node000007_Node000008"><a xlink:title=" ">
<path fill="none" stroke="#63b8ff" d="M167.58,-138C159.68,-138 151.72,-138 143.94,-138"/>
<polygon fill="#63b8ff" stroke="#63b8ff" points="167.56,-141.5 177.56,-138 167.56,-134.5 167.56,-141.5"/>
</a>
</g>
</g>
</g>
</svg>

<g id="navigator" transform="translate(0 0)" fill="#404254">
  <rect fill="#f2f5e9" fill-opacity="0.5" stroke="#606060" stroke-width=".5" x="0" y="0" width="60" height="60"/>
  <use id="zoomplus" xlink:href="#zoomPlus" x="17" y="9" onmousedown="handleZoom(evt,'in')"/>
  <use id="zoomminus" xlink:href="#zoomMin" x="42" y="9" onmousedown="handleZoom(evt,'out')"/>
  <use id="reset" xlink:href="#resetDef" x="30" y="36" onmousedown="handleReset()"/>
   <use id="arrowup" xlink:href="#arrowUp" x="0" y="0" onmousedown="handlePan(0,-1)"/>
  <use id="arrowright" xlink:href="#arrowRight" x="0" y="0" onmousedown="handlePan(1,0)"/>
  <use id="arrowdown" xlink:href="#arrowDown" x="0" y="0" onmousedown="handlePan(0,1)"/>
  <use id="arrowleft" xlink:href="#arrowLeft" x="0" y="0" onmousedown="handlePan(-1,0)"/>
</g>
<svg viewBox="0 0 15 15" width="100%" height="30px" preserveAspectRatio="xMaxYMin meet">
 <g id="arrow_out" transform="scale(0.3 0.3)">
  <a xlink:href="class_galactic_shrine_1_1_modele_1_1_configuration_1_1_ini_1_1_section_collection_ad60d92d481523dc4e20b4edea9ca9f0e_icgraph_org.svg" target="_base">
   <rect id="button" ry="5" rx="5" y="6" x="6" height="38" width="38"
        fill="#f2f5e9" fill-opacity="0.5" stroke="#606060" stroke-width="1.0"/>
   <path id="arrow"
     d="M 11.500037,31.436501 C 11.940474,20.09759 22.043105,11.32322 32.158766,21.979434 L 37.068811,17.246167 C 37.068811,17.246167 37.088388,32 37.088388,32 L 22.160133,31.978069 C 22.160133,31.978069 26.997745,27.140456 26.997745,27.140456 C 18.528582,18.264221 13.291696,25.230495 11.500037,31.436501 z"
     style="fill:#404040;"/>
  </a>
 </g>
</svg>

<style type='text/css'>
<![CDATA[
[data-mouse-over-selected='false'] { opacity: 0.7; }
[data-mouse-over-selected='true']  { opacity: 1.0; }
]]>
</style>
<script type="application/ecmascript"><![CDATA[
document.addEventListener('DOMContentLoaded', (event) => {
  highlightEdges();
  highlightAdjacentNodes();
});
]]></script>
</svg>
