<?xml version="1.0" encoding="UTF-8" standalone="no"?>
<!DOCTYPE svg PUBLIC "-//W3C//DTD SVG 1.1//EN"
 "http://www.w3.org/Graphics/SVG/1.1/DTD/svg11.dtd">
<!-- Generated by graphviz version 12.2.0 (20241103.1931)
 -->
<!-- Title: GalacticShrine.Configuration.Ini.ProprieteDeProcessus Pages: 1 -->
<svg width="632pt" height="252pt"
 viewBox="0.00 0.00 632.00 252.00" xmlns="http://www.w3.org/2000/svg" xmlns:xlink="http://www.w3.org/1999/xlink">
<g id="graph0" class="graph" transform="scale(1 1) rotate(0) translate(4 248)">
<title>GalacticShrine.Configuration.Ini.ProprieteDeProcessus</title>
<!-- Node1 -->
<g id="Node000001" class="node">
<title>Node1</title>
<g id="a_Node000001"><a xlink:title=" ">
<polygon fill="#999999" stroke="#666666" points="143.5,-138 0,-138 0,-106 143.5,-106 143.5,-138"/>
<text text-anchor="start" x="8" y="-124.5" font-family="Helvetica,sans-Serif" font-size="10.00">GalacticShrine.Configuration.</text>
<text text-anchor="middle" x="71.75" y="-112.5" font-family="Helvetica,sans-Serif" font-size="10.00">Ini.ProprieteDeProcessus</text>
</a>
</g>
</g>
<!-- Node2 -->
<g id="Node000002" class="node">
<title>Node2</title>
<g id="a_Node000002"><a xlink:href="struct_galactic_shrine_1_1_configuration_1_1_analyseur_1_1_tampon_de_chaine_1_1_plage.html#a4949516ec27473c61c29c8593b8c7be5" target="_top" xlink:title=" ">
<polygon fill="white" stroke="#666666" points="397.25,-244 179.5,-244 179.5,-212 397.25,-212 397.25,-244"/>
<text text-anchor="start" x="187.5" y="-230.5" font-family="Helvetica,sans-Serif" font-size="10.00">GalacticShrine.Configuration.</text>
<text text-anchor="middle" x="288.38" y="-218.5" font-family="Helvetica,sans-Serif" font-size="10.00">Analyseur.TamponDeChaine.Plage.AvecIndex</text>
</a>
</g>
</g>
<!-- Node1&#45;&gt;Node2 -->
<g id="edge1_Node000001_Node000002" class="edge">
<title>Node1&#45;&gt;Node2</title>
<g id="a_edge1_Node000001_Node000002"><a xlink:title=" ">
<path fill="none" stroke="#63b8ff" d="M89.38,-138.25C109.2,-156.71 144.11,-186.41 179.5,-203 183.05,-204.66 186.71,-206.22 190.45,-207.67"/>
<polygon fill="#63b8ff" stroke="#63b8ff" points="189.15,-210.92 199.74,-211.01 191.51,-204.34 189.15,-210.92"/>
</a>
</g>
</g>
<!-- Node3 -->
<g id="Node000003" class="node">
<title>Node3</title>
<g id="a_Node000003"><a xlink:href="class_galactic_shrine_1_1_configuration_1_1_analyseur_1_1_tampon_de_chaine.html#aa1784d12ea6aefb26d219e9010a90653" target="_top" xlink:title=" ">
<polygon fill="white" stroke="#666666" points="390.5,-44 186.25,-44 186.25,0 390.5,0 390.5,-44"/>
<text text-anchor="start" x="194.25" y="-30.5" font-family="Helvetica,sans-Serif" font-size="10.00">GalacticShrine.Configuration.</text>
<text text-anchor="start" x="194.25" y="-18.5" font-family="Helvetica,sans-Serif" font-size="10.00">Analyseur.TamponDeChaine.Changements</text>
<text text-anchor="middle" x="288.38" y="-6.5" font-family="Helvetica,sans-Serif" font-size="10.00">DansLesRejets</text>
</a>
</g>
</g>
<!-- Node1&#45;&gt;Node3 -->
<g id="edge2_Node000001_Node000003" class="edge">
<title>Node1&#45;&gt;Node3</title>
<g id="a_edge2_Node000001_Node000003"><a xlink:title=" ">
<path fill="none" stroke="#63b8ff" d="M93.75,-105.75C114.54,-90.33 147.76,-67.43 179.5,-53 182.87,-51.47 186.33,-49.99 189.86,-48.57"/>
<polygon fill="#63b8ff" stroke="#63b8ff" points="191.08,-51.85 199.17,-45.02 188.58,-45.31 191.08,-51.85"/>
</a>
</g>
</g>
<!-- Node4 -->
<g id="Node000004" class="node">
<title>Node4</title>
<g id="a_Node000004"><a xlink:href="struct_galactic_shrine_1_1_configuration_1_1_analyseur_1_1_tampon_de_chaine_1_1_plage.html#a2001d3beece21e14bb82661f749c60ae" target="_top" xlink:title=" ">
<polygon fill="white" stroke="#666666" points="620.62,-144 436.62,-144 436.62,-100 620.62,-100 620.62,-144"/>
<text text-anchor="start" x="444.62" y="-130.5" font-family="Helvetica,sans-Serif" font-size="10.00">GalacticShrine.Configuration.</text>
<text text-anchor="start" x="444.62" y="-118.5" font-family="Helvetica,sans-Serif" font-size="10.00">Analyseur.TamponDeChaine.Plage.De</text>
<text text-anchor="middle" x="528.62" y="-106.5" font-family="Helvetica,sans-Serif" font-size="10.00">L_IndexA_LaTaille</text>
</a>
</g>
</g>
<!-- Node1&#45;&gt;Node4 -->
<g id="edge5_Node000001_Node000004" class="edge">
<title>Node1&#45;&gt;Node4</title>
<g id="a_edge5_Node000001_Node000004"><a xlink:title=" ">
<path fill="none" stroke="#63b8ff" d="M143.82,-122C219.27,-122 339.21,-122 424.93,-122"/>
<polygon fill="#63b8ff" stroke="#63b8ff" points="424.74,-125.5 434.74,-122 424.74,-118.5 424.74,-125.5"/>
</a>
</g>
</g>
<!-- Node6 -->
<g id="Node000006" class="node">
<title>Node6</title>
<g id="a_Node000006"><a xlink:href="class_galactic_shrine_1_1_configuration_1_1_analyseur_1_1_tampon_de_chaine.html#ac0a94fa81730c6f5fde7f2f842200620" target="_top" xlink:title=" ">
<polygon fill="white" stroke="#666666" points="378.12,-94 198.62,-94 198.62,-62 378.12,-62 378.12,-94"/>
<text text-anchor="start" x="206.62" y="-80.5" font-family="Helvetica,sans-Serif" font-size="10.00">GalacticShrine.Configuration.</text>
<text text-anchor="middle" x="288.38" y="-68.5" font-family="Helvetica,sans-Serif" font-size="10.00">Analyseur.TamponDeChaine.ToString</text>
</a>
</g>
</g>
<!-- Node1&#45;&gt;Node6 -->
<g id="edge6_Node000001_Node000006" class="edge">
<title>Node1&#45;&gt;Node6</title>
<g id="a_edge6_Node000001_Node000006"><a xlink:title=" ">
<path fill="none" stroke="#63b8ff" d="M143.92,-107.41C160.69,-103.97 178.8,-100.26 196.32,-96.67"/>
<polygon fill="#63b8ff" stroke="#63b8ff" points="196.56,-100.19 205.65,-94.75 195.15,-93.33 196.56,-100.19"/>
</a>
</g>
</g>
<!-- Node7 -->
<g id="Node000007" class="node">
<title>Node7</title>
<g id="a_Node000007"><a xlink:href="class_galactic_shrine_1_1_configuration_1_1_analyseur_1_1_tampon_de_chaine.html#afa88b78cbdf391a2bdb3128d611760b6" target="_top" xlink:title=" ">
<polygon fill="white" stroke="#666666" points="376.62,-194 200.12,-194 200.12,-150 376.62,-150 376.62,-194"/>
<text text-anchor="start" x="208.12" y="-180.5" font-family="Helvetica,sans-Serif" font-size="10.00">GalacticShrine.Configuration.</text>
<text text-anchor="start" x="208.12" y="-168.5" font-family="Helvetica,sans-Serif" font-size="10.00">Analyseur.TamponDeChaine.Trouver</text>
<text text-anchor="middle" x="288.38" y="-156.5" font-family="Helvetica,sans-Serif" font-size="10.00">SousChaine</text>
</a>
</g>
</g>
<!-- Node1&#45;&gt;Node7 -->
<g id="edge7_Node000001_Node000007" class="edge">
<title>Node1&#45;&gt;Node7</title>
<g id="a_edge7_Node000001_Node000007"><a xlink:title=" ">
<path fill="none" stroke="#63b8ff" d="M143.32,-138.44C157.87,-141.83 173.45,-145.46 188.79,-149.03"/>
<polygon fill="#63b8ff" stroke="#63b8ff" points="187.89,-152.42 198.42,-151.28 189.47,-145.6 187.89,-152.42"/>
</a>
</g>
</g>
<!-- Node3&#45;&gt;Node4 -->
<g id="edge3_Node000003_Node000004" class="edge">
<title>Node3&#45;&gt;Node4</title>
<g id="a_edge3_Node000003_Node000004"><a xlink:title=" ">
<path fill="none" stroke="#63b8ff" d="M373.87,-44.45C381.85,-47.12 389.75,-49.98 397.25,-53 425.72,-64.48 456.12,-80.34 480.39,-93.96"/>
<polygon fill="#63b8ff" stroke="#63b8ff" points="478.65,-97 489.08,-98.89 482.11,-90.91 478.65,-97"/>
</a>
</g>
</g>
<!-- Node5 -->
<g id="Node000005" class="node">
<title>Node5</title>
<g id="a_Node000005"><a xlink:href="class_galactic_shrine_1_1_configuration_1_1_analyseur_1_1_tampon_de_chaine.html#a3660111c46db3c7f63414eaa29a7f844" target="_top" xlink:title=" ">
<polygon fill="white" stroke="#666666" points="624,-44 433.25,-44 433.25,0 624,0 624,-44"/>
<text text-anchor="start" x="441.25" y="-30.5" font-family="Helvetica,sans-Serif" font-size="10.00">GalacticShrine.Configuration.</text>
<text text-anchor="start" x="441.25" y="-18.5" font-family="Helvetica,sans-Serif" font-size="10.00">Analyseur.TamponDeChaine.TamponDe</text>
<text text-anchor="middle" x="528.62" y="-6.5" font-family="Helvetica,sans-Serif" font-size="10.00">Chaine</text>
</a>
</g>
</g>
<!-- Node3&#45;&gt;Node5 -->
<g id="edge4_Node000003_Node000005" class="edge">
<title>Node3&#45;&gt;Node5</title>
<g id="a_edge4_Node000003_Node000005"><a xlink:title=" ">
<path fill="none" stroke="#63b8ff" d="M390.76,-22C400.88,-22 411.18,-22 421.35,-22"/>
<polygon fill="#63b8ff" stroke="#63b8ff" points="421.25,-25.5 431.25,-22 421.25,-18.5 421.25,-25.5"/>
</a>
</g>
</g>
<!-- Node7&#45;&gt;Node4 -->
<g id="edge8_Node000007_Node000004" class="edge">
<title>Node7&#45;&gt;Node4</title>
<g id="a_edge8_Node000007_Node000004"><a xlink:title=" ">
<path fill="none" stroke="#63b8ff" d="M377.08,-153.59C392.81,-150.29 409.34,-146.82 425.45,-143.44"/>
<polygon fill="#63b8ff" stroke="#63b8ff" points="425.97,-146.91 435.03,-141.43 424.53,-140.06 425.97,-146.91"/>
</a>
</g>
</g>
</g>
</svg>
