<?xml version="1.0" encoding="UTF-8" standalone="no"?>
<!DOCTYPE svg PUBLIC "-//W3C//DTD SVG 1.1//EN"
 "http://www.w3.org/Graphics/SVG/1.1/DTD/svg11.dtd">
<!-- Generated by graphviz version 8.1.0 (20230707.0739)
 -->
<!-- Title: GalacticShrine.UI.Terminal.ThemeParams.RetablirCouleur Pages: 1 -->
<svg width="561pt" height="90pt"
 viewBox="0.00 0.00 560.75 90.00" xmlns="http://www.w3.org/2000/svg" xmlns:xlink="http://www.w3.org/1999/xlink">
<g id="graph0" class="graph" transform="scale(1 1) rotate(0) translate(4 86)">
<title>GalacticShrine.UI.Terminal.ThemeParams.RetablirCouleur</title>
<!-- Node1 -->
<g id="Node000001" class="node">
<title>Node1</title>
<g id="a_Node000001"><a xlink:title=" ">
<polygon fill="#999999" stroke="#666666" points="552.75,-57 404.75,-57 404.75,-25 552.75,-25 552.75,-57"/>
<text text-anchor="start" x="412.75" y="-43.5" font-family="Helvetica,sans-Serif" font-size="10.00">GalacticShrine.UI.Terminal.</text>
<text text-anchor="middle" x="478.75" y="-31.5" font-family="Helvetica,sans-Serif" font-size="10.00">ThemeParams.RetablirCouleur</text>
</a>
</g>
</g>
<!-- Node2 -->
<g id="Node000002" class="node">
<title>Node2</title>
<g id="a_Node000002"><a xlink:href="class_galactic_shrine_1_1_u_i_1_1_terminal_1_1_theme_lumineux.html#a6c1835520fe4de471bc0f4df2358713f" target="_top" xlink:title=" ">
<polygon fill="white" stroke="#666666" points="368.75,-82 197.5,-82 197.5,-50 368.75,-50 368.75,-82"/>
<text text-anchor="start" x="205.5" y="-68.5" font-family="Helvetica,sans-Serif" font-size="10.00">GalacticShrine.UI.Terminal.</text>
<text text-anchor="middle" x="283.12" y="-56.5" font-family="Helvetica,sans-Serif" font-size="10.00">ThemeLumineux.DefinirLesCouleurs</text>
</a>
</g>
</g>
<!-- Node1&#45;&gt;Node2 -->
<g id="edge1_Node000001_Node000002" class="edge">
<title>Node1&#45;&gt;Node2</title>
<g id="a_edge1_Node000001_Node000002"><a xlink:title=" ">
<path fill="none" stroke="#63b8ff" d="M393.43,-51.89C385.4,-52.92 377.27,-53.97 369.24,-55.01"/>
<polygon fill="#63b8ff" stroke="#63b8ff" points="393.8,-55.24 403.27,-50.49 392.91,-48.3 393.8,-55.24"/>
</a>
</g>
</g>
<!-- Node4 -->
<g id="Node000004" class="node">
<title>Node4</title>
<g id="a_Node000004"><a xlink:href="class_galactic_shrine_1_1_u_i_1_1_terminal_1_1_theme_sombre.html#ac5b63fc1b20610a3cbaf47ee2829eec2" target="_top" xlink:title=" ">
<polygon fill="white" stroke="#666666" points="364.62,-32 201.62,-32 201.62,0 364.62,0 364.62,-32"/>
<text text-anchor="start" x="209.62" y="-18.5" font-family="Helvetica,sans-Serif" font-size="10.00">GalacticShrine.UI.Terminal.</text>
<text text-anchor="middle" x="283.12" y="-6.5" font-family="Helvetica,sans-Serif" font-size="10.00">ThemeSombre.DefinirLesCouleurs</text>
</a>
</g>
</g>
<!-- Node1&#45;&gt;Node4 -->
<g id="edge3_Node000001_Node000004" class="edge">
<title>Node1&#45;&gt;Node4</title>
<g id="a_edge3_Node000001_Node000004"><a xlink:title=" ">
<path fill="none" stroke="#63b8ff" d="M393.63,-30.14C384.13,-28.91 374.45,-27.66 364.99,-26.44"/>
<polygon fill="#63b8ff" stroke="#63b8ff" points="392.91,-33.7 403.27,-31.51 393.8,-26.76 392.91,-33.7"/>
</a>
</g>
</g>
<!-- Node3 -->
<g id="Node000003" class="node">
<title>Node3</title>
<g id="a_Node000003"><a xlink:href="class_galactic_shrine_1_1_u_i_1_1_terminal_1_1_theme_lumineux.html#af0fce102a9735023fe98f2d6da78ed2d" target="_top" xlink:title=" ">
<polygon fill="white" stroke="#666666" points="161.5,-82 0,-82 0,-50 161.5,-50 161.5,-82"/>
<text text-anchor="start" x="8" y="-68.5" font-family="Helvetica,sans-Serif" font-size="10.00">GalacticShrine.UI.Terminal.</text>
<text text-anchor="middle" x="80.75" y="-56.5" font-family="Helvetica,sans-Serif" font-size="10.00">ThemeLumineux.ThemeLumineux</text>
</a>
</g>
</g>
<!-- Node2&#45;&gt;Node3 -->
<g id="edge2_Node000002_Node000003" class="edge">
<title>Node2&#45;&gt;Node3</title>
<g id="a_edge2_Node000002_Node000003"><a xlink:title=" ">
<path fill="none" stroke="#63b8ff" d="M186.36,-66C178.13,-66 169.85,-66 161.76,-66"/>
<polygon fill="#63b8ff" stroke="#63b8ff" points="186.15,-69.5 196.15,-66 186.15,-62.5 186.15,-69.5"/>
</a>
</g>
</g>
<!-- Node5 -->
<g id="Node000005" class="node">
<title>Node5</title>
<g id="a_Node000005"><a xlink:href="class_galactic_shrine_1_1_u_i_1_1_terminal_1_1_theme_sombre.html#a98209a3024e5aabb34c84e101489bd98" target="_top" xlink:title=" ">
<polygon fill="white" stroke="#666666" points="153.25,-32 8.25,-32 8.25,0 153.25,0 153.25,-32"/>
<text text-anchor="start" x="16.25" y="-18.5" font-family="Helvetica,sans-Serif" font-size="10.00">GalacticShrine.UI.Terminal.</text>
<text text-anchor="middle" x="80.75" y="-6.5" font-family="Helvetica,sans-Serif" font-size="10.00">ThemeSombre.ThemeSombre</text>
</a>
</g>
</g>
<!-- Node4&#45;&gt;Node5 -->
<g id="edge4_Node000004_Node000005" class="edge">
<title>Node4&#45;&gt;Node5</title>
<g id="a_edge4_Node000004_Node000005"><a xlink:title=" ">
<path fill="none" stroke="#63b8ff" d="M190.42,-16C178.07,-16 165.55,-16 153.61,-16"/>
<polygon fill="#63b8ff" stroke="#63b8ff" points="190.2,-19.5 200.2,-16 190.2,-12.5 190.2,-19.5"/>
</a>
</g>
</g>
</g>
</svg>
