<?xml version="1.0" encoding="UTF-8" standalone="no"?>
<!DOCTYPE svg PUBLIC "-//W3C//DTD SVG 1.1//EN"
 "http://www.w3.org/Graphics/SVG/1.1/DTD/svg11.dtd">
<!-- Generated by graphviz version 12.2.0 (20241103.1931)
 -->
<!-- Title: GalacticShrine.FichierSystemeReference.ContientTousLesNoms Pages: 1 -->
<svg width="552pt" height="80pt"
 viewBox="0.00 0.00 551.75 80.00" xmlns="http://www.w3.org/2000/svg" xmlns:xlink="http://www.w3.org/1999/xlink">
<g id="graph0" class="graph" transform="scale(1 1) rotate(0) translate(4 76)">
<title>GalacticShrine.FichierSystemeReference.ContientTousLesNoms</title>
<!-- Node1 -->
<g id="Node000001" class="node">
<title>Node1</title>
<g id="a_Node000001"><a xlink:title="[FR] Détermine si l&#39;objet donné est sous le répertoire donné, dans un sous&#45;dossier du nom donné....">
<polygon fill="#999999" stroke="#666666" points="163.75,-32 0,-32 0,0 163.75,0 163.75,-32"/>
<text text-anchor="start" x="8" y="-18.5" font-family="Helvetica,sans-Serif" font-size="10.00">GalacticShrine.FichierSysteme</text>
<text text-anchor="middle" x="81.88" y="-6.5" font-family="Helvetica,sans-Serif" font-size="10.00">Reference.ContientTousLesNoms</text>
</a>
</g>
</g>
<!-- Node2 -->
<g id="Node000002" class="node">
<title>Node2</title>
<g id="a_Node000002"><a xlink:href="class_galactic_shrine_1_1_fichier_systeme_reference.html#acc47c56ccbec6b6c4b35722936c8719b" target="_top" xlink:title="[FR] Détermine si l&#39;objet donné est sous le répertoire donné, dans un sous&#45;dossier du nom donné....">
<polygon fill="white" stroke="#666666" points="350.75,-54 199.75,-54 199.75,-22 350.75,-22 350.75,-54"/>
<text text-anchor="start" x="207.75" y="-40.5" font-family="Helvetica,sans-Serif" font-size="10.00">GalacticShrine.FichierSysteme</text>
<text text-anchor="middle" x="275.25" y="-28.5" font-family="Helvetica,sans-Serif" font-size="10.00">Reference.ContientLeNom</text>
</a>
</g>
</g>
<!-- Node1&#45;&gt;Node2 -->
<g id="edge1_Node000001_Node000002" class="edge">
<title>Node1&#45;&gt;Node2</title>
<g id="a_edge1_Node000001_Node000002"><a xlink:title=" ">
<path fill="none" stroke="#63b8ff" d="M164.04,-25.33C172,-26.25 180.1,-27.18 188.11,-28.1"/>
<polygon fill="#63b8ff" stroke="#63b8ff" points="187.51,-31.55 197.85,-29.22 188.31,-24.6 187.51,-31.55"/>
</a>
</g>
</g>
<!-- Node3 -->
<g id="Node000003" class="node">
<title>Node3</title>
<g id="a_Node000003"><a xlink:href="class_galactic_shrine_1_1_fichier_systeme_reference.html#abfc03c5b2589c13d5ada90301886908f" target="_top" xlink:title="[FR] Détermine si l&#39;objet donné est dans ou sous le répertoire donné. [EN] Determines if the given ob...">
<polygon fill="white" stroke="#666666" points="543.75,-32 386.75,-32 386.75,0 543.75,0 543.75,-32"/>
<text text-anchor="start" x="394.75" y="-18.5" font-family="Helvetica,sans-Serif" font-size="10.00">GalacticShrine.FichierSysteme</text>
<text text-anchor="middle" x="465.25" y="-6.5" font-family="Helvetica,sans-Serif" font-size="10.00">Reference.EstSousLeRepertoire</text>
</a>
</g>
</g>
<!-- Node1&#45;&gt;Node3 -->
<g id="edge4_Node000001_Node000003" class="edge">
<title>Node1&#45;&gt;Node3</title>
<g id="a_edge4_Node000001_Node000003"><a xlink:title=" ">
<path fill="none" stroke="#63b8ff" d="M163.98,-13.65C175.97,-13.38 188.18,-13.15 199.75,-13 266.86,-12.14 283.64,-12.11 350.75,-13 358.68,-13.1 366.91,-13.25 375.17,-13.42"/>
<polygon fill="#63b8ff" stroke="#63b8ff" points="374.82,-16.92 384.9,-13.64 374.98,-9.92 374.82,-16.92"/>
</a>
</g>
</g>
<!-- Node2&#45;&gt;Node2 -->
<g id="edge2_Node000002_Node000002" class="edge">
<title>Node2&#45;&gt;Node2</title>
<g id="a_edge2_Node000002_Node000002"><a xlink:title=" ">
<path fill="none" stroke="#63b8ff" d="M241.33,-54.44C235,-63.58 246.3,-72 275.25,-72 291.08,-72 301.63,-69.48 306.91,-65.71"/>
<polygon fill="#63b8ff" stroke="#63b8ff" points="310.34,-66.42 308.87,-55.93 303.48,-65.04 310.34,-66.42"/>
</a>
</g>
</g>
<!-- Node2&#45;&gt;Node3 -->
<g id="edge3_Node000002_Node000003" class="edge">
<title>Node2&#45;&gt;Node3</title>
<g id="a_edge3_Node000002_Node000003"><a xlink:title=" ">
<path fill="none" stroke="#63b8ff" d="M351.09,-29.24C358.96,-28.32 367.01,-27.38 375.01,-26.44"/>
<polygon fill="#63b8ff" stroke="#63b8ff" points="375.25,-29.94 384.77,-25.3 374.43,-22.99 375.25,-29.94"/>
</a>
</g>
</g>
</g>
</svg>
