<?xml version="1.0" encoding="UTF-8" standalone="no"?>
<!DOCTYPE svg PUBLIC "-//W3C//DTD SVG 1.1//EN"
 "http://www.w3.org/Graphics/SVG/1.1/DTD/svg11.dtd">
<!-- Generated by graphviz version 12.2.0 (20241103.1931)
 -->
<!-- Title: GalacticShrine.Modele.Configuration.Ini.SectionCollection.Fusionner Pages: 1 -->
<svg width="836pt" height="102pt"
 viewBox="0.00 0.00 835.50 102.00" xmlns="http://www.w3.org/2000/svg" xmlns:xlink="http://www.w3.org/1999/xlink">
<g id="graph0" class="graph" transform="scale(1 1) rotate(0) translate(4 98)">
<title>GalacticShrine.Modele.Configuration.Ini.SectionCollection.Fusionner</title>
<!-- Node1 -->
<g id="Node000001" class="node">
<title>Node1</title>
<g id="a_Node000001"><a xlink:title=" ">
<polygon fill="#999999" stroke="#666666" points="178,-54 0,-54 0,-22 178,-22 178,-54"/>
<text text-anchor="start" x="8" y="-40.5" font-family="Helvetica,sans-Serif" font-size="10.00">GalacticShrine.Modele.Configuration.</text>
<text text-anchor="middle" x="89" y="-28.5" font-family="Helvetica,sans-Serif" font-size="10.00">Ini.SectionCollection.Fusionner</text>
</a>
</g>
</g>
<!-- Node2 -->
<g id="Node000002" class="node">
<title>Node2</title>
<g id="a_Node000002"><a xlink:href="class_galactic_shrine_1_1_modele_1_1_configuration_1_1_ini_1_1_section_collection.html#ab439f8ed108317714dae058d645f56c0" target="_top" xlink:title="[FR] Crée une nouvelle section avec des données vides. &#160;[EN] Creates a new section with empty data.">
<polygon fill="white" stroke="#666666" points="392,-76 214,-76 214,-44 392,-44 392,-76"/>
<text text-anchor="start" x="222" y="-62.5" font-family="Helvetica,sans-Serif" font-size="10.00">GalacticShrine.Modele.Configuration.</text>
<text text-anchor="middle" x="303" y="-50.5" font-family="Helvetica,sans-Serif" font-size="10.00">Ini.SectionCollection.Ajouter</text>
</a>
</g>
</g>
<!-- Node1&#45;&gt;Node2 -->
<g id="edge1_Node000001_Node000002" class="edge">
<title>Node1&#45;&gt;Node2</title>
<g id="a_edge1_Node000001_Node000002"><a xlink:title=" ">
<path fill="none" stroke="#63b8ff" d="M178.37,-47.17C186.33,-48 194.42,-48.84 202.46,-49.67"/>
<polygon fill="#63b8ff" stroke="#63b8ff" points="201.96,-53.14 212.27,-50.69 202.68,-46.17 201.96,-53.14"/>
</a>
</g>
</g>
<!-- Node5 -->
<g id="Node000005" class="node">
<title>Node5</title>
<g id="a_Node000005"><a xlink:href="class_galactic_shrine_1_1_modele_1_1_configuration_1_1_ini_1_1_section_collection.html#ad60d92d481523dc4e20b4edea9ca9f0e" target="_top" xlink:title="[FR] Initialise une nouvelle instance de la classe GalacticShrine.Modele.Configuration....">
<polygon fill="white" stroke="#666666" points="827.5,-32 642,-32 642,0 827.5,0 827.5,-32"/>
<text text-anchor="start" x="650" y="-18.5" font-family="Helvetica,sans-Serif" font-size="10.00">GalacticShrine.Modele.Configuration.</text>
<text text-anchor="middle" x="734.75" y="-6.5" font-family="Helvetica,sans-Serif" font-size="10.00">Ini.SectionCollection.SectionCollection</text>
</a>
</g>
</g>
<!-- Node1&#45;&gt;Node5 -->
<g id="edge5_Node000001_Node000005" class="edge">
<title>Node1&#45;&gt;Node5</title>
<g id="a_edge5_Node000001_Node000005"><a xlink:title=" ">
<path fill="none" stroke="#63b8ff" d="M178.5,-34.98C296.47,-30.94 504.89,-23.82 630.08,-19.54"/>
<polygon fill="#63b8ff" stroke="#63b8ff" points="630.17,-23.04 640.05,-19.2 629.93,-16.05 630.17,-23.04"/>
</a>
</g>
</g>
<!-- Node3 -->
<g id="Node000003" class="node">
<title>Node3</title>
<g id="a_Node000003"><a xlink:href="class_galactic_shrine_1_1_modele_1_1_configuration_1_1_ini_1_1_section_collection.html#a059d00b51e709988710f540717083478" target="_top" xlink:title="[FR] Permet de savoir si une section portant le nom spécifié existe dans la collection....">
<polygon fill="white" stroke="#666666" points="606,-76 428,-76 428,-44 606,-44 606,-76"/>
<text text-anchor="start" x="436" y="-62.5" font-family="Helvetica,sans-Serif" font-size="10.00">GalacticShrine.Modele.Configuration.</text>
<text text-anchor="middle" x="517" y="-50.5" font-family="Helvetica,sans-Serif" font-size="10.00">Ini.SectionCollection.Contient</text>
</a>
</g>
</g>
<!-- Node2&#45;&gt;Node3 -->
<g id="edge2_Node000002_Node000003" class="edge">
<title>Node2&#45;&gt;Node3</title>
<g id="a_edge2_Node000002_Node000003"><a xlink:title=" ">
<path fill="none" stroke="#63b8ff" d="M392.37,-60C400.33,-60 408.42,-60 416.46,-60"/>
<polygon fill="#63b8ff" stroke="#63b8ff" points="416.26,-63.5 426.26,-60 416.26,-56.5 416.26,-63.5"/>
</a>
</g>
</g>
<!-- Node4 -->
<g id="Node000004" class="node">
<title>Node4</title>
<g id="a_Node000004"><a xlink:href="interface_galactic_shrine_1_1_interface_1_1_configuration_1_1_clonable_interface-1-g.html#a105777a718fdc2d14973eecfe9ba182b" target="_top" xlink:title="[FR] Crée un nouvel objet qui est une copie de l&#39;instance actuelle. [EN] Creates a new object that is...">
<polygon fill="white" stroke="#666666" points="811.38,-94 658.12,-94 658.12,-50 811.38,-50 811.38,-94"/>
<text text-anchor="start" x="666.12" y="-80.5" font-family="Helvetica,sans-Serif" font-size="10.00">GalacticShrine.Interface.</text>
<text text-anchor="start" x="666.12" y="-68.5" font-family="Helvetica,sans-Serif" font-size="10.00">Configuration.ClonableInterface</text>
<text text-anchor="middle" x="734.75" y="-56.5" font-family="Helvetica,sans-Serif" font-size="10.00">&#45;1&#45;g.CloneEnProfondeur</text>
</a>
</g>
</g>
<!-- Node3&#45;&gt;Node4 -->
<g id="edge3_Node000003_Node000004" class="edge">
<title>Node3&#45;&gt;Node4</title>
<g id="a_edge3_Node000003_Node000004"><a xlink:title=" ">
<path fill="none" stroke="#63b8ff" d="M606.38,-64.92C619.61,-65.65 633.24,-66.41 646.45,-67.14"/>
<polygon fill="#63b8ff" stroke="#63b8ff" points="646.24,-70.64 656.42,-67.7 646.63,-63.65 646.24,-70.64"/>
</a>
</g>
</g>
<!-- Node3&#45;&gt;Node5 -->
<g id="edge4_Node000003_Node000005" class="edge">
<title>Node3&#45;&gt;Node5</title>
<g id="a_edge4_Node000003_Node000005"><a xlink:title=" ">
<path fill="none" stroke="#63b8ff" d="M598.64,-43.55C612.76,-40.67 627.54,-37.66 641.93,-34.73"/>
<polygon fill="#63b8ff" stroke="#63b8ff" points="642.26,-38.23 651.36,-32.8 640.86,-31.37 642.26,-38.23"/>
</a>
</g>
</g>
</g>
</svg>
