<?xml version="1.0" encoding="UTF-8" standalone="no"?>
<!DOCTYPE svg PUBLIC "-//W3C//DTD SVG 1.1//EN"
 "http://www.w3.org/Graphics/SVG/1.1/DTD/svg11.dtd">
<!-- Generated by graphviz version 12.2.0 (20241103.1931)
 -->
<!-- Title: GalacticShrine.UI.Terminal.ThemeSombre Pages: 1 -->
<svg width="144pt" height="176pt"
 viewBox="0.00 0.00 144.00 176.00" xmlns="http://www.w3.org/2000/svg" xmlns:xlink="http://www.w3.org/1999/xlink">
<g id="graph0" class="graph" transform="scale(1 1) rotate(0) translate(4 172)">
<title>GalacticShrine.UI.Terminal.ThemeSombre</title>
<!-- Node1 -->
<g id="Node000001" class="node">
<title>Node1</title>
<g id="a_Node000001"><a xlink:title="[FR] Implémentation d&#39;un thème sombre (couleurs sombres en arrière&#45;plan). [EN] Implementation of a da...">
<polygon fill="#999999" stroke="#666666" points="136,-32 0,-32 0,0 136,0 136,-32"/>
<text text-anchor="start" x="8" y="-18.5" font-family="Helvetica,sans-Serif" font-size="10.00">GalacticShrine.UI.Terminal.</text>
<text text-anchor="middle" x="68" y="-6.5" font-family="Helvetica,sans-Serif" font-size="10.00">ThemeSombre</text>
</a>
</g>
</g>
<!-- Node2 -->
<g id="Node000002" class="node">
<title>Node2</title>
<g id="a_Node000002"><a xlink:href="class_galactic_shrine_1_1_u_i_1_1_terminal_1_1_theme_params.html" target="_top" xlink:title="[FR] Classe abstraite définissant les paramètres et méthodes de base pour un thème (couleurs)....">
<polygon fill="white" stroke="#666666" points="136,-100 0,-100 0,-68 136,-68 136,-100"/>
<text text-anchor="start" x="8" y="-86.5" font-family="Helvetica,sans-Serif" font-size="10.00">GalacticShrine.UI.Terminal.</text>
<text text-anchor="middle" x="68" y="-74.5" font-family="Helvetica,sans-Serif" font-size="10.00">ThemeParams</text>
</a>
</g>
</g>
<!-- Node2&#45;&gt;Node1 -->
<g id="edge1_Node000001_Node000002" class="edge">
<title>Node2&#45;&gt;Node1</title>
<g id="a_edge1_Node000001_Node000002"><a xlink:title=" ">
<path fill="none" stroke="#63b8ff" d="M68,-56.31C68,-48.12 68,-39.38 68,-32.22"/>
<polygon fill="#63b8ff" stroke="#63b8ff" points="64.5,-56.18 68,-66.18 71.5,-56.18 64.5,-56.18"/>
</a>
</g>
</g>
<!-- Node3 -->
<g id="Node000003" class="node">
<title>Node3</title>
<g id="a_Node000003"><a xlink:href="interface_galactic_shrine_1_1_interface_1_1_terminal_1_1_couleur_interface.html" target="_top" xlink:title="[FR] Interface définissant la gestion et l&#39;ajout de couleurs dans un contexte de terminal....">
<polygon fill="white" stroke="#666666" points="131.88,-168 4.12,-168 4.12,-136 131.88,-136 131.88,-168"/>
<text text-anchor="start" x="12.12" y="-154.5" font-family="Helvetica,sans-Serif" font-size="10.00">GalacticShrine.Interface.</text>
<text text-anchor="middle" x="68" y="-142.5" font-family="Helvetica,sans-Serif" font-size="10.00">Terminal.CouleurInterface</text>
</a>
</g>
</g>
<!-- Node3&#45;&gt;Node2 -->
<g id="edge2_Node000002_Node000003" class="edge">
<title>Node3&#45;&gt;Node2</title>
<g id="a_edge2_Node000002_Node000003"><a xlink:title=" ">
<path fill="none" stroke="#63b8ff" d="M68,-124.31C68,-116.12 68,-107.38 68,-100.22"/>
<polygon fill="#63b8ff" stroke="#63b8ff" points="64.5,-124.18 68,-134.18 71.5,-124.18 64.5,-124.18"/>
</a>
</g>
</g>
</g>
</svg>
