<?xml version="1.0" encoding="UTF-8" standalone="no"?>
<!DOCTYPE svg PUBLIC "-//W3C//DTD SVG 1.1//EN"
 "http://www.w3.org/Graphics/SVG/1.1/DTD/svg11.dtd">
<!-- Generated by graphviz version 8.1.0 (20230707.0739)
 -->
<!-- Title: GalacticShrine.FichierSystemeReference.ContientTousLesNoms Pages: 1 -->
<svg width="547pt" height="80pt"
 viewBox="0.00 0.00 546.50 80.00" xmlns="http://www.w3.org/2000/svg" xmlns:xlink="http://www.w3.org/1999/xlink">
<g id="graph0" class="graph" transform="scale(1 1) rotate(0) translate(4 76)">
<title>GalacticShrine.FichierSystemeReference.ContientTousLesNoms</title>
<!-- Node1 -->
<g id="Node000001" class="node">
<title>Node1</title>
<g id="a_Node000001"><a xlink:title="[FR] Détermine si l&#39;objet donné est sous le répertoire donné, dans un sous&#45;dossier du nom donné....">
<polygon fill="#999999" stroke="#666666" points="160.75,-32 0,-32 0,0 160.75,0 160.75,-32"/>
<text text-anchor="start" x="8" y="-18.5" font-family="Helvetica,sans-Serif" font-size="10.00">GalacticShrine.FichierSysteme</text>
<text text-anchor="middle" x="80.38" y="-6.5" font-family="Helvetica,sans-Serif" font-size="10.00">Reference.ContientTousLesNoms</text>
</a>
</g>
</g>
<!-- Node2 -->
<g id="Node000002" class="node">
<title>Node2</title>
<g id="a_Node000002"><a xlink:href="class_galactic_shrine_1_1_fichier_systeme_reference.html#acc47c56ccbec6b6c4b35722936c8719b" target="_top" xlink:title="[FR] Détermine si l&#39;objet donné est sous le répertoire donné, dans un sous&#45;dossier du nom donné....">
<polygon fill="white" stroke="#666666" points="347.75,-54 196.75,-54 196.75,-22 347.75,-22 347.75,-54"/>
<text text-anchor="start" x="204.75" y="-40.5" font-family="Helvetica,sans-Serif" font-size="10.00">GalacticShrine.FichierSysteme</text>
<text text-anchor="middle" x="272.25" y="-28.5" font-family="Helvetica,sans-Serif" font-size="10.00">Reference.ContientLeNom</text>
</a>
</g>
</g>
<!-- Node1&#45;&gt;Node2 -->
<g id="edge1_Node000001_Node000002" class="edge">
<title>Node1&#45;&gt;Node2</title>
<g id="a_edge1_Node000001_Node000002"><a xlink:title=" ">
<path fill="none" stroke="#63b8ff" d="M161.07,-25.23C169.19,-26.17 177.46,-27.13 185.63,-28.08"/>
<polygon fill="#63b8ff" stroke="#63b8ff" points="184.97,-31.64 195.3,-29.32 185.77,-24.69 184.97,-31.64"/>
</a>
</g>
</g>
<!-- Node3 -->
<g id="Node000003" class="node">
<title>Node3</title>
<g id="a_Node000003"><a xlink:href="class_galactic_shrine_1_1_fichier_systeme_reference.html#abfc03c5b2589c13d5ada90301886908f" target="_top" xlink:title="[FR] Détermine si l&#39;objet donné est dans ou sous le répertoire donné. [EN] Determines if the given ob...">
<polygon fill="white" stroke="#666666" points="538.5,-32 383.75,-32 383.75,0 538.5,0 538.5,-32"/>
<text text-anchor="start" x="391.75" y="-18.5" font-family="Helvetica,sans-Serif" font-size="10.00">GalacticShrine.FichierSysteme</text>
<text text-anchor="middle" x="461.12" y="-6.5" font-family="Helvetica,sans-Serif" font-size="10.00">Reference.EstSousLeRepertoire</text>
</a>
</g>
</g>
<!-- Node1&#45;&gt;Node3 -->
<g id="edge4_Node000001_Node000003" class="edge">
<title>Node1&#45;&gt;Node3</title>
<g id="a_edge4_Node000001_Node000003"><a xlink:title=" ">
<path fill="none" stroke="#63b8ff" d="M161.12,-13.66C173.06,-13.38 185.23,-13.15 196.75,-13 263.86,-12.13 280.64,-12.1 347.75,-13 355.76,-13.11 364.08,-13.26 372.42,-13.43"/>
<polygon fill="#63b8ff" stroke="#63b8ff" points="372.28,-16.95 382.36,-13.68 372.44,-9.95 372.28,-16.95"/>
</a>
</g>
</g>
<!-- Node2&#45;&gt;Node2 -->
<g id="edge2_Node000002_Node000002" class="edge">
<title>Node2&#45;&gt;Node2</title>
<g id="a_edge2_Node000002_Node000002"><a xlink:title=" ">
<path fill="none" stroke="#63b8ff" d="M238.53,-54.44C232.24,-63.58 243.48,-72 272.25,-72 288.88,-72 299.66,-69.19 304.57,-65.05"/>
<polygon fill="#63b8ff" stroke="#63b8ff" points="308.13,-65.81 305.97,-55.44 301.19,-64.9 308.13,-65.81"/>
</a>
</g>
</g>
<!-- Node2&#45;&gt;Node3 -->
<g id="edge3_Node000002_Node000003" class="edge">
<title>Node2&#45;&gt;Node3</title>
<g id="a_edge3_Node000002_Node000003"><a xlink:title=" ">
<path fill="none" stroke="#63b8ff" d="M348.18,-29.18C356.23,-28.23 364.47,-27.26 372.65,-26.3"/>
<polygon fill="#63b8ff" stroke="#63b8ff" points="372.82,-29.68 382.34,-25.04 372,-22.73 372.82,-29.68"/>
</a>
</g>
</g>
</g>
</svg>
