<?xml version="1.0" encoding="UTF-8" standalone="no"?>
<!DOCTYPE svg PUBLIC "-//W3C//DTD SVG 1.1//EN"
 "http://www.w3.org/Graphics/SVG/1.1/DTD/svg11.dtd">
<!-- Generated by graphviz version 8.1.0 (20230707.0739)
 -->
<!-- Title: GalacticShrine.Configuration.Analyseur.TamponDeChaine.ChangementsDansLesRejets Pages: 1 -->
<svg width="744pt" height="104pt"
 viewBox="0.00 0.00 744.00 104.08" xmlns="http://www.w3.org/2000/svg" xmlns:xlink="http://www.w3.org/1999/xlink">
<g id="graph0" class="graph" transform="scale(1 1) rotate(0) translate(4 100.08)">
<title>GalacticShrine.Configuration.Analyseur.TamponDeChaine.ChangementsDansLesRejets</title>
<!-- Node1 -->
<g id="Node000001" class="node">
<title>Node1</title>
<g id="a_Node000001"><a xlink:title=" ">
<polygon fill="#999999" stroke="#666666" points="736,-88 534,-88 534,-44 736,-44 736,-88"/>
<text text-anchor="start" x="542" y="-74.5" font-family="Helvetica,sans-Serif" font-size="10.00">GalacticShrine.Configuration.</text>
<text text-anchor="start" x="542" y="-62.5" font-family="Helvetica,sans-Serif" font-size="10.00">Analyseur.TamponDeChaine.Changements</text>
<text text-anchor="middle" x="635" y="-50.5" font-family="Helvetica,sans-Serif" font-size="10.00">DansLesRejets</text>
</a>
</g>
</g>
<!-- Node2 -->
<g id="Node000002" class="node">
<title>Node2</title>
<g id="a_Node000002"><a xlink:href="class_galactic_shrine_1_1_configuration_1_1_ini.html#ab6c8c10782835b28847a24c919e2ad6c" target="_top" xlink:title="[FR] Traite une ligne et analyse les données qui s&#39;y trouvent (section ou paire clé/valeur avec ou sa...">
<polygon fill="white" stroke="#666666" points="320,-82 178,-82 178,-50 320,-50 320,-82"/>
<text text-anchor="start" x="186" y="-68.5" font-family="Helvetica,sans-Serif" font-size="10.00">GalacticShrine.Configuration.</text>
<text text-anchor="middle" x="249" y="-56.5" font-family="Helvetica,sans-Serif" font-size="10.00">Ini.LigneDeProcessus</text>
</a>
</g>
</g>
<!-- Node1&#45;&gt;Node2 -->
<g id="edge1_Node000001_Node000002" class="edge">
<title>Node1&#45;&gt;Node2</title>
<g id="a_edge1_Node000001_Node000002"><a xlink:title=" ">
<path fill="none" stroke="#63b8ff" d="M522.97,-88.11C514.55,-89.27 506.15,-90.26 498,-91 435.15,-96.73 418.69,-98.29 356,-91 340.6,-89.21 324.19,-86 309,-82.47"/>
<polygon fill="#63b8ff" stroke="#63b8ff" points="523.25,-91.46 532.65,-86.56 522.25,-84.54 523.25,-91.46"/>
</a>
</g>
</g>
<!-- Node4 -->
<g id="Node000004" class="node">
<title>Node4</title>
<g id="a_Node000004"><a xlink:href="class_galactic_shrine_1_1_configuration_1_1_ini.html#ac949b568fd2371b7546137b7092651dc" target="_top" xlink:title=" ">
<polygon fill="white" stroke="#666666" points="498,-82 356,-82 356,-50 498,-50 498,-82"/>
<text text-anchor="start" x="364" y="-68.5" font-family="Helvetica,sans-Serif" font-size="10.00">GalacticShrine.Configuration.</text>
<text text-anchor="middle" x="427" y="-56.5" font-family="Helvetica,sans-Serif" font-size="10.00">Ini.ProprieteDeProcessus</text>
</a>
</g>
</g>
<!-- Node1&#45;&gt;Node4 -->
<g id="edge3_Node000001_Node000004" class="edge">
<title>Node1&#45;&gt;Node4</title>
<g id="a_edge3_Node000001_Node000004"><a xlink:title=" ">
<path fill="none" stroke="#63b8ff" d="M522.78,-66C514.47,-66 506.24,-66 498.3,-66"/>
<polygon fill="#63b8ff" stroke="#63b8ff" points="522.72,-69.5 532.72,-66 522.72,-62.5 522.72,-69.5"/>
</a>
</g>
</g>
<!-- Node5 -->
<g id="Node000005" class="node">
<title>Node5</title>
<g id="a_Node000005"><a xlink:href="class_galactic_shrine_1_1_configuration_1_1_ini.html#a23f514b3f12d239e58c39e45cd133d51" target="_top" xlink:title="[FR] Traite une chaîne de caractères contenant une section ini. &#160;[EN] Processes a string containing a...">
<polygon fill="white" stroke="#666666" points="498,-32 356,-32 356,0 498,0 498,-32"/>
<text text-anchor="start" x="364" y="-18.5" font-family="Helvetica,sans-Serif" font-size="10.00">GalacticShrine.Configuration.</text>
<text text-anchor="middle" x="427" y="-6.5" font-family="Helvetica,sans-Serif" font-size="10.00">Ini.SectionDeProcessus</text>
</a>
</g>
</g>
<!-- Node1&#45;&gt;Node5 -->
<g id="edge5_Node000001_Node000005" class="edge">
<title>Node1&#45;&gt;Node5</title>
<g id="a_edge5_Node000001_Node000005"><a xlink:title=" ">
<path fill="none" stroke="#63b8ff" d="M531.04,-41.01C519.08,-38.11 507.11,-35.2 495.78,-32.45"/>
<polygon fill="#63b8ff" stroke="#63b8ff" points="530,-44.6 540.55,-43.56 531.65,-37.8 530,-44.6"/>
</a>
</g>
</g>
<!-- Node3 -->
<g id="Node000003" class="node">
<title>Node3</title>
<g id="a_Node000003"><a xlink:href="class_galactic_shrine_1_1_configuration_1_1_ini.html#ac15c07bfff5ae1ddc1dc255904aa5f70" target="_top" xlink:title="[FR] Analyse une chaîne contenant des données ini valides. &#160;[EN] Parses a string containing valid ini...">
<polygon fill="white" stroke="#666666" points="142,-82 0,-82 0,-50 142,-50 142,-82"/>
<text text-anchor="start" x="8" y="-68.5" font-family="Helvetica,sans-Serif" font-size="10.00">GalacticShrine.Configuration.</text>
<text text-anchor="middle" x="71" y="-56.5" font-family="Helvetica,sans-Serif" font-size="10.00">Ini.Analyse</text>
</a>
</g>
</g>
<!-- Node2&#45;&gt;Node3 -->
<g id="edge2_Node000002_Node000003" class="edge">
<title>Node2&#45;&gt;Node3</title>
<g id="a_edge2_Node000002_Node000003"><a xlink:title=" ">
<path fill="none" stroke="#63b8ff" d="M166.72,-66C158.63,-66 150.46,-66 142.49,-66"/>
<polygon fill="#63b8ff" stroke="#63b8ff" points="166.68,-69.5 176.68,-66 166.68,-62.5 166.68,-69.5"/>
</a>
</g>
</g>
<!-- Node4&#45;&gt;Node2 -->
<g id="edge4_Node000004_Node000002" class="edge">
<title>Node4&#45;&gt;Node2</title>
<g id="a_edge4_Node000004_Node000002"><a xlink:title=" ">
<path fill="none" stroke="#63b8ff" d="M344.72,-66C336.63,-66 328.46,-66 320.49,-66"/>
<polygon fill="#63b8ff" stroke="#63b8ff" points="344.68,-69.5 354.68,-66 344.68,-62.5 344.68,-69.5"/>
</a>
</g>
</g>
<!-- Node5&#45;&gt;Node2 -->
<g id="edge6_Node000005_Node000002" class="edge">
<title>Node5&#45;&gt;Node2</title>
<g id="a_edge6_Node000005_Node000002"><a xlink:title=" ">
<path fill="none" stroke="#63b8ff" d="M358.22,-35.26C341.67,-39.96 324.11,-44.95 308.06,-49.51"/>
<polygon fill="#63b8ff" stroke="#63b8ff" points="358.71,-38.47 367.37,-32.37 356.8,-31.74 358.71,-38.47"/>
</a>
</g>
</g>
</g>
</svg>
