<?xml version="1.0" encoding="UTF-8" standalone="no"?>
<!DOCTYPE svg PUBLIC "-//W3C//DTD SVG 1.1//EN"
 "http://www.w3.org/Graphics/SVG/1.1/DTD/svg11.dtd">
<!-- Generated by graphviz version 12.2.0 (20241103.1931)
 -->
<!-- Title: GalacticShrine.UI.Terminal.ThemeParams.AjouterCouleur Pages: 1 -->
<svg width="581pt" height="90pt"
 viewBox="0.00 0.00 581.00 90.00" xmlns="http://www.w3.org/2000/svg" xmlns:xlink="http://www.w3.org/1999/xlink">
<g id="graph0" class="graph" transform="scale(1 1) rotate(0) translate(4 86)">
<title>GalacticShrine.UI.Terminal.ThemeParams.AjouterCouleur</title>
<!-- Node1 -->
<g id="Node000001" class="node">
<title>Node1</title>
<g id="a_Node000001"><a xlink:title="[FR] Crée et retourne un objet Couleur en tenant compte d&#39;éventuelles couleurs de fallback....">
<polygon fill="#999999" stroke="#666666" points="573,-57 425.75,-57 425.75,-25 573,-25 573,-57"/>
<text text-anchor="start" x="433.75" y="-43.5" font-family="Helvetica,sans-Serif" font-size="10.00">GalacticShrine.UI.Terminal.</text>
<text text-anchor="middle" x="499.38" y="-31.5" font-family="Helvetica,sans-Serif" font-size="10.00">ThemeParams.AjouterCouleur</text>
</a>
</g>
</g>
<!-- Node2 -->
<g id="Node000002" class="node">
<title>Node2</title>
<g id="a_Node000002"><a xlink:href="class_galactic_shrine_1_1_u_i_1_1_terminal_1_1_theme_lumineux.html#a30d4193d0b1fcc9964b8f165f04f38e3" target="_top" xlink:title="[FR] Configure les différents composants (textes, fonds) avec des couleurs claires....">
<polygon fill="white" stroke="#666666" points="389.75,-82 199,-82 199,-50 389.75,-50 389.75,-82"/>
<text text-anchor="start" x="207" y="-68.5" font-family="Helvetica,sans-Serif" font-size="10.00">GalacticShrine.UI.Terminal.</text>
<text text-anchor="middle" x="294.38" y="-56.5" font-family="Helvetica,sans-Serif" font-size="10.00">ThemeLumineux.DefinirLesComposants</text>
</a>
</g>
</g>
<!-- Node1&#45;&gt;Node2 -->
<g id="edge1_Node000001_Node000002" class="edge">
<title>Node1&#45;&gt;Node2</title>
<g id="a_edge1_Node000001_Node000002"><a xlink:title=" ">
<path fill="none" stroke="#63b8ff" d="M414.2,-51.37C406.21,-52.35 398.08,-53.35 390,-54.35"/>
<polygon fill="#63b8ff" stroke="#63b8ff" points="414.37,-54.87 423.87,-50.18 413.52,-47.92 414.37,-54.87"/>
</a>
</g>
</g>
<!-- Node4 -->
<g id="Node000004" class="node">
<title>Node4</title>
<g id="a_Node000004"><a xlink:href="class_galactic_shrine_1_1_u_i_1_1_terminal_1_1_theme_sombre.html#a40e2a871b6941ff37638869444d5abc5" target="_top" xlink:title="[FR] Configure les différents composants (textes, fonds) avec des couleurs sombres....">
<polygon fill="white" stroke="#666666" points="385.62,-32 203.12,-32 203.12,0 385.62,0 385.62,-32"/>
<text text-anchor="start" x="211.12" y="-18.5" font-family="Helvetica,sans-Serif" font-size="10.00">GalacticShrine.UI.Terminal.</text>
<text text-anchor="middle" x="294.38" y="-6.5" font-family="Helvetica,sans-Serif" font-size="10.00">ThemeSombre.DefinirLesComposants</text>
</a>
</g>
</g>
<!-- Node1&#45;&gt;Node4 -->
<g id="edge3_Node000001_Node000004" class="edge">
<title>Node1&#45;&gt;Node4</title>
<g id="a_edge3_Node000001_Node000004"><a xlink:title=" ">
<path fill="none" stroke="#63b8ff" d="M414.19,-30.63C404.93,-29.49 395.46,-28.33 386.12,-27.18"/>
<polygon fill="#63b8ff" stroke="#63b8ff" points="413.52,-34.08 423.87,-31.82 414.37,-27.13 413.52,-34.08"/>
</a>
</g>
</g>
<!-- Node3 -->
<g id="Node000003" class="node">
<title>Node3</title>
<g id="a_Node000003"><a xlink:href="class_galactic_shrine_1_1_u_i_1_1_terminal_1_1_theme_lumineux.html#af0fce102a9735023fe98f2d6da78ed2d" target="_top" xlink:title="[FR] Constructeur du thème lumineux. Initialise et configure les couleurs et composants....">
<polygon fill="white" stroke="#666666" points="163,-82 0,-82 0,-50 163,-50 163,-82"/>
<text text-anchor="start" x="8" y="-68.5" font-family="Helvetica,sans-Serif" font-size="10.00">GalacticShrine.UI.Terminal.</text>
<text text-anchor="middle" x="81.5" y="-56.5" font-family="Helvetica,sans-Serif" font-size="10.00">ThemeLumineux.ThemeLumineux</text>
</a>
</g>
</g>
<!-- Node2&#45;&gt;Node3 -->
<g id="edge2_Node000002_Node000003" class="edge">
<title>Node2&#45;&gt;Node3</title>
<g id="a_edge2_Node000002_Node000003"><a xlink:title=" ">
<path fill="none" stroke="#63b8ff" d="M187.33,-66C179.26,-66 171.19,-66 163.31,-66"/>
<polygon fill="#63b8ff" stroke="#63b8ff" points="187.22,-69.5 197.22,-66 187.22,-62.5 187.22,-69.5"/>
</a>
</g>
</g>
<!-- Node5 -->
<g id="Node000005" class="node">
<title>Node5</title>
<g id="a_Node000005"><a xlink:href="class_galactic_shrine_1_1_u_i_1_1_terminal_1_1_theme_sombre.html#a98209a3024e5aabb34c84e101489bd98" target="_top" xlink:title="[FR] Constructeur du thème sombre. Initialise et configure les couleurs et composants....">
<polygon fill="white" stroke="#666666" points="154.75,-32 8.25,-32 8.25,0 154.75,0 154.75,-32"/>
<text text-anchor="start" x="16.25" y="-18.5" font-family="Helvetica,sans-Serif" font-size="10.00">GalacticShrine.UI.Terminal.</text>
<text text-anchor="middle" x="81.5" y="-6.5" font-family="Helvetica,sans-Serif" font-size="10.00">ThemeSombre.ThemeSombre</text>
</a>
</g>
</g>
<!-- Node4&#45;&gt;Node5 -->
<g id="edge4_Node000004_Node000005" class="edge">
<title>Node4&#45;&gt;Node5</title>
<g id="a_edge4_Node000004_Node000005"><a xlink:title=" ">
<path fill="none" stroke="#63b8ff" d="M191.44,-16C179.12,-16 166.73,-16 154.95,-16"/>
<polygon fill="#63b8ff" stroke="#63b8ff" points="191.21,-19.5 201.21,-16 191.21,-12.5 191.21,-19.5"/>
</a>
</g>
</g>
</g>
</svg>
