<?xml version="1.0" encoding="UTF-8" standalone="no"?>
<!DOCTYPE svg PUBLIC "-//W3C//DTD SVG 1.1//EN"
 "http://www.w3.org/Graphics/SVG/1.1/DTD/svg11.dtd">
<!-- Generated by graphviz version 8.1.0 (20230707.0739)
 -->
<!-- Title: GalacticShrine.DossierReference Pages: 1 -->
<svg width="426pt" height="169pt"
 viewBox="0.00 0.00 426.12 169.00" xmlns="http://www.w3.org/2000/svg" xmlns:xlink="http://www.w3.org/1999/xlink">

<svg id="main" version="1.1" xmlns="http://www.w3.org/2000/svg" xmlns:xlink="http://www.w3.org/1999/xlink" xml:space="preserve" onload="init(evt)">
<style type="text/css"><![CDATA[
.node, .edge {opacity: 0.7;}
.node.selected, .edge.selected {opacity: 1;}
.edge:hover path { stroke: red; }
.edge:hover polygon { stroke: red; fill: red; }
]]></style>
<script type="application/ecmascript" xlink:href="svg.min.js"/>
<svg id="graph" class="graph">
<g id="graph0" class="graph" transform="scale(1 1) rotate(0) translate(4 165)">
<title>GalacticShrine.DossierReference</title>
<!-- Node1 -->
<g id="Node000001" class="node">
<title>Node1</title>
<g id="a_Node000001"><a xlink:title="[FR] Représentation d&#39;un chemin de répertoire absolu. Permet un hachage et des comparaisons rapides....">
<polygon fill="#999999" stroke="#666666" points="259.62,-20 100.38,-20 100.38,0 259.62,0 259.62,-20"/>
<text text-anchor="middle" x="180" y="-6.5" font-family="Helvetica,sans-Serif" font-size="10.00">GalacticShrine.DossierReference</text>
</a>
</g>
</g>
<!-- Node2 -->
<g id="Node000002" class="node">
<title>Node2</title>
<g id="a_Node000002"><a xlink:href="class_galactic_shrine_1_1_fichier_systeme_reference.html" target="_top" xlink:title="[FR] Classe de base pour les objets du système de fichiers (fichiers ou répertoires)....">
<polygon fill="white" stroke="#666666" points="243.88,-79 116.12,-79 116.12,-59 243.88,-59 243.88,-79"/>
<text text-anchor="middle" x="180" y="-65.5" font-family="Helvetica,sans-Serif" font-size="10.00">FichierSystemeReference</text>
</a>
</g>
</g>
<!-- Node2&#45;&gt;Node1 -->
<g id="edge1_Node000001_Node000002" class="edge">
<title>Node2&#45;&gt;Node1</title>
<g id="a_edge1_Node000001_Node000002"><a xlink:title=" ">
<path fill="none" stroke="#63b8ff" d="M180,-47.74C180,-38.35 180,-27.66 180,-20.24"/>
<polygon fill="#63b8ff" stroke="#63b8ff" points="176.5,-47.59 180,-57.59 183.5,-47.59 176.5,-47.59"/>
</a>
</g>
</g>
<!-- Node3 -->
<g id="Node000003" class="node">
<title>Node3</title>
<g id="a_Node000003"><a xlink:title=" ">
<polygon fill="white" stroke="#666666" points="40,-161 0,-161 0,-141 40,-141 40,-161"/>
<text text-anchor="middle" x="20" y="-147.5" font-family="Helvetica,sans-Serif" font-size="10.00">static</text>
</a>
</g>
</g>
<!-- Node3&#45;&gt;Node1 -->
<g id="edge4_Node000001_Node000003" class="edge">
<title>Node3&#45;&gt;Node1</title>
<g id="a_edge4_Node000001_Node000003"><a xlink:title=" ">
<path fill="none" stroke="#9a32cd" stroke-dasharray="5,2" d="M11.51,-130.67C3.97,-110.23 -3.58,-78.09 12.5,-57 25.3,-40.21 74.19,-28.03 115.88,-20.43"/>
<polygon fill="#9a32cd" stroke="#9a32cd" points="8.56,-131.71 15.54,-139.67 15.05,-129.09 8.56,-131.71"/>
</a>
</g>
<text text-anchor="middle" x="60.25" y="-71.5" font-family="Helvetica,sans-Serif" font-size="10.00" fill="grey"> RepertoireSeparateur</text>
<text text-anchor="middle" x="60.25" y="-59.5" font-family="Helvetica,sans-Serif" font-size="10.00" fill="grey">Rs</text>
</g>
<!-- Node3&#45;&gt;Node2 -->
<g id="edge2_Node000002_Node000003" class="edge">
<title>Node3&#45;&gt;Node2</title>
<g id="a_edge2_Node000002_Node000003"><a xlink:title=" ">
<path fill="none" stroke="#9a32cd" stroke-dasharray="5,2" d="M48.8,-135.6C81.31,-119.35 133.27,-93.36 161.04,-79.48"/>
<polygon fill="#9a32cd" stroke="#9a32cd" points="47.36,-132.91 39.98,-140.51 50.49,-139.17 47.36,-132.91"/>
</a>
</g>
<text text-anchor="middle" x="150" y="-113.5" font-family="Helvetica,sans-Serif" font-size="10.00" fill="grey"> Comparaison</text>
<text text-anchor="middle" x="150" y="-101.5" font-family="Helvetica,sans-Serif" font-size="10.00" fill="grey">Comparateur</text>
</g>
<!-- Node4 -->
<g id="Node000004" class="node">
<title>Node4</title>
<g id="a_Node000004"><a xlink:title=" ">
<polygon fill="white" stroke="#666666" points="418.12,-79 261.88,-79 261.88,-59 418.12,-59 418.12,-79"/>
<text text-anchor="middle" x="340" y="-65.5" font-family="Helvetica,sans-Serif" font-size="10.00">IEquatable&lt; DossierReference &gt;</text>
</a>
</g>
</g>
<!-- Node4&#45;&gt;Node1 -->
<g id="edge3_Node000001_Node000004" class="edge">
<title>Node4&#45;&gt;Node1</title>
<g id="a_edge3_Node000001_Node000004"><a xlink:title=" ">
<path fill="none" stroke="#63b8ff" d="M303.25,-54.91C273.69,-44.38 232.88,-29.84 206.46,-20.43"/>
<polygon fill="#63b8ff" stroke="#63b8ff" points="301.98,-58.53 312.58,-58.59 304.33,-51.93 301.98,-58.53"/>
</a>
</g>
</g>
</g>
</svg>
</svg>

<style type='text/css'>
<![CDATA[
[data-mouse-over-selected='false'] { opacity: 0.7; }
[data-mouse-over-selected='true']  { opacity: 1.0; }
]]>
</style>
<script type="application/ecmascript"><![CDATA[
document.addEventListener('DOMContentLoaded', (event) => {
  highlightEdges();
  highlightAdjacentNodes();
});
]]></script>
</svg>
