<?xml version="1.0" encoding="UTF-8" standalone="no"?>
<!DOCTYPE svg PUBLIC "-//W3C//DTD SVG 1.1//EN"
 "http://www.w3.org/Graphics/SVG/1.1/DTD/svg11.dtd">
<!-- Generated by graphviz version 8.1.0 (20230707.0739)
 -->
<!-- Title: GalacticShrine.Modele.Configuration.Ini.SectionCollection Pages: 1 -->
<svg width="250pt" height="108pt"
 viewBox="0.00 0.00 250.38 108.00" xmlns="http://www.w3.org/2000/svg" xmlns:xlink="http://www.w3.org/1999/xlink">
<g id="graph0" class="graph" transform="scale(1 1) rotate(0) translate(4 104)">
<title>GalacticShrine.Modele.Configuration.Ini.SectionCollection</title>
<!-- Node1 -->
<g id="Node000001" class="node">
<title>Node1</title>
<g id="a_Node000001"><a xlink:title=" ">
<polygon fill="#999999" stroke="#666666" points="205.12,-32 28.62,-32 28.62,0 205.12,0 205.12,-32"/>
<text text-anchor="start" x="36.62" y="-18.5" font-family="Helvetica,sans-Serif" font-size="10.00">GalacticShrine.Modele.Configuration.</text>
<text text-anchor="middle" x="116.88" y="-6.5" font-family="Helvetica,sans-Serif" font-size="10.00">Ini.SectionCollection</text>
</a>
</g>
</g>
<!-- Node2 -->
<g id="Node000002" class="node">
<title>Node2</title>
<g id="a_Node000002"><a xlink:href="interface_galactic_shrine_1_1_interface_1_1_configuration_1_1_clonable_interface.html" target="_top" xlink:title=" ">
<polygon fill="white" stroke="#666666" points="103.75,-100 0,-100 0,-68 103.75,-68 103.75,-100"/>
<text text-anchor="start" x="8" y="-86.5" font-family="Helvetica,sans-Serif" font-size="10.00">ClonableInterface&lt;</text>
<text text-anchor="middle" x="51.88" y="-74.5" font-family="Helvetica,sans-Serif" font-size="10.00"> SectionCollection &gt;</text>
</a>
</g>
</g>
<!-- Node2&#45;&gt;Node1 -->
<g id="edge1_Node000001_Node000002" class="edge">
<title>Node2&#45;&gt;Node1</title>
<g id="a_edge1_Node000001_Node000002"><a xlink:title=" ">
<path fill="none" stroke="#63b8ff" d="M74.54,-59.99C83.59,-50.79 93.77,-40.46 101.88,-32.22"/>
<polygon fill="#63b8ff" stroke="#63b8ff" points="72.47,-57.11 67.95,-66.69 77.46,-62.02 72.47,-57.11"/>
</a>
</g>
</g>
<!-- Node3 -->
<g id="Node000003" class="node">
<title>Node3</title>
<g id="a_Node000003"><a xlink:title=" ">
<polygon fill="white" stroke="#666666" points="242.38,-94 121.38,-94 121.38,-74 242.38,-74 242.38,-94"/>
<text text-anchor="middle" x="181.88" y="-80.5" font-family="Helvetica,sans-Serif" font-size="10.00">IEnumerable&lt; Section &gt;</text>
</a>
</g>
</g>
<!-- Node3&#45;&gt;Node1 -->
<g id="edge2_Node000001_Node000003" class="edge">
<title>Node3&#45;&gt;Node1</title>
<g id="a_edge2_Node000001_Node000003"><a xlink:title=" ">
<path fill="none" stroke="#63b8ff" d="M165.05,-65.91C154.81,-55.52 141.84,-42.35 131.94,-32.3"/>
<polygon fill="#63b8ff" stroke="#63b8ff" points="162.05,-67.87 171.56,-72.54 167.04,-62.96 162.05,-67.87"/>
</a>
</g>
</g>
</g>
</svg>
