<?xml version="1.0" encoding="UTF-8" standalone="no"?>
<!DOCTYPE svg PUBLIC "-//W3C//DTD SVG 1.1//EN"
 "http://www.w3.org/Graphics/SVG/1.1/DTD/svg11.dtd">
<!-- Generated by graphviz version 8.1.0 (20230707.0739)
 -->
<!-- Title: GalacticShrine.Configuration.Ini.SectionDeProcessus Pages: 1 -->
<!--zoomable 364 -->

<svg id="main" version="1.1" xmlns="http://www.w3.org/2000/svg" xmlns:xlink="http://www.w3.org/1999/xlink" xml:space="preserve" onload="init(evt)">
<style type="text/css"><![CDATA[
.node, .edge {opacity: 0.7;}
.node.selected, .edge.selected {opacity: 1;}
.edge:hover path { stroke: red; }
.edge:hover polygon { stroke: red; fill: red; }
]]></style>

<defs>
  <circle id="rim" cx="0" cy="0" r="7"/>
  <circle id="rim2" cx="0" cy="0" r="3.5"/>
  <g id="zoomPlus">
    <use xlink:href="#rim" fill="#404040"><set attributeName="fill" to="#808080" begin="zoomplus.mouseover" end="zoomplus.mouseout"/></use>
    <path d="M-4,0h8M0,-4v8" fill="none" stroke="white" stroke-width="1.5" pointer-events="none"/>
  </g>
  <g id="zoomMin">
    <use xlink:href="#rim" fill="#404040"><set attributeName="fill" to="#808080" begin="zoomminus.mouseover" end="zoomminus.mouseout"/></use>
    <path d="M-4,0h8" fill="none" stroke="white" stroke-width="1.5" pointer-events="none"/>
  </g>
  <g id="arrowUp" transform="translate(30 24)">
    <use xlink:href="#rim"/>
    <path pointer-events="none" fill="none" stroke="white" stroke-width="1.5" d="M0,-3.0v7 M-2.5,-0.5L0,-3.0L2.5,-0.5"/>
  </g>
  <g id="arrowRight" transform="rotate(90) translate(36 -43)">
    <use xlink:href="#rim"/>
    <path pointer-events="none" fill="none" stroke="white" stroke-width="1.5" d="M0,-3.0v7 M-2.5,-0.5L0,-3.0L2.5,-0.5"/>
  </g>
  <g id="arrowDown" transform="rotate(180) translate(-30 -48)">
    <use xlink:href="#rim"/>
    <path pointer-events="none" fill="none" stroke="white" stroke-width="1.5" d="M0,-3.0v7 M-2.5,-0.5L0,-3.0L2.5,-0.5"/>
  </g>
  <g id="arrowLeft" transform="rotate(270) translate(-36 17)">
    <use xlink:href="#rim"/>
    <path pointer-events="none" fill="none" stroke="white" stroke-width="1.5" d="M0,-3.0v7 M-2.5,-0.5L0,-3.0L2.5,-0.5"/>
  </g>
  <g id="resetDef">
    <use xlink:href="#rim2" fill="#404040"><set attributeName="fill" to="#808080" begin="reset.mouseover" end="reset.mouseout"/></use>
  </g>
</defs>
<script type="application/ecmascript">
var viewWidth = 641;
var viewHeight = 364;
var sectionId = 'dynsection-11';
</script>
<script type="application/ecmascript" xlink:href="svg.min.js"/>
<svg id="graph" class="graph">
<g id="viewport">
<title>GalacticShrine.Configuration.Ini.SectionDeProcessus</title>
<!-- Node1 -->
<g id="Node000001" class="node">
<title>Node1</title>
<g id="a_Node000001"><a xlink:title="[FR] Traite une chaîne de caractères contenant une section ini. &#160;[EN] Processes a string containing a...">
<polygon fill="#999999" stroke="#666666" points="142,-212 0,-212 0,-180 142,-180 142,-212"/>
<text text-anchor="start" x="8" y="-198.5" font-family="Helvetica,sans-Serif" font-size="10.00">GalacticShrine.Configuration.</text>
<text text-anchor="middle" x="71" y="-186.5" font-family="Helvetica,sans-Serif" font-size="10.00">Ini.SectionDeProcessus</text>
</a>
</g>
</g>
<!-- Node2 -->
<g id="Node000002" class="node">
<title>Node2</title>
<g id="a_Node000002"><a xlink:href="class_galactic_shrine_1_1_modele_1_1_configuration_1_1_ini_1_1_section_collection.html#ab439f8ed108317714dae058d645f56c0" target="_top" xlink:title="[FR] Crée une nouvelle section avec des données vides. &#160;[EN] Creates a new section with empty data.">
<polygon fill="white" stroke="#666666" points="372.12,-356 195.62,-356 195.62,-324 372.12,-324 372.12,-356"/>
<text text-anchor="start" x="203.62" y="-342.5" font-family="Helvetica,sans-Serif" font-size="10.00">GalacticShrine.Modele.Configuration.</text>
<text text-anchor="middle" x="283.88" y="-330.5" font-family="Helvetica,sans-Serif" font-size="10.00">Ini.SectionCollection.Ajouter</text>
</a>
</g>
</g>
<!-- Node1&#45;&gt;Node2 -->
<g id="edge1_Node000001_Node000002" class="edge">
<title>Node1&#45;&gt;Node2</title>
<g id="a_edge1_Node000001_Node000002"><a xlink:title=" ">
<path fill="none" stroke="#63b8ff" d="M82.66,-212.21C99.79,-237 135.84,-284.14 178,-310 183.77,-313.54 189.98,-316.68 196.39,-319.46"/>
<polygon fill="#63b8ff" stroke="#63b8ff" points="195,-323.07 205.59,-323.53 197.6,-316.57 195,-323.07"/>
</a>
</g>
</g>
<!-- Node3 -->
<g id="Node000003" class="node">
<title>Node3</title>
<g id="a_Node000003"><a xlink:href="class_galactic_shrine_1_1_modele_1_1_configuration_1_1_ini_1_1_section_collection.html#a059d00b51e709988710f540717083478" target="_top" xlink:title="[FR] Permet de savoir si une section portant le nom spécifié existe dans la collection....">
<polygon fill="white" stroke="#666666" points="617.62,-337 441.12,-337 441.12,-305 617.62,-305 617.62,-337"/>
<text text-anchor="start" x="449.12" y="-323.5" font-family="Helvetica,sans-Serif" font-size="10.00">GalacticShrine.Modele.Configuration.</text>
<text text-anchor="middle" x="529.38" y="-311.5" font-family="Helvetica,sans-Serif" font-size="10.00">Ini.SectionCollection.Contient</text>
</a>
</g>
</g>
<!-- Node1&#45;&gt;Node3 -->
<g id="edge5_Node000001_Node000003" class="edge">
<title>Node1&#45;&gt;Node3</title>
<g id="a_edge5_Node000001_Node000003"><a xlink:title=" ">
<path fill="none" stroke="#63b8ff" d="M87.51,-212.23C106.78,-231.25 141.56,-262.08 178,-277 222.25,-295.12 342.67,-307.5 430,-314.4"/>
<polygon fill="#63b8ff" stroke="#63b8ff" points="429.51,-317.95 439.75,-315.23 430.05,-310.97 429.51,-317.95"/>
</a>
</g>
</g>
<!-- Node4 -->
<g id="Node000004" class="node">
<title>Node4</title>
<g id="a_Node000004"><a xlink:href="class_galactic_shrine_1_1_configuration_1_1_analyseur_1_1_tampon_de_chaine.html#aa1784d12ea6aefb26d219e9010a90653" target="_top" xlink:title=" ">
<polygon fill="white" stroke="#666666" points="384.88,-156 182.88,-156 182.88,-112 384.88,-112 384.88,-156"/>
<text text-anchor="start" x="190.88" y="-142.5" font-family="Helvetica,sans-Serif" font-size="10.00">GalacticShrine.Configuration.</text>
<text text-anchor="start" x="190.88" y="-130.5" font-family="Helvetica,sans-Serif" font-size="10.00">Analyseur.TamponDeChaine.Changements</text>
<text text-anchor="middle" x="283.88" y="-118.5" font-family="Helvetica,sans-Serif" font-size="10.00">DansLesRejets</text>
</a>
</g>
</g>
<!-- Node1&#45;&gt;Node4 -->
<g id="edge3_Node000001_Node000004" class="edge">
<title>Node1&#45;&gt;Node4</title>
<g id="a_edge3_Node000001_Node000004"><a xlink:title=" ">
<path fill="none" stroke="#63b8ff" d="M127.96,-179.55C148.8,-173.42 172.98,-166.31 195.95,-159.56"/>
<polygon fill="#63b8ff" stroke="#63b8ff" points="196.8,-162.66 205.41,-156.48 194.83,-155.95 196.8,-162.66"/>
</a>
</g>
</g>
<!-- Node6 -->
<g id="Node000006" class="node">
<title>Node6</title>
<g id="a_Node000006"><a xlink:href="class_galactic_shrine_1_1_configuration_1_1_analyseur_1_1_tampon_de_chaine.html#a5ff6a33ce5c9c8b1c634b3242304a1b7" target="_top" xlink:title=" ">
<polygon fill="white" stroke="#666666" points="374.75,-268 193,-268 193,-236 374.75,-236 374.75,-268"/>
<text text-anchor="start" x="201" y="-254.5" font-family="Helvetica,sans-Serif" font-size="10.00">GalacticShrine.Configuration.</text>
<text text-anchor="middle" x="283.88" y="-242.5" font-family="Helvetica,sans-Serif" font-size="10.00">Analyseur.TamponDeChaine.Garniture</text>
</a>
</g>
</g>
<!-- Node1&#45;&gt;Node6 -->
<g id="edge6_Node000001_Node000006" class="edge">
<title>Node1&#45;&gt;Node6</title>
<g id="a_edge6_Node000001_Node000006"><a xlink:title=" ">
<path fill="none" stroke="#63b8ff" d="M126.32,-212.46C142.87,-217.32 161.14,-222.53 178,-227 185.46,-228.98 193.24,-230.97 201.05,-232.92"/>
<polygon fill="#63b8ff" stroke="#63b8ff" points="200.12,-236.54 210.67,-235.54 201.8,-229.75 200.12,-236.54"/>
</a>
</g>
</g>
<!-- Node8 -->
<g id="Node000008" class="node">
<title>Node8</title>
<g id="a_Node000008"><a xlink:href="class_galactic_shrine_1_1_configuration_1_1_analyseur_1_1_tampon_de_chaine.html#ad657925f38944e77f8ac413d45a9fe21" target="_top" xlink:title=" ">
<polygon fill="white" stroke="#666666" points="389.75,-218 178,-218 178,-174 389.75,-174 389.75,-218"/>
<text text-anchor="start" x="186" y="-204.5" font-family="Helvetica,sans-Serif" font-size="10.00">GalacticShrine.Configuration.</text>
<text text-anchor="start" x="186" y="-192.5" font-family="Helvetica,sans-Serif" font-size="10.00">Analyseur.TamponDeChaine.Redimensionner</text>
<text text-anchor="middle" x="283.88" y="-180.5" font-family="Helvetica,sans-Serif" font-size="10.00">EntreLesIndex</text>
</a>
</g>
</g>
<!-- Node1&#45;&gt;Node8 -->
<g id="edge8_Node000001_Node000008" class="edge">
<title>Node1&#45;&gt;Node8</title>
<g id="a_edge8_Node000001_Node000008"><a xlink:title=" ">
<path fill="none" stroke="#63b8ff" d="M142.22,-196C150.13,-196 158.35,-196 166.65,-196"/>
<polygon fill="#63b8ff" stroke="#63b8ff" points="166.6,-199.5 176.6,-196 166.6,-192.5 166.6,-199.5"/>
</a>
</g>
</g>
<!-- Node10 -->
<g id="Node000010" class="node">
<title>Node10</title>
<g id="a_Node000010"><a xlink:href="class_galactic_shrine_1_1_configuration_1_1_analyseur_1_1_tampon_de_chaine.html#ac0a94fa81730c6f5fde7f2f842200620" target="_top" xlink:title=" ">
<polygon fill="white" stroke="#666666" points="372.88,-94 194.88,-94 194.88,-62 372.88,-62 372.88,-94"/>
<text text-anchor="start" x="202.88" y="-80.5" font-family="Helvetica,sans-Serif" font-size="10.00">GalacticShrine.Configuration.</text>
<text text-anchor="middle" x="283.88" y="-68.5" font-family="Helvetica,sans-Serif" font-size="10.00">Analyseur.TamponDeChaine.ToString</text>
</a>
</g>
</g>
<!-- Node1&#45;&gt;Node10 -->
<g id="edge10_Node000001_Node000010" class="edge">
<title>Node1&#45;&gt;Node10</title>
<g id="a_edge10_Node000001_Node000010"><a xlink:title=" ">
<path fill="none" stroke="#63b8ff" d="M86.01,-179.51C104.79,-158.49 140.16,-122.56 178,-103 181.16,-101.37 184.43,-99.84 187.77,-98.41"/>
<polygon fill="#63b8ff" stroke="#63b8ff" points="188.96,-101.31 196.99,-94.41 186.4,-94.79 188.96,-101.31"/>
</a>
</g>
</g>
<!-- Node11 -->
<g id="Node000011" class="node">
<title>Node11</title>
<g id="a_Node000011"><a xlink:href="class_galactic_shrine_1_1_configuration_1_1_analyseur_1_1_tampon_de_chaine.html#afa88b78cbdf391a2bdb3128d611760b6" target="_top" xlink:title=" ">
<polygon fill="white" stroke="#666666" points="370.25,-44 197.5,-44 197.5,0 370.25,0 370.25,-44"/>
<text text-anchor="start" x="205.5" y="-30.5" font-family="Helvetica,sans-Serif" font-size="10.00">GalacticShrine.Configuration.</text>
<text text-anchor="start" x="205.5" y="-18.5" font-family="Helvetica,sans-Serif" font-size="10.00">Analyseur.TamponDeChaine.Trouver</text>
<text text-anchor="middle" x="283.88" y="-6.5" font-family="Helvetica,sans-Serif" font-size="10.00">SousChaine</text>
</a>
</g>
</g>
<!-- Node1&#45;&gt;Node11 -->
<g id="edge11_Node000001_Node000011" class="edge">
<title>Node1&#45;&gt;Node11</title>
<g id="a_edge11_Node000001_Node000011"><a xlink:title=" ">
<path fill="none" stroke="#63b8ff" d="M79.67,-179.57C94.43,-149.78 129.63,-86.82 178,-53 181.05,-50.87 184.25,-48.88 187.55,-47.03"/>
<polygon fill="#63b8ff" stroke="#63b8ff" points="188.79,-49.82 196.11,-42.16 185.61,-43.58 188.79,-49.82"/>
</a>
</g>
</g>
<!-- Node2&#45;&gt;Node3 -->
<g id="edge2_Node000002_Node000003" class="edge">
<title>Node2&#45;&gt;Node3</title>
<g id="a_edge2_Node000002_Node000003"><a xlink:title=" ">
<path fill="none" stroke="#63b8ff" d="M372.44,-333.17C391.11,-331.71 410.94,-330.16 429.98,-328.68"/>
<polygon fill="#63b8ff" stroke="#63b8ff" points="430.07,-332.1 439.77,-327.84 429.53,-325.12 430.07,-332.1"/>
</a>
</g>
</g>
<!-- Node5 -->
<g id="Node000005" class="node">
<title>Node5</title>
<g id="a_Node000005"><a xlink:href="struct_galactic_shrine_1_1_configuration_1_1_analyseur_1_1_tampon_de_chaine_1_1_plage.html#a2001d3beece21e14bb82661f749c60ae" target="_top" xlink:title=" ">
<polygon fill="white" stroke="#666666" points="620.25,-100 438.5,-100 438.5,-56 620.25,-56 620.25,-100"/>
<text text-anchor="start" x="446.5" y="-86.5" font-family="Helvetica,sans-Serif" font-size="10.00">GalacticShrine.Configuration.</text>
<text text-anchor="start" x="446.5" y="-74.5" font-family="Helvetica,sans-Serif" font-size="10.00">Analyseur.TamponDeChaine.Plage.De</text>
<text text-anchor="middle" x="529.38" y="-62.5" font-family="Helvetica,sans-Serif" font-size="10.00">L_IndexA_LaTaille</text>
</a>
</g>
</g>
<!-- Node4&#45;&gt;Node5 -->
<g id="edge4_Node000004_Node000005" class="edge">
<title>Node4&#45;&gt;Node5</title>
<g id="a_edge4_Node000004_Node000005"><a xlink:title=" ">
<path fill="none" stroke="#63b8ff" d="M382.51,-111.55C397.46,-108.11 412.9,-104.56 427.91,-101.11"/>
<polygon fill="#63b8ff" stroke="#63b8ff" points="428.25,-104.39 437.21,-98.74 426.68,-97.57 428.25,-104.39"/>
</a>
</g>
</g>
<!-- Node7 -->
<g id="Node000007" class="node">
<title>Node7</title>
<g id="a_Node000007"><a xlink:href="class_galactic_shrine_1_1_configuration_1_1_analyseur_1_1_tampon_de_chaine.html#ad4240aacc0c932e5f08443b756b82f27" target="_top" xlink:title=" ">
<polygon fill="white" stroke="#666666" points="633,-268 425.75,-268 425.75,-236 633,-236 633,-268"/>
<text text-anchor="start" x="433.75" y="-254.5" font-family="Helvetica,sans-Serif" font-size="10.00">GalacticShrine.Configuration.</text>
<text text-anchor="middle" x="529.38" y="-242.5" font-family="Helvetica,sans-Serif" font-size="10.00">Analyseur.TamponDeChaine.FinDeGarniture</text>
</a>
</g>
</g>
<!-- Node6&#45;&gt;Node7 -->
<g id="edge7_Node000006_Node000007" class="edge">
<title>Node6&#45;&gt;Node7</title>
<g id="a_edge7_Node000006_Node000007"><a xlink:title=" ">
<path fill="none" stroke="#63b8ff" d="M375.2,-252C388.12,-252 401.55,-252 414.85,-252"/>
<polygon fill="#63b8ff" stroke="#63b8ff" points="414.47,-255.5 424.47,-252 414.47,-248.5 414.47,-255.5"/>
</a>
</g>
</g>
<!-- Node9 -->
<g id="Node000009" class="node">
<title>Node9</title>
<g id="a_Node000009"><a xlink:href="class_galactic_shrine_1_1_configuration_1_1_analyseur_1_1_tampon_de_chaine.html#ac1b985808f0790b6eb9130ae2f5b01d2" target="_top" xlink:title=" ">
<polygon fill="white" stroke="#666666" points="627,-212 431.75,-212 431.75,-180 627,-180 627,-212"/>
<text text-anchor="start" x="439.75" y="-198.5" font-family="Helvetica,sans-Serif" font-size="10.00">GalacticShrine.Configuration.</text>
<text text-anchor="middle" x="529.38" y="-186.5" font-family="Helvetica,sans-Serif" font-size="10.00">Analyseur.TamponDeChaine.AvalezCopie</text>
</a>
</g>
</g>
<!-- Node8&#45;&gt;Node9 -->
<g id="edge9_Node000008_Node000009" class="edge">
<title>Node8&#45;&gt;Node9</title>
<g id="a_edge9_Node000008_Node000009"><a xlink:title=" ">
<path fill="none" stroke="#63b8ff" d="M389.91,-196C400.02,-196 410.29,-196 420.43,-196"/>
<polygon fill="#63b8ff" stroke="#63b8ff" points="420.38,-199.5 430.38,-196 420.38,-192.5 420.38,-199.5"/>
</a>
</g>
</g>
<!-- Node11&#45;&gt;Node5 -->
<g id="edge12_Node000011_Node000005" class="edge">
<title>Node11&#45;&gt;Node5</title>
<g id="a_edge12_Node000011_Node000005"><a xlink:title=" ">
<path fill="none" stroke="#63b8ff" d="M370.72,-41.74C389.21,-45.99 408.91,-50.52 427.89,-54.89"/>
<polygon fill="#63b8ff" stroke="#63b8ff" points="426.82,-58.47 437.35,-57.3 428.39,-51.64 426.82,-58.47"/>
</a>
</g>
</g>
</g>
</svg>

<g id="navigator" transform="translate(0 0)" fill="#404254">
  <rect fill="#f2f5e9" fill-opacity="0.5" stroke="#606060" stroke-width=".5" x="0" y="0" width="60" height="60"/>
  <use id="zoomplus" xlink:href="#zoomPlus" x="17" y="9" onmousedown="handleZoom(evt,'in')"/>
  <use id="zoomminus" xlink:href="#zoomMin" x="42" y="9" onmousedown="handleZoom(evt,'out')"/>
  <use id="reset" xlink:href="#resetDef" x="30" y="36" onmousedown="handleReset()"/>
   <use id="arrowup" xlink:href="#arrowUp" x="0" y="0" onmousedown="handlePan(0,-1)"/>
  <use id="arrowright" xlink:href="#arrowRight" x="0" y="0" onmousedown="handlePan(1,0)"/>
  <use id="arrowdown" xlink:href="#arrowDown" x="0" y="0" onmousedown="handlePan(0,1)"/>
  <use id="arrowleft" xlink:href="#arrowLeft" x="0" y="0" onmousedown="handlePan(-1,0)"/>
</g>
<svg viewBox="0 0 15 15" width="100%" height="30px" preserveAspectRatio="xMaxYMin meet">
 <g id="arrow_out" transform="scale(0.3 0.3)">
  <a xlink:href="class_galactic_shrine_1_1_configuration_1_1_ini_a23f514b3f12d239e58c39e45cd133d51_cgraph_org.svg" target="_base">
   <rect id="button" ry="5" rx="5" y="6" x="6" height="38" width="38"
        fill="#f2f5e9" fill-opacity="0.5" stroke="#606060" stroke-width="1.0"/>
   <path id="arrow"
     d="M 11.500037,31.436501 C 11.940474,20.09759 22.043105,11.32322 32.158766,21.979434 L 37.068811,17.246167 C 37.068811,17.246167 37.088388,32 37.088388,32 L 22.160133,31.978069 C 22.160133,31.978069 26.997745,27.140456 26.997745,27.140456 C 18.528582,18.264221 13.291696,25.230495 11.500037,31.436501 z"
     style="fill:#404040;"/>
  </a>
 </g>
</svg>

<style type='text/css'>
<![CDATA[
[data-mouse-over-selected='false'] { opacity: 0.7; }
[data-mouse-over-selected='true']  { opacity: 1.0; }
]]>
</style>
<script type="application/ecmascript"><![CDATA[
document.addEventListener('DOMContentLoaded', (event) => {
  highlightEdges();
  highlightAdjacentNodes();
});
]]></script>
</svg>
