<?xml version="1.0" encoding="UTF-8" standalone="no"?>
<!DOCTYPE svg PUBLIC "-//W3C//DTD SVG 1.1//EN"
 "http://www.w3.org/Graphics/SVG/1.1/DTD/svg11.dtd">
<!-- Generated by graphviz version 12.2.0 (20241103.1931)
 -->
<!-- Title: GalacticShrine.Configuration.Analyseur.TamponDeChaine.TrouverSousChaine Pages: 1 -->
<svg width="723pt" height="90pt"
 viewBox="0.00 0.00 723.00 90.00" xmlns="http://www.w3.org/2000/svg" xmlns:xlink="http://www.w3.org/1999/xlink">
<g id="graph0" class="graph" transform="scale(1 1) rotate(0) translate(4 86)">
<title>GalacticShrine.Configuration.Analyseur.TamponDeChaine.TrouverSousChaine</title>
<!-- Node1 -->
<g id="Node000001" class="node">
<title>Node1</title>
<g id="a_Node000001"><a xlink:title=" ">
<polygon fill="#999999" stroke="#666666" points="715,-63 538.5,-63 538.5,-19 715,-19 715,-63"/>
<text text-anchor="start" x="546.5" y="-49.5" font-family="Helvetica,sans-Serif" font-size="10.00">GalacticShrine.Configuration.</text>
<text text-anchor="start" x="546.5" y="-37.5" font-family="Helvetica,sans-Serif" font-size="10.00">Analyseur.TamponDeChaine.Trouver</text>
<text text-anchor="middle" x="626.75" y="-25.5" font-family="Helvetica,sans-Serif" font-size="10.00">SousChaine</text>
</a>
</g>
</g>
<!-- Node2 -->
<g id="Node000002" class="node">
<title>Node2</title>
<g id="a_Node000002"><a xlink:href="class_galactic_shrine_1_1_configuration_1_1_ini.html#ac949b568fd2371b7546137b7092651dc" target="_top" xlink:title=" ">
<polygon fill="white" stroke="#666666" points="502.5,-82 359,-82 359,-50 502.5,-50 502.5,-82"/>
<text text-anchor="start" x="367" y="-68.5" font-family="Helvetica,sans-Serif" font-size="10.00">GalacticShrine.Configuration.</text>
<text text-anchor="middle" x="430.75" y="-56.5" font-family="Helvetica,sans-Serif" font-size="10.00">Ini.ProprieteDeProcessus</text>
</a>
</g>
</g>
<!-- Node1&#45;&gt;Node2 -->
<g id="edge1_Node000001_Node000002" class="edge">
<title>Node1&#45;&gt;Node2</title>
<g id="a_edge1_Node000001_Node000002"><a xlink:title=" ">
<path fill="none" stroke="#63b8ff" d="M526.97,-53.73C518.79,-54.78 510.63,-55.83 502.72,-56.85"/>
<polygon fill="#63b8ff" stroke="#63b8ff" points="527.14,-57.24 536.61,-52.49 526.25,-50.29 527.14,-57.24"/>
</a>
</g>
</g>
<!-- Node5 -->
<g id="Node000005" class="node">
<title>Node5</title>
<g id="a_Node000005"><a xlink:href="class_galactic_shrine_1_1_configuration_1_1_ini.html#a23f514b3f12d239e58c39e45cd133d51" target="_top" xlink:title="[FR] Traite une chaîne de caractères contenant une section ini. &#160;[EN] Processes a string containing a...">
<polygon fill="white" stroke="#666666" points="502.5,-32 359,-32 359,0 502.5,0 502.5,-32"/>
<text text-anchor="start" x="367" y="-18.5" font-family="Helvetica,sans-Serif" font-size="10.00">GalacticShrine.Configuration.</text>
<text text-anchor="middle" x="430.75" y="-6.5" font-family="Helvetica,sans-Serif" font-size="10.00">Ini.SectionDeProcessus</text>
</a>
</g>
</g>
<!-- Node1&#45;&gt;Node5 -->
<g id="edge4_Node000001_Node000005" class="edge">
<title>Node1&#45;&gt;Node5</title>
<g id="a_edge4_Node000001_Node000005"><a xlink:title=" ">
<path fill="none" stroke="#63b8ff" d="M526.97,-28.27C518.79,-27.22 510.63,-26.17 502.72,-25.15"/>
<polygon fill="#63b8ff" stroke="#63b8ff" points="526.25,-31.71 536.61,-29.51 527.14,-24.76 526.25,-31.71"/>
</a>
</g>
</g>
<!-- Node3 -->
<g id="Node000003" class="node">
<title>Node3</title>
<g id="a_Node000003"><a xlink:href="class_galactic_shrine_1_1_configuration_1_1_ini.html#ab6c8c10782835b28847a24c919e2ad6c" target="_top" xlink:title="[FR] Traite une ligne et analyse les données qui s&#39;y trouvent (section ou paire clé/valeur avec ou sa...">
<polygon fill="white" stroke="#666666" points="323,-57 179.5,-57 179.5,-25 323,-25 323,-57"/>
<text text-anchor="start" x="187.5" y="-43.5" font-family="Helvetica,sans-Serif" font-size="10.00">GalacticShrine.Configuration.</text>
<text text-anchor="middle" x="251.25" y="-31.5" font-family="Helvetica,sans-Serif" font-size="10.00">Ini.LigneDeProcessus</text>
</a>
</g>
</g>
<!-- Node2&#45;&gt;Node3 -->
<g id="edge2_Node000002_Node000003" class="edge">
<title>Node2&#45;&gt;Node3</title>
<g id="a_edge2_Node000002_Node000003"><a xlink:title=" ">
<path fill="none" stroke="#63b8ff" d="M347.35,-54.39C339.36,-53.27 331.31,-52.13 323.44,-51.03"/>
<polygon fill="#63b8ff" stroke="#63b8ff" points="346.69,-57.84 357.08,-55.76 347.66,-50.9 346.69,-57.84"/>
</a>
</g>
</g>
<!-- Node4 -->
<g id="Node000004" class="node">
<title>Node4</title>
<g id="a_Node000004"><a xlink:href="class_galactic_shrine_1_1_configuration_1_1_ini.html#ac15c07bfff5ae1ddc1dc255904aa5f70" target="_top" xlink:title="[FR] Analyse une chaîne contenant des données ini valides. &#160;[EN] Parses a string containing valid ini...">
<polygon fill="white" stroke="#666666" points="143.5,-57 0,-57 0,-25 143.5,-25 143.5,-57"/>
<text text-anchor="start" x="8" y="-43.5" font-family="Helvetica,sans-Serif" font-size="10.00">GalacticShrine.Configuration.</text>
<text text-anchor="middle" x="71.75" y="-31.5" font-family="Helvetica,sans-Serif" font-size="10.00">Ini.Analyse</text>
</a>
</g>
</g>
<!-- Node3&#45;&gt;Node4 -->
<g id="edge3_Node000003_Node000004" class="edge">
<title>Node3&#45;&gt;Node4</title>
<g id="a_edge3_Node000003_Node000004"><a xlink:title=" ">
<path fill="none" stroke="#63b8ff" d="M167.58,-41C159.68,-41 151.72,-41 143.94,-41"/>
<polygon fill="#63b8ff" stroke="#63b8ff" points="167.56,-44.5 177.56,-41 167.56,-37.5 167.56,-44.5"/>
</a>
</g>
</g>
<!-- Node5&#45;&gt;Node3 -->
<g id="edge5_Node000005_Node000003" class="edge">
<title>Node5&#45;&gt;Node3</title>
<g id="a_edge5_Node000005_Node000003"><a xlink:title=" ">
<path fill="none" stroke="#63b8ff" d="M347.35,-27.61C339.36,-28.73 331.31,-29.87 323.44,-30.97"/>
<polygon fill="#63b8ff" stroke="#63b8ff" points="347.66,-31.1 357.08,-26.24 346.69,-24.16 347.66,-31.1"/>
</a>
</g>
</g>
</g>
</svg>
