<?xml version="1.0" encoding="UTF-8" standalone="no"?>
<!DOCTYPE svg PUBLIC "-//W3C//DTD SVG 1.1//EN"
 "http://www.w3.org/Graphics/SVG/1.1/DTD/svg11.dtd">
<!-- Generated by graphviz version 8.1.0 (20230707.0739)
 -->
<!-- Title: GalacticShrine.Configuration.Ini.LigneDeProcessus Pages: 1 -->
<svg width="819pt" height="419pt"
 viewBox="0.00 0.00 819.00 418.68" xmlns="http://www.w3.org/2000/svg" xmlns:xlink="http://www.w3.org/1999/xlink">
<g id="graph0" class="graph" transform="scale(1 1) rotate(0) translate(4 414.68)">
<title>GalacticShrine.Configuration.Ini.LigneDeProcessus</title>
<!-- Node1 -->
<g id="Node000001" class="node">
<title>Node1</title>
<g id="a_Node000001"><a xlink:title="[FR] Traite une ligne et analyse les données qui s&#39;y trouvent (section ou paire clé/valeur avec ou sa...">
<polygon fill="#999999" stroke="#666666" points="142,-230.68 0,-230.68 0,-198.68 142,-198.68 142,-230.68"/>
<text text-anchor="start" x="8" y="-217.18" font-family="Helvetica,sans-Serif" font-size="10.00">GalacticShrine.Configuration.</text>
<text text-anchor="middle" x="71" y="-205.18" font-family="Helvetica,sans-Serif" font-size="10.00">Ini.LigneDeProcessus</text>
</a>
</g>
</g>
<!-- Node2 -->
<g id="Node000002" class="node">
<title>Node2</title>
<g id="a_Node000002"><a xlink:href="class_galactic_shrine_1_1_configuration_1_1_analyseur_1_1_tampon_de_chaine.html#aa1784d12ea6aefb26d219e9010a90653" target="_top" xlink:title=" ">
<polygon fill="white" stroke="#666666" points="562.88,-410.68 360.88,-410.68 360.88,-366.68 562.88,-366.68 562.88,-410.68"/>
<text text-anchor="start" x="368.88" y="-397.18" font-family="Helvetica,sans-Serif" font-size="10.00">GalacticShrine.Configuration.</text>
<text text-anchor="start" x="368.88" y="-385.18" font-family="Helvetica,sans-Serif" font-size="10.00">Analyseur.TamponDeChaine.Changements</text>
<text text-anchor="middle" x="461.88" y="-373.18" font-family="Helvetica,sans-Serif" font-size="10.00">DansLesRejets</text>
</a>
</g>
</g>
<!-- Node1&#45;&gt;Node2 -->
<g id="edge1_Node000001_Node000002" class="edge">
<title>Node1&#45;&gt;Node2</title>
<g id="a_edge1_Node000001_Node000002"><a xlink:title=" ">
<path fill="none" stroke="#63b8ff" d="M89.54,-230.92C109.63,-248.81 144.15,-277.46 178,-295.68 233.38,-325.49 300.01,-347.97 354.69,-363.36"/>
<polygon fill="#63b8ff" stroke="#63b8ff" points="353.53,-366.95 364.1,-366.24 355.4,-360.2 353.53,-366.95"/>
</a>
</g>
</g>
<!-- Node4 -->
<g id="Node000004" class="node">
<title>Node4</title>
<g id="a_Node000004"><a xlink:href="class_galactic_shrine_1_1_configuration_1_1_ini.html#ab33c61b1a5f2a6e45d63e48113f20750" target="_top" xlink:title=" ">
<polygon fill="white" stroke="#666666" points="534.38,-124.68 389.38,-124.68 389.38,-92.68 534.38,-92.68 534.38,-124.68"/>
<text text-anchor="start" x="397.38" y="-111.18" font-family="Helvetica,sans-Serif" font-size="10.00">GalacticShrine.Configuration.</text>
<text text-anchor="middle" x="461.88" y="-99.18" font-family="Helvetica,sans-Serif" font-size="10.00">Ini.CommentaireDeProcessus</text>
</a>
</g>
</g>
<!-- Node1&#45;&gt;Node4 -->
<g id="edge3_Node000001_Node000004" class="edge">
<title>Node1&#45;&gt;Node4</title>
<g id="a_edge3_Node000001_Node000004"><a xlink:title=" ">
<path fill="none" stroke="#63b8ff" d="M103.27,-198.29C124,-187.99 152.06,-175.1 178,-166.68 243.96,-145.28 321.24,-130.07 378.34,-120.61"/>
<polygon fill="#63b8ff" stroke="#63b8ff" points="378.81,-123.92 388.12,-118.86 377.68,-117.01 378.81,-123.92"/>
</a>
</g>
</g>
<!-- Node7 -->
<g id="Node000007" class="node">
<title>Node7</title>
<g id="a_Node000007"><a xlink:href="class_galactic_shrine_1_1_configuration_1_1_ini.html#ac949b568fd2371b7546137b7092651dc" target="_top" xlink:title=" ">
<polygon fill="white" stroke="#666666" points="320,-286.68 178,-286.68 178,-254.68 320,-254.68 320,-286.68"/>
<text text-anchor="start" x="186" y="-273.18" font-family="Helvetica,sans-Serif" font-size="10.00">GalacticShrine.Configuration.</text>
<text text-anchor="middle" x="249" y="-261.18" font-family="Helvetica,sans-Serif" font-size="10.00">Ini.ProprieteDeProcessus</text>
</a>
</g>
</g>
<!-- Node1&#45;&gt;Node7 -->
<g id="edge6_Node000001_Node000007" class="edge">
<title>Node1&#45;&gt;Node7</title>
<g id="a_edge6_Node000001_Node000007"><a xlink:title=" ">
<path fill="none" stroke="#63b8ff" d="M123.85,-231.18C143.28,-237.36 165.55,-244.45 185.82,-250.9"/>
<polygon fill="#63b8ff" stroke="#63b8ff" points="184.62,-254.51 195.21,-254.2 186.74,-247.84 184.62,-254.51"/>
</a>
</g>
</g>
<!-- Node9 -->
<g id="Node000009" class="node">
<title>Node9</title>
<g id="a_Node000009"><a xlink:href="class_galactic_shrine_1_1_configuration_1_1_analyseur_1_1_tampon_de_chaine.html#ac0a94fa81730c6f5fde7f2f842200620" target="_top" xlink:title=" ">
<polygon fill="white" stroke="#666666" points="550.88,-174.68 372.88,-174.68 372.88,-142.68 550.88,-142.68 550.88,-174.68"/>
<text text-anchor="start" x="380.88" y="-161.18" font-family="Helvetica,sans-Serif" font-size="10.00">GalacticShrine.Configuration.</text>
<text text-anchor="middle" x="461.88" y="-149.18" font-family="Helvetica,sans-Serif" font-size="10.00">Analyseur.TamponDeChaine.ToString</text>
</a>
</g>
</g>
<!-- Node1&#45;&gt;Node9 -->
<g id="edge23_Node000001_Node000009" class="edge">
<title>Node1&#45;&gt;Node9</title>
<g id="a_edge23_Node000001_Node000009"><a xlink:title=" ">
<path fill="none" stroke="#63b8ff" d="M136.2,-198.21C149.93,-195.06 164.4,-192.02 178,-189.68 238.71,-179.24 307.39,-171.61 361.87,-166.54"/>
<polygon fill="#63b8ff" stroke="#63b8ff" points="361.93,-169.96 371.57,-165.56 361.29,-162.99 361.93,-169.96"/>
</a>
</g>
</g>
<!-- Node11 -->
<g id="Node000011" class="node">
<title>Node11</title>
<g id="a_Node000011"><a xlink:href="class_galactic_shrine_1_1_configuration_1_1_ini.html#a23f514b3f12d239e58c39e45cd133d51" target="_top" xlink:title="[FR] Traite une chaîne de caractères contenant une section ini. &#160;[EN] Processes a string containing a...">
<polygon fill="white" stroke="#666666" points="320,-230.68 178,-230.68 178,-198.68 320,-198.68 320,-230.68"/>
<text text-anchor="start" x="186" y="-217.18" font-family="Helvetica,sans-Serif" font-size="10.00">GalacticShrine.Configuration.</text>
<text text-anchor="middle" x="249" y="-205.18" font-family="Helvetica,sans-Serif" font-size="10.00">Ini.SectionDeProcessus</text>
</a>
</g>
</g>
<!-- Node1&#45;&gt;Node11 -->
<g id="edge13_Node000001_Node000011" class="edge">
<title>Node1&#45;&gt;Node11</title>
<g id="a_edge13_Node000001_Node000011"><a xlink:title=" ">
<path fill="none" stroke="#63b8ff" d="M142.32,-214.68C150.28,-214.68 158.45,-214.68 166.54,-214.68"/>
<polygon fill="#63b8ff" stroke="#63b8ff" points="166.51,-218.18 176.51,-214.68 166.51,-211.18 166.51,-218.18"/>
</a>
</g>
</g>
<!-- Node3 -->
<g id="Node000003" class="node">
<title>Node3</title>
<g id="a_Node000003"><a xlink:href="struct_galactic_shrine_1_1_configuration_1_1_analyseur_1_1_tampon_de_chaine_1_1_plage.html#a2001d3beece21e14bb82661f749c60ae" target="_top" xlink:title=" ">
<polygon fill="white" stroke="#666666" points="798.25,-362.68 616.5,-362.68 616.5,-318.68 798.25,-318.68 798.25,-362.68"/>
<text text-anchor="start" x="624.5" y="-349.18" font-family="Helvetica,sans-Serif" font-size="10.00">GalacticShrine.Configuration.</text>
<text text-anchor="start" x="624.5" y="-337.18" font-family="Helvetica,sans-Serif" font-size="10.00">Analyseur.TamponDeChaine.Plage.De</text>
<text text-anchor="middle" x="707.38" y="-325.18" font-family="Helvetica,sans-Serif" font-size="10.00">L_IndexA_LaTaille</text>
</a>
</g>
</g>
<!-- Node2&#45;&gt;Node3 -->
<g id="edge2_Node000002_Node000003" class="edge">
<title>Node2&#45;&gt;Node3</title>
<g id="a_edge2_Node000002_Node000003"><a xlink:title=" ">
<path fill="none" stroke="#63b8ff" d="M563.32,-368.88C577.31,-366.12 591.69,-363.29 605.68,-360.53"/>
<polygon fill="#63b8ff" stroke="#63b8ff" points="606.16,-363.81 615.29,-358.44 604.81,-356.94 606.16,-363.81"/>
</a>
</g>
</g>
<!-- Node5 -->
<g id="Node000005" class="node">
<title>Node5</title>
<g id="a_Node000005"><a xlink:href="class_galactic_shrine_1_1_configuration_1_1_analyseur_1_1_tampon_de_chaine.html#ac1b985808f0790b6eb9130ae2f5b01d2" target="_top" xlink:title=" ">
<polygon fill="white" stroke="#666666" points="805,-177.68 609.75,-177.68 609.75,-145.68 805,-145.68 805,-177.68"/>
<text text-anchor="start" x="617.75" y="-164.18" font-family="Helvetica,sans-Serif" font-size="10.00">GalacticShrine.Configuration.</text>
<text text-anchor="middle" x="707.38" y="-152.18" font-family="Helvetica,sans-Serif" font-size="10.00">Analyseur.TamponDeChaine.AvalezCopie</text>
</a>
</g>
</g>
<!-- Node4&#45;&gt;Node5 -->
<g id="edge4_Node000004_Node000005" class="edge">
<title>Node4&#45;&gt;Node5</title>
<g id="a_edge4_Node000004_Node000005"><a xlink:title=" ">
<path fill="none" stroke="#63b8ff" d="M534.62,-124.3C561.49,-130.15 592.29,-136.85 620.32,-142.95"/>
<polygon fill="#63b8ff" stroke="#63b8ff" points="619.4,-146.55 629.91,-145.26 620.89,-139.71 619.4,-146.55"/>
</a>
</g>
</g>
<!-- Node6 -->
<g id="Node000006" class="node">
<title>Node6</title>
<g id="a_Node000006"><a xlink:href="class_galactic_shrine_1_1_configuration_1_1_analyseur_1_1_tampon_de_chaine.html#ad4240aacc0c932e5f08443b756b82f27" target="_top" xlink:title=" ">
<polygon fill="white" stroke="#666666" points="811,-271.68 603.75,-271.68 603.75,-239.68 811,-239.68 811,-271.68"/>
<text text-anchor="start" x="611.75" y="-258.18" font-family="Helvetica,sans-Serif" font-size="10.00">GalacticShrine.Configuration.</text>
<text text-anchor="middle" x="707.38" y="-246.18" font-family="Helvetica,sans-Serif" font-size="10.00">Analyseur.TamponDeChaine.FinDeGarniture</text>
</a>
</g>
</g>
<!-- Node4&#45;&gt;Node6 -->
<g id="edge5_Node000004_Node000006" class="edge">
<title>Node4&#45;&gt;Node6</title>
<g id="a_edge5_Node000004_Node000006"><a xlink:title=" ">
<path fill="none" stroke="#63b8ff" d="M534.73,-118.29C546.41,-121.91 557.89,-126.88 567.75,-133.68 591.19,-149.86 583.57,-166.59 603.75,-186.68 622.27,-205.12 646.38,-221.62 666.58,-233.86"/>
<polygon fill="#63b8ff" stroke="#63b8ff" points="664.45,-237.26 674.84,-239.35 668.02,-231.24 664.45,-237.26"/>
</a>
</g>
</g>
<!-- Node7&#45;&gt;Node2 -->
<g id="edge7_Node000007_Node000002" class="edge">
<title>Node7&#45;&gt;Node2</title>
<g id="a_edge7_Node000007_Node000002"><a xlink:title=" ">
<path fill="none" stroke="#63b8ff" d="M265.74,-287.12C285.23,-306.58 320.24,-338.73 356,-357.68 358.75,-359.14 361.58,-360.54 364.47,-361.88"/>
<polygon fill="#63b8ff" stroke="#63b8ff" points="362.91,-365.45 373.47,-366.22 365.69,-359.03 362.91,-365.45"/>
</a>
</g>
</g>
<!-- Node8 -->
<g id="Node000008" class="node">
<title>Node8</title>
<g id="a_Node000008"><a xlink:href="class_galactic_shrine_1_1_configuration_1_1_analyseur_1_1_tampon_de_chaine.html#a5ff6a33ce5c9c8b1c634b3242304a1b7" target="_top" xlink:title=" ">
<polygon fill="white" stroke="#666666" points="552.75,-286.68 371,-286.68 371,-254.68 552.75,-254.68 552.75,-286.68"/>
<text text-anchor="start" x="379" y="-273.18" font-family="Helvetica,sans-Serif" font-size="10.00">GalacticShrine.Configuration.</text>
<text text-anchor="middle" x="461.88" y="-261.18" font-family="Helvetica,sans-Serif" font-size="10.00">Analyseur.TamponDeChaine.Garniture</text>
</a>
</g>
</g>
<!-- Node7&#45;&gt;Node8 -->
<g id="edge8_Node000007_Node000008" class="edge">
<title>Node7&#45;&gt;Node8</title>
<g id="a_edge8_Node000007_Node000008"><a xlink:title=" ">
<path fill="none" stroke="#63b8ff" d="M320.22,-270.68C332.98,-270.68 346.52,-270.68 359.96,-270.68"/>
<polygon fill="#63b8ff" stroke="#63b8ff" points="359.71,-274.18 369.71,-270.68 359.71,-267.18 359.71,-274.18"/>
</a>
</g>
</g>
<!-- Node7&#45;&gt;Node9 -->
<g id="edge10_Node000007_Node000009" class="edge">
<title>Node7&#45;&gt;Node9</title>
<g id="a_edge10_Node000007_Node000009"><a xlink:title=" ">
<path fill="none" stroke="#63b8ff" d="M297.43,-254.23C305.46,-250.21 313.34,-245.39 320,-239.68 342.47,-220.44 331.86,-200.79 356,-183.68 358.24,-182.1 360.56,-180.61 362.96,-179.21"/>
<polygon fill="#63b8ff" stroke="#63b8ff" points="364.23,-181.98 371.51,-174.29 361.02,-175.76 364.23,-181.98"/>
</a>
</g>
</g>
<!-- Node10 -->
<g id="Node000010" class="node">
<title>Node10</title>
<g id="a_Node000010"><a xlink:href="class_galactic_shrine_1_1_configuration_1_1_analyseur_1_1_tampon_de_chaine.html#afa88b78cbdf391a2bdb3128d611760b6" target="_top" xlink:title=" ">
<polygon fill="white" stroke="#666666" points="548.25,-348.68 375.5,-348.68 375.5,-304.68 548.25,-304.68 548.25,-348.68"/>
<text text-anchor="start" x="383.5" y="-335.18" font-family="Helvetica,sans-Serif" font-size="10.00">GalacticShrine.Configuration.</text>
<text text-anchor="start" x="383.5" y="-323.18" font-family="Helvetica,sans-Serif" font-size="10.00">Analyseur.TamponDeChaine.Trouver</text>
<text text-anchor="middle" x="461.88" y="-311.18" font-family="Helvetica,sans-Serif" font-size="10.00">SousChaine</text>
</a>
</g>
</g>
<!-- Node7&#45;&gt;Node10 -->
<g id="edge11_Node000007_Node000010" class="edge">
<title>Node7&#45;&gt;Node10</title>
<g id="a_edge11_Node000007_Node000010"><a xlink:title=" ">
<path fill="none" stroke="#63b8ff" d="M312.13,-287.18C329.07,-291.68 347.81,-296.66 366.12,-301.52"/>
<polygon fill="#63b8ff" stroke="#63b8ff" points="364.96,-305.1 375.53,-304.28 366.76,-298.33 364.96,-305.1"/>
</a>
</g>
</g>
<!-- Node8&#45;&gt;Node6 -->
<g id="edge9_Node000008_Node000006" class="edge">
<title>Node8&#45;&gt;Node6</title>
<g id="a_edge9_Node000008_Node000006"><a xlink:title=" ">
<path fill="none" stroke="#63b8ff" d="M553.2,-265.12C566.12,-264.32 579.55,-263.49 592.85,-262.68"/>
<polygon fill="#63b8ff" stroke="#63b8ff" points="592.71,-266.13 602.47,-262.02 592.28,-259.14 592.71,-266.13"/>
</a>
</g>
</g>
<!-- Node10&#45;&gt;Node3 -->
<g id="edge12_Node000010_Node000003" class="edge">
<title>Node10&#45;&gt;Node3</title>
<g id="a_edge12_Node000010_Node000003"><a xlink:title=" ">
<path fill="none" stroke="#63b8ff" d="M548.72,-331.62C567.12,-332.68 586.72,-333.8 605.63,-334.89"/>
<polygon fill="#63b8ff" stroke="#63b8ff" points="605.17,-338.43 615.35,-335.51 605.57,-331.44 605.17,-338.43"/>
</a>
</g>
</g>
<!-- Node11&#45;&gt;Node2 -->
<g id="edge16_Node000011_Node000002" class="edge">
<title>Node11&#45;&gt;Node2</title>
<g id="a_edge16_Node000011_Node000002"><a xlink:title=" ">
<path fill="none" stroke="#63b8ff" d="M301.24,-231.14C308.21,-235.06 314.76,-239.85 320,-245.68 354.96,-284.56 318.59,-321.15 356,-357.68 356.71,-358.38 357.44,-359.06 358.18,-359.73"/>
<polygon fill="#63b8ff" stroke="#63b8ff" points="355.58,-362.91 365.62,-366.29 359.88,-357.39 355.58,-362.91"/>
</a>
</g>
</g>
<!-- Node11&#45;&gt;Node8 -->
<g id="edge18_Node000011_Node000008" class="edge">
<title>Node11&#45;&gt;Node8</title>
<g id="a_edge18_Node000011_Node000008"><a xlink:title=" ">
<path fill="none" stroke="#63b8ff" d="M304.32,-231.14C320.87,-236 339.14,-241.21 356,-245.68 363.46,-247.66 371.24,-249.65 379.05,-251.6"/>
<polygon fill="#63b8ff" stroke="#63b8ff" points="378.12,-255.22 388.67,-254.22 379.8,-248.43 378.12,-255.22"/>
</a>
</g>
</g>
<!-- Node11&#45;&gt;Node9 -->
<g id="edge21_Node000011_Node000009" class="edge">
<title>Node11&#45;&gt;Node9</title>
<g id="a_edge21_Node000011_Node000009"><a xlink:title=" ">
<path fill="none" stroke="#63b8ff" d="M304.32,-198.22C320.87,-193.37 339.14,-188.16 356,-183.68 363.46,-181.7 371.24,-179.71 379.05,-177.77"/>
<polygon fill="#63b8ff" stroke="#63b8ff" points="379.8,-180.94 388.67,-175.14 378.12,-174.14 379.8,-180.94"/>
</a>
</g>
</g>
<!-- Node11&#45;&gt;Node10 -->
<g id="edge22_Node000011_Node000010" class="edge">
<title>Node11&#45;&gt;Node10</title>
<g id="a_edge22_Node000011_Node000010"><a xlink:title=" ">
<path fill="none" stroke="#63b8ff" d="M296.45,-231.07C304.75,-235.13 312.98,-239.99 320,-245.68 341.26,-262.94 333.67,-279.84 356,-295.68 359.03,-297.83 362.22,-299.84 365.51,-301.71"/>
<polygon fill="#63b8ff" stroke="#63b8ff" points="363.55,-305.15 374.05,-306.61 366.76,-298.92 363.55,-305.15"/>
</a>
</g>
</g>
<!-- Node12 -->
<g id="Node000012" class="node">
<title>Node12</title>
<g id="a_Node000012"><a xlink:href="class_galactic_shrine_1_1_modele_1_1_configuration_1_1_ini_1_1_section_collection.html#ab439f8ed108317714dae058d645f56c0" target="_top" xlink:title="[FR] Crée une nouvelle section avec des données vides. &#160;[EN] Creates a new section with empty data.">
<polygon fill="white" stroke="#666666" points="550.12,-74.68 373.62,-74.68 373.62,-42.68 550.12,-42.68 550.12,-74.68"/>
<text text-anchor="start" x="381.62" y="-61.18" font-family="Helvetica,sans-Serif" font-size="10.00">GalacticShrine.Modele.Configuration.</text>
<text text-anchor="middle" x="461.88" y="-49.18" font-family="Helvetica,sans-Serif" font-size="10.00">Ini.SectionCollection.Ajouter</text>
</a>
</g>
</g>
<!-- Node11&#45;&gt;Node12 -->
<g id="edge14_Node000011_Node000012" class="edge">
<title>Node11&#45;&gt;Node12</title>
<g id="a_edge14_Node000011_Node000012"><a xlink:title=" ">
<path fill="none" stroke="#63b8ff" d="M258.37,-198.52C273.74,-170.51 309.22,-113.16 356,-83.68 358.36,-82.2 360.79,-80.8 363.29,-79.49"/>
<polygon fill="#63b8ff" stroke="#63b8ff" points="364.65,-82.25 372.21,-74.82 361.67,-75.91 364.65,-82.25"/>
</a>
</g>
</g>
<!-- Node13 -->
<g id="Node000013" class="node">
<title>Node13</title>
<g id="a_Node000013"><a xlink:href="class_galactic_shrine_1_1_modele_1_1_configuration_1_1_ini_1_1_section_collection.html#a059d00b51e709988710f540717083478" target="_top" xlink:title="[FR] Permet de savoir si une section portant le nom spécifié existe dans la collection....">
<polygon fill="white" stroke="#666666" points="795.62,-52.68 619.12,-52.68 619.12,-20.68 795.62,-20.68 795.62,-52.68"/>
<text text-anchor="start" x="627.12" y="-39.18" font-family="Helvetica,sans-Serif" font-size="10.00">GalacticShrine.Modele.Configuration.</text>
<text text-anchor="middle" x="707.38" y="-27.18" font-family="Helvetica,sans-Serif" font-size="10.00">Ini.SectionCollection.Contient</text>
</a>
</g>
</g>
<!-- Node11&#45;&gt;Node13 -->
<g id="edge17_Node000011_Node000013" class="edge">
<title>Node11&#45;&gt;Node13</title>
<g id="a_edge17_Node000011_Node000013"><a xlink:title=" ">
<path fill="none" stroke="#63b8ff" d="M253.78,-198.25C263.37,-160.9 292.5,-70.08 356,-33.68 444.28,16.92 566.78,0.11 641.1,-17.61"/>
<polygon fill="#63b8ff" stroke="#63b8ff" points="640.16,-21.23 650.7,-20.23 641.83,-14.44 640.16,-21.23"/>
</a>
</g>
</g>
<!-- Node14 -->
<g id="Node000014" class="node">
<title>Node14</title>
<g id="a_Node000014"><a xlink:href="class_galactic_shrine_1_1_configuration_1_1_analyseur_1_1_tampon_de_chaine.html#ad657925f38944e77f8ac413d45a9fe21" target="_top" xlink:title=" ">
<polygon fill="white" stroke="#666666" points="567.75,-236.68 356,-236.68 356,-192.68 567.75,-192.68 567.75,-236.68"/>
<text text-anchor="start" x="364" y="-223.18" font-family="Helvetica,sans-Serif" font-size="10.00">GalacticShrine.Configuration.</text>
<text text-anchor="start" x="364" y="-211.18" font-family="Helvetica,sans-Serif" font-size="10.00">Analyseur.TamponDeChaine.Redimensionner</text>
<text text-anchor="middle" x="461.88" y="-199.18" font-family="Helvetica,sans-Serif" font-size="10.00">EntreLesIndex</text>
</a>
</g>
</g>
<!-- Node11&#45;&gt;Node14 -->
<g id="edge19_Node000011_Node000014" class="edge">
<title>Node11&#45;&gt;Node14</title>
<g id="a_edge19_Node000011_Node000014"><a xlink:title=" ">
<path fill="none" stroke="#63b8ff" d="M320.22,-214.68C328.13,-214.68 336.35,-214.68 344.65,-214.68"/>
<polygon fill="#63b8ff" stroke="#63b8ff" points="344.6,-218.18 354.6,-214.68 344.6,-211.18 344.6,-218.18"/>
</a>
</g>
</g>
<!-- Node12&#45;&gt;Node13 -->
<g id="edge15_Node000012_Node000013" class="edge">
<title>Node12&#45;&gt;Node13</title>
<g id="a_edge15_Node000012_Node000013"><a xlink:title=" ">
<path fill="none" stroke="#63b8ff" d="M550.44,-50.77C569.11,-49.08 588.94,-47.29 607.98,-45.57"/>
<polygon fill="#63b8ff" stroke="#63b8ff" points="608.12,-48.98 617.77,-44.6 607.49,-42.01 608.12,-48.98"/>
</a>
</g>
</g>
<!-- Node14&#45;&gt;Node5 -->
<g id="edge20_Node000014_Node000005" class="edge">
<title>Node14&#45;&gt;Node5</title>
<g id="a_edge20_Node000014_Node000005"><a xlink:title=" ">
<path fill="none" stroke="#63b8ff" d="M566.14,-192.21C584.07,-188.3 602.54,-184.28 619.96,-180.49"/>
<polygon fill="#63b8ff" stroke="#63b8ff" points="620.63,-183.71 629.65,-178.16 619.14,-176.87 620.63,-183.71"/>
</a>
</g>
</g>
</g>
</svg>
