<?xml version="1.0" encoding="UTF-8" standalone="no"?>
<!DOCTYPE svg PUBLIC "-//W3C//DTD SVG 1.1//EN"
 "http://www.w3.org/Graphics/SVG/1.1/DTD/svg11.dtd">
<!-- Generated by graphviz version 8.1.0 (20230707.0739)
 -->
<!-- Title: GalacticShrine.UI.Terminal.ThemeSombre.ThemeSombre Pages: 1 -->
<svg width="553pt" height="90pt"
 viewBox="0.00 0.00 552.50 90.00" xmlns="http://www.w3.org/2000/svg" xmlns:xlink="http://www.w3.org/1999/xlink">
<g id="graph0" class="graph" transform="scale(1 1) rotate(0) translate(4 86)">
<title>GalacticShrine.UI.Terminal.ThemeSombre.ThemeSombre</title>
<!-- Node1 -->
<g id="Node000001" class="node">
<title>Node1</title>
<g id="a_Node000001"><a xlink:title=" ">
<polygon fill="#999999" stroke="#666666" points="145,-57 0,-57 0,-25 145,-25 145,-57"/>
<text text-anchor="start" x="8" y="-43.5" font-family="Helvetica,sans-Serif" font-size="10.00">GalacticShrine.UI.Terminal.</text>
<text text-anchor="middle" x="72.5" y="-31.5" font-family="Helvetica,sans-Serif" font-size="10.00">ThemeSombre.ThemeSombre</text>
</a>
</g>
</g>
<!-- Node2 -->
<g id="Node000002" class="node">
<title>Node2</title>
<g id="a_Node000002"><a xlink:href="class_galactic_shrine_1_1_u_i_1_1_terminal_1_1_theme_sombre.html#a40e2a871b6941ff37638869444d5abc5" target="_top" xlink:title=" ">
<polygon fill="white" stroke="#666666" points="360.5,-82 181,-82 181,-50 360.5,-50 360.5,-82"/>
<text text-anchor="start" x="189" y="-68.5" font-family="Helvetica,sans-Serif" font-size="10.00">GalacticShrine.UI.Terminal.</text>
<text text-anchor="middle" x="270.75" y="-56.5" font-family="Helvetica,sans-Serif" font-size="10.00">ThemeSombre.DefinirLesComposants</text>
</a>
</g>
</g>
<!-- Node1&#45;&gt;Node2 -->
<g id="edge1_Node000001_Node000002" class="edge">
<title>Node1&#45;&gt;Node2</title>
<g id="a_edge1_Node000001_Node000002"><a xlink:title=" ">
<path fill="none" stroke="#63b8ff" d="M145.46,-50.17C153.45,-51.18 161.68,-52.23 169.94,-53.28"/>
<polygon fill="#63b8ff" stroke="#63b8ff" points="169.41,-56.87 179.77,-54.67 170.3,-49.93 169.41,-56.87"/>
</a>
</g>
</g>
<!-- Node4 -->
<g id="Node000004" class="node">
<title>Node4</title>
<g id="a_Node000004"><a xlink:href="class_galactic_shrine_1_1_u_i_1_1_terminal_1_1_theme_sombre.html#ac5b63fc1b20610a3cbaf47ee2829eec2" target="_top" xlink:title=" ">
<polygon fill="white" stroke="#666666" points="352.25,-32 189.25,-32 189.25,0 352.25,0 352.25,-32"/>
<text text-anchor="start" x="197.25" y="-18.5" font-family="Helvetica,sans-Serif" font-size="10.00">GalacticShrine.UI.Terminal.</text>
<text text-anchor="middle" x="270.75" y="-6.5" font-family="Helvetica,sans-Serif" font-size="10.00">ThemeSombre.DefinirLesCouleurs</text>
</a>
</g>
</g>
<!-- Node1&#45;&gt;Node4 -->
<g id="edge3_Node000001_Node000004" class="edge">
<title>Node1&#45;&gt;Node4</title>
<g id="a_edge3_Node000001_Node000004"><a xlink:title=" ">
<path fill="none" stroke="#63b8ff" d="M145.46,-31.83C156.05,-30.48 167.07,-29.08 177.98,-27.69"/>
<polygon fill="#63b8ff" stroke="#63b8ff" points="178.37,-31.04 187.85,-26.31 177.48,-24.1 178.37,-31.04"/>
</a>
</g>
</g>
<!-- Node3 -->
<g id="Node000003" class="node">
<title>Node3</title>
<g id="a_Node000003"><a xlink:href="class_galactic_shrine_1_1_u_i_1_1_terminal_1_1_theme_params.html#aa34e36adfde77fb1d09783d65926c5cc" target="_top" xlink:title=" ">
<polygon fill="white" stroke="#666666" points="543.38,-82 397.62,-82 397.62,-50 543.38,-50 543.38,-82"/>
<text text-anchor="start" x="405.62" y="-68.5" font-family="Helvetica,sans-Serif" font-size="10.00">GalacticShrine.UI.Terminal.</text>
<text text-anchor="middle" x="470.5" y="-56.5" font-family="Helvetica,sans-Serif" font-size="10.00">ThemeParams.AjouterCouleur</text>
</a>
</g>
</g>
<!-- Node2&#45;&gt;Node3 -->
<g id="edge2_Node000002_Node000003" class="edge">
<title>Node2&#45;&gt;Node3</title>
<g id="a_edge2_Node000002_Node000003"><a xlink:title=" ">
<path fill="none" stroke="#63b8ff" d="M360.79,-66C369.27,-66 377.85,-66 386.28,-66"/>
<polygon fill="#63b8ff" stroke="#63b8ff" points="386.24,-69.5 396.24,-66 386.24,-62.5 386.24,-69.5"/>
</a>
</g>
</g>
<!-- Node5 -->
<g id="Node000005" class="node">
<title>Node5</title>
<g id="a_Node000005"><a xlink:href="class_galactic_shrine_1_1_u_i_1_1_terminal_1_1_theme_params.html#aff504db1be705b7e839ef8e02b1ab71f" target="_top" xlink:title=" ">
<polygon fill="white" stroke="#666666" points="544.5,-32 396.5,-32 396.5,0 544.5,0 544.5,-32"/>
<text text-anchor="start" x="404.5" y="-18.5" font-family="Helvetica,sans-Serif" font-size="10.00">GalacticShrine.UI.Terminal.</text>
<text text-anchor="middle" x="470.5" y="-6.5" font-family="Helvetica,sans-Serif" font-size="10.00">ThemeParams.RetablirCouleur</text>
</a>
</g>
</g>
<!-- Node4&#45;&gt;Node5 -->
<g id="edge4_Node000004_Node000005" class="edge">
<title>Node4&#45;&gt;Node5</title>
<g id="a_edge4_Node000004_Node000005"><a xlink:title=" ">
<path fill="none" stroke="#63b8ff" d="M352.47,-16C363.28,-16 374.39,-16 385.27,-16"/>
<polygon fill="#63b8ff" stroke="#63b8ff" points="385.04,-19.5 395.04,-16 385.04,-12.5 385.04,-19.5"/>
</a>
</g>
</g>
</g>
</svg>
