<?xml version="1.0" encoding="UTF-8" standalone="no"?>
<!DOCTYPE svg PUBLIC "-//W3C//DTD SVG 1.1//EN"
 "http://www.w3.org/Graphics/SVG/1.1/DTD/svg11.dtd">
<!-- Generated by graphviz version 8.1.0 (20230707.0739)
 -->
<!-- Title: GalacticShrine.UI.Terminal.ThemeParams Pages: 1 -->
<svg width="296pt" height="164pt"
 viewBox="0.00 0.00 295.50 164.00" xmlns="http://www.w3.org/2000/svg" xmlns:xlink="http://www.w3.org/1999/xlink">
<g id="graph0" class="graph" transform="scale(1 1) rotate(0) translate(4 160)">
<title>GalacticShrine.UI.Terminal.ThemeParams</title>
<!-- Node1 -->
<g id="Node000001" class="node">
<title>Node1</title>
<g id="a_Node000001"><a xlink:title=" ">
<polygon fill="#999999" stroke="#666666" points="210.5,-100 76,-100 76,-68 210.5,-68 210.5,-100"/>
<text text-anchor="start" x="84" y="-86.5" font-family="Helvetica,sans-Serif" font-size="10.00">GalacticShrine.UI.Terminal.</text>
<text text-anchor="middle" x="143.25" y="-74.5" font-family="Helvetica,sans-Serif" font-size="10.00">ThemeParams</text>
</a>
</g>
</g>
<!-- Node3 -->
<g id="Node000003" class="node">
<title>Node3</title>
<g id="a_Node000003"><a xlink:href="class_galactic_shrine_1_1_u_i_1_1_terminal_1_1_theme_lumineux.html" target="_top" xlink:title=" ">
<polygon fill="white" stroke="#666666" points="134.5,-32 0,-32 0,0 134.5,0 134.5,-32"/>
<text text-anchor="start" x="8" y="-18.5" font-family="Helvetica,sans-Serif" font-size="10.00">GalacticShrine.UI.Terminal.</text>
<text text-anchor="middle" x="67.25" y="-6.5" font-family="Helvetica,sans-Serif" font-size="10.00">ThemeLumineux</text>
</a>
</g>
</g>
<!-- Node1&#45;&gt;Node3 -->
<g id="edge2_Node000001_Node000003" class="edge">
<title>Node1&#45;&gt;Node3</title>
<g id="a_edge2_Node000001_Node000003"><a xlink:title=" ">
<path fill="none" stroke="#63b8ff" d="M117.45,-60.6C106.79,-51.34 94.69,-40.83 85.04,-32.45"/>
<polygon fill="#63b8ff" stroke="#63b8ff" points="114.78,-63.78 124.62,-67.69 119.37,-58.49 114.78,-63.78"/>
</a>
</g>
</g>
<!-- Node4 -->
<g id="Node000004" class="node">
<title>Node4</title>
<g id="a_Node000004"><a xlink:href="class_galactic_shrine_1_1_u_i_1_1_terminal_1_1_theme_sombre.html" target="_top" xlink:title=" ">
<polygon fill="white" stroke="#666666" points="287.5,-32 153,-32 153,0 287.5,0 287.5,-32"/>
<text text-anchor="start" x="161" y="-18.5" font-family="Helvetica,sans-Serif" font-size="10.00">GalacticShrine.UI.Terminal.</text>
<text text-anchor="middle" x="220.25" y="-6.5" font-family="Helvetica,sans-Serif" font-size="10.00">ThemeSombre</text>
</a>
</g>
</g>
<!-- Node1&#45;&gt;Node4 -->
<g id="edge3_Node000001_Node000004" class="edge">
<title>Node1&#45;&gt;Node4</title>
<g id="a_edge3_Node000001_Node000004"><a xlink:title=" ">
<path fill="none" stroke="#63b8ff" d="M169.39,-60.6C180.19,-51.34 192.45,-40.83 202.22,-32.45"/>
<polygon fill="#63b8ff" stroke="#63b8ff" points="167.42,-58.53 162.11,-67.69 171.98,-63.84 167.42,-58.53"/>
</a>
</g>
</g>
<!-- Node2 -->
<g id="Node000002" class="node">
<title>Node2</title>
<g id="a_Node000002"><a xlink:href="interface_galactic_shrine_1_1_interface_1_1_terminal_1_1_couleur_interface.html" target="_top" xlink:title=" ">
<polygon fill="white" stroke="#666666" points="186.12,-156 100.38,-156 100.38,-136 186.12,-136 186.12,-156"/>
<text text-anchor="middle" x="143.25" y="-142.5" font-family="Helvetica,sans-Serif" font-size="10.00">CouleurInterface</text>
</a>
</g>
</g>
<!-- Node2&#45;&gt;Node1 -->
<g id="edge1_Node000001_Node000002" class="edge">
<title>Node2&#45;&gt;Node1</title>
<g id="a_edge1_Node000001_Node000002"><a xlink:title=" ">
<path fill="none" stroke="#63b8ff" d="M143.25,-124.87C143.25,-116.79 143.25,-107.64 143.25,-100.14"/>
<polygon fill="#63b8ff" stroke="#63b8ff" points="139.75,-124.62 143.25,-134.62 146.75,-124.63 139.75,-124.62"/>
</a>
</g>
</g>
</g>
</svg>
