<?xml version="1.0" encoding="UTF-8" standalone="no"?>
<!DOCTYPE svg PUBLIC "-//W3C//DTD SVG 1.1//EN"
 "http://www.w3.org/Graphics/SVG/1.1/DTD/svg11.dtd">
<!-- Generated by graphviz version 8.1.0 (20230707.0739)
 -->
<!-- Title: GalacticShrine.Modele.Configuration.Ini.SectionCollection.Ajouter Pages: 1 -->
<svg width="753pt" height="90pt"
 viewBox="0.00 0.00 753.00 90.00" xmlns="http://www.w3.org/2000/svg" xmlns:xlink="http://www.w3.org/1999/xlink">
<g id="graph0" class="graph" transform="scale(1 1) rotate(0) translate(4 86)">
<title>GalacticShrine.Modele.Configuration.Ini.SectionCollection.Ajouter</title>
<!-- Node1 -->
<g id="Node000001" class="node">
<title>Node1</title>
<g id="a_Node000001"><a xlink:title="[FR] Crée une nouvelle section avec des données vides. &#160;[EN] Creates a new section with empty data.">
<polygon fill="#999999" stroke="#666666" points="745,-57 568.5,-57 568.5,-25 745,-25 745,-57"/>
<text text-anchor="start" x="576.5" y="-43.5" font-family="Helvetica,sans-Serif" font-size="10.00">GalacticShrine.Modele.Configuration.</text>
<text text-anchor="middle" x="656.75" y="-31.5" font-family="Helvetica,sans-Serif" font-size="10.00">Ini.SectionCollection.Ajouter</text>
</a>
</g>
</g>
<!-- Node2 -->
<g id="Node000002" class="node">
<title>Node2</title>
<g id="a_Node000002"><a xlink:href="class_galactic_shrine_1_1_modele_1_1_configuration_1_1_ini_1_1_section_collection.html#ac2f833e033dd9b7cb49023856a6ae7c9" target="_top" xlink:title=" ">
<polygon fill="white" stroke="#666666" points="532.5,-82 356,-82 356,-50 532.5,-50 532.5,-82"/>
<text text-anchor="start" x="364" y="-68.5" font-family="Helvetica,sans-Serif" font-size="10.00">GalacticShrine.Modele.Configuration.</text>
<text text-anchor="middle" x="444.25" y="-56.5" font-family="Helvetica,sans-Serif" font-size="10.00">Ini.SectionCollection.Fusionner</text>
</a>
</g>
</g>
<!-- Node1&#45;&gt;Node2 -->
<g id="edge1_Node000001_Node000002" class="edge">
<title>Node1&#45;&gt;Node2</title>
<g id="a_edge1_Node000001_Node000002"><a xlink:title=" ">
<path fill="none" stroke="#63b8ff" d="M557.32,-52.69C549.15,-53.66 540.93,-54.64 532.85,-55.6"/>
<polygon fill="#63b8ff" stroke="#63b8ff" points="557.49,-56.08 567,-51.42 556.66,-49.13 557.49,-56.08"/>
</a>
</g>
</g>
<!-- Node4 -->
<g id="Node000004" class="node">
<title>Node4</title>
<g id="a_Node000004"><a xlink:href="class_galactic_shrine_1_1_configuration_1_1_ini.html#a23f514b3f12d239e58c39e45cd133d51" target="_top" xlink:title="[FR] Traite une chaîne de caractères contenant une section ini. &#160;[EN] Processes a string containing a...">
<polygon fill="white" stroke="#666666" points="515.25,-32 373.25,-32 373.25,0 515.25,0 515.25,-32"/>
<text text-anchor="start" x="381.25" y="-18.5" font-family="Helvetica,sans-Serif" font-size="10.00">GalacticShrine.Configuration.</text>
<text text-anchor="middle" x="444.25" y="-6.5" font-family="Helvetica,sans-Serif" font-size="10.00">Ini.SectionDeProcessus</text>
</a>
</g>
</g>
<!-- Node1&#45;&gt;Node4 -->
<g id="edge3_Node000001_Node000004" class="edge">
<title>Node1&#45;&gt;Node4</title>
<g id="a_edge3_Node000001_Node000004"><a xlink:title=" ">
<path fill="none" stroke="#63b8ff" d="M557.28,-29.31C543.2,-27.63 528.95,-25.94 515.56,-24.35"/>
<polygon fill="#63b8ff" stroke="#63b8ff" points="556.66,-32.87 567,-30.58 557.49,-25.92 556.66,-32.87"/>
</a>
</g>
</g>
<!-- Node3 -->
<g id="Node000003" class="node">
<title>Node3</title>
<g id="a_Node000003"><a xlink:href="class_galactic_shrine_1_1_configuration_1_1_donnees_ini.html#addd473fd59f8f71989ab837ac8064aba" target="_top" xlink:title="[FR] Fusionne les autres iniData dans celle&#45;ci en écrasant les valeurs existantes....">
<polygon fill="white" stroke="#666666" points="320,-82 178,-82 178,-50 320,-50 320,-82"/>
<text text-anchor="start" x="186" y="-68.5" font-family="Helvetica,sans-Serif" font-size="10.00">GalacticShrine.Configuration.</text>
<text text-anchor="middle" x="249" y="-56.5" font-family="Helvetica,sans-Serif" font-size="10.00">DonneesIni.Fusionner</text>
</a>
</g>
</g>
<!-- Node2&#45;&gt;Node3 -->
<g id="edge2_Node000002_Node000003" class="edge">
<title>Node2&#45;&gt;Node3</title>
<g id="a_edge2_Node000002_Node000003"><a xlink:title=" ">
<path fill="none" stroke="#63b8ff" d="M344.87,-66C336.65,-66 328.44,-66 320.49,-66"/>
<polygon fill="#63b8ff" stroke="#63b8ff" points="344.67,-69.5 354.67,-66 344.67,-62.5 344.67,-69.5"/>
</a>
</g>
</g>
<!-- Node5 -->
<g id="Node000005" class="node">
<title>Node5</title>
<g id="a_Node000005"><a xlink:href="class_galactic_shrine_1_1_configuration_1_1_ini.html#ab6c8c10782835b28847a24c919e2ad6c" target="_top" xlink:title="[FR] Traite une ligne et analyse les données qui s&#39;y trouvent (section ou paire clé/valeur avec ou sa...">
<polygon fill="white" stroke="#666666" points="320,-32 178,-32 178,0 320,0 320,-32"/>
<text text-anchor="start" x="186" y="-18.5" font-family="Helvetica,sans-Serif" font-size="10.00">GalacticShrine.Configuration.</text>
<text text-anchor="middle" x="249" y="-6.5" font-family="Helvetica,sans-Serif" font-size="10.00">Ini.LigneDeProcessus</text>
</a>
</g>
</g>
<!-- Node4&#45;&gt;Node5 -->
<g id="edge4_Node000004_Node000005" class="edge">
<title>Node4&#45;&gt;Node5</title>
<g id="a_edge4_Node000004_Node000005"><a xlink:title=" ">
<path fill="none" stroke="#63b8ff" d="M361.94,-16C348.09,-16 333.8,-16 320.26,-16"/>
<polygon fill="#63b8ff" stroke="#63b8ff" points="361.94,-19.5 371.94,-16 361.94,-12.5 361.94,-19.5"/>
</a>
</g>
</g>
<!-- Node6 -->
<g id="Node000006" class="node">
<title>Node6</title>
<g id="a_Node000006"><a xlink:href="class_galactic_shrine_1_1_configuration_1_1_ini.html#ac15c07bfff5ae1ddc1dc255904aa5f70" target="_top" xlink:title="[FR] Analyse une chaîne contenant des données ini valides. &#160;[EN] Parses a string containing valid ini...">
<polygon fill="white" stroke="#666666" points="142,-32 0,-32 0,0 142,0 142,-32"/>
<text text-anchor="start" x="8" y="-18.5" font-family="Helvetica,sans-Serif" font-size="10.00">GalacticShrine.Configuration.</text>
<text text-anchor="middle" x="71" y="-6.5" font-family="Helvetica,sans-Serif" font-size="10.00">Ini.Analyse</text>
</a>
</g>
</g>
<!-- Node5&#45;&gt;Node6 -->
<g id="edge5_Node000005_Node000006" class="edge">
<title>Node5&#45;&gt;Node6</title>
<g id="a_edge5_Node000005_Node000006"><a xlink:title=" ">
<path fill="none" stroke="#63b8ff" d="M166.72,-16C158.63,-16 150.46,-16 142.49,-16"/>
<polygon fill="#63b8ff" stroke="#63b8ff" points="166.68,-19.5 176.68,-16 166.68,-12.5 166.68,-19.5"/>
</a>
</g>
</g>
</g>
</svg>
