<?xml version="1.0" encoding="UTF-8" standalone="no"?>
<!DOCTYPE svg PUBLIC "-//W3C//DTD SVG 1.1//EN"
 "http://www.w3.org/Graphics/SVG/1.1/DTD/svg11.dtd">
<!-- Generated by graphviz version 8.1.0 (20230707.0739)
 -->
<!-- Title: GalacticShrine.Configuration.Ini.Analyse Pages: 1 -->
<svg width="1042pt" height="423pt"
 viewBox="0.00 0.00 1042.00 423.49" xmlns="http://www.w3.org/2000/svg" xmlns:xlink="http://www.w3.org/1999/xlink">
<g id="graph0" class="graph" transform="scale(1 1) rotate(0) translate(4 419.49)">
<title>GalacticShrine.Configuration.Ini.Analyse</title>
<!-- Node1 -->
<g id="Node000001" class="node">
<title>Node1</title>
<g id="a_Node000001"><a xlink:title="[FR] Analyse une chaîne contenant des données ini valides. &#160;[EN] Parses a string containing valid ini...">
<polygon fill="#999999" stroke="#666666" points="142,-307 0,-307 0,-275 142,-275 142,-307"/>
<text text-anchor="start" x="8" y="-293.5" font-family="Helvetica,sans-Serif" font-size="10.00">GalacticShrine.Configuration.</text>
<text text-anchor="middle" x="71" y="-281.5" font-family="Helvetica,sans-Serif" font-size="10.00">Ini.Analyse</text>
</a>
</g>
</g>
<!-- Node2 -->
<g id="Node000002" class="node">
<title>Node2</title>
<g id="a_Node000002"><a xlink:href="interface_galactic_shrine_1_1_interface_1_1_configuration_1_1_clonable_interface.html#a105777a718fdc2d14973eecfe9ba182b" target="_top" xlink:title="[FR] Crée un nouvel objet qui est une copie de l&#39;instance actuelle. &#160;[EN] Creates a new object that i...">
<polygon fill="white" stroke="#666666" points="330.5,-369 178,-369 178,-325 330.5,-325 330.5,-369"/>
<text text-anchor="start" x="186" y="-355.5" font-family="Helvetica,sans-Serif" font-size="10.00">GalacticShrine.Interface.</text>
<text text-anchor="start" x="186" y="-343.5" font-family="Helvetica,sans-Serif" font-size="10.00">Configuration.ClonableInterface.</text>
<text text-anchor="middle" x="254.25" y="-331.5" font-family="Helvetica,sans-Serif" font-size="10.00">CloneEnProfondeur</text>
</a>
</g>
</g>
<!-- Node1&#45;&gt;Node2 -->
<g id="edge1_Node000001_Node000002" class="edge">
<title>Node1&#45;&gt;Node2</title>
<g id="a_edge1_Node000001_Node000002"><a xlink:title=" ">
<path fill="none" stroke="#63b8ff" d="M125.4,-307.5C139.48,-311.85 155.02,-316.65 170.27,-321.36"/>
<polygon fill="#63b8ff" stroke="#63b8ff" points="169.16,-324.99 179.75,-324.6 171.23,-318.3 169.16,-324.99"/>
</a>
</g>
</g>
<!-- Node3 -->
<g id="Node000003" class="node">
<title>Node3</title>
<g id="a_Node000003"><a xlink:href="class_galactic_shrine_1_1_configuration_1_1_donnees_ini.html#acc7e48b9185281a6d872a5598a728143" target="_top" xlink:title="[FR] Fonction de suppression. &#160;[EN] Deletion function.">
<polygon fill="white" stroke="#666666" points="325.25,-307 183.25,-307 183.25,-275 325.25,-275 325.25,-307"/>
<text text-anchor="start" x="191.25" y="-293.5" font-family="Helvetica,sans-Serif" font-size="10.00">GalacticShrine.Configuration.</text>
<text text-anchor="middle" x="254.25" y="-281.5" font-family="Helvetica,sans-Serif" font-size="10.00">DonneesIni.Effacer</text>
</a>
</g>
</g>
<!-- Node1&#45;&gt;Node3 -->
<g id="edge2_Node000001_Node000003" class="edge">
<title>Node1&#45;&gt;Node3</title>
<g id="a_edge2_Node000001_Node000003"><a xlink:title=" ">
<path fill="none" stroke="#63b8ff" d="M142.34,-291C152.13,-291 162.25,-291 172.22,-291"/>
<polygon fill="#63b8ff" stroke="#63b8ff" points="171.95,-294.5 181.95,-291 171.95,-287.5 171.95,-294.5"/>
</a>
</g>
</g>
<!-- Node6 -->
<g id="Node000006" class="node">
<title>Node6</title>
<g id="a_Node000006"><a xlink:href="class_galactic_shrine_1_1_configuration_1_1_ini.html#ab6c8c10782835b28847a24c919e2ad6c" target="_top" xlink:title="[FR] Traite une ligne et analyse les données qui s&#39;y trouvent (section ou paire clé/valeur avec ou sa...">
<polygon fill="white" stroke="#666666" points="325.25,-194 183.25,-194 183.25,-162 325.25,-162 325.25,-194"/>
<text text-anchor="start" x="191.25" y="-180.5" font-family="Helvetica,sans-Serif" font-size="10.00">GalacticShrine.Configuration.</text>
<text text-anchor="middle" x="254.25" y="-168.5" font-family="Helvetica,sans-Serif" font-size="10.00">Ini.LigneDeProcessus</text>
</a>
</g>
</g>
<!-- Node1&#45;&gt;Node6 -->
<g id="edge5_Node000001_Node000006" class="edge">
<title>Node1&#45;&gt;Node6</title>
<g id="a_edge5_Node000001_Node000006"><a xlink:title=" ">
<path fill="none" stroke="#63b8ff" d="M98.36,-274.57C129.9,-254.9 182.85,-221.89 217.92,-200.03"/>
<polygon fill="#63b8ff" stroke="#63b8ff" points="219.23,-202.71 225.86,-194.45 215.53,-196.77 219.23,-202.71"/>
</a>
</g>
</g>
<!-- Node4 -->
<g id="Node000004" class="node">
<title>Node4</title>
<g id="a_Node000004"><a xlink:href="class_galactic_shrine_1_1_modele_1_1_configuration_1_1_ini_1_1_section_collection.html#afa47b54efe0f8afa174958bb9dd8aa86" target="_top" xlink:title="[FR] Supprime toutes les entrées de cette collection. &#160;[EN] Deletes all entries in this collection.">
<polygon fill="white" stroke="#666666" points="543,-307 366.5,-307 366.5,-275 543,-275 543,-307"/>
<text text-anchor="start" x="374.5" y="-293.5" font-family="Helvetica,sans-Serif" font-size="10.00">GalacticShrine.Modele.Configuration.</text>
<text text-anchor="middle" x="454.75" y="-281.5" font-family="Helvetica,sans-Serif" font-size="10.00">Ini.SectionCollection.Effacer</text>
</a>
</g>
</g>
<!-- Node3&#45;&gt;Node4 -->
<g id="edge3_Node000003_Node000004" class="edge">
<title>Node3&#45;&gt;Node4</title>
<g id="a_edge3_Node000003_Node000004"><a xlink:title=" ">
<path fill="none" stroke="#63b8ff" d="M325.51,-291C335.18,-291 345.24,-291 355.3,-291"/>
<polygon fill="#63b8ff" stroke="#63b8ff" points="355.19,-294.5 365.19,-291 355.19,-287.5 355.19,-294.5"/>
</a>
</g>
</g>
<!-- Node5 -->
<g id="Node000005" class="node">
<title>Node5</title>
<g id="a_Node000005"><a xlink:href="class_galactic_shrine_1_1_modele_1_1_configuration_1_1_ini_1_1_propriete_collection.html#a6e126a5653cb30a7992887240f190ab0" target="_top" xlink:title="[FR] Fonction de suppression. &#160;[EN] Deletion function.">
<polygon fill="white" stroke="#666666" points="543,-357 366.5,-357 366.5,-325 543,-325 543,-357"/>
<text text-anchor="start" x="374.5" y="-343.5" font-family="Helvetica,sans-Serif" font-size="10.00">GalacticShrine.Modele.Configuration.</text>
<text text-anchor="middle" x="454.75" y="-331.5" font-family="Helvetica,sans-Serif" font-size="10.00">Ini.ProprieteCollection.Effacer</text>
</a>
</g>
</g>
<!-- Node3&#45;&gt;Node5 -->
<g id="edge4_Node000003_Node000005" class="edge">
<title>Node3&#45;&gt;Node5</title>
<g id="a_edge4_Node000003_Node000005"><a xlink:title=" ">
<path fill="none" stroke="#63b8ff" d="M320.52,-307.44C338.84,-312.05 358.91,-317.11 377.79,-321.87"/>
<polygon fill="#63b8ff" stroke="#63b8ff" points="376.89,-325.5 387.44,-324.55 378.6,-318.71 376.89,-325.5"/>
</a>
</g>
</g>
<!-- Node7 -->
<g id="Node000007" class="node">
<title>Node7</title>
<g id="a_Node000007"><a xlink:href="class_galactic_shrine_1_1_configuration_1_1_analyseur_1_1_tampon_de_chaine.html#aa1784d12ea6aefb26d219e9010a90653" target="_top" xlink:title=" ">
<polygon fill="white" stroke="#666666" points="785.88,-318 583.88,-318 583.88,-274 785.88,-274 785.88,-318"/>
<text text-anchor="start" x="591.88" y="-304.5" font-family="Helvetica,sans-Serif" font-size="10.00">GalacticShrine.Configuration.</text>
<text text-anchor="start" x="591.88" y="-292.5" font-family="Helvetica,sans-Serif" font-size="10.00">Analyseur.TamponDeChaine.Changements</text>
<text text-anchor="middle" x="684.88" y="-280.5" font-family="Helvetica,sans-Serif" font-size="10.00">DansLesRejets</text>
</a>
</g>
</g>
<!-- Node6&#45;&gt;Node7 -->
<g id="edge6_Node000006_Node000007" class="edge">
<title>Node6&#45;&gt;Node7</title>
<g id="a_edge6_Node000006_Node000007"><a xlink:title=" ">
<path fill="none" stroke="#63b8ff" d="M286.67,-194.28C308.57,-205.08 338.73,-218.9 366.5,-228 369.07,-228.84 482.55,-253.1 573.08,-272.4"/>
<polygon fill="#63b8ff" stroke="#63b8ff" points="572.21,-276.01 582.72,-274.67 573.67,-269.16 572.21,-276.01"/>
</a>
</g>
</g>
<!-- Node9 -->
<g id="Node000009" class="node">
<title>Node9</title>
<g id="a_Node000009"><a xlink:href="class_galactic_shrine_1_1_configuration_1_1_ini.html#ab33c61b1a5f2a6e45d63e48113f20750" target="_top" xlink:title=" ">
<polygon fill="white" stroke="#666666" points="757.38,-32 612.38,-32 612.38,0 757.38,0 757.38,-32"/>
<text text-anchor="start" x="620.38" y="-18.5" font-family="Helvetica,sans-Serif" font-size="10.00">GalacticShrine.Configuration.</text>
<text text-anchor="middle" x="684.88" y="-6.5" font-family="Helvetica,sans-Serif" font-size="10.00">Ini.CommentaireDeProcessus</text>
</a>
</g>
</g>
<!-- Node6&#45;&gt;Node9 -->
<g id="edge8_Node000006_Node000009" class="edge">
<title>Node6&#45;&gt;Node9</title>
<g id="a_edge8_Node000006_Node000009"><a xlink:title=" ">
<path fill="none" stroke="#63b8ff" d="M269.3,-161.75C288.85,-140.24 326.39,-102.74 366.5,-83 441.04,-46.31 535.08,-29.65 601.38,-22.13"/>
<polygon fill="#63b8ff" stroke="#63b8ff" points="601.62,-25.52 611.19,-20.96 600.87,-18.56 601.62,-25.52"/>
</a>
</g>
</g>
<!-- Node12 -->
<g id="Node000012" class="node">
<title>Node12</title>
<g id="a_Node000012"><a xlink:href="class_galactic_shrine_1_1_configuration_1_1_ini.html#ac949b568fd2371b7546137b7092651dc" target="_top" xlink:title=" ">
<polygon fill="white" stroke="#666666" points="525.75,-169 383.75,-169 383.75,-137 525.75,-137 525.75,-169"/>
<text text-anchor="start" x="391.75" y="-155.5" font-family="Helvetica,sans-Serif" font-size="10.00">GalacticShrine.Configuration.</text>
<text text-anchor="middle" x="454.75" y="-143.5" font-family="Helvetica,sans-Serif" font-size="10.00">Ini.ProprieteDeProcessus</text>
</a>
</g>
</g>
<!-- Node6&#45;&gt;Node12 -->
<g id="edge11_Node000006_Node000012" class="edge">
<title>Node6&#45;&gt;Node12</title>
<g id="a_edge11_Node000006_Node000012"><a xlink:title=" ">
<path fill="none" stroke="#63b8ff" d="M325.51,-169.15C340.83,-167.22 357.15,-165.17 372.84,-163.19"/>
<polygon fill="#63b8ff" stroke="#63b8ff" points="373.1,-166.56 382.58,-161.84 372.22,-159.61 373.1,-166.56"/>
</a>
</g>
</g>
<!-- Node14 -->
<g id="Node000014" class="node">
<title>Node14</title>
<g id="a_Node000014"><a xlink:href="class_galactic_shrine_1_1_configuration_1_1_analyseur_1_1_tampon_de_chaine.html#ac0a94fa81730c6f5fde7f2f842200620" target="_top" xlink:title=" ">
<polygon fill="white" stroke="#666666" points="773.88,-82 595.88,-82 595.88,-50 773.88,-50 773.88,-82"/>
<text text-anchor="start" x="603.88" y="-68.5" font-family="Helvetica,sans-Serif" font-size="10.00">GalacticShrine.Configuration.</text>
<text text-anchor="middle" x="684.88" y="-56.5" font-family="Helvetica,sans-Serif" font-size="10.00">Analyseur.TamponDeChaine.ToString</text>
</a>
</g>
</g>
<!-- Node6&#45;&gt;Node14 -->
<g id="edge28_Node000006_Node000014" class="edge">
<title>Node6&#45;&gt;Node14</title>
<g id="a_edge28_Node000006_Node000014"><a xlink:title=" ">
<path fill="none" stroke="#63b8ff" d="M286.62,-161.56C308.5,-150.69 338.65,-136.85 366.5,-128 438.07,-105.26 521.5,-89.36 584.85,-79.35"/>
<polygon fill="#63b8ff" stroke="#63b8ff" points="585.29,-82.67 594.64,-77.68 584.22,-75.75 585.29,-82.67"/>
</a>
</g>
</g>
<!-- Node16 -->
<g id="Node000016" class="node">
<title>Node16</title>
<g id="a_Node000016"><a xlink:href="class_galactic_shrine_1_1_configuration_1_1_ini.html#a23f514b3f12d239e58c39e45cd133d51" target="_top" xlink:title="[FR] Traite une chaîne de caractères contenant une section ini. &#160;[EN] Processes a string containing a...">
<polygon fill="white" stroke="#666666" points="525.75,-219 383.75,-219 383.75,-187 525.75,-187 525.75,-219"/>
<text text-anchor="start" x="391.75" y="-205.5" font-family="Helvetica,sans-Serif" font-size="10.00">GalacticShrine.Configuration.</text>
<text text-anchor="middle" x="454.75" y="-193.5" font-family="Helvetica,sans-Serif" font-size="10.00">Ini.SectionDeProcessus</text>
</a>
</g>
</g>
<!-- Node6&#45;&gt;Node16 -->
<g id="edge18_Node000006_Node000016" class="edge">
<title>Node6&#45;&gt;Node16</title>
<g id="a_edge18_Node000006_Node000016"><a xlink:title=" ">
<path fill="none" stroke="#63b8ff" d="M325.51,-186.85C340.83,-188.78 357.15,-190.83 372.84,-192.81"/>
<polygon fill="#63b8ff" stroke="#63b8ff" points="372.22,-196.39 382.58,-194.16 373.1,-189.44 372.22,-196.39"/>
</a>
</g>
</g>
<!-- Node8 -->
<g id="Node000008" class="node">
<title>Node8</title>
<g id="a_Node000008"><a xlink:href="struct_galactic_shrine_1_1_configuration_1_1_analyseur_1_1_tampon_de_chaine_1_1_plage.html#a2001d3beece21e14bb82661f749c60ae" target="_top" xlink:title=" ">
<polygon fill="white" stroke="#666666" points="1021.25,-302 839.5,-302 839.5,-258 1021.25,-258 1021.25,-302"/>
<text text-anchor="start" x="847.5" y="-288.5" font-family="Helvetica,sans-Serif" font-size="10.00">GalacticShrine.Configuration.</text>
<text text-anchor="start" x="847.5" y="-276.5" font-family="Helvetica,sans-Serif" font-size="10.00">Analyseur.TamponDeChaine.Plage.De</text>
<text text-anchor="middle" x="930.38" y="-264.5" font-family="Helvetica,sans-Serif" font-size="10.00">L_IndexA_LaTaille</text>
</a>
</g>
</g>
<!-- Node7&#45;&gt;Node8 -->
<g id="edge7_Node000007_Node000008" class="edge">
<title>Node7&#45;&gt;Node8</title>
<g id="a_edge7_Node000007_Node000008"><a xlink:title=" ">
<path fill="none" stroke="#63b8ff" d="M786.32,-289.4C800.31,-288.48 814.69,-287.54 828.68,-286.62"/>
<polygon fill="#63b8ff" stroke="#63b8ff" points="828.54,-290.07 838.29,-285.92 828.09,-283.08 828.54,-290.07"/>
</a>
</g>
</g>
<!-- Node10 -->
<g id="Node000010" class="node">
<title>Node10</title>
<g id="a_Node000010"><a xlink:href="class_galactic_shrine_1_1_configuration_1_1_analyseur_1_1_tampon_de_chaine.html#ac1b985808f0790b6eb9130ae2f5b01d2" target="_top" xlink:title=" ">
<polygon fill="white" stroke="#666666" points="1028,-160 832.75,-160 832.75,-128 1028,-128 1028,-160"/>
<text text-anchor="start" x="840.75" y="-146.5" font-family="Helvetica,sans-Serif" font-size="10.00">GalacticShrine.Configuration.</text>
<text text-anchor="middle" x="930.38" y="-134.5" font-family="Helvetica,sans-Serif" font-size="10.00">Analyseur.TamponDeChaine.AvalezCopie</text>
</a>
</g>
</g>
<!-- Node9&#45;&gt;Node10 -->
<g id="edge9_Node000009_Node000010" class="edge">
<title>Node9&#45;&gt;Node10</title>
<g id="a_edge9_Node000009_Node000010"><a xlink:title=" ">
<path fill="none" stroke="#63b8ff" d="M757.84,-25.92C769.45,-29.51 780.88,-34.38 790.75,-41 813.5,-56.24 806.01,-73.11 826.75,-91 841.54,-103.76 859.93,-114.48 877.04,-122.86"/>
<polygon fill="#63b8ff" stroke="#63b8ff" points="875.39,-126.43 885.92,-127.53 878.37,-120.1 875.39,-126.43"/>
</a>
</g>
</g>
<!-- Node11 -->
<g id="Node000011" class="node">
<title>Node11</title>
<g id="a_Node000011"><a xlink:href="class_galactic_shrine_1_1_configuration_1_1_analyseur_1_1_tampon_de_chaine.html#ad4240aacc0c932e5f08443b756b82f27" target="_top" xlink:title=" ">
<polygon fill="white" stroke="#666666" points="1034,-82 826.75,-82 826.75,-50 1034,-50 1034,-82"/>
<text text-anchor="start" x="834.75" y="-68.5" font-family="Helvetica,sans-Serif" font-size="10.00">GalacticShrine.Configuration.</text>
<text text-anchor="middle" x="930.38" y="-56.5" font-family="Helvetica,sans-Serif" font-size="10.00">Analyseur.TamponDeChaine.FinDeGarniture</text>
</a>
</g>
</g>
<!-- Node9&#45;&gt;Node11 -->
<g id="edge10_Node000009_Node000011" class="edge">
<title>Node9&#45;&gt;Node11</title>
<g id="a_edge10_Node000009_Node000011"><a xlink:title=" ">
<path fill="none" stroke="#63b8ff" d="M757.62,-30.73C783,-35.94 811.9,-41.88 838.66,-47.37"/>
<polygon fill="#63b8ff" stroke="#63b8ff" points="837.69,-50.95 848.19,-49.54 839.1,-44.1 837.69,-50.95"/>
</a>
</g>
</g>
<!-- Node12&#45;&gt;Node7 -->
<g id="edge12_Node000012_Node000007" class="edge">
<title>Node12&#45;&gt;Node7</title>
<g id="a_edge12_Node000012_Node000007"><a xlink:title=" ">
<path fill="none" stroke="#63b8ff" d="M525.94,-166.75C532.13,-169.79 537.95,-173.49 543,-178 574.22,-205.87 547.9,-237 579,-265 579.88,-265.79 580.78,-266.57 581.7,-267.32"/>
<polygon fill="#63b8ff" stroke="#63b8ff" points="579.26,-270.59 589.42,-273.59 583.34,-264.91 579.26,-270.59"/>
</a>
</g>
</g>
<!-- Node13 -->
<g id="Node000013" class="node">
<title>Node13</title>
<g id="a_Node000013"><a xlink:href="class_galactic_shrine_1_1_configuration_1_1_analyseur_1_1_tampon_de_chaine.html#a5ff6a33ce5c9c8b1c634b3242304a1b7" target="_top" xlink:title=" ">
<polygon fill="white" stroke="#666666" points="775.75,-132 594,-132 594,-100 775.75,-100 775.75,-132"/>
<text text-anchor="start" x="602" y="-118.5" font-family="Helvetica,sans-Serif" font-size="10.00">GalacticShrine.Configuration.</text>
<text text-anchor="middle" x="684.88" y="-106.5" font-family="Helvetica,sans-Serif" font-size="10.00">Analyseur.TamponDeChaine.Garniture</text>
</a>
</g>
</g>
<!-- Node12&#45;&gt;Node13 -->
<g id="edge13_Node000012_Node000013" class="edge">
<title>Node12&#45;&gt;Node13</title>
<g id="a_edge13_Node000012_Node000013"><a xlink:title=" ">
<path fill="none" stroke="#63b8ff" d="M526.06,-141.6C544.06,-138.68 563.78,-135.48 582.99,-132.36"/>
<polygon fill="#63b8ff" stroke="#63b8ff" points="583.29,-135.7 592.6,-130.64 582.17,-128.79 583.29,-135.7"/>
</a>
</g>
</g>
<!-- Node12&#45;&gt;Node14 -->
<g id="edge15_Node000012_Node000014" class="edge">
<title>Node12&#45;&gt;Node14</title>
<g id="a_edge15_Node000012_Node000014"><a xlink:title=" ">
<path fill="none" stroke="#63b8ff" d="M501.08,-136.64C514.86,-131.05 529.83,-124.34 543,-117 560.24,-107.39 561.06,-99.22 579,-91 582.86,-89.23 586.86,-87.58 590.95,-86.04"/>
<polygon fill="#63b8ff" stroke="#63b8ff" points="591.97,-89.04 600.25,-82.43 589.65,-82.43 591.97,-89.04"/>
</a>
</g>
</g>
<!-- Node15 -->
<g id="Node000015" class="node">
<title>Node15</title>
<g id="a_Node000015"><a xlink:href="class_galactic_shrine_1_1_configuration_1_1_analyseur_1_1_tampon_de_chaine.html#afa88b78cbdf391a2bdb3128d611760b6" target="_top" xlink:title=" ">
<polygon fill="white" stroke="#666666" points="771.25,-256 598.5,-256 598.5,-212 771.25,-212 771.25,-256"/>
<text text-anchor="start" x="606.5" y="-242.5" font-family="Helvetica,sans-Serif" font-size="10.00">GalacticShrine.Configuration.</text>
<text text-anchor="start" x="606.5" y="-230.5" font-family="Helvetica,sans-Serif" font-size="10.00">Analyseur.TamponDeChaine.Trouver</text>
<text text-anchor="middle" x="684.88" y="-218.5" font-family="Helvetica,sans-Serif" font-size="10.00">SousChaine</text>
</a>
</g>
</g>
<!-- Node12&#45;&gt;Node15 -->
<g id="edge16_Node000012_Node000015" class="edge">
<title>Node12&#45;&gt;Node15</title>
<g id="a_edge16_Node000012_Node000015"><a xlink:title=" ">
<path fill="none" stroke="#63b8ff" d="M521.88,-169.43C529.13,-171.97 536.31,-174.83 543,-178 560.6,-186.35 561.44,-194.58 579,-203 582.31,-204.59 585.72,-206.11 589.19,-207.57"/>
<polygon fill="#63b8ff" stroke="#63b8ff" points="587.54,-211.08 598.12,-211.53 590.13,-204.58 587.54,-211.08"/>
</a>
</g>
</g>
<!-- Node13&#45;&gt;Node11 -->
<g id="edge14_Node000013_Node000011" class="edge">
<title>Node13&#45;&gt;Node11</title>
<g id="a_edge14_Node000013_Node000011"><a xlink:title=" ">
<path fill="none" stroke="#63b8ff" d="M765.94,-99.56C789.25,-94.77 814.87,-89.51 838.77,-84.6"/>
<polygon fill="#63b8ff" stroke="#63b8ff" points="839.17,-87.89 848.26,-82.45 837.76,-81.03 839.17,-87.89"/>
</a>
</g>
</g>
<!-- Node15&#45;&gt;Node8 -->
<g id="edge17_Node000015_Node000008" class="edge">
<title>Node15&#45;&gt;Node8</title>
<g id="a_edge17_Node000015_Node000008"><a xlink:title=" ">
<path fill="none" stroke="#63b8ff" d="M771.72,-250.22C790.12,-253.69 809.72,-257.4 828.63,-260.97"/>
<polygon fill="#63b8ff" stroke="#63b8ff" points="827.88,-264.58 838.35,-262.99 829.18,-257.7 827.88,-264.58"/>
</a>
</g>
</g>
<!-- Node16&#45;&gt;Node7 -->
<g id="edge21_Node000016_Node000007" class="edge">
<title>Node16&#45;&gt;Node7</title>
<g id="a_edge21_Node000016_Node000007"><a xlink:title=" ">
<path fill="none" stroke="#63b8ff" d="M513.97,-219.41C523.96,-223.23 534.01,-227.75 543,-233 561.48,-243.8 560.29,-254.61 579,-265 581.56,-266.42 584.19,-267.78 586.87,-269.09"/>
<polygon fill="#63b8ff" stroke="#63b8ff" points="585.24,-272.64 595.79,-273.57 588.12,-266.26 585.24,-272.64"/>
</a>
</g>
</g>
<!-- Node16&#45;&gt;Node13 -->
<g id="edge23_Node000016_Node000013" class="edge">
<title>Node16&#45;&gt;Node13</title>
<g id="a_edge23_Node000016_Node000013"><a xlink:title=" ">
<path fill="none" stroke="#63b8ff" d="M525.72,-186.55C531.74,-184.07 537.59,-181.24 543,-178 562.69,-166.22 559.05,-152.33 579,-141 581.67,-139.48 584.43,-138.06 587.25,-136.72"/>
<polygon fill="#63b8ff" stroke="#63b8ff" points="588.28,-139.66 596.08,-132.49 585.51,-133.23 588.28,-139.66"/>
</a>
</g>
</g>
<!-- Node16&#45;&gt;Node14 -->
<g id="edge26_Node000016_Node000014" class="edge">
<title>Node16&#45;&gt;Node14</title>
<g id="a_edge26_Node000016_Node000014"><a xlink:title=" ">
<path fill="none" stroke="#63b8ff" d="M525.94,-189.25C532.13,-186.21 537.95,-182.51 543,-178 574.22,-150.13 547.16,-118.16 579,-91 581.26,-89.07 583.64,-87.29 586.12,-85.64"/>
<polygon fill="#63b8ff" stroke="#63b8ff" points="587.58,-88.26 594.49,-80.22 584.08,-82.2 587.58,-88.26"/>
</a>
</g>
</g>
<!-- Node16&#45;&gt;Node15 -->
<g id="edge27_Node000016_Node000015" class="edge">
<title>Node16&#45;&gt;Node15</title>
<g id="a_edge27_Node000016_Node000015"><a xlink:title=" ">
<path fill="none" stroke="#63b8ff" d="M526.06,-212.55C545.45,-215.19 566.84,-218.1 587.44,-220.9"/>
<polygon fill="#63b8ff" stroke="#63b8ff" points="586.75,-224.47 597.13,-222.35 587.69,-217.53 586.75,-224.47"/>
</a>
</g>
</g>
<!-- Node17 -->
<g id="Node000017" class="node">
<title>Node17</title>
<g id="a_Node000017"><a xlink:href="class_galactic_shrine_1_1_modele_1_1_configuration_1_1_ini_1_1_section_collection.html#ab439f8ed108317714dae058d645f56c0" target="_top" xlink:title="[FR] Crée une nouvelle section avec des données vides. &#160;[EN] Creates a new section with empty data.">
<polygon fill="white" stroke="#666666" points="773.12,-368 596.62,-368 596.62,-336 773.12,-336 773.12,-368"/>
<text text-anchor="start" x="604.62" y="-354.5" font-family="Helvetica,sans-Serif" font-size="10.00">GalacticShrine.Modele.Configuration.</text>
<text text-anchor="middle" x="684.88" y="-342.5" font-family="Helvetica,sans-Serif" font-size="10.00">Ini.SectionCollection.Ajouter</text>
</a>
</g>
</g>
<!-- Node16&#45;&gt;Node17 -->
<g id="edge19_Node000016_Node000017" class="edge">
<title>Node16&#45;&gt;Node17</title>
<g id="a_edge19_Node000016_Node000017"><a xlink:title=" ">
<path fill="none" stroke="#63b8ff" d="M484.41,-219.43C502.67,-230.86 526.01,-247.36 543,-266 564.21,-289.26 553.67,-308.31 579,-327 581.39,-328.76 583.88,-330.4 586.46,-331.93"/>
<polygon fill="#63b8ff" stroke="#63b8ff" points="584.64,-335.45 595.13,-336.97 587.88,-329.24 584.64,-335.45"/>
</a>
</g>
</g>
<!-- Node18 -->
<g id="Node000018" class="node">
<title>Node18</title>
<g id="a_Node000018"><a xlink:href="class_galactic_shrine_1_1_modele_1_1_configuration_1_1_ini_1_1_section_collection.html#a059d00b51e709988710f540717083478" target="_top" xlink:title="[FR] Permet de savoir si une section portant le nom spécifié existe dans la collection....">
<polygon fill="white" stroke="#666666" points="1018.62,-383 842.12,-383 842.12,-351 1018.62,-351 1018.62,-383"/>
<text text-anchor="start" x="850.12" y="-369.5" font-family="Helvetica,sans-Serif" font-size="10.00">GalacticShrine.Modele.Configuration.</text>
<text text-anchor="middle" x="930.38" y="-357.5" font-family="Helvetica,sans-Serif" font-size="10.00">Ini.SectionCollection.Contient</text>
</a>
</g>
</g>
<!-- Node16&#45;&gt;Node18 -->
<g id="edge22_Node000016_Node000018" class="edge">
<title>Node16&#45;&gt;Node18</title>
<g id="a_edge22_Node000016_Node000018"><a xlink:title=" ">
<path fill="none" stroke="#63b8ff" d="M487.96,-219.49C506.42,-230.43 528.7,-246.37 543,-266 573.53,-307.92 537.05,-346.5 579,-377 666.79,-440.82 802.33,-410.86 876.47,-386.81"/>
<polygon fill="#63b8ff" stroke="#63b8ff" points="877.13,-389.95 885.51,-383.47 874.92,-383.31 877.13,-389.95"/>
</a>
</g>
</g>
<!-- Node19 -->
<g id="Node000019" class="node">
<title>Node19</title>
<g id="a_Node000019"><a xlink:href="class_galactic_shrine_1_1_configuration_1_1_analyseur_1_1_tampon_de_chaine.html#ad657925f38944e77f8ac413d45a9fe21" target="_top" xlink:title=" ">
<polygon fill="white" stroke="#666666" points="790.75,-194 579,-194 579,-150 790.75,-150 790.75,-194"/>
<text text-anchor="start" x="587" y="-180.5" font-family="Helvetica,sans-Serif" font-size="10.00">GalacticShrine.Configuration.</text>
<text text-anchor="start" x="587" y="-168.5" font-family="Helvetica,sans-Serif" font-size="10.00">Analyseur.TamponDeChaine.Redimensionner</text>
<text text-anchor="middle" x="684.88" y="-156.5" font-family="Helvetica,sans-Serif" font-size="10.00">EntreLesIndex</text>
</a>
</g>
</g>
<!-- Node16&#45;&gt;Node19 -->
<g id="edge24_Node000016_Node000019" class="edge">
<title>Node16&#45;&gt;Node19</title>
<g id="a_edge24_Node000016_Node000019"><a xlink:title=" ">
<path fill="none" stroke="#63b8ff" d="M526.06,-193.45C539.31,-191.65 553.48,-189.72 567.7,-187.79"/>
<polygon fill="#63b8ff" stroke="#63b8ff" points="568.14,-191.12 577.57,-186.31 567.19,-184.19 568.14,-191.12"/>
</a>
</g>
</g>
<!-- Node17&#45;&gt;Node18 -->
<g id="edge20_Node000017_Node000018" class="edge">
<title>Node17&#45;&gt;Node18</title>
<g id="a_edge20_Node000017_Node000018"><a xlink:title=" ">
<path fill="none" stroke="#63b8ff" d="M773.44,-357.39C792.11,-358.54 811.94,-359.77 830.98,-360.94"/>
<polygon fill="#63b8ff" stroke="#63b8ff" points="830.57,-364.48 840.77,-361.6 831,-357.5 830.57,-364.48"/>
</a>
</g>
</g>
<!-- Node19&#45;&gt;Node10 -->
<g id="edge25_Node000019_Node000010" class="edge">
<title>Node19&#45;&gt;Node10</title>
<g id="a_edge25_Node000019_Node000010"><a xlink:title=" ">
<path fill="none" stroke="#63b8ff" d="M790.91,-159.92C801.13,-158.75 811.51,-157.55 821.76,-156.37"/>
<polygon fill="#63b8ff" stroke="#63b8ff" points="821.84,-159.77 831.38,-155.15 821.04,-152.82 821.84,-159.77"/>
</a>
</g>
</g>
</g>
</svg>
