<?xml version="1.0" encoding="UTF-8" standalone="no"?>
<!DOCTYPE svg PUBLIC "-//W3C//DTD SVG 1.1//EN"
 "http://www.w3.org/Graphics/SVG/1.1/DTD/svg11.dtd">
<!-- Generated by graphviz version 12.2.0 (20241103.1931)
 -->
<!-- Title: Source/Dll/GalacticShrine Pages: 1 -->
<!--zoomable 96 -->

<svg id="main" version="1.1" xmlns="http://www.w3.org/2000/svg" xmlns:xlink="http://www.w3.org/1999/xlink" xml:space="preserve" onload="init(evt)">

<style type="text/css"><![CDATA[
.node, .edge {opacity: 0.7;}
.node.selected, .edge.selected {opacity: 1;}
.edge:hover path { stroke: red; }
.edge:hover polygon { stroke: red; fill: red; }
]]></style>

<defs>
  <circle id="rim" cx="0" cy="0" r="7"/>
  <circle id="rim2" cx="0" cy="0" r="3.5"/>
  <g id="zoomPlus">
    <use xlink:href="#rim" fill="#404040"><set attributeName="fill" to="#808080" begin="zoomplus.mouseover" end="zoomplus.mouseout"/></use>
    <path d="M-4,0h8M0,-4v8" fill="none" stroke="white" stroke-width="1.5" pointer-events="none"/>
  </g>
  <g id="zoomMin">
    <use xlink:href="#rim" fill="#404040"><set attributeName="fill" to="#808080" begin="zoomminus.mouseover" end="zoomminus.mouseout"/></use>
    <path d="M-4,0h8" fill="none" stroke="white" stroke-width="1.5" pointer-events="none"/>
  </g>
  <g id="arrowUp" transform="translate(30 24)">
    <use xlink:href="#rim"/>
    <path pointer-events="none" fill="none" stroke="white" stroke-width="1.5" d="M0,-3.0v7 M-2.5,-0.5L0,-3.0L2.5,-0.5"/>
  </g>
  <g id="arrowRight" transform="rotate(90) translate(36 -43)">
    <use xlink:href="#rim"/>
    <path pointer-events="none" fill="none" stroke="white" stroke-width="1.5" d="M0,-3.0v7 M-2.5,-0.5L0,-3.0L2.5,-0.5"/>
  </g>
  <g id="arrowDown" transform="rotate(180) translate(-30 -48)">
    <use xlink:href="#rim"/>
    <path pointer-events="none" fill="none" stroke="white" stroke-width="1.5" d="M0,-3.0v7 M-2.5,-0.5L0,-3.0L2.5,-0.5"/>
  </g>
  <g id="arrowLeft" transform="rotate(270) translate(-36 17)">
    <use xlink:href="#rim"/>
    <path pointer-events="none" fill="none" stroke="white" stroke-width="1.5" d="M0,-3.0v7 M-2.5,-0.5L0,-3.0L2.5,-0.5"/>
  </g>
  <g id="resetDef">
    <use xlink:href="#rim2" fill="#404040"><set attributeName="fill" to="#808080" begin="reset.mouseover" end="reset.mouseout"/></use>
  </g>
</defs>
<script type="application/ecmascript">
var viewWidth = 895;
var viewHeight = 96;
var sectionId = 'dynsection-0';
</script>
<script type="application/ecmascript" xlink:href="svg.min.js"/>
<svg id="graph" class="graph">
<g id="viewport">
<title>Source/Dll/GalacticShrine</title>
<g id="clust1" class="cluster">
<title>clusterdir_b586309762ba03a8cfa576de64078e44</title>
<g id="a_clust1"><a xlink:href="dir_b586309762ba03a8cfa576de64078e44.html" target="_top" xlink:title="Dll">
<polygon fill="#f6d7d7" stroke="#7f7f7f" stroke-dasharray="5,2" points="8,-8 8,-80 879,-80 879,-8 8,-8"/>
<text text-anchor="middle" x="443.5" y="-66.5" font-family="Helvetica,sans-Serif" font-size="10.00">Dll</text>
</a>
</g>
</g>
<g id="clust2" class="cluster">
<title>clusterdir_5ec389d2453140882ef3295c23b52e2b</title>
<g id="a_clust2"><a xlink:href="dir_5ec389d2453140882ef3295c23b52e2b.html" target="_top">
<polygon fill="#f6d7d7" stroke="#404040" stroke-width="2" points="16,-16 16,-52 871,-52 871,-16 16,-16"/>
</a>
</g>
</g>
<!-- dir_5ec389d2453140882ef3295c23b52e2b -->
<g id="node1" class="node">
<title>dir_5ec389d2453140882ef3295c23b52e2b</title>
<text text-anchor="middle" x="64" y="-30.5" font-family="Helvetica,sans-Serif" font-size="10.00">GalacticShrine</text>
</g>
<!-- dir_6c960541eae530ff771ce54275824cec -->
<g id="node2" class="node">
<title>dir_6c960541eae530ff771ce54275824cec</title>
<g id="a_node2"><a xlink:href="dir_6c960541eae530ff771ce54275824cec.html" target="_top" xlink:title="Configuration">
<polygon fill="#d94646" stroke="#404040" points="195.88,-44 122.12,-44 122.12,-24 195.88,-24 195.88,-44"/>
<text text-anchor="middle" x="159" y="-30.5" font-family="Helvetica,sans-Serif" font-size="10.00">Configuration</text>
</a>
</g>
</g>
<!-- dir_a784e669ba7e2c6ddaae749c2b33b7f4 -->
<g id="node3" class="node">
<title>dir_a784e669ba7e2c6ddaae749c2b33b7f4</title>
<g id="a_node3"><a xlink:href="dir_a784e669ba7e2c6ddaae749c2b33b7f4.html" target="_top" xlink:title="Enregistrement">
<polygon fill="#d94646" stroke="#404040" points="296,-44 214,-44 214,-24 296,-24 296,-44"/>
<text text-anchor="middle" x="255" y="-30.5" font-family="Helvetica,sans-Serif" font-size="10.00">Enregistrement</text>
</a>
</g>
</g>
<!-- dir_6538f42a3da94542ec69c08b06afeb0f -->
<g id="node4" class="node">
<title>dir_6538f42a3da94542ec69c08b06afeb0f</title>
<g id="a_node4"><a xlink:href="dir_6538f42a3da94542ec69c08b06afeb0f.html" target="_top" xlink:title="Enumeration">
<polygon fill="#d94646" stroke="#404040" points="384.38,-44 313.62,-44 313.62,-24 384.38,-24 384.38,-44"/>
<text text-anchor="middle" x="349" y="-30.5" font-family="Helvetica,sans-Serif" font-size="10.00">Enumeration</text>
</a>
</g>
</g>
<!-- dir_dc8206246423738be45f71e25aa3e388 -->
<g id="node5" class="node">
<title>dir_dc8206246423738be45f71e25aa3e388</title>
<g id="a_node5"><a xlink:href="dir_dc8206246423738be45f71e25aa3e388.html" target="_top" xlink:title="Interface">
<polygon fill="#d94646" stroke="#404040" points="457.12,-44 402.88,-44 402.88,-24 457.12,-24 457.12,-44"/>
<text text-anchor="middle" x="430" y="-30.5" font-family="Helvetica,sans-Serif" font-size="10.00">Interface</text>
</a>
</g>
</g>
<!-- dir_0730f7bb39833cc40e03a0ceb185fe50 -->
<g id="node6" class="node">
<title>dir_0730f7bb39833cc40e03a0ceb185fe50</title>
<g id="a_node6"><a xlink:href="dir_0730f7bb39833cc40e03a0ceb185fe50.html" target="_top" xlink:title="Outils">
<polygon fill="#d94646" stroke="#404040" points="516.75,-44 475.25,-44 475.25,-24 516.75,-24 516.75,-44"/>
<text text-anchor="middle" x="496" y="-30.5" font-family="Helvetica,sans-Serif" font-size="10.00">Outils</text>
</a>
</g>
</g>
<!-- dir_8c53d3fc04e116617f11ae2d1ac4e19d -->
<g id="node7" class="node">
<title>dir_8c53d3fc04e116617f11ae2d1ac4e19d</title>
<g id="a_node7"><a xlink:href="dir_8c53d3fc04e116617f11ae2d1ac4e19d.html" target="_top" xlink:title="Properties">
<polygon fill="#d94646" stroke="#404040" points="595.12,-44 534.88,-44 534.88,-24 595.12,-24 595.12,-44"/>
<text text-anchor="middle" x="565" y="-30.5" font-family="Helvetica,sans-Serif" font-size="10.00">Properties</text>
</a>
</g>
</g>
<!-- dir_c0d55665964d256adad884d6a75a3f8c -->
<g id="node8" class="node">
<title>dir_c0d55665964d256adad884d6a75a3f8c</title>
<g id="a_node8"><a xlink:href="dir_c0d55665964d256adad884d6a75a3f8c.html" target="_top" xlink:title="Services">
<polygon fill="#d94646" stroke="#404040" points="667.12,-44 612.88,-44 612.88,-24 667.12,-24 667.12,-44"/>
<text text-anchor="middle" x="640" y="-30.5" font-family="Helvetica,sans-Serif" font-size="10.00">Services</text>
</a>
</g>
</g>
<!-- dir_5eb619c80e9e8ffc9153e4e25dd16725 -->
<g id="node9" class="node">
<title>dir_5eb619c80e9e8ffc9153e4e25dd16725</title>
<g id="a_node9"><a xlink:href="dir_5eb619c80e9e8ffc9153e4e25dd16725.html" target="_top" xlink:title="Stockage">
<polygon fill="#d94646" stroke="#404040" points="742.62,-44 685.38,-44 685.38,-24 742.62,-24 742.62,-44"/>
<text text-anchor="middle" x="714" y="-30.5" font-family="Helvetica,sans-Serif" font-size="10.00">Stockage</text>
</a>
</g>
</g>
<!-- dir_80ce2c06fe920f582d0fa14c5d044b39 -->
<g id="node10" class="node">
<title>dir_80ce2c06fe920f582d0fa14c5d044b39</title>
<g id="a_node10"><a xlink:href="dir_80ce2c06fe920f582d0fa14c5d044b39.html" target="_top" xlink:title="Structure">
<polygon fill="#d94646" stroke="#404040" points="816.88,-44 761.12,-44 761.12,-24 816.88,-24 816.88,-44"/>
<text text-anchor="middle" x="789" y="-30.5" font-family="Helvetica,sans-Serif" font-size="10.00">Structure</text>
</a>
</g>
</g>
<!-- dir_5002ab21e03966165e9afa5dd3fc385c -->
<g id="node11" class="node">
<title>dir_5002ab21e03966165e9afa5dd3fc385c</title>
<g id="a_node11"><a xlink:href="dir_5002ab21e03966165e9afa5dd3fc385c.html" target="_top" xlink:title="UI">
<polygon fill="#d94646" stroke="#404040" points="863.4,-44 834.6,-44 834.6,-24 863.4,-24 863.4,-44"/>
<text text-anchor="middle" x="849" y="-30.5" font-family="Helvetica,sans-Serif" font-size="10.00">UI</text>
</a>
</g>
</g>
</g>
</svg>

<g id="navigator" transform="translate(0 0)" fill="#404254">
  <rect fill="#f2f5e9" fill-opacity="0.5" stroke="#606060" stroke-width=".5" x="0" y="0" width="60" height="60"/>
  <use id="zoomplus" xlink:href="#zoomPlus" x="17" y="9" onmousedown="handleZoom(evt,'in')"/>
  <use id="zoomminus" xlink:href="#zoomMin" x="42" y="9" onmousedown="handleZoom(evt,'out')"/>
  <use id="reset" xlink:href="#resetDef" x="30" y="36" onmousedown="handleReset()"/>
   <use id="arrowup" xlink:href="#arrowUp" x="0" y="0" onmousedown="handlePan(0,-1)"/>
  <use id="arrowright" xlink:href="#arrowRight" x="0" y="0" onmousedown="handlePan(1,0)"/>
  <use id="arrowdown" xlink:href="#arrowDown" x="0" y="0" onmousedown="handlePan(0,1)"/>
  <use id="arrowleft" xlink:href="#arrowLeft" x="0" y="0" onmousedown="handlePan(-1,0)"/>
</g>
<svg viewBox="0 0 15 15" width="100%" height="30px" preserveAspectRatio="xMaxYMin meet">
 <g id="arrow_out" transform="scale(0.3 0.3)">
  <a xlink:href="dir_5ec389d2453140882ef3295c23b52e2b_dep_org.svg" target="_base">
   <rect id="button" ry="5" rx="5" y="6" x="6" height="38" width="38"
        fill="#f2f5e9" fill-opacity="0.5" stroke="#606060" stroke-width="1.0"/>
   <path id="arrow"
     d="M 11.500037,31.436501 C 11.940474,20.09759 22.043105,11.32322 32.158766,21.979434 L 37.068811,17.246167 C 37.068811,17.246167 37.088388,32 37.088388,32 L 22.160133,31.978069 C 22.160133,31.978069 26.997745,27.140456 26.997745,27.140456 C 18.528582,18.264221 13.291696,25.230495 11.500037,31.436501 z"
     style="fill:#404040;"/>
  </a>
 </g>
</svg>

<style type='text/css'>
<![CDATA[
[data-mouse-over-selected='false'] { opacity: 0.7; }
[data-mouse-over-selected='true']  { opacity: 1.0; }
]]>
</style>
<script type="application/ecmascript"><![CDATA[
document.addEventListener('DOMContentLoaded', (event) => {
  highlightEdges();
  highlightAdjacentNodes();
});
]]></script>
</svg>
