<?xml version="1.0" encoding="UTF-8" standalone="no"?>
<!DOCTYPE svg PUBLIC "-//W3C//DTD SVG 1.1//EN"
 "http://www.w3.org/Graphics/SVG/1.1/DTD/svg11.dtd">
<!-- Generated by graphviz version 8.1.0 (20230707.0739)
 -->
<!-- Title: Source/Programs Pages: 1 -->
<!--zoomable 96 -->

<svg id="main" version="1.1" xmlns="http://www.w3.org/2000/svg" xmlns:xlink="http://www.w3.org/1999/xlink" xml:space="preserve" onload="init(evt)">
<style type="text/css"><![CDATA[
.node, .edge {opacity: 0.7;}
.node.selected, .edge.selected {opacity: 1;}
.edge:hover path { stroke: red; }
.edge:hover polygon { stroke: red; fill: red; }
]]></style>

<defs>
  <circle id="rim" cx="0" cy="0" r="7"/>
  <circle id="rim2" cx="0" cy="0" r="3.5"/>
  <g id="zoomPlus">
    <use xlink:href="#rim" fill="#404040"><set attributeName="fill" to="#808080" begin="zoomplus.mouseover" end="zoomplus.mouseout"/></use>
    <path d="M-4,0h8M0,-4v8" fill="none" stroke="white" stroke-width="1.5" pointer-events="none"/>
  </g>
  <g id="zoomMin">
    <use xlink:href="#rim" fill="#404040"><set attributeName="fill" to="#808080" begin="zoomminus.mouseover" end="zoomminus.mouseout"/></use>
    <path d="M-4,0h8" fill="none" stroke="white" stroke-width="1.5" pointer-events="none"/>
  </g>
  <g id="arrowUp" transform="translate(30 24)">
    <use xlink:href="#rim"/>
    <path pointer-events="none" fill="none" stroke="white" stroke-width="1.5" d="M0,-3.0v7 M-2.5,-0.5L0,-3.0L2.5,-0.5"/>
  </g>
  <g id="arrowRight" transform="rotate(90) translate(36 -43)">
    <use xlink:href="#rim"/>
    <path pointer-events="none" fill="none" stroke="white" stroke-width="1.5" d="M0,-3.0v7 M-2.5,-0.5L0,-3.0L2.5,-0.5"/>
  </g>
  <g id="arrowDown" transform="rotate(180) translate(-30 -48)">
    <use xlink:href="#rim"/>
    <path pointer-events="none" fill="none" stroke="white" stroke-width="1.5" d="M0,-3.0v7 M-2.5,-0.5L0,-3.0L2.5,-0.5"/>
  </g>
  <g id="arrowLeft" transform="rotate(270) translate(-36 17)">
    <use xlink:href="#rim"/>
    <path pointer-events="none" fill="none" stroke="white" stroke-width="1.5" d="M0,-3.0v7 M-2.5,-0.5L0,-3.0L2.5,-0.5"/>
  </g>
  <g id="resetDef">
    <use xlink:href="#rim2" fill="#404040"><set attributeName="fill" to="#808080" begin="reset.mouseover" end="reset.mouseout"/></use>
  </g>
</defs>
<script type="application/ecmascript">
var viewWidth = 596;
var viewHeight = 96;
var sectionId = 'dynsection-0';
</script>
<script type="application/ecmascript" xlink:href="svg.min.js"/>
<svg id="graph" class="graph">
<g id="viewport">
<title>Source/Programs</title>
<g id="clust1" class="cluster">
<title>clusterdir_74389ed8173ad57b461b9d623a1f3867</title>
<g id="a_clust1"><a xlink:href="dir_74389ed8173ad57b461b9d623a1f3867.html" target="_top" xlink:title="Source">
<polygon fill="#f6d7d7" stroke="#404040" stroke-dasharray="5,2" points="8,-8 8,-80 580,-80 580,-8 8,-8"/>
<text text-anchor="middle" x="294" y="-66.5" font-family="Helvetica,sans-Serif" font-size="10.00">Source</text>
</a>
</g>
</g>
<g id="clust2" class="cluster">
<title>clusterdir_9ce30e47294178a9370b5e549fdbbeef</title>
<g id="a_clust2"><a xlink:href="dir_9ce30e47294178a9370b5e549fdbbeef.html" target="_top">
<polygon fill="#f6d7d7" stroke="#404040" stroke-width="2" points="16,-16 16,-52 572,-52 572,-16 16,-16"/>
</a>
</g>
</g>
<!-- dir_9ce30e47294178a9370b5e549fdbbeef -->
<g id="node1" class="node">
<title>dir_9ce30e47294178a9370b5e549fdbbeef</title>
<text text-anchor="middle" x="535" y="-30.5" font-family="Helvetica,sans-Serif" font-size="10.00">Programs</text>
</g>
<!-- dir_8f7edba20c7025ebc6494336fef00065 -->
<g id="node2" class="node">
<title>dir_8f7edba20c7025ebc6494336fef00065</title>
<g id="a_node2"><a xlink:href="dir_8f7edba20c7025ebc6494336fef00065.html" target="_top" xlink:title="Config.Example">
<polygon fill="#d94646" stroke="#404040" points="488.12,-44 403.88,-44 403.88,-24 488.12,-24 488.12,-44"/>
<text text-anchor="middle" x="446" y="-30.5" font-family="Helvetica,sans-Serif" font-size="10.00">Config.Example</text>
</a>
</g>
</g>
<!-- dir_172bb1f88e33999553d8015cb773c9ce -->
<g id="node3" class="node">
<title>dir_172bb1f88e33999553d8015cb773c9ce</title>
<g id="a_node3"><a xlink:href="dir_172bb1f88e33999553d8015cb773c9ce.html" target="_top" xlink:title="ConfigIntegre.Example">
<polygon fill="#d94646" stroke="#404040" points="385.75,-44 272.25,-44 272.25,-24 385.75,-24 385.75,-44"/>
<text text-anchor="middle" x="329" y="-30.5" font-family="Helvetica,sans-Serif" font-size="10.00">ConfigIntegre.Example</text>
</a>
</g>
</g>
<!-- dir_cb85656f3716d14985de56f187b6d72a -->
<g id="node4" class="node">
<title>dir_cb85656f3716d14985de56f187b6d72a</title>
<g id="a_node4"><a xlink:href="dir_cb85656f3716d14985de56f187b6d72a.html" target="_top" xlink:title="ConfigIntegre.Example2">
<polygon fill="#d94646" stroke="#404040" points="254.38,-44 135.62,-44 135.62,-24 254.38,-24 254.38,-44"/>
<text text-anchor="middle" x="195" y="-30.5" font-family="Helvetica,sans-Serif" font-size="10.00">ConfigIntegre.Example2</text>
</a>
</g>
</g>
<!-- dir_3dbe16e04a29325d7ebd17ec5cbf4d6a -->
<g id="node5" class="node">
<title>dir_3dbe16e04a29325d7ebd17ec5cbf4d6a</title>
<g id="a_node5"><a xlink:href="dir_3dbe16e04a29325d7ebd17ec5cbf4d6a.html" target="_top" xlink:title="Terminal.Example">
<polygon fill="#d94646" stroke="#404040" points="118,-44 24,-44 24,-24 118,-24 118,-44"/>
<text text-anchor="middle" x="71" y="-30.5" font-family="Helvetica,sans-Serif" font-size="10.00">Terminal.Example</text>
</a>
</g>
</g>
</g>
</svg>

<g id="navigator" transform="translate(0 0)" fill="#404254">
  <rect fill="#f2f5e9" fill-opacity="0.5" stroke="#606060" stroke-width=".5" x="0" y="0" width="60" height="60"/>
  <use id="zoomplus" xlink:href="#zoomPlus" x="17" y="9" onmousedown="handleZoom(evt,'in')"/>
  <use id="zoomminus" xlink:href="#zoomMin" x="42" y="9" onmousedown="handleZoom(evt,'out')"/>
  <use id="reset" xlink:href="#resetDef" x="30" y="36" onmousedown="handleReset()"/>
   <use id="arrowup" xlink:href="#arrowUp" x="0" y="0" onmousedown="handlePan(0,-1)"/>
  <use id="arrowright" xlink:href="#arrowRight" x="0" y="0" onmousedown="handlePan(1,0)"/>
  <use id="arrowdown" xlink:href="#arrowDown" x="0" y="0" onmousedown="handlePan(0,1)"/>
  <use id="arrowleft" xlink:href="#arrowLeft" x="0" y="0" onmousedown="handlePan(-1,0)"/>
</g>
<svg viewBox="0 0 15 15" width="100%" height="30px" preserveAspectRatio="xMaxYMin meet">
 <g id="arrow_out" transform="scale(0.3 0.3)">
  <a xlink:href="dir_9ce30e47294178a9370b5e549fdbbeef_dep_org.svg" target="_base">
   <rect id="button" ry="5" rx="5" y="6" x="6" height="38" width="38"
        fill="#f2f5e9" fill-opacity="0.5" stroke="#606060" stroke-width="1.0"/>
   <path id="arrow"
     d="M 11.500037,31.436501 C 11.940474,20.09759 22.043105,11.32322 32.158766,21.979434 L 37.068811,17.246167 C 37.068811,17.246167 37.088388,32 37.088388,32 L 22.160133,31.978069 C 22.160133,31.978069 26.997745,27.140456 26.997745,27.140456 C 18.528582,18.264221 13.291696,25.230495 11.500037,31.436501 z"
     style="fill:#404040;"/>
  </a>
 </g>
</svg>

<style type='text/css'>
<![CDATA[
[data-mouse-over-selected='false'] { opacity: 0.7; }
[data-mouse-over-selected='true']  { opacity: 1.0; }
]]>
</style>
<script type="application/ecmascript"><![CDATA[
document.addEventListener('DOMContentLoaded', (event) => {
  highlightEdges();
  highlightAdjacentNodes();
});
]]></script>
</svg>
