<?xml version="1.0" encoding="UTF-8" standalone="no"?>
<!DOCTYPE svg PUBLIC "-//W3C//DTD SVG 1.1//EN"
 "http://www.w3.org/Graphics/SVG/1.1/DTD/svg11.dtd">
<!-- Generated by graphviz version 12.2.0 (20241103.1931)
 -->
<!-- Title: Source/Dll Pages: 1 -->
<!--zoomable 96 -->

<svg id="main" version="1.1" xmlns="http://www.w3.org/2000/svg" xmlns:xlink="http://www.w3.org/1999/xlink" xml:space="preserve" onload="init(evt)">

<style type="text/css"><![CDATA[
.node, .edge {opacity: 0.7;}
.node.selected, .edge.selected {opacity: 1;}
.edge:hover path { stroke: red; }
.edge:hover polygon { stroke: red; fill: red; }
]]></style>

<defs>
  <circle id="rim" cx="0" cy="0" r="7"/>
  <circle id="rim2" cx="0" cy="0" r="3.5"/>
  <g id="zoomPlus">
    <use xlink:href="#rim" fill="#404040"><set attributeName="fill" to="#808080" begin="zoomplus.mouseover" end="zoomplus.mouseout"/></use>
    <path d="M-4,0h8M0,-4v8" fill="none" stroke="white" stroke-width="1.5" pointer-events="none"/>
  </g>
  <g id="zoomMin">
    <use xlink:href="#rim" fill="#404040"><set attributeName="fill" to="#808080" begin="zoomminus.mouseover" end="zoomminus.mouseout"/></use>
    <path d="M-4,0h8" fill="none" stroke="white" stroke-width="1.5" pointer-events="none"/>
  </g>
  <g id="arrowUp" transform="translate(30 24)">
    <use xlink:href="#rim"/>
    <path pointer-events="none" fill="none" stroke="white" stroke-width="1.5" d="M0,-3.0v7 M-2.5,-0.5L0,-3.0L2.5,-0.5"/>
  </g>
  <g id="arrowRight" transform="rotate(90) translate(36 -43)">
    <use xlink:href="#rim"/>
    <path pointer-events="none" fill="none" stroke="white" stroke-width="1.5" d="M0,-3.0v7 M-2.5,-0.5L0,-3.0L2.5,-0.5"/>
  </g>
  <g id="arrowDown" transform="rotate(180) translate(-30 -48)">
    <use xlink:href="#rim"/>
    <path pointer-events="none" fill="none" stroke="white" stroke-width="1.5" d="M0,-3.0v7 M-2.5,-0.5L0,-3.0L2.5,-0.5"/>
  </g>
  <g id="arrowLeft" transform="rotate(270) translate(-36 17)">
    <use xlink:href="#rim"/>
    <path pointer-events="none" fill="none" stroke="white" stroke-width="1.5" d="M0,-3.0v7 M-2.5,-0.5L0,-3.0L2.5,-0.5"/>
  </g>
  <g id="resetDef">
    <use xlink:href="#rim2" fill="#404040"><set attributeName="fill" to="#808080" begin="reset.mouseover" end="reset.mouseout"/></use>
  </g>
</defs>
<script type="application/ecmascript">
var viewWidth = 515;
var viewHeight = 96;
var sectionId = 'dynsection-0';
</script>
<script type="application/ecmascript" xlink:href="svg.min.js"/>
<svg id="graph" class="graph">
<g id="viewport">
<title>Source/Dll</title>
<g id="clust1" class="cluster">
<title>clusterdir_74389ed8173ad57b461b9d623a1f3867</title>
<g id="a_clust1"><a xlink:href="dir_74389ed8173ad57b461b9d623a1f3867.html" target="_top" xlink:title="Source">
<polygon fill="#f6d7d7" stroke="#404040" stroke-dasharray="5,2" points="8,-8 8,-80 499,-80 499,-8 8,-8"/>
<text text-anchor="middle" x="253.5" y="-66.5" font-family="Helvetica,sans-Serif" font-size="10.00">Source</text>
</a>
</g>
</g>
<g id="clust2" class="cluster">
<title>clusterdir_b586309762ba03a8cfa576de64078e44</title>
<g id="a_clust2"><a xlink:href="dir_b586309762ba03a8cfa576de64078e44.html" target="_top">
<polygon fill="#f6d7d7" stroke="#404040" stroke-width="2" points="16,-16 16,-52 491,-52 491,-16 16,-16"/>
</a>
</g>
</g>
<!-- dir_b586309762ba03a8cfa576de64078e44 -->
<g id="node1" class="node">
<title>dir_b586309762ba03a8cfa576de64078e44</title>
<text text-anchor="middle" x="38" y="-30.5" font-family="Helvetica,sans-Serif" font-size="10.00">Dll</text>
</g>
<!-- dir_5ec389d2453140882ef3295c23b52e2b -->
<g id="node2" class="node">
<title>dir_5ec389d2453140882ef3295c23b52e2b</title>
<g id="a_node2"><a xlink:href="dir_5ec389d2453140882ef3295c23b52e2b.html" target="_top" xlink:title="GalacticShrine">
<polygon fill="#d94646" stroke="#404040" points="149.88,-44 70.12,-44 70.12,-24 149.88,-24 149.88,-44"/>
<text text-anchor="middle" x="110" y="-30.5" font-family="Helvetica,sans-Serif" font-size="10.00">GalacticShrine</text>
</a>
</g>
</g>
<!-- dir_965d10788f1c96256f5350b2429d447e -->
<g id="node3" class="node">
<title>dir_965d10788f1c96256f5350b2429d447e</title>
<g id="a_node3"><a xlink:href="dir_965d10788f1c96256f5350b2429d447e.html" target="_top" xlink:title="GalacticShrine.BaseDeDonnees">
<polygon fill="#d94646" stroke="#404040" points="324.5,-44 167.5,-44 167.5,-24 324.5,-24 324.5,-44"/>
<text text-anchor="middle" x="246" y="-30.5" font-family="Helvetica,sans-Serif" font-size="10.00">GalacticShrine.BaseDeDonnees</text>
</a>
</g>
</g>
<!-- dir_0bf25f261f83811bd9134b69234b8891 -->
<g id="node4" class="node">
<title>dir_0bf25f261f83811bd9134b69234b8891</title>
<g id="a_node4"><a xlink:href="dir_0bf25f261f83811bd9134b69234b8891.html" target="_top" xlink:title="GalacticShrine.Configuration">
<polygon fill="#d94646" stroke="#404040" points="483.25,-44 342.75,-44 342.75,-24 483.25,-24 483.25,-44"/>
<text text-anchor="middle" x="413" y="-30.5" font-family="Helvetica,sans-Serif" font-size="10.00">GalacticShrine.Configuration</text>
</a>
</g>
</g>
</g>
</svg>

<g id="navigator" transform="translate(0 0)" fill="#404254">
  <rect fill="#f2f5e9" fill-opacity="0.5" stroke="#606060" stroke-width=".5" x="0" y="0" width="60" height="60"/>
  <use id="zoomplus" xlink:href="#zoomPlus" x="17" y="9" onmousedown="handleZoom(evt,'in')"/>
  <use id="zoomminus" xlink:href="#zoomMin" x="42" y="9" onmousedown="handleZoom(evt,'out')"/>
  <use id="reset" xlink:href="#resetDef" x="30" y="36" onmousedown="handleReset()"/>
   <use id="arrowup" xlink:href="#arrowUp" x="0" y="0" onmousedown="handlePan(0,-1)"/>
  <use id="arrowright" xlink:href="#arrowRight" x="0" y="0" onmousedown="handlePan(1,0)"/>
  <use id="arrowdown" xlink:href="#arrowDown" x="0" y="0" onmousedown="handlePan(0,1)"/>
  <use id="arrowleft" xlink:href="#arrowLeft" x="0" y="0" onmousedown="handlePan(-1,0)"/>
</g>
<svg viewBox="0 0 15 15" width="100%" height="30px" preserveAspectRatio="xMaxYMin meet">
 <g id="arrow_out" transform="scale(0.3 0.3)">
  <a xlink:href="dir_b586309762ba03a8cfa576de64078e44_dep_org.svg" target="_base">
   <rect id="button" ry="5" rx="5" y="6" x="6" height="38" width="38"
        fill="#f2f5e9" fill-opacity="0.5" stroke="#606060" stroke-width="1.0"/>
   <path id="arrow"
     d="M 11.500037,31.436501 C 11.940474,20.09759 22.043105,11.32322 32.158766,21.979434 L 37.068811,17.246167 C 37.068811,17.246167 37.088388,32 37.088388,32 L 22.160133,31.978069 C 22.160133,31.978069 26.997745,27.140456 26.997745,27.140456 C 18.528582,18.264221 13.291696,25.230495 11.500037,31.436501 z"
     style="fill:#404040;"/>
  </a>
 </g>
</svg>

<style type='text/css'>
<![CDATA[
[data-mouse-over-selected='false'] { opacity: 0.7; }
[data-mouse-over-selected='true']  { opacity: 1.0; }
]]>
</style>
<script type="application/ecmascript"><![CDATA[
document.addEventListener('DOMContentLoaded', (event) => {
  highlightEdges();
  highlightAdjacentNodes();
});
]]></script>
</svg>
