<?xml version="1.0" encoding="UTF-8" standalone="no"?>
<!DOCTYPE svg PUBLIC "-//W3C//DTD SVG 1.1//EN"
 "http://www.w3.org/Graphics/SVG/1.1/DTD/svg11.dtd">
<!-- Generated by graphviz version 12.2.0 (20241103.1931)
 -->
<!-- Title: Graphe hiérarchique des classes Pages: 1 -->
<svg width="273pt" height="66pt"
 viewBox="0.00 0.00 272.50 66.00" xmlns="http://www.w3.org/2000/svg" xmlns:xlink="http://www.w3.org/1999/xlink">
<g id="graph0" class="graph" transform="scale(1 1) rotate(0) translate(4 62)">
<title>Graphe hiérarchique des classes</title>
<!-- Node0 -->
<g id="Node000000" class="node">
<title>Node0</title>
<g id="a_Node000000"><a xlink:title=" ">
<polygon fill="#e0e0e0" stroke="#999999" points="95.5,-58 0,-58 0,-38 95.5,-38 95.5,-58"/>
<text text-anchor="middle" x="47.75" y="-44.5" font-family="Helvetica,sans-Serif" font-size="10.00">IAsyncDisposable</text>
</a>
</g>
</g>
<!-- Node1 -->
<g id="Node000001" class="node">
<title>Node1</title>
<g id="a_Node000001"><a xlink:href="d5/d6b/class_galactic_shrine_1_1_services_1_1_http_1_1_verificateur_de_serveur.html" target="_top" xlink:title="[FR] Vérifie périodiquement l&#39;état d&#39;un serveur donné. [EN] Periodically checks the status of a given...">
<polygon fill="white" stroke="#666666" points="264.5,-45 131.5,-45 131.5,-13 264.5,-13 264.5,-45"/>
<text text-anchor="start" x="139.5" y="-31.5" font-family="Helvetica,sans-Serif" font-size="10.00">GalacticShrine.Services.</text>
<text text-anchor="middle" x="198" y="-19.5" font-family="Helvetica,sans-Serif" font-size="10.00">Http.VerificateurDeServeur</text>
</a>
</g>
</g>
<!-- Node0&#45;&gt;Node1 -->
<g id="edge21_Node000000_Node000001" class="edge">
<title>Node0&#45;&gt;Node1</title>
<g id="a_edge21_Node000000_Node000001"><a xlink:title=" ">
<path fill="none" stroke="#63b8ff" d="M107.03,-40.53C114.95,-39.52 123.13,-38.47 131.17,-37.44"/>
<polygon fill="#63b8ff" stroke="#63b8ff" points="106.63,-37.05 97.16,-41.8 107.52,-44 106.63,-37.05"/>
</a>
</g>
</g>
<!-- Node2 -->
<g id="Node000002" class="node">
<title>Node2</title>
<g id="a_Node000002"><a xlink:title=" ">
<polygon fill="#e0e0e0" stroke="#999999" points="81.62,-20 13.88,-20 13.88,0 81.62,0 81.62,-20"/>
<text text-anchor="middle" x="47.75" y="-6.5" font-family="Helvetica,sans-Serif" font-size="10.00">IDisposable</text>
</a>
</g>
</g>
<!-- Node2&#45;&gt;Node1 -->
<g id="edge22_Node000002_Node000001" class="edge">
<title>Node2&#45;&gt;Node1</title>
<g id="a_edge22_Node000002_Node000001"><a xlink:title=" ">
<path fill="none" stroke="#63b8ff" d="M93.42,-15.72C105.27,-17.24 118.33,-18.92 131.06,-20.55"/>
<polygon fill="#63b8ff" stroke="#63b8ff" points="93.89,-12.26 83.52,-14.46 93,-19.2 93.89,-12.26"/>
</a>
</g>
</g>
</g>
</svg>
