<?xml version="1.0" encoding="UTF-8" standalone="no"?>
<!DOCTYPE svg PUBLIC "-//W3C//DTD SVG 1.1//EN"
 "http://www.w3.org/Graphics/SVG/1.1/DTD/svg11.dtd">
<!-- Generated by graphviz version 8.1.0 (20230707.0739)
 -->
<!-- Title: Graphe hiérarchique des classes Pages: 1 -->
<svg width="354pt" height="78pt"
 viewBox="0.00 0.00 354.25 78.00" xmlns="http://www.w3.org/2000/svg" xmlns:xlink="http://www.w3.org/1999/xlink">
<g id="graph0" class="graph" transform="scale(1 1) rotate(0) translate(4 74)">
<title>Graphe hiérarchique des classes</title>
<!-- Node0 -->
<g id="Node000000" class="node">
<title>Node0</title>
<g id="a_Node000000"><a xlink:href="class_galactic_shrine_1_1_fichier_systeme_reference.html" target="_top" xlink:title="[FR] Classe de base pour les objets du système de fichiers (fichiers ou répertoires)....">
<polygon fill="white" stroke="#666666" points="151,-70 0,-70 0,-38 151,-38 151,-70"/>
<text text-anchor="start" x="8" y="-56.5" font-family="Helvetica,sans-Serif" font-size="10.00">GalacticShrine.FichierSysteme</text>
<text text-anchor="middle" x="75.5" y="-44.5" font-family="Helvetica,sans-Serif" font-size="10.00">Reference</text>
</a>
</g>
</g>
<!-- Node1 -->
<g id="Node000001" class="node">
<title>Node1</title>
<g id="a_Node000001"><a xlink:href="class_galactic_shrine_1_1_dossier_reference.html" target="_top" xlink:title="[FR] Représentation d&#39;un chemin de répertoire absolu. Permet un hachage et des comparaisons rapides....">
<polygon fill="white" stroke="#666666" points="346.25,-62 187,-62 187,-42 346.25,-42 346.25,-62"/>
<text text-anchor="middle" x="266.62" y="-48.5" font-family="Helvetica,sans-Serif" font-size="10.00">GalacticShrine.DossierReference</text>
</a>
</g>
</g>
<!-- Node0&#45;&gt;Node1 -->
<g id="edge2_Node000000_Node000001" class="edge">
<title>Node0&#45;&gt;Node1</title>
<g id="a_edge2_Node000000_Node000001"><a xlink:title=" ">
<path fill="none" stroke="#63b8ff" d="M162.01,-53.1C170.25,-53.01 178.58,-52.92 186.76,-52.83"/>
<polygon fill="#63b8ff" stroke="#63b8ff" points="162.21,-49.6 152.25,-53.21 162.28,-56.6 162.21,-49.6"/>
</a>
</g>
</g>
<!-- Node3 -->
<g id="Node000003" class="node">
<title>Node3</title>
<g id="a_Node000003"><a xlink:href="class_galactic_shrine_1_1_fichier_reference.html" target="_top" xlink:title="[FR] Représentation d&#39;un chemin de fichier absolu. Permet des hachages et des comparaisons rapides....">
<polygon fill="white" stroke="#666666" points="344.38,-23 188.88,-23 188.88,-3 344.38,-3 344.38,-23"/>
<text text-anchor="middle" x="266.62" y="-9.5" font-family="Helvetica,sans-Serif" font-size="10.00">GalacticShrine.FichierReference</text>
</a>
</g>
</g>
<!-- Node0&#45;&gt;Node3 -->
<g id="edge3_Node000000_Node000003" class="edge">
<title>Node0&#45;&gt;Node3</title>
<g id="a_edge3_Node000000_Node000003"><a xlink:title=" ">
<path fill="none" stroke="#63b8ff" d="M161.74,-35.52C180.77,-31.4 200.3,-27.16 217.22,-23.49"/>
<polygon fill="#63b8ff" stroke="#63b8ff" points="161.28,-32.26 152.25,-37.8 162.76,-39.1 161.28,-32.26"/>
</a>
</g>
</g>
<!-- Node2 -->
<g id="Node000002" class="node">
<title>Node2</title>
<g id="a_Node000002"><a xlink:title=" ">
<polygon fill="#e0e0e0" stroke="#999999" points="106.38,-20 44.62,-20 44.62,0 106.38,0 106.38,-20"/>
<text text-anchor="middle" x="75.5" y="-6.5" font-family="Helvetica,sans-Serif" font-size="10.00">IEquatable</text>
</a>
</g>
</g>
<!-- Node2&#45;&gt;Node1 -->
<g id="edge4_Node000002_Node000001" class="edge">
<title>Node2&#45;&gt;Node1</title>
<g id="a_edge4_Node000002_Node000001"><a xlink:title=" ">
<path fill="none" stroke="#63b8ff" d="M116.91,-18.97C146.67,-25.58 187.23,-34.59 218.48,-41.53"/>
<polygon fill="#63b8ff" stroke="#63b8ff" points="117.99,-15.41 107.47,-16.66 116.47,-22.24 117.99,-15.41"/>
</a>
</g>
</g>
<!-- Node2&#45;&gt;Node3 -->
<g id="edge5_Node000002_Node000003" class="edge">
<title>Node2&#45;&gt;Node3</title>
<g id="a_edge5_Node000002_Node000003"><a xlink:title=" ">
<path fill="none" stroke="#63b8ff" d="M117.43,-10.65C138.21,-10.98 164.14,-11.39 188.47,-11.78"/>
<polygon fill="#63b8ff" stroke="#63b8ff" points="117.52,-7.13 107.47,-10.48 117.41,-14.13 117.52,-7.13"/>
</a>
</g>
</g>
</g>
</svg>
