<?xml version="1.0" encoding="UTF-8" standalone="no"?>
<!DOCTYPE svg PUBLIC "-//W3C//DTD SVG 1.1//EN"
 "http://www.w3.org/Graphics/SVG/1.1/DTD/svg11.dtd">
<!-- Generated by graphviz version 8.1.0 (20230707.0739)
 -->
<!-- Title: Graphe hiérarchique des classes Pages: 1 -->
<svg width="548pt" height="52pt"
 viewBox="0.00 0.00 548.00 52.00" xmlns="http://www.w3.org/2000/svg" xmlns:xlink="http://www.w3.org/1999/xlink">
<g id="graph0" class="graph" transform="scale(1 1) rotate(0) translate(4 48)">
<title>Graphe hiérarchique des classes</title>
<!-- Node0 -->
<g id="Node000000" class="node">
<title>Node0</title>
<g id="a_Node000000"><a xlink:href="interface_galactic_shrine_1_1_interface_1_1_configuration_1_1_clonable_interface.html" target="_top" xlink:title=" ">
<polygon fill="white" stroke="#666666" points="149.5,-44 0,-44 0,0 149.5,0 149.5,-44"/>
<text text-anchor="start" x="8" y="-30.5" font-family="Helvetica,sans-Serif" font-size="10.00">GalacticShrine.Interface.</text>
<text text-anchor="start" x="8" y="-18.5" font-family="Helvetica,sans-Serif" font-size="10.00">Configuration.ClonableInterface</text>
<text text-anchor="middle" x="74.75" y="-6.5" font-family="Helvetica,sans-Serif" font-size="10.00">&lt; DonneesIni &gt;</text>
</a>
</g>
</g>
<!-- Node1 -->
<g id="Node000001" class="node">
<title>Node1</title>
<g id="a_Node000001"><a xlink:href="class_galactic_shrine_1_1_configuration_1_1_donnees_ini.html" target="_top" xlink:title=" ">
<polygon fill="white" stroke="#666666" points="327.5,-38 185.5,-38 185.5,-6 327.5,-6 327.5,-38"/>
<text text-anchor="start" x="193.5" y="-24.5" font-family="Helvetica,sans-Serif" font-size="10.00">GalacticShrine.Configuration.</text>
<text text-anchor="middle" x="256.5" y="-12.5" font-family="Helvetica,sans-Serif" font-size="10.00">DonneesIni</text>
</a>
</g>
</g>
<!-- Node0&#45;&gt;Node1 -->
<g id="edge7_Node000000_Node000001" class="edge">
<title>Node0&#45;&gt;Node1</title>
<g id="a_edge7_Node000000_Node000001"><a xlink:title=" ">
<path fill="none" stroke="#63b8ff" d="M160.67,-22C168.91,-22 177.21,-22 185.28,-22"/>
<polygon fill="#63b8ff" stroke="#63b8ff" points="160.9,-18.5 150.9,-22 160.9,-25.5 160.9,-18.5"/>
</a>
</g>
</g>
<!-- Node2 -->
<g id="Node000002" class="node">
<title>Node2</title>
<g id="a_Node000002"><a xlink:href="class_galactic_shrine_1_1_modele_1_1_configuration_1_1_ini_1_1_donnees_ini_insensible_a___la_casse.html" target="_top" xlink:title="[FR] Représente toutes les données d&#39;un fichier INI exactement comme la classe GalacticShrine....">
<polygon fill="white" stroke="#666666" points="540,-38 363.5,-38 363.5,-6 540,-6 540,-38"/>
<text text-anchor="start" x="371.5" y="-24.5" font-family="Helvetica,sans-Serif" font-size="10.00">GalacticShrine.Modele.Configuration.</text>
<text text-anchor="middle" x="451.75" y="-12.5" font-family="Helvetica,sans-Serif" font-size="10.00">Ini.DonneesIniInsensibleA_LaCasse</text>
</a>
</g>
</g>
<!-- Node1&#45;&gt;Node2 -->
<g id="edge8_Node000001_Node000002" class="edge">
<title>Node1&#45;&gt;Node2</title>
<g id="a_edge8_Node000001_Node000002"><a xlink:title=" ">
<path fill="none" stroke="#63b8ff" d="M338.67,-22C346.72,-22 354.91,-22 363.02,-22"/>
<polygon fill="#63b8ff" stroke="#63b8ff" points="338.81,-18.5 328.81,-22 338.81,-25.5 338.81,-18.5"/>
</a>
</g>
</g>
</g>
</svg>
