<?xml version="1.0" encoding="UTF-8" standalone="no"?>
<!DOCTYPE svg PUBLIC "-//W3C//DTD SVG 1.1//EN"
 "http://www.w3.org/Graphics/SVG/1.1/DTD/svg11.dtd">
<!-- Generated by graphviz version 12.2.0 (20241103.1931)
 -->
<!-- Title: Graphe hiérarchique des classes Pages: 1 -->
<svg width="613pt" height="390pt"
 viewBox="0.00 0.00 612.50 390.00" xmlns="http://www.w3.org/2000/svg" xmlns:xlink="http://www.w3.org/1999/xlink">
<g id="graph0" class="graph" transform="scale(1 1) rotate(0) translate(4 386)">
<title>Graphe hiérarchique des classes</title>
<!-- Node0 -->
<g id="Node000000" class="node">
<title>Node0</title>
<g id="a_Node000000"><a xlink:href="interface_galactic_shrine_1_1_interface_1_1_configuration_1_1_clonable_interface-1-g.html" target="_top" xlink:title="[FR] Crée une copie en profondeur du type T , c&#39;est&#45;à&#45;dire que tous les types de référence sont égale...">
<polygon fill="white" stroke="#666666" points="176.5,-207 0,-207 0,-175 176.5,-175 176.5,-207"/>
<text text-anchor="start" x="8" y="-193.5" font-family="Helvetica,sans-Serif" font-size="10.00">GalacticShrine.Interface.</text>
<text text-anchor="middle" x="88.25" y="-181.5" font-family="Helvetica,sans-Serif" font-size="10.00">Configuration.ClonableInterface&lt; T &gt;</text>
</a>
</g>
</g>
<!-- Node1 -->
<g id="Node000001" class="node">
<title>Node1</title>
<g id="a_Node000001"><a xlink:href="class_galactic_shrine_1_1_configuration_1_1_configuration_1_1_analyseur_ini.html" target="_top" xlink:title=" ">
<polygon fill="white" stroke="#666666" points="373.25,-382 229.75,-382 229.75,-350 373.25,-350 373.25,-382"/>
<text text-anchor="start" x="237.75" y="-368.5" font-family="Helvetica,sans-Serif" font-size="10.00">GalacticShrine.Configuration.</text>
<text text-anchor="middle" x="301.5" y="-356.5" font-family="Helvetica,sans-Serif" font-size="10.00">Configuration.AnalyseurIni</text>
</a>
</g>
</g>
<!-- Node0&#45;&gt;Node1 -->
<g id="edge5_Node000000_Node000001" class="edge">
<title>Node0&#45;&gt;Node1</title>
<g id="a_edge5_Node000000_Node000001"><a xlink:title=" ">
<path fill="none" stroke="#63b8ff" d="M103.67,-216.9C123.72,-250.52 163.19,-308.7 212.5,-341 217.81,-344.48 223.62,-347.48 229.62,-350.07"/>
<polygon fill="#63b8ff" stroke="#63b8ff" points="106.9,-215.49 98.84,-208.61 100.86,-219.02 106.9,-215.49"/>
</a>
</g>
</g>
<!-- Node2 -->
<g id="Node000002" class="node">
<title>Node2</title>
<g id="a_Node000002"><a xlink:href="class_galactic_shrine_1_1_configuration_1_1_configuration_1_1_schema_ini.html" target="_top" xlink:title="[FR] Cette structure définit le format du fichier INI en personnalisant les caractères utilisés &#160;pour...">
<polygon fill="white" stroke="#666666" points="373.25,-332 229.75,-332 229.75,-300 373.25,-300 373.25,-332"/>
<text text-anchor="start" x="237.75" y="-318.5" font-family="Helvetica,sans-Serif" font-size="10.00">GalacticShrine.Configuration.</text>
<text text-anchor="middle" x="301.5" y="-306.5" font-family="Helvetica,sans-Serif" font-size="10.00">Configuration.SchemaIni</text>
</a>
</g>
</g>
<!-- Node0&#45;&gt;Node2 -->
<g id="edge6_Node000000_Node000002" class="edge">
<title>Node0&#45;&gt;Node2</title>
<g id="a_edge6_Node000000_Node000002"><a xlink:title=" ">
<path fill="none" stroke="#63b8ff" d="M112.78,-215.07C136.15,-237.69 173.96,-270.97 212.5,-291 218.7,-294.22 225.37,-297.08 232.16,-299.59"/>
<polygon fill="#63b8ff" stroke="#63b8ff" points="115.51,-212.85 105.93,-208.33 110.6,-217.84 115.51,-212.85"/>
</a>
</g>
</g>
<!-- Node3 -->
<g id="Node000003" class="node">
<title>Node3</title>
<g id="a_Node000003"><a xlink:href="class_galactic_shrine_1_1_configuration_1_1_donnees_ini.html" target="_top" xlink:title=" ">
<polygon fill="white" stroke="#666666" points="373.25,-282 229.75,-282 229.75,-250 373.25,-250 373.25,-282"/>
<text text-anchor="start" x="237.75" y="-268.5" font-family="Helvetica,sans-Serif" font-size="10.00">GalacticShrine.Configuration.</text>
<text text-anchor="middle" x="301.5" y="-256.5" font-family="Helvetica,sans-Serif" font-size="10.00">DonneesIni</text>
</a>
</g>
</g>
<!-- Node0&#45;&gt;Node3 -->
<g id="edge7_Node000000_Node000003" class="edge">
<title>Node0&#45;&gt;Node3</title>
<g id="a_edge7_Node000000_Node000003"><a xlink:title=" ">
<path fill="none" stroke="#63b8ff" d="M136.98,-211.77C159.64,-221.27 187.24,-232.32 212.5,-241 221.06,-243.94 230.17,-246.81 239.16,-249.5"/>
<polygon fill="#63b8ff" stroke="#63b8ff" points="138.58,-208.65 128,-207.98 135.85,-215.1 138.58,-208.65"/>
</a>
</g>
</g>
<!-- Node5 -->
<g id="Node000005" class="node">
<title>Node5</title>
<g id="a_Node000005"><a xlink:href="class_galactic_shrine_1_1_configuration_1_1_securite_1_1_crypt.html" target="_top" xlink:title=" ">
<polygon fill="white" stroke="#666666" points="373.25,-232 229.75,-232 229.75,-200 373.25,-200 373.25,-232"/>
<text text-anchor="start" x="237.75" y="-218.5" font-family="Helvetica,sans-Serif" font-size="10.00">GalacticShrine.Configuration.</text>
<text text-anchor="middle" x="301.5" y="-206.5" font-family="Helvetica,sans-Serif" font-size="10.00">Securite.Crypt</text>
</a>
</g>
</g>
<!-- Node0&#45;&gt;Node5 -->
<g id="edge9_Node000000_Node000005" class="edge">
<title>Node0&#45;&gt;Node5</title>
<g id="a_edge9_Node000000_Node000005"><a xlink:title=" ">
<path fill="none" stroke="#63b8ff" d="M187.91,-202.68C201.95,-204.34 216.15,-206.02 229.53,-207.6"/>
<polygon fill="#63b8ff" stroke="#63b8ff" points="188.54,-199.23 178.2,-201.53 187.72,-206.18 188.54,-199.23"/>
</a>
</g>
</g>
<!-- Node6 -->
<g id="Node000006" class="node">
<title>Node6</title>
<g id="a_Node000006"><a xlink:href="class_galactic_shrine_1_1_modele_1_1_configuration_1_1_ini_1_1_propriete.html" target="_top" xlink:title="[FR] Informations associées à une propriété provenant d&#39;une Configuration INI. &#160;[EN] Information asso...">
<polygon fill="white" stroke="#666666" points="390.5,-182 212.5,-182 212.5,-150 390.5,-150 390.5,-182"/>
<text text-anchor="start" x="220.5" y="-168.5" font-family="Helvetica,sans-Serif" font-size="10.00">GalacticShrine.Modele.Configuration.</text>
<text text-anchor="middle" x="301.5" y="-156.5" font-family="Helvetica,sans-Serif" font-size="10.00">Ini.Propriete</text>
</a>
</g>
</g>
<!-- Node0&#45;&gt;Node6 -->
<g id="edge10_Node000000_Node000006" class="edge">
<title>Node0&#45;&gt;Node6</title>
<g id="a_edge10_Node000000_Node000006"><a xlink:title=" ">
<path fill="none" stroke="#63b8ff" d="M188.01,-179.31C196.05,-178.36 204.14,-177.4 212.09,-176.46"/>
<polygon fill="#63b8ff" stroke="#63b8ff" points="187.72,-175.82 178.2,-180.47 188.54,-182.77 187.72,-175.82"/>
</a>
</g>
</g>
<!-- Node7 -->
<g id="Node000007" class="node">
<title>Node7</title>
<g id="a_Node000007"><a xlink:href="class_galactic_shrine_1_1_modele_1_1_configuration_1_1_ini_1_1_propriete_collection.html" target="_top" xlink:title="[FR] Représente une collection de données de clé. &#160;[EN] Represents a collection of key data.">
<polygon fill="white" stroke="#666666" points="390.5,-82 212.5,-82 212.5,-50 390.5,-50 390.5,-82"/>
<text text-anchor="start" x="220.5" y="-68.5" font-family="Helvetica,sans-Serif" font-size="10.00">GalacticShrine.Modele.Configuration.</text>
<text text-anchor="middle" x="301.5" y="-56.5" font-family="Helvetica,sans-Serif" font-size="10.00">Ini.ProprieteCollection</text>
</a>
</g>
</g>
<!-- Node0&#45;&gt;Node7 -->
<g id="edge11_Node000000_Node000007" class="edge">
<title>Node0&#45;&gt;Node7</title>
<g id="a_edge11_Node000000_Node000007"><a xlink:title=" ">
<path fill="none" stroke="#63b8ff" d="M112.78,-166.93C136.15,-144.31 173.96,-111.03 212.5,-91 218.7,-87.78 225.37,-84.92 232.16,-82.41"/>
<polygon fill="#63b8ff" stroke="#63b8ff" points="110.6,-164.16 105.93,-173.67 115.51,-169.15 110.6,-164.16"/>
</a>
</g>
</g>
<!-- Node10 -->
<g id="Node000010" class="node">
<title>Node10</title>
<g id="a_Node000010"><a xlink:href="class_galactic_shrine_1_1_modele_1_1_configuration_1_1_ini_1_1_section.html" target="_top" xlink:title="[FR] Informations associées à une propriété provenant d&#39;une Configuration INI. &#160;[EN] Information asso...">
<polygon fill="white" stroke="#666666" points="390.5,-132 212.5,-132 212.5,-100 390.5,-100 390.5,-132"/>
<text text-anchor="start" x="220.5" y="-118.5" font-family="Helvetica,sans-Serif" font-size="10.00">GalacticShrine.Modele.Configuration.</text>
<text text-anchor="middle" x="301.5" y="-106.5" font-family="Helvetica,sans-Serif" font-size="10.00">Ini.Section</text>
</a>
</g>
</g>
<!-- Node0&#45;&gt;Node10 -->
<g id="edge12_Node000000_Node000010" class="edge">
<title>Node0&#45;&gt;Node10</title>
<g id="a_edge12_Node000000_Node000010"><a xlink:title=" ">
<path fill="none" stroke="#63b8ff" d="M136.98,-170.23C159.64,-160.73 187.24,-149.68 212.5,-141 221.06,-138.06 230.17,-135.19 239.16,-132.5"/>
<polygon fill="#63b8ff" stroke="#63b8ff" points="135.85,-166.9 128,-174.02 138.58,-173.35 135.85,-166.9"/>
</a>
</g>
</g>
<!-- Node9 -->
<g id="Node000009" class="node">
<title>Node9</title>
<g id="a_Node000009"><a xlink:href="class_galactic_shrine_1_1_modele_1_1_configuration_1_1_ini_1_1_section_collection.html" target="_top" xlink:title=" ">
<polygon fill="white" stroke="#666666" points="390.5,-32 212.5,-32 212.5,0 390.5,0 390.5,-32"/>
<text text-anchor="start" x="220.5" y="-18.5" font-family="Helvetica,sans-Serif" font-size="10.00">GalacticShrine.Modele.Configuration.</text>
<text text-anchor="middle" x="301.5" y="-6.5" font-family="Helvetica,sans-Serif" font-size="10.00">Ini.SectionCollection</text>
</a>
</g>
</g>
<!-- Node0&#45;&gt;Node9 -->
<g id="edge13_Node000000_Node000009" class="edge">
<title>Node0&#45;&gt;Node9</title>
<g id="a_edge13_Node000000_Node000009"><a xlink:title=" ">
<path fill="none" stroke="#63b8ff" d="M103.67,-165.1C123.72,-131.48 163.19,-73.3 212.5,-41 217.55,-37.69 223.04,-34.82 228.72,-32.32"/>
<polygon fill="#63b8ff" stroke="#63b8ff" points="100.86,-162.98 98.84,-173.39 106.9,-166.51 100.86,-162.98"/>
</a>
</g>
</g>
<!-- Node4 -->
<g id="Node000004" class="node">
<title>Node4</title>
<g id="a_Node000004"><a xlink:href="class_galactic_shrine_1_1_modele_1_1_configuration_1_1_ini_1_1_donnees_ini_insensible_a___la_casse.html" target="_top" xlink:title="[FR] Représente toutes les données d&#39;un fichier INI exactement comme la classe GalacticShrine....">
<polygon fill="white" stroke="#666666" points="604.5,-282 426.5,-282 426.5,-250 604.5,-250 604.5,-282"/>
<text text-anchor="start" x="434.5" y="-268.5" font-family="Helvetica,sans-Serif" font-size="10.00">GalacticShrine.Modele.Configuration.</text>
<text text-anchor="middle" x="515.5" y="-256.5" font-family="Helvetica,sans-Serif" font-size="10.00">Ini.DonneesIniInsensibleA_LaCasse</text>
</a>
</g>
</g>
<!-- Node3&#45;&gt;Node4 -->
<g id="edge8_Node000003_Node000004" class="edge">
<title>Node3&#45;&gt;Node4</title>
<g id="a_edge8_Node000003_Node000004"><a xlink:title=" ">
<path fill="none" stroke="#63b8ff" d="M384.9,-266C398.44,-266 412.51,-266 426.18,-266"/>
<polygon fill="#63b8ff" stroke="#63b8ff" points="385.2,-262.5 375.2,-266 385.2,-269.5 385.2,-262.5"/>
</a>
</g>
</g>
<!-- Node8 -->
<g id="Node000008" class="node">
<title>Node8</title>
<g id="a_Node000008"><a xlink:title=" ">
<polygon fill="#e0e0e0" stroke="#999999" points="123.62,-51 52.88,-51 52.88,-31 123.62,-31 123.62,-51"/>
<text text-anchor="middle" x="88.25" y="-37.5" font-family="Helvetica,sans-Serif" font-size="10.00">IEnumerable</text>
</a>
</g>
</g>
<!-- Node8&#45;&gt;Node7 -->
<g id="edge14_Node000008_Node000007" class="edge">
<title>Node8&#45;&gt;Node7</title>
<g id="a_edge14_Node000008_Node000007"><a xlink:title=" ">
<path fill="none" stroke="#63b8ff" d="M134.96,-46.41C157.59,-49.09 185.71,-52.42 212.31,-55.56"/>
<polygon fill="#63b8ff" stroke="#63b8ff" points="135.51,-42.95 125.16,-45.25 134.68,-49.9 135.51,-42.95"/>
</a>
</g>
</g>
<!-- Node8&#45;&gt;Node9 -->
<g id="edge15_Node000008_Node000009" class="edge">
<title>Node8&#45;&gt;Node9</title>
<g id="a_edge15_Node000008_Node000009"><a xlink:title=" ">
<path fill="none" stroke="#63b8ff" d="M134.96,-35.59C157.59,-32.91 185.71,-29.58 212.31,-26.44"/>
<polygon fill="#63b8ff" stroke="#63b8ff" points="134.68,-32.1 125.16,-36.75 135.51,-39.05 134.68,-32.1"/>
</a>
</g>
</g>
</g>
</svg>
