<?xml version="1.0" encoding="UTF-8" standalone="no"?>
<!DOCTYPE svg PUBLIC "-//W3C//DTD SVG 1.1//EN"
 "http://www.w3.org/Graphics/SVG/1.1/DTD/svg11.dtd">
<!-- Generated by graphviz version 8.1.0 (20230707.0739)
 -->
<!-- Title: Graphe hiérarchique des classes Pages: 1 -->
<svg width="370pt" height="152pt"
 viewBox="0.00 0.00 370.00 152.00" xmlns="http://www.w3.org/2000/svg" xmlns:xlink="http://www.w3.org/1999/xlink">
<g id="graph0" class="graph" transform="scale(1 1) rotate(0) translate(4 148)">
<title>Graphe hiérarchique des classes</title>
<!-- Node0 -->
<g id="Node000000" class="node">
<title>Node0</title>
<g id="a_Node000000"><a xlink:href="interface_galactic_shrine_1_1_interface_1_1_configuration_1_1_clonable_interface.html" target="_top" xlink:title=" ">
<polygon fill="white" stroke="#666666" points="149.5,-144 0,-144 0,-100 149.5,-100 149.5,-144"/>
<text text-anchor="start" x="8" y="-130.5" font-family="Helvetica,sans-Serif" font-size="10.00">GalacticShrine.Interface.</text>
<text text-anchor="start" x="8" y="-118.5" font-family="Helvetica,sans-Serif" font-size="10.00">Configuration.ClonableInterface</text>
<text text-anchor="middle" x="74.75" y="-106.5" font-family="Helvetica,sans-Serif" font-size="10.00">&lt; ProprieteCollection &gt;</text>
</a>
</g>
</g>
<!-- Node1 -->
<g id="Node000001" class="node">
<title>Node1</title>
<g id="a_Node000001"><a xlink:href="class_galactic_shrine_1_1_modele_1_1_configuration_1_1_ini_1_1_propriete_collection.html" target="_top" xlink:title="[FR] Représente une collection de données de clé. &#160;[EN] Represents a collection of key data.">
<polygon fill="white" stroke="#666666" points="362,-113 185.5,-113 185.5,-81 362,-81 362,-113"/>
<text text-anchor="start" x="193.5" y="-99.5" font-family="Helvetica,sans-Serif" font-size="10.00">GalacticShrine.Modele.Configuration.</text>
<text text-anchor="middle" x="273.75" y="-87.5" font-family="Helvetica,sans-Serif" font-size="10.00">Ini.ProprieteCollection</text>
</a>
</g>
</g>
<!-- Node0&#45;&gt;Node1 -->
<g id="edge10_Node000000_Node000001" class="edge">
<title>Node0&#45;&gt;Node1</title>
<g id="a_edge10_Node000000_Node000001"><a xlink:title=" ">
<path fill="none" stroke="#63b8ff" d="M160.8,-111.21C168.83,-110.19 176.98,-109.15 185.03,-108.13"/>
<polygon fill="#63b8ff" stroke="#63b8ff" points="160.43,-107.85 150.95,-112.58 161.31,-114.8 160.43,-107.85"/>
</a>
</g>
</g>
<!-- Node4 -->
<g id="Node000004" class="node">
<title>Node4</title>
<g id="a_Node000004"><a xlink:href="interface_galactic_shrine_1_1_interface_1_1_configuration_1_1_clonable_interface.html" target="_top" xlink:title=" ">
<polygon fill="white" stroke="#666666" points="149.5,-44 0,-44 0,0 149.5,0 149.5,-44"/>
<text text-anchor="start" x="8" y="-30.5" font-family="Helvetica,sans-Serif" font-size="10.00">GalacticShrine.Interface.</text>
<text text-anchor="start" x="8" y="-18.5" font-family="Helvetica,sans-Serif" font-size="10.00">Configuration.ClonableInterface</text>
<text text-anchor="middle" x="74.75" y="-6.5" font-family="Helvetica,sans-Serif" font-size="10.00">&lt; SectionCollection &gt;</text>
</a>
</g>
</g>
<!-- Node3 -->
<g id="Node000003" class="node">
<title>Node3</title>
<g id="a_Node000003"><a xlink:href="class_galactic_shrine_1_1_modele_1_1_configuration_1_1_ini_1_1_section_collection.html" target="_top" xlink:title=" ">
<polygon fill="white" stroke="#666666" points="362,-51 185.5,-51 185.5,-19 362,-19 362,-51"/>
<text text-anchor="start" x="193.5" y="-37.5" font-family="Helvetica,sans-Serif" font-size="10.00">GalacticShrine.Modele.Configuration.</text>
<text text-anchor="middle" x="273.75" y="-25.5" font-family="Helvetica,sans-Serif" font-size="10.00">Ini.SectionCollection</text>
</a>
</g>
</g>
<!-- Node4&#45;&gt;Node3 -->
<g id="edge11_Node000004_Node000003" class="edge">
<title>Node4&#45;&gt;Node3</title>
<g id="a_edge11_Node000004_Node000003"><a xlink:title=" ">
<path fill="none" stroke="#63b8ff" d="M160.8,-27.61C168.83,-28.14 176.98,-28.68 185.03,-29.21"/>
<polygon fill="#63b8ff" stroke="#63b8ff" points="161.16,-24.06 150.95,-26.9 160.69,-31.05 161.16,-24.06"/>
</a>
</g>
</g>
<!-- Node2 -->
<g id="Node000002" class="node">
<title>Node2</title>
<g id="a_Node000002"><a xlink:title=" ">
<polygon fill="#e0e0e0" stroke="#999999" points="109.75,-82 39.75,-82 39.75,-62 109.75,-62 109.75,-82"/>
<text text-anchor="middle" x="74.75" y="-68.5" font-family="Helvetica,sans-Serif" font-size="10.00">IEnumerable</text>
</a>
</g>
</g>
<!-- Node2&#45;&gt;Node1 -->
<g id="edge12_Node000002_Node000001" class="edge">
<title>Node2&#45;&gt;Node1</title>
<g id="a_edge12_Node000002_Node000001"><a xlink:title=" ">
<path fill="none" stroke="#63b8ff" d="M120.83,-77.72C139.93,-80.15 162.88,-83.06 185.08,-85.87"/>
<polygon fill="#63b8ff" stroke="#63b8ff" points="121.43,-74.14 111.06,-76.35 120.54,-81.09 121.43,-74.14"/>
</a>
</g>
</g>
<!-- Node2&#45;&gt;Node3 -->
<g id="edge13_Node000002_Node000003" class="edge">
<title>Node2&#45;&gt;Node3</title>
<g id="a_edge13_Node000002_Node000003"><a xlink:title=" ">
<path fill="none" stroke="#63b8ff" d="M120.83,-63.53C139.93,-59.95 162.88,-55.64 185.08,-51.47"/>
<polygon fill="#63b8ff" stroke="#63b8ff" points="120.25,-60.27 111.06,-65.56 121.54,-67.15 120.25,-60.27"/>
</a>
</g>
</g>
</g>
</svg>
