<?xml version="1.0" encoding="UTF-8" standalone="no"?>
<!DOCTYPE svg PUBLIC "-//W3C//DTD SVG 1.1//EN"
 "http://www.w3.org/Graphics/SVG/1.1/DTD/svg11.dtd">
<!-- Generated by graphviz version 8.1.0 (20230707.0739)
 -->
<!-- Title: Graphe hiérarchique des classes Pages: 1 -->
<svg width="475pt" height="90pt"
 viewBox="0.00 0.00 474.50 90.00" xmlns="http://www.w3.org/2000/svg" xmlns:xlink="http://www.w3.org/1999/xlink">
<g id="graph0" class="graph" transform="scale(1 1) rotate(0) translate(4 86)">
<title>Graphe hiérarchique des classes</title>
<!-- Node0 -->
<g id="Node000000" class="node">
<title>Node0</title>
<g id="a_Node000000"><a xlink:href="interface_galactic_shrine_1_1_interface_1_1_terminal_1_1_couleur_interface.html" target="_top" xlink:title=" ">
<polygon fill="white" stroke="#666666" points="125.5,-57 0,-57 0,-25 125.5,-25 125.5,-57"/>
<text text-anchor="start" x="8" y="-43.5" font-family="Helvetica,sans-Serif" font-size="10.00">GalacticShrine.Interface.</text>
<text text-anchor="middle" x="62.75" y="-31.5" font-family="Helvetica,sans-Serif" font-size="10.00">Terminal.CouleurInterface</text>
</a>
</g>
</g>
<!-- Node1 -->
<g id="Node000001" class="node">
<title>Node1</title>
<g id="a_Node000001"><a xlink:href="class_galactic_shrine_1_1_u_i_1_1_terminal_1_1_theme_params.html" target="_top" xlink:title=" ">
<polygon fill="white" stroke="#666666" points="296,-57 161.5,-57 161.5,-25 296,-25 296,-57"/>
<text text-anchor="start" x="169.5" y="-43.5" font-family="Helvetica,sans-Serif" font-size="10.00">GalacticShrine.UI.Terminal.</text>
<text text-anchor="middle" x="228.75" y="-31.5" font-family="Helvetica,sans-Serif" font-size="10.00">ThemeParams</text>
</a>
</g>
</g>
<!-- Node0&#45;&gt;Node1 -->
<g id="edge16_Node000000_Node000001" class="edge">
<title>Node0&#45;&gt;Node1</title>
<g id="a_edge16_Node000000_Node000001"><a xlink:title=" ">
<path fill="none" stroke="#63b8ff" d="M136.69,-41C144.78,-41 152.99,-41 161.01,-41"/>
<polygon fill="#63b8ff" stroke="#63b8ff" points="136.75,-37.5 126.75,-41 136.75,-44.5 136.75,-37.5"/>
</a>
</g>
</g>
<!-- Node2 -->
<g id="Node000002" class="node">
<title>Node2</title>
<g id="a_Node000002"><a xlink:href="class_galactic_shrine_1_1_u_i_1_1_terminal_1_1_theme_lumineux.html" target="_top" xlink:title=" ">
<polygon fill="white" stroke="#666666" points="466.5,-82 332,-82 332,-50 466.5,-50 466.5,-82"/>
<text text-anchor="start" x="340" y="-68.5" font-family="Helvetica,sans-Serif" font-size="10.00">GalacticShrine.UI.Terminal.</text>
<text text-anchor="middle" x="399.25" y="-56.5" font-family="Helvetica,sans-Serif" font-size="10.00">ThemeLumineux</text>
</a>
</g>
</g>
<!-- Node1&#45;&gt;Node2 -->
<g id="edge17_Node000001_Node000002" class="edge">
<title>Node1&#45;&gt;Node2</title>
<g id="a_edge17_Node000001_Node000002"><a xlink:title=" ">
<path fill="none" stroke="#63b8ff" d="M307.04,-52.47C315.24,-53.68 323.53,-54.91 331.59,-56.11"/>
<polygon fill="#63b8ff" stroke="#63b8ff" points="307.75,-48.89 297.35,-50.88 306.72,-55.81 307.75,-48.89"/>
</a>
</g>
</g>
<!-- Node3 -->
<g id="Node000003" class="node">
<title>Node3</title>
<g id="a_Node000003"><a xlink:href="class_galactic_shrine_1_1_u_i_1_1_terminal_1_1_theme_sombre.html" target="_top" xlink:title=" ">
<polygon fill="white" stroke="#666666" points="466.5,-32 332,-32 332,0 466.5,0 466.5,-32"/>
<text text-anchor="start" x="340" y="-18.5" font-family="Helvetica,sans-Serif" font-size="10.00">GalacticShrine.UI.Terminal.</text>
<text text-anchor="middle" x="399.25" y="-6.5" font-family="Helvetica,sans-Serif" font-size="10.00">ThemeSombre</text>
</a>
</g>
</g>
<!-- Node1&#45;&gt;Node3 -->
<g id="edge18_Node000001_Node000003" class="edge">
<title>Node1&#45;&gt;Node3</title>
<g id="a_edge18_Node000001_Node000003"><a xlink:title=" ">
<path fill="none" stroke="#63b8ff" d="M307.04,-29.53C315.24,-28.32 323.53,-27.09 331.59,-25.89"/>
<polygon fill="#63b8ff" stroke="#63b8ff" points="306.72,-26.19 297.35,-31.12 307.75,-33.11 306.72,-26.19"/>
</a>
</g>
</g>
</g>
</svg>
