<?xml version="1.0" encoding="UTF-8" standalone="no"?>
<!DOCTYPE svg PUBLIC "-//W3C//DTD SVG 1.1//EN"
 "http://www.w3.org/Graphics/SVG/1.1/DTD/svg11.dtd">
<!-- Generated by graphviz version 12.2.0 (20241103.1931)
 -->
<!-- Title: Graphe hiérarchique des classes Pages: 1 -->
<svg width="357pt" height="78pt"
 viewBox="0.00 0.00 356.50 78.00" xmlns="http://www.w3.org/2000/svg" xmlns:xlink="http://www.w3.org/1999/xlink">
<g id="graph0" class="graph" transform="scale(1 1) rotate(0) translate(4 74)">
<title>Graphe hiérarchique des classes</title>
<!-- Node0 -->
<g id="Node000000" class="node">
<title>Node0</title>
<g id="a_Node000000"><a xlink:href="dd/daf/class_galactic_shrine_1_1_fichier_systeme_reference.html" target="_top" xlink:title="[FR] Classe de base pour les objets du système de fichiers (fichiers ou répertoires)....">
<polygon fill="white" stroke="#666666" points="151,-70 0,-70 0,-38 151,-38 151,-70"/>
<text text-anchor="start" x="8" y="-56.5" font-family="Helvetica,sans-Serif" font-size="10.00">GalacticShrine.FichierSysteme</text>
<text text-anchor="middle" x="75.5" y="-44.5" font-family="Helvetica,sans-Serif" font-size="10.00">Reference</text>
</a>
</g>
</g>
<!-- Node1 -->
<g id="Node000001" class="node">
<title>Node1</title>
<g id="a_Node000001"><a xlink:href="dc/dbe/class_galactic_shrine_1_1_dossier_reference.html" target="_top" xlink:title="[FR] Représentation d&#39;un chemin de répertoire absolu. Permet un hachage et des comparaisons rapides....">
<polygon fill="white" stroke="#666666" points="348.5,-62 187,-62 187,-42 348.5,-42 348.5,-62"/>
<text text-anchor="middle" x="267.75" y="-48.5" font-family="Helvetica,sans-Serif" font-size="10.00">GalacticShrine.DossierReference</text>
</a>
</g>
</g>
<!-- Node0&#45;&gt;Node1 -->
<g id="edge2_Node000000_Node000001" class="edge">
<title>Node0&#45;&gt;Node1</title>
<g id="a_edge2_Node000000_Node000001"><a xlink:title=" ">
<path fill="none" stroke="#63b8ff" d="M162.89,-53.09C170.78,-53.01 178.74,-52.93 186.57,-52.84"/>
<polygon fill="#63b8ff" stroke="#63b8ff" points="162.89,-49.59 152.93,-53.2 162.97,-56.59 162.89,-49.59"/>
</a>
</g>
</g>
<!-- Node3 -->
<g id="Node000003" class="node">
<title>Node3</title>
<g id="a_Node000003"><a xlink:href="d2/dcf/class_galactic_shrine_1_1_fichier_reference.html" target="_top" xlink:title="[FR] Représentation d&#39;un chemin de fichier absolu. Permet des hachages et des comparaisons rapides....">
<polygon fill="white" stroke="#666666" points="346.25,-23 189.25,-23 189.25,-3 346.25,-3 346.25,-23"/>
<text text-anchor="middle" x="267.75" y="-9.5" font-family="Helvetica,sans-Serif" font-size="10.00">GalacticShrine.FichierReference</text>
</a>
</g>
</g>
<!-- Node0&#45;&gt;Node3 -->
<g id="edge3_Node000000_Node000003" class="edge">
<title>Node0&#45;&gt;Node3</title>
<g id="a_edge3_Node000000_Node000003"><a xlink:title=" ">
<path fill="none" stroke="#63b8ff" d="M162.58,-35.45C181.66,-31.34 201.24,-27.12 218.2,-23.46"/>
<polygon fill="#63b8ff" stroke="#63b8ff" points="161.94,-32.01 152.9,-37.54 163.41,-38.85 161.94,-32.01"/>
</a>
</g>
</g>
<!-- Node2 -->
<g id="Node000002" class="node">
<title>Node2</title>
<g id="a_Node000002"><a xlink:title=" ">
<polygon fill="#e0e0e0" stroke="#999999" points="106.75,-20 44.25,-20 44.25,0 106.75,0 106.75,-20"/>
<text text-anchor="middle" x="75.5" y="-6.5" font-family="Helvetica,sans-Serif" font-size="10.00">IEquatable</text>
</a>
</g>
</g>
<!-- Node2&#45;&gt;Node1 -->
<g id="edge4_Node000002_Node000001" class="edge">
<title>Node2&#45;&gt;Node1</title>
<g id="a_edge4_Node000002_Node000001"><a xlink:title=" ">
<path fill="none" stroke="#63b8ff" d="M117.98,-19.16C147.91,-25.76 188.37,-34.7 219.54,-41.58"/>
<polygon fill="#63b8ff" stroke="#63b8ff" points="119.06,-15.81 108.54,-17.07 117.56,-22.65 119.06,-15.81"/>
</a>
</g>
</g>
<!-- Node2&#45;&gt;Node3 -->
<g id="edge5_Node000002_Node000003" class="edge">
<title>Node2&#45;&gt;Node3</title>
<g id="a_edge5_Node000002_Node000003"><a xlink:title=" ">
<path fill="none" stroke="#63b8ff" d="M118.35,-10.66C139.11,-10.99 164.86,-11.39 189.05,-11.77"/>
<polygon fill="#63b8ff" stroke="#63b8ff" points="118.63,-7.16 108.58,-10.51 118.52,-14.16 118.63,-7.16"/>
</a>
</g>
</g>
</g>
</svg>
