<?xml version="1.0" encoding="UTF-8" standalone="no"?>
<!DOCTYPE svg PUBLIC "-//W3C//DTD SVG 1.1//EN"
 "http://www.w3.org/Graphics/SVG/1.1/DTD/svg11.dtd">
<!-- Generated by graphviz version 12.2.0 (20241103.1931)
 -->
<!-- Title: GalacticShrine.Interface.Configuration.ClonableInterface&lt; T &gt; Pages: 1 -->
<!--zoomable 440 -->

<svg id="main" version="1.1" xmlns="http://www.w3.org/2000/svg" xmlns:xlink="http://www.w3.org/1999/xlink" xml:space="preserve" onload="init(evt)">

<style type="text/css"><![CDATA[
.node, .edge {opacity: 0.7;}
.node.selected, .edge.selected {opacity: 1;}
.edge:hover path { stroke: red; }
.edge:hover polygon { stroke: red; fill: red; }
]]></style>

<defs>
  <circle id="rim" cx="0" cy="0" r="7"/>
  <circle id="rim2" cx="0" cy="0" r="3.5"/>
  <g id="zoomPlus">
    <use xlink:href="#rim" fill="#404040"><set attributeName="fill" to="#808080" begin="zoomplus.mouseover" end="zoomplus.mouseout"/></use>
    <path d="M-4,0h8M0,-4v8" fill="none" stroke="white" stroke-width="1.5" pointer-events="none"/>
  </g>
  <g id="zoomMin">
    <use xlink:href="#rim" fill="#404040"><set attributeName="fill" to="#808080" begin="zoomminus.mouseover" end="zoomminus.mouseout"/></use>
    <path d="M-4,0h8" fill="none" stroke="white" stroke-width="1.5" pointer-events="none"/>
  </g>
  <g id="arrowUp" transform="translate(30 24)">
    <use xlink:href="#rim"/>
    <path pointer-events="none" fill="none" stroke="white" stroke-width="1.5" d="M0,-3.0v7 M-2.5,-0.5L0,-3.0L2.5,-0.5"/>
  </g>
  <g id="arrowRight" transform="rotate(90) translate(36 -43)">
    <use xlink:href="#rim"/>
    <path pointer-events="none" fill="none" stroke="white" stroke-width="1.5" d="M0,-3.0v7 M-2.5,-0.5L0,-3.0L2.5,-0.5"/>
  </g>
  <g id="arrowDown" transform="rotate(180) translate(-30 -48)">
    <use xlink:href="#rim"/>
    <path pointer-events="none" fill="none" stroke="white" stroke-width="1.5" d="M0,-3.0v7 M-2.5,-0.5L0,-3.0L2.5,-0.5"/>
  </g>
  <g id="arrowLeft" transform="rotate(270) translate(-36 17)">
    <use xlink:href="#rim"/>
    <path pointer-events="none" fill="none" stroke="white" stroke-width="1.5" d="M0,-3.0v7 M-2.5,-0.5L0,-3.0L2.5,-0.5"/>
  </g>
  <g id="resetDef">
    <use xlink:href="#rim2" fill="#404040"><set attributeName="fill" to="#808080" begin="reset.mouseover" end="reset.mouseout"/></use>
  </g>
</defs>
<script type="application/ecmascript">
var viewWidth = 613;
var viewHeight = 440;
var sectionId = 'dynsection-0';
</script>
<script type="application/ecmascript" xlink:href="svg.min.js"/>
<svg id="graph" class="graph">
<g id="viewport">
<title>GalacticShrine.Interface.Configuration.ClonableInterface&lt; T &gt;</title>
<!-- Node1 -->
<g id="Node000001" class="node">
<title>Node1</title>
<g id="a_Node000001"><a xlink:title="[FR] Crée une copie en profondeur du type T , c&#39;est&#45;à&#45;dire que tous les types de référence sont égale...">
<polygon fill="#999999" stroke="#666666" points="176.5,-232 0,-232 0,-200 176.5,-200 176.5,-232"/>
<text text-anchor="start" x="8" y="-218.5" font-family="Helvetica,sans-Serif" font-size="10.00">GalacticShrine.Interface.</text>
<text text-anchor="middle" x="88.25" y="-206.5" font-family="Helvetica,sans-Serif" font-size="10.00">Configuration.ClonableInterface&lt; T &gt;</text>
</a>
</g>
</g>
<!-- Node2 -->
<g id="Node000002" class="node">
<title>Node2</title>
<g id="a_Node000002"><a xlink:href="class_galactic_shrine_1_1_configuration_1_1_configuration_1_1_analyseur_ini.html" target="_top" xlink:title=" ">
<polygon fill="white" stroke="#666666" points="373.25,-432 229.75,-432 229.75,-400 373.25,-400 373.25,-432"/>
<text text-anchor="start" x="237.75" y="-418.5" font-family="Helvetica,sans-Serif" font-size="10.00">GalacticShrine.Configuration.</text>
<text text-anchor="middle" x="301.5" y="-406.5" font-family="Helvetica,sans-Serif" font-size="10.00">Configuration.AnalyseurIni</text>
</a>
</g>
</g>
<!-- Node1&#45;&gt;Node2 -->
<g id="edge1_Node000001_Node000002" class="edge">
<title>Node1&#45;&gt;Node2</title>
<g id="a_edge1_Node000001_Node000002"><a xlink:title=" ">
<path fill="none" stroke="#63b8ff" d="M100.9,-242.74C119.08,-281.34 157.88,-352.25 212.5,-391 217.68,-394.68 223.39,-397.81 229.34,-400.49"/>
<polygon fill="#63b8ff" stroke="#63b8ff" points="104.1,-241.33 96.75,-233.7 97.74,-244.25 104.1,-241.33"/>
</a>
</g>
</g>
<!-- Node3 -->
<g id="Node000003" class="node">
<title>Node3</title>
<g id="a_Node000003"><a xlink:title=" ">
<polygon fill="white" stroke="#666666" points="373.25,-382 229.75,-382 229.75,-350 373.25,-350 373.25,-382"/>
<text text-anchor="start" x="237.75" y="-368.5" font-family="Helvetica,sans-Serif" font-size="10.00">GalacticShrine.Configuration.</text>
<text text-anchor="middle" x="301.5" y="-356.5" font-family="Helvetica,sans-Serif" font-size="10.00">Configuration.FormatageIni</text>
</a>
</g>
</g>
<!-- Node1&#45;&gt;Node3 -->
<g id="edge2_Node000001_Node000003" class="edge">
<title>Node1&#45;&gt;Node3</title>
<g id="a_edge2_Node000001_Node000003"><a xlink:title=" ">
<path fill="none" stroke="#63b8ff" d="M107.66,-241.36C129.55,-269.72 168.68,-315.05 212.5,-341 217.97,-344.24 223.87,-347.07 229.95,-349.55"/>
<polygon fill="#63b8ff" stroke="#63b8ff" points="110.65,-239.52 101.83,-233.66 105.07,-243.74 110.65,-239.52"/>
</a>
</g>
</g>
<!-- Node4 -->
<g id="Node000004" class="node">
<title>Node4</title>
<g id="a_Node000004"><a xlink:href="class_galactic_shrine_1_1_configuration_1_1_configuration_1_1_schema_ini.html" target="_top" xlink:title="[FR] Cette structure définit le format du fichier INI en personnalisant les caractères utilisés &#160;pour...">
<polygon fill="white" stroke="#666666" points="373.25,-332 229.75,-332 229.75,-300 373.25,-300 373.25,-332"/>
<text text-anchor="start" x="237.75" y="-318.5" font-family="Helvetica,sans-Serif" font-size="10.00">GalacticShrine.Configuration.</text>
<text text-anchor="middle" x="301.5" y="-306.5" font-family="Helvetica,sans-Serif" font-size="10.00">Configuration.SchemaIni</text>
</a>
</g>
</g>
<!-- Node1&#45;&gt;Node4 -->
<g id="edge3_Node000001_Node000004" class="edge">
<title>Node1&#45;&gt;Node4</title>
<g id="a_edge3_Node000001_Node000004"><a xlink:title=" ">
<path fill="none" stroke="#63b8ff" d="M121.22,-238.77C145.36,-255.13 179.82,-276.73 212.5,-291 219.63,-294.11 227.26,-296.95 234.93,-299.51"/>
<polygon fill="#63b8ff" stroke="#63b8ff" points="123.33,-235.98 113.11,-233.2 119.37,-241.75 123.33,-235.98"/>
</a>
</g>
</g>
<!-- Node5 -->
<g id="Node000005" class="node">
<title>Node5</title>
<g id="a_Node000005"><a xlink:href="class_galactic_shrine_1_1_configuration_1_1_donnees_ini.html" target="_top" xlink:title=" ">
<polygon fill="white" stroke="#666666" points="373.25,-282 229.75,-282 229.75,-250 373.25,-250 373.25,-282"/>
<text text-anchor="start" x="237.75" y="-268.5" font-family="Helvetica,sans-Serif" font-size="10.00">GalacticShrine.Configuration.</text>
<text text-anchor="middle" x="301.5" y="-256.5" font-family="Helvetica,sans-Serif" font-size="10.00">DonneesIni</text>
</a>
</g>
</g>
<!-- Node1&#45;&gt;Node5 -->
<g id="edge4_Node000001_Node000005" class="edge">
<title>Node1&#45;&gt;Node5</title>
<g id="a_edge4_Node000001_Node000005"><a xlink:title=" ">
<path fill="none" stroke="#63b8ff" d="M169.77,-235.06C189.94,-239.83 211.41,-244.91 230.99,-249.55"/>
<polygon fill="#63b8ff" stroke="#63b8ff" points="170.72,-231.69 160.19,-232.79 169.11,-238.5 170.72,-231.69"/>
</a>
</g>
</g>
<!-- Node7 -->
<g id="Node000007" class="node">
<title>Node7</title>
<g id="a_Node000007"><a xlink:href="class_galactic_shrine_1_1_configuration_1_1_securite_1_1_crypt.html" target="_top" xlink:title=" ">
<polygon fill="white" stroke="#666666" points="373.25,-232 229.75,-232 229.75,-200 373.25,-200 373.25,-232"/>
<text text-anchor="start" x="237.75" y="-218.5" font-family="Helvetica,sans-Serif" font-size="10.00">GalacticShrine.Configuration.</text>
<text text-anchor="middle" x="301.5" y="-206.5" font-family="Helvetica,sans-Serif" font-size="10.00">Securite.Crypt</text>
</a>
</g>
</g>
<!-- Node1&#45;&gt;Node7 -->
<g id="edge6_Node000001_Node000007" class="edge">
<title>Node1&#45;&gt;Node7</title>
<g id="a_edge6_Node000001_Node000007"><a xlink:title=" ">
<path fill="none" stroke="#63b8ff" d="M187.91,-216C201.95,-216 216.15,-216 229.53,-216"/>
<polygon fill="#63b8ff" stroke="#63b8ff" points="188.21,-212.5 178.21,-216 188.21,-219.5 188.21,-212.5"/>
</a>
</g>
</g>
<!-- Node8 -->
<g id="Node000008" class="node">
<title>Node8</title>
<g id="a_Node000008"><a xlink:href="class_galactic_shrine_1_1_modele_1_1_configuration_1_1_ini_1_1_propriete.html" target="_top" xlink:title="[FR] Informations associées à une propriété provenant d&#39;une Configuration INI. &#160;[EN] Information asso...">
<polygon fill="white" stroke="#666666" points="390.5,-182 212.5,-182 212.5,-150 390.5,-150 390.5,-182"/>
<text text-anchor="start" x="220.5" y="-168.5" font-family="Helvetica,sans-Serif" font-size="10.00">GalacticShrine.Modele.Configuration.</text>
<text text-anchor="middle" x="301.5" y="-156.5" font-family="Helvetica,sans-Serif" font-size="10.00">Ini.Propriete</text>
</a>
</g>
</g>
<!-- Node1&#45;&gt;Node8 -->
<g id="edge7_Node000001_Node000008" class="edge">
<title>Node1&#45;&gt;Node8</title>
<g id="a_edge7_Node000001_Node000008"><a xlink:title=" ">
<path fill="none" stroke="#63b8ff" d="M169.77,-196.94C189.94,-192.17 211.41,-187.09 230.99,-182.45"/>
<polygon fill="#63b8ff" stroke="#63b8ff" points="169.11,-193.5 160.19,-199.21 170.72,-200.31 169.11,-193.5"/>
</a>
</g>
</g>
<!-- Node9 -->
<g id="Node000009" class="node">
<title>Node9</title>
<g id="a_Node000009"><a xlink:href="class_galactic_shrine_1_1_modele_1_1_configuration_1_1_ini_1_1_propriete_collection.html" target="_top" xlink:title="[FR] Représente une collection de données de clé. &#160;[EN] Represents a collection of key data.">
<polygon fill="white" stroke="#666666" points="390.5,-132 212.5,-132 212.5,-100 390.5,-100 390.5,-132"/>
<text text-anchor="start" x="220.5" y="-118.5" font-family="Helvetica,sans-Serif" font-size="10.00">GalacticShrine.Modele.Configuration.</text>
<text text-anchor="middle" x="301.5" y="-106.5" font-family="Helvetica,sans-Serif" font-size="10.00">Ini.ProprieteCollection</text>
</a>
</g>
</g>
<!-- Node1&#45;&gt;Node9 -->
<g id="edge8_Node000001_Node000009" class="edge">
<title>Node1&#45;&gt;Node9</title>
<g id="a_edge8_Node000001_Node000009"><a xlink:title=" ">
<path fill="none" stroke="#63b8ff" d="M121.22,-193.23C145.36,-176.87 179.82,-155.27 212.5,-141 219.63,-137.89 227.26,-135.05 234.93,-132.49"/>
<polygon fill="#63b8ff" stroke="#63b8ff" points="119.37,-190.25 113.11,-198.8 123.33,-196.02 119.37,-190.25"/>
</a>
</g>
</g>
<!-- Node10 -->
<g id="Node000010" class="node">
<title>Node10</title>
<g id="a_Node000010"><a xlink:href="class_galactic_shrine_1_1_modele_1_1_configuration_1_1_ini_1_1_section.html" target="_top" xlink:title="[FR] Informations associées à une propriété provenant d&#39;une Configuration INI. &#160;[EN] Information asso...">
<polygon fill="white" stroke="#666666" points="390.5,-82 212.5,-82 212.5,-50 390.5,-50 390.5,-82"/>
<text text-anchor="start" x="220.5" y="-68.5" font-family="Helvetica,sans-Serif" font-size="10.00">GalacticShrine.Modele.Configuration.</text>
<text text-anchor="middle" x="301.5" y="-56.5" font-family="Helvetica,sans-Serif" font-size="10.00">Ini.Section</text>
</a>
</g>
</g>
<!-- Node1&#45;&gt;Node10 -->
<g id="edge9_Node000001_Node000010" class="edge">
<title>Node1&#45;&gt;Node10</title>
<g id="a_edge9_Node000001_Node000010"><a xlink:title=" ">
<path fill="none" stroke="#63b8ff" d="M107.66,-190.64C129.55,-162.28 168.68,-116.95 212.5,-91 217.97,-87.76 223.87,-84.93 229.95,-82.45"/>
<polygon fill="#63b8ff" stroke="#63b8ff" points="105.07,-188.26 101.83,-198.34 110.65,-192.48 105.07,-188.26"/>
</a>
</g>
</g>
<!-- Node11 -->
<g id="Node000011" class="node">
<title>Node11</title>
<g id="a_Node000011"><a xlink:href="class_galactic_shrine_1_1_modele_1_1_configuration_1_1_ini_1_1_section_collection.html" target="_top" xlink:title=" ">
<polygon fill="white" stroke="#666666" points="390.5,-32 212.5,-32 212.5,0 390.5,0 390.5,-32"/>
<text text-anchor="start" x="220.5" y="-18.5" font-family="Helvetica,sans-Serif" font-size="10.00">GalacticShrine.Modele.Configuration.</text>
<text text-anchor="middle" x="301.5" y="-6.5" font-family="Helvetica,sans-Serif" font-size="10.00">Ini.SectionCollection</text>
</a>
</g>
</g>
<!-- Node1&#45;&gt;Node11 -->
<g id="edge10_Node000001_Node000011" class="edge">
<title>Node1&#45;&gt;Node11</title>
<g id="a_edge10_Node000001_Node000011"><a xlink:title=" ">
<path fill="none" stroke="#63b8ff" d="M100.9,-189.26C119.08,-150.66 157.88,-79.75 212.5,-41 217.16,-37.69 222.26,-34.82 227.56,-32.33"/>
<polygon fill="#63b8ff" stroke="#63b8ff" points="97.74,-187.75 96.75,-198.3 104.1,-190.67 97.74,-187.75"/>
</a>
</g>
</g>
<!-- Node6 -->
<g id="Node000006" class="node">
<title>Node6</title>
<g id="a_Node000006"><a xlink:href="class_galactic_shrine_1_1_modele_1_1_configuration_1_1_ini_1_1_donnees_ini_insensible_a___la_casse.html" target="_top" xlink:title="[FR] Représente toutes les données d&#39;un fichier INI exactement comme la classe GalacticShrine....">
<polygon fill="white" stroke="#666666" points="604.5,-282 426.5,-282 426.5,-250 604.5,-250 604.5,-282"/>
<text text-anchor="start" x="434.5" y="-268.5" font-family="Helvetica,sans-Serif" font-size="10.00">GalacticShrine.Modele.Configuration.</text>
<text text-anchor="middle" x="515.5" y="-256.5" font-family="Helvetica,sans-Serif" font-size="10.00">Ini.DonneesIniInsensibleA_LaCasse</text>
</a>
</g>
</g>
<!-- Node5&#45;&gt;Node6 -->
<g id="edge5_Node000005_Node000006" class="edge">
<title>Node5&#45;&gt;Node6</title>
<g id="a_edge5_Node000005_Node000006"><a xlink:title=" ">
<path fill="none" stroke="#63b8ff" d="M384.9,-266C398.44,-266 412.51,-266 426.18,-266"/>
<polygon fill="#63b8ff" stroke="#63b8ff" points="385.2,-262.5 375.2,-266 385.2,-269.5 385.2,-262.5"/>
</a>
</g>
</g>
</g>
</svg>

<g id="navigator" transform="translate(0 0)" fill="#404254">
  <rect fill="#f2f5e9" fill-opacity="0.5" stroke="#606060" stroke-width=".5" x="0" y="0" width="60" height="60"/>
  <use id="zoomplus" xlink:href="#zoomPlus" x="17" y="9" onmousedown="handleZoom(evt,'in')"/>
  <use id="zoomminus" xlink:href="#zoomMin" x="42" y="9" onmousedown="handleZoom(evt,'out')"/>
  <use id="reset" xlink:href="#resetDef" x="30" y="36" onmousedown="handleReset()"/>
   <use id="arrowup" xlink:href="#arrowUp" x="0" y="0" onmousedown="handlePan(0,-1)"/>
  <use id="arrowright" xlink:href="#arrowRight" x="0" y="0" onmousedown="handlePan(1,0)"/>
  <use id="arrowdown" xlink:href="#arrowDown" x="0" y="0" onmousedown="handlePan(0,1)"/>
  <use id="arrowleft" xlink:href="#arrowLeft" x="0" y="0" onmousedown="handlePan(-1,0)"/>
</g>
<svg viewBox="0 0 15 15" width="100%" height="30px" preserveAspectRatio="xMaxYMin meet">
 <g id="arrow_out" transform="scale(0.3 0.3)">
  <a xlink:href="interface_galactic_shrine_1_1_interface_1_1_configuration_1_1_clonable_interface-1-g__inherit__graph_org.svg" target="_base">
   <rect id="button" ry="5" rx="5" y="6" x="6" height="38" width="38"
        fill="#f2f5e9" fill-opacity="0.5" stroke="#606060" stroke-width="1.0"/>
   <path id="arrow"
     d="M 11.500037,31.436501 C 11.940474,20.09759 22.043105,11.32322 32.158766,21.979434 L 37.068811,17.246167 C 37.068811,17.246167 37.088388,32 37.088388,32 L 22.160133,31.978069 C 22.160133,31.978069 26.997745,27.140456 26.997745,27.140456 C 18.528582,18.264221 13.291696,25.230495 11.500037,31.436501 z"
     style="fill:#404040;"/>
  </a>
 </g>
</svg>

<style type='text/css'>
<![CDATA[
[data-mouse-over-selected='false'] { opacity: 0.7; }
[data-mouse-over-selected='true']  { opacity: 1.0; }
]]>
</style>
<script type="application/ecmascript"><![CDATA[
document.addEventListener('DOMContentLoaded', (event) => {
  highlightEdges();
  highlightAdjacentNodes();
});
]]></script>
</svg>
