<?xml version="1.0" encoding="UTF-8" standalone="no"?>
<!DOCTYPE svg PUBLIC "-//W3C//DTD SVG 1.1//EN"
 "http://www.w3.org/Graphics/SVG/1.1/DTD/svg11.dtd">
<!-- Generated by graphviz version 8.1.0 (20230707.0739)
 -->
<!-- Title: GalacticShrine.Configuration.Analyseur.TamponDeChaine.Plage.DeL_IndexA_LaTaille Pages: 1 -->
<svg width="962pt" height="176pt"
 viewBox="0.00 0.00 961.75 176.00" xmlns="http://www.w3.org/2000/svg" xmlns:xlink="http://www.w3.org/1999/xlink">
<g id="graph0" class="graph" transform="scale(1 1) rotate(0) translate(4 172)">
<title>GalacticShrine.Configuration.Analyseur.TamponDeChaine.Plage.DeL_IndexA_LaTaille</title>
<!-- Node1 -->
<g id="Node000001" class="node">
<title>Node1</title>
<g id="a_Node000001"><a xlink:title=" ">
<polygon fill="#999999" stroke="#666666" points="953.75,-106 772,-106 772,-62 953.75,-62 953.75,-106"/>
<text text-anchor="start" x="780" y="-92.5" font-family="Helvetica,sans-Serif" font-size="10.00">GalacticShrine.Configuration.</text>
<text text-anchor="start" x="780" y="-80.5" font-family="Helvetica,sans-Serif" font-size="10.00">Analyseur.TamponDeChaine.Plage.De</text>
<text text-anchor="middle" x="862.88" y="-68.5" font-family="Helvetica,sans-Serif" font-size="10.00">L_IndexA_LaTaille</text>
</a>
</g>
</g>
<!-- Node2 -->
<g id="Node000002" class="node">
<title>Node2</title>
<g id="a_Node000002"><a xlink:href="class_galactic_shrine_1_1_configuration_1_1_analyseur_1_1_tampon_de_chaine.html#aa1784d12ea6aefb26d219e9010a90653" target="_top" xlink:title=" ">
<polygon fill="white" stroke="#666666" points="736,-168 534,-168 534,-124 736,-124 736,-168"/>
<text text-anchor="start" x="542" y="-154.5" font-family="Helvetica,sans-Serif" font-size="10.00">GalacticShrine.Configuration.</text>
<text text-anchor="start" x="542" y="-142.5" font-family="Helvetica,sans-Serif" font-size="10.00">Analyseur.TamponDeChaine.Changements</text>
<text text-anchor="middle" x="635" y="-130.5" font-family="Helvetica,sans-Serif" font-size="10.00">DansLesRejets</text>
</a>
</g>
</g>
<!-- Node1&#45;&gt;Node2 -->
<g id="edge1_Node000001_Node000002" class="edge">
<title>Node1&#45;&gt;Node2</title>
<g id="a_edge1_Node000001_Node000002"><a xlink:title=" ">
<path fill="none" stroke="#63b8ff" d="M769.48,-109.36C752.41,-114.05 734.7,-118.91 717.97,-123.5"/>
<polygon fill="#63b8ff" stroke="#63b8ff" points="770.29,-112.49 779.01,-106.47 768.44,-105.74 770.29,-112.49"/>
</a>
</g>
</g>
<!-- Node7 -->
<g id="Node000007" class="node">
<title>Node7</title>
<g id="a_Node000007"><a xlink:href="class_galactic_shrine_1_1_configuration_1_1_analyseur_1_1_tampon_de_chaine.html#aa46cf6519596b079db685dab1a7f0b74" target="_top" xlink:title=" ">
<polygon fill="white" stroke="#666666" points="723.62,-44 546.38,-44 546.38,0 723.62,0 723.62,-44"/>
<text text-anchor="start" x="554.38" y="-30.5" font-family="Helvetica,sans-Serif" font-size="10.00">GalacticShrine.Configuration.</text>
<text text-anchor="start" x="554.38" y="-18.5" font-family="Helvetica,sans-Serif" font-size="10.00">Analyseur.TamponDeChaine.LigneDe</text>
<text text-anchor="middle" x="635" y="-6.5" font-family="Helvetica,sans-Serif" font-size="10.00">Lecture</text>
</a>
</g>
</g>
<!-- Node1&#45;&gt;Node7 -->
<g id="edge8_Node000001_Node000007" class="edge">
<title>Node1&#45;&gt;Node7</title>
<g id="a_edge8_Node000001_Node000007"><a xlink:title=" ">
<path fill="none" stroke="#63b8ff" d="M769.48,-58.64C752.41,-53.95 734.7,-49.09 717.97,-44.5"/>
<polygon fill="#63b8ff" stroke="#63b8ff" points="768.44,-62.26 779.01,-61.53 770.29,-55.51 768.44,-62.26"/>
</a>
</g>
</g>
<!-- Node8 -->
<g id="Node000008" class="node">
<title>Node8</title>
<g id="a_Node000008"><a xlink:href="class_galactic_shrine_1_1_configuration_1_1_analyseur_1_1_tampon_de_chaine.html#afa88b78cbdf391a2bdb3128d611760b6" target="_top" xlink:title=" ">
<polygon fill="white" stroke="#666666" points="721.38,-106 548.62,-106 548.62,-62 721.38,-62 721.38,-106"/>
<text text-anchor="start" x="556.62" y="-92.5" font-family="Helvetica,sans-Serif" font-size="10.00">GalacticShrine.Configuration.</text>
<text text-anchor="start" x="556.62" y="-80.5" font-family="Helvetica,sans-Serif" font-size="10.00">Analyseur.TamponDeChaine.Trouver</text>
<text text-anchor="middle" x="635" y="-68.5" font-family="Helvetica,sans-Serif" font-size="10.00">SousChaine</text>
</a>
</g>
</g>
<!-- Node1&#45;&gt;Node8 -->
<g id="edge9_Node000001_Node000008" class="edge">
<title>Node1&#45;&gt;Node8</title>
<g id="a_edge9_Node000001_Node000008"><a xlink:title=" ">
<path fill="none" stroke="#63b8ff" d="M760.74,-84C747.7,-84 734.45,-84 721.7,-84"/>
<polygon fill="#63b8ff" stroke="#63b8ff" points="760.63,-87.5 770.63,-84 760.63,-80.5 760.63,-87.5"/>
</a>
</g>
</g>
<!-- Node3 -->
<g id="Node000003" class="node">
<title>Node3</title>
<g id="a_Node000003"><a xlink:href="class_galactic_shrine_1_1_configuration_1_1_ini.html#ab6c8c10782835b28847a24c919e2ad6c" target="_top" xlink:title="[FR] Traite une ligne et analyse les données qui s&#39;y trouvent (section ou paire clé/valeur avec ou sa...">
<polygon fill="white" stroke="#666666" points="320,-150 178,-150 178,-118 320,-118 320,-150"/>
<text text-anchor="start" x="186" y="-136.5" font-family="Helvetica,sans-Serif" font-size="10.00">GalacticShrine.Configuration.</text>
<text text-anchor="middle" x="249" y="-124.5" font-family="Helvetica,sans-Serif" font-size="10.00">Ini.LigneDeProcessus</text>
</a>
</g>
</g>
<!-- Node2&#45;&gt;Node3 -->
<g id="edge2_Node000002_Node000003" class="edge">
<title>Node2&#45;&gt;Node3</title>
<g id="a_edge2_Node000002_Node000003"><a xlink:title=" ">
<path fill="none" stroke="#63b8ff" d="M522.96,-159.42C471.97,-163.48 410.78,-165.37 356,-159 340.6,-157.21 324.19,-154 309,-150.47"/>
<polygon fill="#63b8ff" stroke="#63b8ff" points="523.01,-162.85 532.69,-158.53 522.43,-155.87 523.01,-162.85"/>
</a>
</g>
</g>
<!-- Node5 -->
<g id="Node000005" class="node">
<title>Node5</title>
<g id="a_Node000005"><a xlink:href="class_galactic_shrine_1_1_configuration_1_1_ini.html#ac949b568fd2371b7546137b7092651dc" target="_top" xlink:title=" ">
<polygon fill="white" stroke="#666666" points="498,-100 356,-100 356,-68 498,-68 498,-100"/>
<text text-anchor="start" x="364" y="-86.5" font-family="Helvetica,sans-Serif" font-size="10.00">GalacticShrine.Configuration.</text>
<text text-anchor="middle" x="427" y="-74.5" font-family="Helvetica,sans-Serif" font-size="10.00">Ini.ProprieteDeProcessus</text>
</a>
</g>
</g>
<!-- Node2&#45;&gt;Node5 -->
<g id="edge4_Node000002_Node000005" class="edge">
<title>Node2&#45;&gt;Node5</title>
<g id="a_edge4_Node000002_Node000005"><a xlink:title=" ">
<path fill="none" stroke="#63b8ff" d="M548.83,-120.37C526.48,-113.64 502.98,-106.57 482.71,-100.47"/>
<polygon fill="#63b8ff" stroke="#63b8ff" points="547.75,-124 558.34,-123.53 549.77,-117.3 547.75,-124"/>
</a>
</g>
</g>
<!-- Node6 -->
<g id="Node000006" class="node">
<title>Node6</title>
<g id="a_Node000006"><a xlink:href="class_galactic_shrine_1_1_configuration_1_1_ini.html#a23f514b3f12d239e58c39e45cd133d51" target="_top" xlink:title="[FR] Traite une chaîne de caractères contenant une section ini. &#160;[EN] Processes a string containing a...">
<polygon fill="white" stroke="#666666" points="498,-150 356,-150 356,-118 498,-118 498,-150"/>
<text text-anchor="start" x="364" y="-136.5" font-family="Helvetica,sans-Serif" font-size="10.00">GalacticShrine.Configuration.</text>
<text text-anchor="middle" x="427" y="-124.5" font-family="Helvetica,sans-Serif" font-size="10.00">Ini.SectionDeProcessus</text>
</a>
</g>
</g>
<!-- Node2&#45;&gt;Node6 -->
<g id="edge6_Node000002_Node000006" class="edge">
<title>Node2&#45;&gt;Node6</title>
<g id="a_edge6_Node000002_Node000006"><a xlink:title=" ">
<path fill="none" stroke="#63b8ff" d="M522.78,-139.52C514.47,-139.04 506.24,-138.56 498.3,-138.1"/>
<polygon fill="#63b8ff" stroke="#63b8ff" points="522.53,-143.07 532.72,-140.16 522.94,-136.08 522.53,-143.07"/>
</a>
</g>
</g>
<!-- Node4 -->
<g id="Node000004" class="node">
<title>Node4</title>
<g id="a_Node000004"><a xlink:href="class_galactic_shrine_1_1_configuration_1_1_ini.html#ac15c07bfff5ae1ddc1dc255904aa5f70" target="_top" xlink:title="[FR] Analyse une chaîne contenant des données ini valides. &#160;[EN] Parses a string containing valid ini...">
<polygon fill="white" stroke="#666666" points="142,-150 0,-150 0,-118 142,-118 142,-150"/>
<text text-anchor="start" x="8" y="-136.5" font-family="Helvetica,sans-Serif" font-size="10.00">GalacticShrine.Configuration.</text>
<text text-anchor="middle" x="71" y="-124.5" font-family="Helvetica,sans-Serif" font-size="10.00">Ini.Analyse</text>
</a>
</g>
</g>
<!-- Node3&#45;&gt;Node4 -->
<g id="edge3_Node000003_Node000004" class="edge">
<title>Node3&#45;&gt;Node4</title>
<g id="a_edge3_Node000003_Node000004"><a xlink:title=" ">
<path fill="none" stroke="#63b8ff" d="M166.72,-134C158.63,-134 150.46,-134 142.49,-134"/>
<polygon fill="#63b8ff" stroke="#63b8ff" points="166.68,-137.5 176.68,-134 166.68,-130.5 166.68,-137.5"/>
</a>
</g>
</g>
<!-- Node5&#45;&gt;Node3 -->
<g id="edge5_Node000005_Node000003" class="edge">
<title>Node5&#45;&gt;Node3</title>
<g id="a_edge5_Node000005_Node000003"><a xlink:title=" ">
<path fill="none" stroke="#63b8ff" d="M358.22,-103.26C341.67,-107.96 324.11,-112.95 308.06,-117.51"/>
<polygon fill="#63b8ff" stroke="#63b8ff" points="358.71,-106.47 367.37,-100.37 356.8,-99.74 358.71,-106.47"/>
</a>
</g>
</g>
<!-- Node6&#45;&gt;Node3 -->
<g id="edge7_Node000006_Node000003" class="edge">
<title>Node6&#45;&gt;Node3</title>
<g id="a_edge7_Node000006_Node000003"><a xlink:title=" ">
<path fill="none" stroke="#63b8ff" d="M344.72,-134C336.63,-134 328.46,-134 320.49,-134"/>
<polygon fill="#63b8ff" stroke="#63b8ff" points="344.68,-137.5 354.68,-134 344.68,-130.5 344.68,-137.5"/>
</a>
</g>
</g>
<!-- Node8&#45;&gt;Node5 -->
<g id="edge10_Node000008_Node000005" class="edge">
<title>Node8&#45;&gt;Node5</title>
<g id="a_edge10_Node000008_Node000005"><a xlink:title=" ">
<path fill="none" stroke="#63b8ff" d="M537.19,-84C524.11,-84 510.9,-84 498.4,-84"/>
<polygon fill="#63b8ff" stroke="#63b8ff" points="537.13,-87.5 547.13,-84 537.13,-80.5 537.13,-87.5"/>
</a>
</g>
</g>
<!-- Node8&#45;&gt;Node6 -->
<g id="edge11_Node000008_Node000006" class="edge">
<title>Node8&#45;&gt;Node6</title>
<g id="a_edge11_Node000008_Node000006"><a xlink:title=" ">
<path fill="none" stroke="#63b8ff" d="M537.85,-107.34C523.66,-110.78 509.3,-114.27 495.85,-117.53"/>
<polygon fill="#63b8ff" stroke="#63b8ff" points="538.24,-110.6 547.13,-104.84 536.59,-103.8 538.24,-110.6"/>
</a>
</g>
</g>
</g>
</svg>
