<?xml version="1.0" encoding="UTF-8" standalone="no"?>
<!DOCTYPE svg PUBLIC "-//W3C//DTD SVG 1.1//EN"
 "http://www.w3.org/Graphics/SVG/1.1/DTD/svg11.dtd">
<!-- Generated by graphviz version 12.2.0 (20241103.1931)
 -->
<!-- Title: GalacticShrine.Configuration.Analyseur.TamponDeChaine.Plage.DeL_IndexA_LaTaille Pages: 1 -->
<svg width="971pt" height="214pt"
 viewBox="0.00 0.00 970.75 214.00" xmlns="http://www.w3.org/2000/svg" xmlns:xlink="http://www.w3.org/1999/xlink">
<g id="graph0" class="graph" transform="scale(1 1) rotate(0) translate(4 210)">
<title>GalacticShrine.Configuration.Analyseur.TamponDeChaine.Plage.DeL_IndexA_LaTaille</title>
<!-- Node1 -->
<g id="Node000001" class="node">
<title>Node1</title>
<g id="a_Node000001"><a xlink:title=" ">
<polygon fill="#999999" stroke="#666666" points="962.75,-119 778.75,-119 778.75,-75 962.75,-75 962.75,-119"/>
<text text-anchor="start" x="786.75" y="-105.5" font-family="Helvetica,sans-Serif" font-size="10.00">GalacticShrine.Configuration.</text>
<text text-anchor="start" x="786.75" y="-93.5" font-family="Helvetica,sans-Serif" font-size="10.00">Analyseur.TamponDeChaine.Plage.De</text>
<text text-anchor="middle" x="870.75" y="-81.5" font-family="Helvetica,sans-Serif" font-size="10.00">L_IndexA_LaTaille</text>
</a>
</g>
</g>
<!-- Node2 -->
<g id="Node000002" class="node">
<title>Node2</title>
<g id="a_Node000002"><a xlink:href="../../dd/da8/class_galactic_shrine_1_1_configuration_1_1_analyseur_1_1_tampon_de_chaine.html#aa1784d12ea6aefb26d219e9010a90653" target="_top" xlink:title=" ">
<polygon fill="white" stroke="#666666" points="742.75,-206 538.5,-206 538.5,-162 742.75,-162 742.75,-206"/>
<text text-anchor="start" x="546.5" y="-192.5" font-family="Helvetica,sans-Serif" font-size="10.00">GalacticShrine.Configuration.</text>
<text text-anchor="start" x="546.5" y="-180.5" font-family="Helvetica,sans-Serif" font-size="10.00">Analyseur.TamponDeChaine.Changements</text>
<text text-anchor="middle" x="640.62" y="-168.5" font-family="Helvetica,sans-Serif" font-size="10.00">DansLesRejets</text>
</a>
</g>
</g>
<!-- Node1&#45;&gt;Node2 -->
<g id="edge1_Node000001_Node000002" class="edge">
<title>Node1&#45;&gt;Node2</title>
<g id="a_edge1_Node000001_Node000002"><a xlink:title=" ">
<path fill="none" stroke="#63b8ff" d="M812.07,-124.15C790.55,-133.83 765.75,-144.44 742.75,-153 734.92,-155.91 726.68,-158.77 718.42,-161.5"/>
<polygon fill="#63b8ff" stroke="#63b8ff" points="813.31,-127.43 820.98,-120.11 810.42,-121.06 813.31,-127.43"/>
</a>
</g>
</g>
<!-- Node5 -->
<g id="Node000005" class="node">
<title>Node5</title>
<g id="a_Node000005"><a xlink:href="../../dd/da8/class_galactic_shrine_1_1_configuration_1_1_ini.html#ac949b568fd2371b7546137b7092651dc" target="_top" xlink:title=" ">
<polygon fill="white" stroke="#666666" points="502.5,-122 359,-122 359,-90 502.5,-90 502.5,-122"/>
<text text-anchor="start" x="367" y="-108.5" font-family="Helvetica,sans-Serif" font-size="10.00">GalacticShrine.Configuration.</text>
<text text-anchor="middle" x="430.75" y="-96.5" font-family="Helvetica,sans-Serif" font-size="10.00">Ini.ProprieteDeProcessus</text>
</a>
</g>
</g>
<!-- Node1&#45;&gt;Node5 -->
<g id="edge9_Node000001_Node000005" class="edge">
<title>Node1&#45;&gt;Node5</title>
<g id="a_edge9_Node000001_Node000005"><a xlink:title=" ">
<path fill="none" stroke="#63b8ff" d="M767.45,-90.52C701.92,-87.51 615.11,-85.64 538.5,-91 526.92,-91.81 514.7,-93.11 502.81,-94.61"/>
<polygon fill="#63b8ff" stroke="#63b8ff" points="766.93,-94 777.09,-90.98 767.27,-87 766.93,-94"/>
</a>
</g>
</g>
<!-- Node7 -->
<g id="Node000007" class="node">
<title>Node7</title>
<g id="a_Node000007"><a xlink:href="../../dd/da8/class_galactic_shrine_1_1_configuration_1_1_analyseur_1_1_tampon_de_chaine.html#aa46cf6519596b079db685dab1a7f0b74" target="_top" xlink:title=" ">
<polygon fill="white" stroke="#666666" points="730.38,-44 550.88,-44 550.88,0 730.38,0 730.38,-44"/>
<text text-anchor="start" x="558.88" y="-30.5" font-family="Helvetica,sans-Serif" font-size="10.00">GalacticShrine.Configuration.</text>
<text text-anchor="start" x="558.88" y="-18.5" font-family="Helvetica,sans-Serif" font-size="10.00">Analyseur.TamponDeChaine.LigneDe</text>
<text text-anchor="middle" x="640.62" y="-6.5" font-family="Helvetica,sans-Serif" font-size="10.00">Lecture</text>
</a>
</g>
</g>
<!-- Node1&#45;&gt;Node7 -->
<g id="edge8_Node000001_Node000007" class="edge">
<title>Node1&#45;&gt;Node7</title>
<g id="a_edge8_Node000001_Node000007"><a xlink:title=" ">
<path fill="none" stroke="#63b8ff" d="M790.88,-71.07C764.49,-62.39 735.31,-52.8 709.8,-44.41"/>
<polygon fill="#63b8ff" stroke="#63b8ff" points="789.58,-74.33 800.18,-74.13 791.77,-67.68 789.58,-74.33"/>
</a>
</g>
</g>
<!-- Node8 -->
<g id="Node000008" class="node">
<title>Node8</title>
<g id="a_Node000008"><a xlink:href="../../dd/da8/class_galactic_shrine_1_1_configuration_1_1_analyseur_1_1_tampon_de_chaine.html#afa88b78cbdf391a2bdb3128d611760b6" target="_top" xlink:title=" ">
<polygon fill="white" stroke="#666666" points="728.88,-144 552.38,-144 552.38,-100 728.88,-100 728.88,-144"/>
<text text-anchor="start" x="560.38" y="-130.5" font-family="Helvetica,sans-Serif" font-size="10.00">GalacticShrine.Configuration.</text>
<text text-anchor="start" x="560.38" y="-118.5" font-family="Helvetica,sans-Serif" font-size="10.00">Analyseur.TamponDeChaine.Trouver</text>
<text text-anchor="middle" x="640.62" y="-106.5" font-family="Helvetica,sans-Serif" font-size="10.00">SousChaine</text>
</a>
</g>
</g>
<!-- Node1&#45;&gt;Node8 -->
<g id="edge10_Node000001_Node000008" class="edge">
<title>Node1&#45;&gt;Node8</title>
<g id="a_edge10_Node000001_Node000008"><a xlink:title=" ">
<path fill="none" stroke="#63b8ff" d="M767.16,-108.24C754.43,-109.64 741.51,-111.05 729.04,-112.42"/>
<polygon fill="#63b8ff" stroke="#63b8ff" points="767.21,-111.76 776.77,-107.19 766.45,-104.8 767.21,-111.76"/>
</a>
</g>
</g>
<!-- Node3 -->
<g id="Node000003" class="node">
<title>Node3</title>
<g id="a_Node000003"><a xlink:href="../../dd/da8/class_galactic_shrine_1_1_configuration_1_1_ini.html#ab6c8c10782835b28847a24c919e2ad6c" target="_top" xlink:title="[FR] Traite une ligne et analyse les données qui s&#39;y trouvent (section ou paire clé/valeur avec ou sa...">
<polygon fill="white" stroke="#666666" points="323,-172 179.5,-172 179.5,-140 323,-140 323,-172"/>
<text text-anchor="start" x="187.5" y="-158.5" font-family="Helvetica,sans-Serif" font-size="10.00">GalacticShrine.Configuration.</text>
<text text-anchor="middle" x="251.25" y="-146.5" font-family="Helvetica,sans-Serif" font-size="10.00">Ini.LigneDeProcessus</text>
</a>
</g>
</g>
<!-- Node2&#45;&gt;Node3 -->
<g id="edge2_Node000002_Node000003" class="edge">
<title>Node2&#45;&gt;Node3</title>
<g id="a_edge2_Node000002_Node000003"><a xlink:title=" ">
<path fill="none" stroke="#63b8ff" d="M526.81,-188.42C475.45,-188.99 413.97,-187.65 359,-181 343.69,-179.15 327.39,-175.97 312.24,-172.48"/>
<polygon fill="#63b8ff" stroke="#63b8ff" points="526.82,-191.92 536.77,-188.28 526.73,-184.92 526.82,-191.92"/>
</a>
</g>
</g>
<!-- Node2&#45;&gt;Node5 -->
<g id="edge4_Node000002_Node000005" class="edge">
<title>Node2&#45;&gt;Node5</title>
<g id="a_edge4_Node000002_Node000005"><a xlink:title=" ">
<path fill="none" stroke="#63b8ff" d="M549.26,-157.57C545.6,-156.1 542,-154.57 538.5,-153 521.4,-145.3 519.43,-139.06 502.5,-131 496.15,-127.98 489.33,-125.12 482.52,-122.49"/>
<polygon fill="#63b8ff" stroke="#63b8ff" points="547.7,-160.72 558.3,-161.03 550.21,-154.19 547.7,-160.72"/>
</a>
</g>
</g>
<!-- Node6 -->
<g id="Node000006" class="node">
<title>Node6</title>
<g id="a_Node000006"><a xlink:href="../../dd/da8/class_galactic_shrine_1_1_configuration_1_1_ini.html#a23f514b3f12d239e58c39e45cd133d51" target="_top" xlink:title="[FR] Traite une chaîne de caractères contenant une section ini. &#160;[EN] Processes a string containing a...">
<polygon fill="white" stroke="#666666" points="502.5,-172 359,-172 359,-140 502.5,-140 502.5,-172"/>
<text text-anchor="start" x="367" y="-158.5" font-family="Helvetica,sans-Serif" font-size="10.00">GalacticShrine.Configuration.</text>
<text text-anchor="middle" x="430.75" y="-146.5" font-family="Helvetica,sans-Serif" font-size="10.00">Ini.SectionDeProcessus</text>
</a>
</g>
</g>
<!-- Node2&#45;&gt;Node6 -->
<g id="edge6_Node000002_Node000006" class="edge">
<title>Node2&#45;&gt;Node6</title>
<g id="a_edge6_Node000002_Node000006"><a xlink:title=" ">
<path fill="none" stroke="#63b8ff" d="M526.92,-168.82C518.73,-167.72 510.6,-166.62 502.76,-165.57"/>
<polygon fill="#63b8ff" stroke="#63b8ff" points="526.25,-172.26 536.62,-170.13 527.18,-165.32 526.25,-172.26"/>
</a>
</g>
</g>
<!-- Node4 -->
<g id="Node000004" class="node">
<title>Node4</title>
<g id="a_Node000004"><a xlink:href="../../dd/da8/class_galactic_shrine_1_1_configuration_1_1_ini.html#ac15c07bfff5ae1ddc1dc255904aa5f70" target="_top" xlink:title="[FR] Analyse une chaîne contenant des données ini valides. &#160;[EN] Parses a string containing valid ini...">
<polygon fill="white" stroke="#666666" points="143.5,-172 0,-172 0,-140 143.5,-140 143.5,-172"/>
<text text-anchor="start" x="8" y="-158.5" font-family="Helvetica,sans-Serif" font-size="10.00">GalacticShrine.Configuration.</text>
<text text-anchor="middle" x="71.75" y="-146.5" font-family="Helvetica,sans-Serif" font-size="10.00">Ini.Analyse</text>
</a>
</g>
</g>
<!-- Node3&#45;&gt;Node4 -->
<g id="edge3_Node000003_Node000004" class="edge">
<title>Node3&#45;&gt;Node4</title>
<g id="a_edge3_Node000003_Node000004"><a xlink:title=" ">
<path fill="none" stroke="#63b8ff" d="M167.58,-156C159.68,-156 151.72,-156 143.94,-156"/>
<polygon fill="#63b8ff" stroke="#63b8ff" points="167.56,-159.5 177.56,-156 167.56,-152.5 167.56,-159.5"/>
</a>
</g>
</g>
<!-- Node5&#45;&gt;Node3 -->
<g id="edge5_Node000005_Node000003" class="edge">
<title>Node5&#45;&gt;Node3</title>
<g id="a_edge5_Node000005_Node000003"><a xlink:title=" ">
<path fill="none" stroke="#63b8ff" d="M360.92,-125.39C344.37,-130.05 326.84,-134.99 310.8,-139.51"/>
<polygon fill="#63b8ff" stroke="#63b8ff" points="361.5,-128.86 370.17,-122.78 359.6,-122.12 361.5,-128.86"/>
</a>
</g>
</g>
<!-- Node6&#45;&gt;Node3 -->
<g id="edge7_Node000006_Node000003" class="edge">
<title>Node6&#45;&gt;Node3</title>
<g id="a_edge7_Node000006_Node000003"><a xlink:title=" ">
<path fill="none" stroke="#63b8ff" d="M347.08,-156C339.18,-156 331.22,-156 323.44,-156"/>
<polygon fill="#63b8ff" stroke="#63b8ff" points="347.06,-159.5 357.06,-156 347.06,-152.5 347.06,-159.5"/>
</a>
</g>
</g>
<!-- Node8&#45;&gt;Node5 -->
<g id="edge11_Node000008_Node000005" class="edge">
<title>Node8&#45;&gt;Node5</title>
<g id="a_edge11_Node000008_Node000005"><a xlink:title=" ">
<path fill="none" stroke="#63b8ff" d="M540.84,-114.4C528.01,-113.41 515.08,-112.41 502.82,-111.47"/>
<polygon fill="#63b8ff" stroke="#63b8ff" points="540.32,-117.87 550.56,-115.14 540.86,-110.89 540.32,-117.87"/>
</a>
</g>
</g>
<!-- Node8&#45;&gt;Node6 -->
<g id="edge12_Node000008_Node000006" class="edge">
<title>Node8&#45;&gt;Node6</title>
<g id="a_edge12_Node000008_Node000006"><a xlink:title=" ">
<path fill="none" stroke="#63b8ff" d="M540.84,-138.16C528.01,-140.26 515.08,-142.37 502.82,-144.38"/>
<polygon fill="#63b8ff" stroke="#63b8ff" points="541.27,-141.63 550.58,-136.56 540.14,-134.72 541.27,-141.63"/>
</a>
</g>
</g>
</g>
</svg>
