<?xml version="1.0" encoding="UTF-8" standalone="no"?>
<!DOCTYPE svg PUBLIC "-//W3C//DTD SVG 1.1//EN"
 "http://www.w3.org/Graphics/SVG/1.1/DTD/svg11.dtd">
<!-- Generated by graphviz version 12.2.0 (20241103.1931)
 -->
<!-- Title: GalacticShrine.DossierReference.DossierReference Pages: 1 -->
<svg width="420pt" height="816pt"
 viewBox="0.00 0.00 420.25 816.00" xmlns="http://www.w3.org/2000/svg" xmlns:xlink="http://www.w3.org/1999/xlink">
<g id="graph0" class="graph" transform="scale(1 1) rotate(0) translate(4 812)">
<title>GalacticShrine.DossierReference.DossierReference</title>
<!-- Node1 -->
<g id="Node000001" class="node">
<title>Node1</title>
<g id="a_Node000001"><a xlink:title="[FR] Constructeur par défaut. [EN] Default constructor.">
<polygon fill="#999999" stroke="#666666" points="412.25,-408 247.75,-408 247.75,-376 412.25,-376 412.25,-408"/>
<text text-anchor="start" x="255.75" y="-394.5" font-family="Helvetica,sans-Serif" font-size="10.00">GalacticShrine.DossierReference.</text>
<text text-anchor="middle" x="330" y="-382.5" font-family="Helvetica,sans-Serif" font-size="10.00">DossierReference</text>
</a>
</g>
</g>
<!-- Node2 -->
<g id="Node000002" class="node">
<title>Node2</title>
<g id="a_Node000002"><a xlink:href="../../dc/dbe/class_galactic_shrine_1_1_dossier_reference.html#a5a65f3ae81008c225632053b268cfa37" target="_top" xlink:title="[FR] Combine plusieurs fragments avec un répertoire de base pour former un nouveau nom de répertoire....">
<polygon fill="white" stroke="#666666" points="188.12,-808 23.62,-808 23.62,-776 188.12,-776 188.12,-808"/>
<text text-anchor="start" x="31.62" y="-794.5" font-family="Helvetica,sans-Serif" font-size="10.00">GalacticShrine.DossierReference.</text>
<text text-anchor="middle" x="105.88" y="-782.5" font-family="Helvetica,sans-Serif" font-size="10.00">Combiner</text>
</a>
</g>
</g>
<!-- Node1&#45;&gt;Node2 -->
<g id="edge1_Node000001_Node000002" class="edge">
<title>Node1&#45;&gt;Node2</title>
<g id="a_edge1_Node000001_Node000002"><a xlink:title=" ">
<path fill="none" stroke="#63b8ff" d="M329.06,-419.65C327.63,-489.04 313.84,-671.73 211.75,-767 205.04,-773.26 197.06,-778.04 188.54,-781.67"/>
<polygon fill="#63b8ff" stroke="#63b8ff" points="332.56,-419.98 329.18,-409.94 325.56,-419.9 332.56,-419.98"/>
</a>
</g>
</g>
<!-- Node3 -->
<g id="Node000003" class="node">
<title>Node3</title>
<g id="a_Node000003"><a xlink:href="../../dc/dbe/class_galactic_shrine_1_1_dossier_reference.html#aa3b70c305ebfc9152c461c7f635e0ee9" target="_top" xlink:title="[FR] Crée un répertoire. [EN] Creates a directory.">
<polygon fill="white" stroke="#666666" points="188.12,-758 23.62,-758 23.62,-726 188.12,-726 188.12,-758"/>
<text text-anchor="start" x="31.62" y="-744.5" font-family="Helvetica,sans-Serif" font-size="10.00">GalacticShrine.DossierReference.</text>
<text text-anchor="middle" x="105.88" y="-732.5" font-family="Helvetica,sans-Serif" font-size="10.00">Creer</text>
</a>
</g>
</g>
<!-- Node1&#45;&gt;Node3 -->
<g id="edge2_Node000001_Node000003" class="edge">
<title>Node1&#45;&gt;Node3</title>
<g id="a_edge2_Node000001_Node000003"><a xlink:title=" ">
<path fill="none" stroke="#63b8ff" d="M327.51,-419.79C322.58,-482.7 301.48,-636.81 211.75,-717 204.98,-723.05 197.01,-727.7 188.54,-731.27"/>
<polygon fill="#63b8ff" stroke="#63b8ff" points="330.99,-420.19 328.19,-409.98 324.01,-419.71 330.99,-420.19"/>
</a>
</g>
</g>
<!-- Node4 -->
<g id="Node000004" class="node">
<title>Node4</title>
<g id="a_Node000004"><a xlink:href="../../dc/dbe/class_galactic_shrine_1_1_dossier_reference.html#aa5bcd21c344c8d9507b9a6ce9515ec59" target="_top" xlink:title="[FR] Définit le répertoire de travail actuel. [EN] Sets the current directory.">
<polygon fill="white" stroke="#666666" points="188.12,-708 23.62,-708 23.62,-676 188.12,-676 188.12,-708"/>
<text text-anchor="start" x="31.62" y="-694.5" font-family="Helvetica,sans-Serif" font-size="10.00">GalacticShrine.DossierReference.</text>
<text text-anchor="middle" x="105.88" y="-682.5" font-family="Helvetica,sans-Serif" font-size="10.00">DefinirLeRepertoireActuel</text>
</a>
</g>
</g>
<!-- Node1&#45;&gt;Node4 -->
<g id="edge3_Node000001_Node000004" class="edge">
<title>Node1&#45;&gt;Node4</title>
<g id="a_edge3_Node000001_Node000004"><a xlink:title=" ">
<path fill="none" stroke="#63b8ff" d="M325.47,-419.68C316.84,-475.44 289.38,-601.5 211.75,-667 204.88,-672.79 196.9,-677.29 188.47,-680.78"/>
<polygon fill="#63b8ff" stroke="#63b8ff" points="328.93,-420.19 326.9,-409.79 322,-419.19 328.93,-420.19"/>
</a>
</g>
</g>
<!-- Node5 -->
<g id="Node000005" class="node">
<title>Node5</title>
<g id="a_Node000005"><a xlink:href="../../dc/dbe/class_galactic_shrine_1_1_dossier_reference.html#a9129130019ad5cc2b229c731a8620b74" target="_top" xlink:title="[FR] Énumère les fichiers d&#39;un répertoire donné correspondant à un modèle. [EN] Enumerates files from...">
<polygon fill="white" stroke="#666666" points="188.12,-658 23.62,-658 23.62,-626 188.12,-626 188.12,-658"/>
<text text-anchor="start" x="31.62" y="-644.5" font-family="Helvetica,sans-Serif" font-size="10.00">GalacticShrine.DossierReference.</text>
<text text-anchor="middle" x="105.88" y="-632.5" font-family="Helvetica,sans-Serif" font-size="10.00">FichiersEnumerer</text>
</a>
</g>
</g>
<!-- Node1&#45;&gt;Node5 -->
<g id="edge4_Node000001_Node000005" class="edge">
<title>Node1&#45;&gt;Node5</title>
<g id="a_edge4_Node000001_Node000005"><a xlink:title=" ">
<path fill="none" stroke="#63b8ff" d="M322.69,-419.31C310.18,-467.1 277.56,-565.69 211.75,-617 204.81,-622.41 196.89,-626.67 188.57,-630.03"/>
<polygon fill="#63b8ff" stroke="#63b8ff" points="326.04,-420.33 325.08,-409.78 319.25,-418.63 326.04,-420.33"/>
</a>
</g>
</g>
<!-- Node6 -->
<g id="Node000006" class="node">
<title>Node6</title>
<g id="a_Node000006"><a xlink:href="../../dc/dbe/class_galactic_shrine_1_1_dossier_reference.html#a0730a46c3f01ad3c02a5018958c0e520" target="_top" xlink:title="[FR] Énumère les fichiers d&#39;un répertoire donné correspondant à un modèle, avec une option de recherc...">
<polygon fill="white" stroke="#666666" points="188.12,-608 23.62,-608 23.62,-576 188.12,-576 188.12,-608"/>
<text text-anchor="start" x="31.62" y="-594.5" font-family="Helvetica,sans-Serif" font-size="10.00">GalacticShrine.DossierReference.</text>
<text text-anchor="middle" x="105.88" y="-582.5" font-family="Helvetica,sans-Serif" font-size="10.00">FichiersEnumerer</text>
</a>
</g>
</g>
<!-- Node1&#45;&gt;Node6 -->
<g id="edge5_Node000001_Node000006" class="edge">
<title>Node1&#45;&gt;Node6</title>
<g id="a_edge5_Node000001_Node000006"><a xlink:title=" ">
<path fill="none" stroke="#63b8ff" d="M318.61,-418.75C302.08,-457.65 266.01,-529.3 211.75,-567 204.68,-571.91 196.76,-575.87 188.53,-579.05"/>
<polygon fill="#63b8ff" stroke="#63b8ff" points="321.79,-420.23 322.36,-409.65 315.31,-417.56 321.79,-420.23"/>
</a>
</g>
</g>
<!-- Node7 -->
<g id="Node000007" class="node">
<title>Node7</title>
<g id="a_Node000007"><a xlink:href="../../dc/dbe/class_galactic_shrine_1_1_dossier_reference.html#a7978b8dac894861a49ca2b86b9091dd6" target="_top" xlink:title="[FR] Fonction d&#39;aide à la création d&#39;une référence de répertoire distant. Contrairement à un objet Do...">
<polygon fill="white" stroke="#666666" points="188.12,-558 23.62,-558 23.62,-526 188.12,-526 188.12,-558"/>
<text text-anchor="start" x="31.62" y="-544.5" font-family="Helvetica,sans-Serif" font-size="10.00">GalacticShrine.DossierReference.</text>
<text text-anchor="middle" x="105.88" y="-532.5" font-family="Helvetica,sans-Serif" font-size="10.00">MarquerADistance</text>
</a>
</g>
</g>
<!-- Node1&#45;&gt;Node7 -->
<g id="edge6_Node000001_Node000007" class="edge">
<title>Node1&#45;&gt;Node7</title>
<g id="a_edge6_Node000001_Node000007"><a xlink:title=" ">
<path fill="none" stroke="#63b8ff" d="M312.03,-417.64C291.65,-446.32 254.8,-492.02 211.75,-517 204.55,-521.18 196.68,-524.66 188.59,-527.56"/>
<polygon fill="#63b8ff" stroke="#63b8ff" points="314.84,-419.72 317.66,-409.51 309.09,-415.73 314.84,-419.72"/>
</a>
</g>
</g>
<!-- Node8 -->
<g id="Node000008" class="node">
<title>Node8</title>
<g id="a_Node000008"><a xlink:href="../../dc/dbe/class_galactic_shrine_1_1_dossier_reference.html#a355353c65210764d35fba3d3d0cf1b62" target="_top" xlink:title="[FR] Récupère le chemin d&#39;un dossier spécial. [EN] Gets the path for a special folder.">
<polygon fill="white" stroke="#666666" points="188.12,-508 23.62,-508 23.62,-476 188.12,-476 188.12,-508"/>
<text text-anchor="start" x="31.62" y="-494.5" font-family="Helvetica,sans-Serif" font-size="10.00">GalacticShrine.DossierReference.</text>
<text text-anchor="middle" x="105.88" y="-482.5" font-family="Helvetica,sans-Serif" font-size="10.00">ObtenirLeDossierSpecial</text>
</a>
</g>
</g>
<!-- Node1&#45;&gt;Node8 -->
<g id="edge7_Node000001_Node000008" class="edge">
<title>Node1&#45;&gt;Node8</title>
<g id="a_edge7_Node000001_Node000008"><a xlink:title=" ">
<path fill="none" stroke="#63b8ff" d="M299.04,-415.18C276.24,-431.79 243.47,-453.53 211.75,-467 204.17,-470.22 196.1,-473.07 187.92,-475.58"/>
<polygon fill="#63b8ff" stroke="#63b8ff" points="301.01,-418.08 306.96,-409.31 296.84,-412.45 301.01,-418.08"/>
</a>
</g>
</g>
<!-- Node9 -->
<g id="Node000009" class="node">
<title>Node9</title>
<g id="a_Node000009"><a xlink:href="../../dc/dbe/class_galactic_shrine_1_1_dossier_reference.html#a57be00912250e50daa61ee968cbb2680" target="_top" xlink:title="[FR] Obtient le nom du répertoire (dernier segment du chemin). [EN] Gets the directory name (last seg...">
<polygon fill="white" stroke="#666666" points="188.12,-458 23.62,-458 23.62,-426 188.12,-426 188.12,-458"/>
<text text-anchor="start" x="31.62" y="-444.5" font-family="Helvetica,sans-Serif" font-size="10.00">GalacticShrine.DossierReference.</text>
<text text-anchor="middle" x="105.88" y="-432.5" font-family="Helvetica,sans-Serif" font-size="10.00">ObtenirLeNomDuRepertoire</text>
</a>
</g>
</g>
<!-- Node1&#45;&gt;Node9 -->
<g id="edge8_Node000001_Node000009" class="edge">
<title>Node1&#45;&gt;Node9</title>
<g id="a_edge8_Node000001_Node000009"><a xlink:title=" ">
<path fill="none" stroke="#63b8ff" d="M244.93,-410.92C223.55,-415.74 200.74,-420.87 179.96,-425.55"/>
<polygon fill="#63b8ff" stroke="#63b8ff" points="245.5,-414.38 254.48,-408.77 243.96,-407.56 245.5,-414.38"/>
</a>
</g>
</g>
<!-- Node10 -->
<g id="Node000010" class="node">
<title>Node10</title>
<g id="a_Node000010"><a xlink:href="../../dc/dbe/class_galactic_shrine_1_1_dossier_reference.html#a700d7fe6f573c8e2c7bdf659000eb2a8" target="_top" xlink:title="[FR] Trouve le répertoire courant. [EN] Finds the current directory.">
<polygon fill="white" stroke="#666666" points="188.12,-408 23.62,-408 23.62,-376 188.12,-376 188.12,-408"/>
<text text-anchor="start" x="31.62" y="-394.5" font-family="Helvetica,sans-Serif" font-size="10.00">GalacticShrine.DossierReference.</text>
<text text-anchor="middle" x="105.88" y="-382.5" font-family="Helvetica,sans-Serif" font-size="10.00">ObtenirLeRepertoireActuel</text>
</a>
</g>
</g>
<!-- Node1&#45;&gt;Node10 -->
<g id="edge9_Node000001_Node000010" class="edge">
<title>Node1&#45;&gt;Node10</title>
<g id="a_edge9_Node000001_Node000010"><a xlink:title=" ">
<path fill="none" stroke="#63b8ff" d="M236.1,-392C220.24,-392 203.86,-392 188.32,-392"/>
<polygon fill="#63b8ff" stroke="#63b8ff" points="236.04,-395.5 246.04,-392 236.04,-388.5 236.04,-395.5"/>
</a>
</g>
</g>
<!-- Node11 -->
<g id="Node000011" class="node">
<title>Node11</title>
<g id="a_Node000011"><a xlink:href="../../dc/dbe/class_galactic_shrine_1_1_dossier_reference.html#a02f583140d69a4e18d8a476ee2b10d85" target="_top" xlink:title="[FR] Compare deux noms d&#39;objets du système de fichiers pour l&#39;inégalité. [EN] Compares two filesystem...">
<polygon fill="white" stroke="#666666" points="210.25,-358 1.5,-358 1.5,-338 210.25,-338 210.25,-358"/>
<text text-anchor="middle" x="105.88" y="-344.5" font-family="Helvetica,sans-Serif" font-size="10.00">GalacticShrine.DossierReference.operator!=</text>
</a>
</g>
</g>
<!-- Node1&#45;&gt;Node11 -->
<g id="edge10_Node000001_Node000011" class="edge">
<title>Node1&#45;&gt;Node11</title>
<g id="a_edge10_Node000001_Node000011"><a xlink:title=" ">
<path fill="none" stroke="#63b8ff" d="M242.28,-373.2C232,-371.06 221.65,-368.95 211.75,-367 197.14,-364.12 181.34,-361.17 166.56,-358.48"/>
<polygon fill="#63b8ff" stroke="#63b8ff" points="241.4,-376.59 251.9,-375.21 242.83,-369.74 241.4,-376.59"/>
</a>
</g>
</g>
<!-- Node12 -->
<g id="Node000012" class="node">
<title>Node12</title>
<g id="a_Node000012"><a xlink:href="../../dc/dbe/class_galactic_shrine_1_1_dossier_reference.html#a76341544bdc3c9e29d3e665dd599d250" target="_top" xlink:title="[FR] Compare deux noms d&#39;objets du système de fichiers pour l&#39;égalité. Utilise la représentation du n...">
<polygon fill="white" stroke="#666666" points="211.75,-320 0,-320 0,-300 211.75,-300 211.75,-320"/>
<text text-anchor="middle" x="105.88" y="-306.5" font-family="Helvetica,sans-Serif" font-size="10.00">GalacticShrine.DossierReference.operator==</text>
</a>
</g>
</g>
<!-- Node1&#45;&gt;Node12 -->
<g id="edge11_Node000001_Node000012" class="edge">
<title>Node1&#45;&gt;Node12</title>
<g id="a_edge11_Node000001_Node000012"><a xlink:title=" ">
<path fill="none" stroke="#63b8ff" d="M294.18,-369.53C271.53,-355.88 240.88,-339.18 211.75,-329 202.06,-325.61 191.63,-322.8 181.26,-320.47"/>
<polygon fill="#63b8ff" stroke="#63b8ff" points="292.35,-372.52 302.7,-374.76 296.01,-366.55 292.35,-372.52"/>
</a>
</g>
</g>
<!-- Node13 -->
<g id="Node000013" class="node">
<title>Node13</title>
<g id="a_Node000013"><a xlink:href="../../dc/dbe/class_galactic_shrine_1_1_dossier_reference.html#ac672fd08ba21f294b9f26af8425f5795" target="_top" xlink:title="[FR] Énumère les sous&#45;répertoires dans un répertoire donné. [EN] Enumerates subdirectories in a given...">
<polygon fill="white" stroke="#666666" points="188.12,-282 23.62,-282 23.62,-250 188.12,-250 188.12,-282"/>
<text text-anchor="start" x="31.62" y="-268.5" font-family="Helvetica,sans-Serif" font-size="10.00">GalacticShrine.DossierReference.</text>
<text text-anchor="middle" x="105.88" y="-256.5" font-family="Helvetica,sans-Serif" font-size="10.00">RepertoireEnumerer</text>
</a>
</g>
</g>
<!-- Node1&#45;&gt;Node13 -->
<g id="edge12_Node000001_Node000013" class="edge">
<title>Node1&#45;&gt;Node13</title>
<g id="a_edge12_Node000001_Node000013"><a xlink:title=" ">
<path fill="none" stroke="#63b8ff" d="M307.16,-367.35C285.28,-344.2 249.51,-310.3 211.75,-291 204.42,-287.25 196.51,-284.05 188.43,-281.33"/>
<polygon fill="#63b8ff" stroke="#63b8ff" points="304.45,-369.58 313.81,-374.54 309.58,-364.82 304.45,-369.58"/>
</a>
</g>
</g>
<!-- Node14 -->
<g id="Node000014" class="node">
<title>Node14</title>
<g id="a_Node000014"><a xlink:href="../../dc/dbe/class_galactic_shrine_1_1_dossier_reference.html#af2a2d441c99a0cd9e6089b61ed1a3683" target="_top" xlink:title="[FR] Énumère les sous&#45;répertoires dans un répertoire donné correspondant à un modèle....">
<polygon fill="white" stroke="#666666" points="188.12,-232 23.62,-232 23.62,-200 188.12,-200 188.12,-232"/>
<text text-anchor="start" x="31.62" y="-218.5" font-family="Helvetica,sans-Serif" font-size="10.00">GalacticShrine.DossierReference.</text>
<text text-anchor="middle" x="105.88" y="-206.5" font-family="Helvetica,sans-Serif" font-size="10.00">RepertoireEnumerer</text>
</a>
</g>
</g>
<!-- Node1&#45;&gt;Node14 -->
<g id="edge13_Node000001_Node000014" class="edge">
<title>Node1&#45;&gt;Node14</title>
<g id="a_edge13_Node000001_Node000014"><a xlink:title=" ">
<path fill="none" stroke="#63b8ff" d="M315.9,-365.69C297.46,-331.5 260.59,-272.46 211.75,-241 204.59,-236.39 196.66,-232.63 188.47,-229.56"/>
<polygon fill="#63b8ff" stroke="#63b8ff" points="312.78,-367.28 320.52,-374.51 318.98,-364.03 312.78,-367.28"/>
</a>
</g>
</g>
<!-- Node15 -->
<g id="Node000015" class="node">
<title>Node15</title>
<g id="a_Node000015"><a xlink:href="../../dc/dbe/class_galactic_shrine_1_1_dossier_reference.html#a1fa4597558c062acc7e03f1426fd4f06" target="_top" xlink:title="[FR] Énumère les sous&#45;répertoires dans un répertoire donné correspondant à un modèle,...">
<polygon fill="white" stroke="#666666" points="188.12,-182 23.62,-182 23.62,-150 188.12,-150 188.12,-182"/>
<text text-anchor="start" x="31.62" y="-168.5" font-family="Helvetica,sans-Serif" font-size="10.00">GalacticShrine.DossierReference.</text>
<text text-anchor="middle" x="105.88" y="-156.5" font-family="Helvetica,sans-Serif" font-size="10.00">RepertoireEnumerer</text>
</a>
</g>
</g>
<!-- Node1&#45;&gt;Node15 -->
<g id="edge14_Node000001_Node000015" class="edge">
<title>Node1&#45;&gt;Node15</title>
<g id="a_edge14_Node000001_Node000015"><a xlink:title=" ">
<path fill="none" stroke="#63b8ff" d="M320.91,-364.82C306.46,-321.13 271.93,-235.65 211.75,-191 204.76,-185.81 196.85,-181.69 188.58,-178.4"/>
<polygon fill="#63b8ff" stroke="#63b8ff" points="317.56,-365.81 323.93,-374.28 324.22,-363.69 317.56,-365.81"/>
</a>
</g>
</g>
<!-- Node16 -->
<g id="Node000016" class="node">
<title>Node16</title>
<g id="a_Node000016"><a xlink:href="../../dc/dbe/class_galactic_shrine_1_1_dossier_reference.html#afa1ca8444e1471e8ccf61012ceb18817" target="_top" xlink:title="[FR] Supprime un répertoire. [EN] Deletes a directory.">
<polygon fill="white" stroke="#666666" points="188.12,-132 23.62,-132 23.62,-100 188.12,-100 188.12,-132"/>
<text text-anchor="start" x="31.62" y="-118.5" font-family="Helvetica,sans-Serif" font-size="10.00">GalacticShrine.DossierReference.</text>
<text text-anchor="middle" x="105.88" y="-106.5" font-family="Helvetica,sans-Serif" font-size="10.00">Supprimer</text>
</a>
</g>
</g>
<!-- Node1&#45;&gt;Node16 -->
<g id="edge15_Node000001_Node000016" class="edge">
<title>Node1&#45;&gt;Node16</title>
<g id="a_edge15_Node000001_Node000016"><a xlink:title=" ">
<path fill="none" stroke="#63b8ff" d="M324.26,-364.51C313.8,-312.49 283.69,-199.64 211.75,-141 204.86,-135.38 196.91,-130.99 188.54,-127.56"/>
<polygon fill="#63b8ff" stroke="#63b8ff" points="320.76,-364.85 326.07,-374.02 327.64,-363.54 320.76,-364.85"/>
</a>
</g>
</g>
<!-- Node17 -->
<g id="Node000017" class="node">
<title>Node17</title>
<g id="a_Node000017"><a xlink:href="../../dc/dbe/class_galactic_shrine_1_1_dossier_reference.html#a50f4a5781cac3065e1502421b919428e" target="_top" xlink:title="[FR] Supprime un répertoire. [EN] Deletes a directory.">
<polygon fill="white" stroke="#666666" points="188.12,-82 23.62,-82 23.62,-50 188.12,-50 188.12,-82"/>
<text text-anchor="start" x="31.62" y="-68.5" font-family="Helvetica,sans-Serif" font-size="10.00">GalacticShrine.DossierReference.</text>
<text text-anchor="middle" x="105.88" y="-56.5" font-family="Helvetica,sans-Serif" font-size="10.00">Supprimer</text>
</a>
</g>
</g>
<!-- Node1&#45;&gt;Node17 -->
<g id="edge16_Node000001_Node000017" class="edge">
<title>Node1&#45;&gt;Node17</title>
<g id="a_edge16_Node000001_Node000017"><a xlink:title=" ">
<path fill="none" stroke="#63b8ff" d="M326.6,-364.23C319.92,-304.66 295.64,-164.08 211.75,-91 204.91,-85.04 196.89,-80.44 188.39,-76.89"/>
<polygon fill="#63b8ff" stroke="#63b8ff" points="323.12,-364.57 327.62,-374.16 330.08,-363.85 323.12,-364.57"/>
</a>
</g>
</g>
<!-- Node18 -->
<g id="Node000018" class="node">
<title>Node18</title>
<g id="a_Node000018"><a xlink:href="../../dc/dbe/class_galactic_shrine_1_1_dossier_reference.html#a45a4957d3eb65451a03eddbafd5d0d23" target="_top" xlink:title="[FR] Vérifie si le répertoire existe. [EN] Checks whether the directory exists.">
<polygon fill="white" stroke="#666666" points="188.12,-32 23.62,-32 23.62,0 188.12,0 188.12,-32"/>
<text text-anchor="start" x="31.62" y="-18.5" font-family="Helvetica,sans-Serif" font-size="10.00">GalacticShrine.DossierReference.</text>
<text text-anchor="middle" x="105.88" y="-6.5" font-family="Helvetica,sans-Serif" font-size="10.00">VerifieSiExiste</text>
</a>
</g>
</g>
<!-- Node1&#45;&gt;Node18 -->
<g id="edge17_Node000001_Node000018" class="edge">
<title>Node1&#45;&gt;Node18</title>
<g id="a_edge17_Node000001_Node000018"><a xlink:title=" ">
<path fill="none" stroke="#63b8ff" d="M328.37,-364.34C325.3,-298.04 307.92,-129.02 211.75,-41 204.98,-34.81 196.97,-30.07 188.42,-26.46"/>
<polygon fill="#63b8ff" stroke="#63b8ff" points="324.87,-364.46 328.75,-374.32 331.87,-364.2 324.87,-364.46"/>
</a>
</g>
</g>
</g>
</svg>
