<?xml version="1.0" encoding="UTF-8" standalone="no"?>
<!DOCTYPE svg PUBLIC "-//W3C//DTD SVG 1.1//EN"
 "http://www.w3.org/Graphics/SVG/1.1/DTD/svg11.dtd">
<!-- Generated by graphviz version 12.2.0 (20241103.1931)
 -->
<!-- Title: GalacticShrine.Configuration.DonneesIni Pages: 1 -->
<svg width="624pt" height="65pt"
 viewBox="0.00 0.00 624.00 65.00" xmlns="http://www.w3.org/2000/svg" xmlns:xlink="http://www.w3.org/1999/xlink">
<g id="graph0" class="graph" transform="scale(1 1) rotate(0) translate(4 61)">
<title>GalacticShrine.Configuration.DonneesIni</title>
<!-- Node1 -->
<g id="Node000001" class="node">
<title>Node1</title>
<g id="a_Node000001"><a xlink:title=" ">
<polygon fill="#999999" stroke="#666666" points="616,-57 472.5,-57 472.5,-25 616,-25 616,-57"/>
<text text-anchor="start" x="480.5" y="-43.5" font-family="Helvetica,sans-Serif" font-size="10.00">GalacticShrine.Configuration.</text>
<text text-anchor="middle" x="544.25" y="-31.5" font-family="Helvetica,sans-Serif" font-size="10.00">DonneesIni</text>
</a>
</g>
</g>
<!-- Node2 -->
<g id="Node000002" class="node">
<title>Node2</title>
<g id="a_Node000002"><a xlink:href="../../d7/d03/interface_galactic_shrine_1_1_interface_1_1_configuration_1_1_clonable_interface-1-g.html" target="_top" xlink:title="[FR] Crée une copie en profondeur du type T , c&#39;est&#45;à&#45;dire que tous les types de référence sont égale...">
<polygon fill="white" stroke="#666666" points="176.5,-54 0,-54 0,-22 176.5,-22 176.5,-54"/>
<text text-anchor="start" x="8" y="-40.5" font-family="Helvetica,sans-Serif" font-size="10.00">GalacticShrine.Interface.</text>
<text text-anchor="middle" x="88.25" y="-28.5" font-family="Helvetica,sans-Serif" font-size="10.00">Configuration.ClonableInterface&lt; T &gt;</text>
</a>
</g>
</g>
<!-- Node2&#45;&gt;Node1 -->
<g id="edge1_Node000001_Node000002" class="edge">
<title>Node2&#45;&gt;Node1</title>
<g id="a_edge1_Node000001_Node000002"><a xlink:title=" ">
<path fill="none" stroke="#63b8ff" d="M187.79,-42.83C261.3,-45.78 364.19,-48.54 454.5,-46 460.21,-45.84 466.12,-45.62 472.06,-45.36"/>
<polygon fill="#63b8ff" stroke="#63b8ff" points="188.36,-39.35 178.22,-42.43 188.07,-46.34 188.36,-39.35"/>
</a>
</g>
</g>
<!-- Node3 -->
<g id="Node000003" class="node">
<title>Node3</title>
<g id="a_Node000003"><a xlink:href="../../d8/d91/class_galactic_shrine_1_1_configuration_1_1_configuration_1_1_schema_ini.html" target="_top" xlink:title="[FR] Cette structure définit le format du fichier INI en personnalisant les caractères utilisés &#160;pour...">
<polygon fill="white" stroke="#666666" points="357,-32 213.5,-32 213.5,0 357,0 357,-32"/>
<text text-anchor="start" x="221.5" y="-18.5" font-family="Helvetica,sans-Serif" font-size="10.00">GalacticShrine.Configuration.</text>
<text text-anchor="middle" x="285.25" y="-6.5" font-family="Helvetica,sans-Serif" font-size="10.00">Configuration.SchemaIni</text>
</a>
</g>
</g>
<!-- Node2&#45;&gt;Node3 -->
<g id="edge3_Node000003_Node000002" class="edge">
<title>Node2&#45;&gt;Node3</title>
<g id="a_edge3_Node000003_Node000002"><a xlink:title=" ">
<path fill="none" stroke="#63b8ff" d="M188.2,-26.84C196.59,-25.89 204.96,-24.94 213.08,-24.03"/>
<polygon fill="#63b8ff" stroke="#63b8ff" points="187.82,-23.36 178.27,-27.96 188.6,-30.31 187.82,-23.36"/>
</a>
</g>
</g>
<!-- Node3&#45;&gt;Node1 -->
<g id="edge2_Node000001_Node000003" class="edge">
<title>Node3&#45;&gt;Node1</title>
<g id="a_edge2_Node000001_Node000003"><a xlink:title=" ">
<path fill="none" stroke="#9a32cd" stroke-dasharray="5,2" d="M368.31,-20.63C395.75,-22.5 426.48,-24.95 454.5,-28 460.23,-28.62 466.15,-29.34 472.1,-30.1"/>
<polygon fill="#9a32cd" stroke="#9a32cd" points="368.89,-17.16 358.68,-19.99 368.42,-24.14 368.89,-17.16"/>
</a>
</g>
<text text-anchor="start" x="378" y="-33.5" font-family="Helvetica,sans-Serif" font-size="10.00" fill="grey">SchemaInstance</text>
</g>
</g>
</svg>
