<?xml version="1.0" encoding="UTF-8" standalone="no"?>
<!DOCTYPE svg PUBLIC "-//W3C//DTD SVG 1.1//EN"
 "http://www.w3.org/Graphics/SVG/1.1/DTD/svg11.dtd">
<!-- Generated by graphviz version 12.2.0 (20241103.1931)
 -->
<!-- Title: GalacticShrine.UI.Terminal.ThemeSombre.ThemeSombre Pages: 1 -->
<svg width="559pt" height="90pt"
 viewBox="0.00 0.00 559.25 90.00" xmlns="http://www.w3.org/2000/svg" xmlns:xlink="http://www.w3.org/1999/xlink">
<g id="graph0" class="graph" transform="scale(1 1) rotate(0) translate(4 86)">
<title>GalacticShrine.UI.Terminal.ThemeSombre.ThemeSombre</title>
<!-- Node1 -->
<g id="Node000001" class="node">
<title>Node1</title>
<g id="a_Node000001"><a xlink:title="[FR] Constructeur du thème sombre. Initialise et configure les couleurs et composants....">
<polygon fill="#999999" stroke="#666666" points="146.5,-57 0,-57 0,-25 146.5,-25 146.5,-57"/>
<text text-anchor="start" x="8" y="-43.5" font-family="Helvetica,sans-Serif" font-size="10.00">GalacticShrine.UI.Terminal.</text>
<text text-anchor="middle" x="73.25" y="-31.5" font-family="Helvetica,sans-Serif" font-size="10.00">ThemeSombre.ThemeSombre</text>
</a>
</g>
</g>
<!-- Node2 -->
<g id="Node000002" class="node">
<title>Node2</title>
<g id="a_Node000002"><a xlink:href="../../d9/dd1/class_galactic_shrine_1_1_u_i_1_1_terminal_1_1_theme_sombre.html#a40e2a871b6941ff37638869444d5abc5" target="_top" xlink:title="[FR] Configure les différents composants (textes, fonds) avec des couleurs sombres....">
<polygon fill="white" stroke="#666666" points="365,-82 182.5,-82 182.5,-50 365,-50 365,-82"/>
<text text-anchor="start" x="190.5" y="-68.5" font-family="Helvetica,sans-Serif" font-size="10.00">GalacticShrine.UI.Terminal.</text>
<text text-anchor="middle" x="273.75" y="-56.5" font-family="Helvetica,sans-Serif" font-size="10.00">ThemeSombre.DefinirLesComposants</text>
</a>
</g>
</g>
<!-- Node1&#45;&gt;Node2 -->
<g id="edge1_Node000001_Node000002" class="edge">
<title>Node1&#45;&gt;Node2</title>
<g id="a_edge1_Node000001_Node000002"><a xlink:title=" ">
<path fill="none" stroke="#63b8ff" d="M146.76,-50.13C154.67,-51.13 162.84,-52.16 171.02,-53.19"/>
<polygon fill="#63b8ff" stroke="#63b8ff" points="170.32,-56.63 180.68,-54.4 171.2,-49.68 170.32,-56.63"/>
</a>
</g>
</g>
<!-- Node4 -->
<g id="Node000004" class="node">
<title>Node4</title>
<g id="a_Node000004"><a xlink:href="../../d9/dd1/class_galactic_shrine_1_1_u_i_1_1_terminal_1_1_theme_sombre.html#ac5b63fc1b20610a3cbaf47ee2829eec2" target="_top" xlink:title="[FR] Définit les couleurs principales du thème sombre, soit en console par défaut,...">
<polygon fill="white" stroke="#666666" points="356.75,-32 190.75,-32 190.75,0 356.75,0 356.75,-32"/>
<text text-anchor="start" x="198.75" y="-18.5" font-family="Helvetica,sans-Serif" font-size="10.00">GalacticShrine.UI.Terminal.</text>
<text text-anchor="middle" x="273.75" y="-6.5" font-family="Helvetica,sans-Serif" font-size="10.00">ThemeSombre.DefinirLesCouleurs</text>
</a>
</g>
</g>
<!-- Node1&#45;&gt;Node4 -->
<g id="edge3_Node000001_Node000004" class="edge">
<title>Node1&#45;&gt;Node4</title>
<g id="a_edge3_Node000001_Node000004"><a xlink:title=" ">
<path fill="none" stroke="#63b8ff" d="M146.76,-31.87C157.28,-30.54 168.23,-29.16 179.1,-27.8"/>
<polygon fill="#63b8ff" stroke="#63b8ff" points="179.38,-31.29 188.86,-26.57 178.5,-24.34 179.38,-31.29"/>
</a>
</g>
</g>
<!-- Node3 -->
<g id="Node000003" class="node">
<title>Node3</title>
<g id="a_Node000003"><a xlink:href="../../d4/dd5/class_galactic_shrine_1_1_u_i_1_1_terminal_1_1_theme_params.html#aa34e36adfde77fb1d09783d65926c5cc" target="_top" xlink:title="[FR] Crée et retourne un objet Couleur en tenant compte d&#39;éventuelles couleurs de fallback....">
<polygon fill="white" stroke="#666666" points="549.75,-82 402.5,-82 402.5,-50 549.75,-50 549.75,-82"/>
<text text-anchor="start" x="410.5" y="-68.5" font-family="Helvetica,sans-Serif" font-size="10.00">GalacticShrine.UI.Terminal.</text>
<text text-anchor="middle" x="476.12" y="-56.5" font-family="Helvetica,sans-Serif" font-size="10.00">ThemeParams.AjouterCouleur</text>
</a>
</g>
</g>
<!-- Node2&#45;&gt;Node3 -->
<g id="edge2_Node000002_Node000003" class="edge">
<title>Node2&#45;&gt;Node3</title>
<g id="a_edge2_Node000002_Node000003"><a xlink:title=" ">
<path fill="none" stroke="#63b8ff" d="M365.26,-66C373.75,-66 382.33,-66 390.75,-66"/>
<polygon fill="#63b8ff" stroke="#63b8ff" points="390.61,-69.5 400.61,-66 390.61,-62.5 390.61,-69.5"/>
</a>
</g>
</g>
<!-- Node5 -->
<g id="Node000005" class="node">
<title>Node5</title>
<g id="a_Node000005"><a xlink:href="../../d4/dd5/class_galactic_shrine_1_1_u_i_1_1_terminal_1_1_theme_params.html#aff504db1be705b7e839ef8e02b1ab71f" target="_top" xlink:title="[FR] Rétablit la couleur par défaut de la console et met à jour ConsoleArrierePlan / ConsolePremierPl...">
<polygon fill="white" stroke="#666666" points="551.25,-32 401,-32 401,0 551.25,0 551.25,-32"/>
<text text-anchor="start" x="409" y="-18.5" font-family="Helvetica,sans-Serif" font-size="10.00">GalacticShrine.UI.Terminal.</text>
<text text-anchor="middle" x="476.12" y="-6.5" font-family="Helvetica,sans-Serif" font-size="10.00">ThemeParams.RetablirCouleur</text>
</a>
</g>
</g>
<!-- Node4&#45;&gt;Node5 -->
<g id="edge4_Node000004_Node000005" class="edge">
<title>Node4&#45;&gt;Node5</title>
<g id="a_edge4_Node000004_Node000005"><a xlink:title=" ">
<path fill="none" stroke="#63b8ff" d="M357.12,-16C367.74,-16 378.64,-16 389.31,-16"/>
<polygon fill="#63b8ff" stroke="#63b8ff" points="389.27,-19.5 399.27,-16 389.27,-12.5 389.27,-19.5"/>
</a>
</g>
</g>
</g>
</svg>
