<?xml version="1.0" encoding="UTF-8" standalone="no"?>
<!DOCTYPE svg PUBLIC "-//W3C//DTD SVG 1.1//EN"
 "http://www.w3.org/Graphics/SVG/1.1/DTD/svg11.dtd">
<!-- Generated by graphviz version 12.2.0 (20241103.1931)
 -->
<!-- Title: GalacticShrine.Modele.Configuration.Ini.SectionCollection Pages: 1 -->
<svg width="274pt" height="108pt"
 viewBox="0.00 0.00 273.62 108.00" xmlns="http://www.w3.org/2000/svg" xmlns:xlink="http://www.w3.org/1999/xlink">
<g id="graph0" class="graph" transform="scale(1 1) rotate(0) translate(4 104)">
<title>GalacticShrine.Modele.Configuration.Ini.SectionCollection</title>
<!-- Node1 -->
<g id="Node000001" class="node">
<title>Node1</title>
<g id="a_Node000001"><a xlink:title=" ">
<polygon fill="#999999" stroke="#666666" points="248.25,-32 70.25,-32 70.25,0 248.25,0 248.25,-32"/>
<text text-anchor="start" x="78.25" y="-18.5" font-family="Helvetica,sans-Serif" font-size="10.00">GalacticShrine.Modele.Configuration.</text>
<text text-anchor="middle" x="159.25" y="-6.5" font-family="Helvetica,sans-Serif" font-size="10.00">Ini.SectionCollection</text>
</a>
</g>
</g>
<!-- Node2 -->
<g id="Node000002" class="node">
<title>Node2</title>
<g id="a_Node000002"><a xlink:href="../../d7/d03/interface_galactic_shrine_1_1_interface_1_1_configuration_1_1_clonable_interface-1-g.html" target="_top" xlink:title="[FR] Crée une copie en profondeur du type T , c&#39;est&#45;à&#45;dire que tous les types de référence sont égale...">
<polygon fill="white" stroke="#666666" points="176.5,-100 0,-100 0,-68 176.5,-68 176.5,-100"/>
<text text-anchor="start" x="8" y="-86.5" font-family="Helvetica,sans-Serif" font-size="10.00">GalacticShrine.Interface.</text>
<text text-anchor="middle" x="88.25" y="-74.5" font-family="Helvetica,sans-Serif" font-size="10.00">Configuration.ClonableInterface&lt; T &gt;</text>
</a>
</g>
</g>
<!-- Node2&#45;&gt;Node1 -->
<g id="edge1_Node000001_Node000002" class="edge">
<title>Node2&#45;&gt;Node1</title>
<g id="a_edge1_Node000001_Node000002"><a xlink:title=" ">
<path fill="none" stroke="#63b8ff" d="M113.01,-59.99C122.9,-50.79 134.02,-40.46 142.87,-32.22"/>
<polygon fill="#63b8ff" stroke="#63b8ff" points="110.77,-57.29 105.83,-66.66 115.53,-62.42 110.77,-57.29"/>
</a>
</g>
</g>
<!-- Node3 -->
<g id="Node000003" class="node">
<title>Node3</title>
<g id="a_Node000003"><a xlink:title=" ">
<polygon fill="white" stroke="#666666" points="265.62,-94 194.88,-94 194.88,-74 265.62,-74 265.62,-94"/>
<text text-anchor="middle" x="230.25" y="-80.5" font-family="Helvetica,sans-Serif" font-size="10.00">IEnumerable</text>
</a>
</g>
</g>
<!-- Node3&#45;&gt;Node1 -->
<g id="edge2_Node000001_Node000003" class="edge">
<title>Node3&#45;&gt;Node1</title>
<g id="a_edge2_Node000001_Node000003"><a xlink:title=" ">
<path fill="none" stroke="#63b8ff" d="M211.87,-65.91C200.69,-55.52 186.52,-42.35 175.71,-32.3"/>
<polygon fill="#63b8ff" stroke="#63b8ff" points="209.26,-68.27 218.97,-72.51 214.03,-63.14 209.26,-68.27"/>
</a>
</g>
</g>
</g>
</svg>
