<?xml version="1.0" encoding="UTF-8" standalone="no"?>
<!DOCTYPE svg PUBLIC "-//W3C//DTD SVG 1.1//EN"
 "http://www.w3.org/Graphics/SVG/1.1/DTD/svg11.dtd">
<!-- Generated by graphviz version 12.2.0 (20241103.1931)
 -->
<!-- Title: GalacticShrine.Services.Http.VerificateurDeServeur.Dispose Pages: 1 -->
<svg width="416pt" height="58pt"
 viewBox="0.00 0.00 415.75 58.00" xmlns="http://www.w3.org/2000/svg" xmlns:xlink="http://www.w3.org/1999/xlink">
<g id="graph0" class="graph" transform="scale(1 1) rotate(0) translate(4 54)">
<title>GalacticShrine.Services.Http.VerificateurDeServeur.Dispose</title>
<!-- Node1 -->
<g id="Node000001" class="node">
<title>Node1</title>
<g id="a_Node000001"><a xlink:title="[FR] Libère les ressources utilisées par l&#39;objet de manière synchrone. [EN] Releases the resources us...">
<polygon fill="#999999" stroke="#666666" points="407.75,-32 235.75,-32 235.75,0 407.75,0 407.75,-32"/>
<text text-anchor="start" x="243.75" y="-18.5" font-family="Helvetica,sans-Serif" font-size="10.00">GalacticShrine.Services.</text>
<text text-anchor="middle" x="321.75" y="-6.5" font-family="Helvetica,sans-Serif" font-size="10.00">Http.VerificateurDeServeur.Dispose</text>
</a>
</g>
</g>
<!-- Node1&#45;&gt;Node1 -->
<g id="edge1_Node000001_Node000001" class="edge">
<title>Node1&#45;&gt;Node1</title>
<g id="a_edge1_Node000001_Node000001"><a xlink:title=" ">
<path fill="none" stroke="#63b8ff" d="M358.99,-43.54C352.91,-47.41 340.5,-50 321.75,-50 287.95,-50 274.75,-41.58 282.14,-32.44"/>
<polygon fill="#63b8ff" stroke="#63b8ff" points="362.37,-44.43 361.04,-33.92 355.53,-42.97 362.37,-44.43"/>
</a>
</g>
</g>
<!-- Node2 -->
<g id="Node000002" class="node">
<title>Node2</title>
<g id="a_Node000002"><a xlink:href="../../d5/d6b/class_galactic_shrine_1_1_services_1_1_http_1_1_verificateur_de_serveur.html#a772adf842f42ab6d8aaea7916a848f9b" target="_top" xlink:title="[FR] Libère les ressources utilisées par l&#39;objet de manière asynchrone. [EN] Asynchronously releases ...">
<polygon fill="white" stroke="#666666" points="199.75,-32 0,-32 0,0 199.75,0 199.75,-32"/>
<text text-anchor="start" x="8" y="-18.5" font-family="Helvetica,sans-Serif" font-size="10.00">GalacticShrine.Services.</text>
<text text-anchor="middle" x="99.88" y="-6.5" font-family="Helvetica,sans-Serif" font-size="10.00">Http.VerificateurDeServeur.DisposeAsync</text>
</a>
</g>
</g>
<!-- Node1&#45;&gt;Node2 -->
<g id="edge2_Node000001_Node000002" class="edge">
<title>Node1&#45;&gt;Node2</title>
<g id="a_edge2_Node000001_Node000002"><a xlink:title=" ">
<path fill="none" stroke="#63b8ff" d="M223.91,-16C216,-16 207.99,-16 200.06,-16"/>
<polygon fill="#63b8ff" stroke="#63b8ff" points="223.91,-19.5 233.91,-16 223.91,-12.5 223.91,-19.5"/>
</a>
</g>
</g>
</g>
</svg>
