<?xml version="1.0" encoding="UTF-8" standalone="no"?>
<!DOCTYPE svg PUBLIC "-//W3C//DTD SVG 1.1//EN"
 "http://www.w3.org/Graphics/SVG/1.1/DTD/svg11.dtd">
<!-- Generated by graphviz version 12.2.0 (20241103.1931)
 -->
<!-- Title: GalacticShrine.FichierReference Pages: 1 -->
<svg width="240pt" height="96pt"
 viewBox="0.00 0.00 239.75 96.00" xmlns="http://www.w3.org/2000/svg" xmlns:xlink="http://www.w3.org/1999/xlink">
<g id="graph0" class="graph" transform="scale(1 1) rotate(0) translate(4 92)">
<title>GalacticShrine.FichierReference</title>
<!-- Node1 -->
<g id="Node000001" class="node">
<title>Node1</title>
<g id="a_Node000001"><a xlink:title="[FR] Représentation d&#39;un chemin de fichier absolu. Permet des hachages et des comparaisons rapides....">
<polygon fill="#999999" stroke="#666666" points="216,-20 59,-20 59,0 216,0 216,-20"/>
<text text-anchor="middle" x="137.5" y="-6.5" font-family="Helvetica,sans-Serif" font-size="10.00">GalacticShrine.FichierReference</text>
</a>
</g>
</g>
<!-- Node2 -->
<g id="Node000002" class="node">
<title>Node2</title>
<g id="a_Node000002"><a xlink:href="../../dd/daf/class_galactic_shrine_1_1_fichier_systeme_reference.html" target="_top" xlink:title="[FR] Classe de base pour les objets du système de fichiers (fichiers ou répertoires)....">
<polygon fill="white" stroke="#666666" points="151,-88 0,-88 0,-56 151,-56 151,-88"/>
<text text-anchor="start" x="8" y="-74.5" font-family="Helvetica,sans-Serif" font-size="10.00">GalacticShrine.FichierSysteme</text>
<text text-anchor="middle" x="75.5" y="-62.5" font-family="Helvetica,sans-Serif" font-size="10.00">Reference</text>
</a>
</g>
</g>
<!-- Node2&#45;&gt;Node1 -->
<g id="edge1_Node000001_Node000002" class="edge">
<title>Node2&#45;&gt;Node1</title>
<g id="a_edge1_Node000001_Node000002"><a xlink:title=" ">
<path fill="none" stroke="#63b8ff" d="M99.72,-47.56C109.52,-38.08 120.26,-27.68 127.78,-20.41"/>
<polygon fill="#63b8ff" stroke="#63b8ff" points="97.31,-45.03 92.55,-54.5 102.17,-50.06 97.31,-45.03"/>
</a>
</g>
</g>
<!-- Node3 -->
<g id="Node000003" class="node">
<title>Node3</title>
<g id="a_Node000003"><a xlink:title=" ">
<polygon fill="white" stroke="#666666" points="231.75,-82 169.25,-82 169.25,-62 231.75,-62 231.75,-82"/>
<text text-anchor="middle" x="200.5" y="-68.5" font-family="Helvetica,sans-Serif" font-size="10.00">IEquatable</text>
</a>
</g>
</g>
<!-- Node3&#45;&gt;Node1 -->
<g id="edge2_Node000001_Node000003" class="edge">
<title>Node3&#45;&gt;Node1</title>
<g id="a_edge2_Node000001_Node000003"><a xlink:title=" ">
<path fill="none" stroke="#63b8ff" d="M182.55,-53.9C171,-42.91 156.46,-29.05 147.07,-20.11"/>
<polygon fill="#63b8ff" stroke="#63b8ff" points="179.91,-56.22 189.56,-60.58 184.73,-51.15 179.91,-56.22"/>
</a>
</g>
</g>
</g>
</svg>
