<?xml version="1.0" encoding="UTF-8" standalone="no"?>
<!DOCTYPE svg PUBLIC "-//W3C//DTD SVG 1.1//EN"
 "http://www.w3.org/Graphics/SVG/1.1/DTD/svg11.dtd">
<!-- Generated by graphviz version 12.2.0 (20241103.1931)
 -->
<!-- Title: GalacticShrine.FichierReference.RendreInscriptibles Pages: 1 -->
<svg width="560pt" height="178pt"
 viewBox="0.00 0.00 560.00 178.00" xmlns="http://www.w3.org/2000/svg" xmlns:xlink="http://www.w3.org/1999/xlink">
<g id="graph0" class="graph" transform="scale(1 1) rotate(0) translate(4 174)">
<title>GalacticShrine.FichierReference.RendreInscriptibles</title>
<!-- Node1 -->
<g id="Node000001" class="node">
<title>Node1</title>
<g id="a_Node000001"><a xlink:title="[FR] Rend un emplacement de fichier inscriptible. [EN] Makes a file location writeable.">
<polygon fill="#999999" stroke="#666666" points="160,-104 0,-104 0,-72 160,-72 160,-104"/>
<text text-anchor="start" x="8" y="-90.5" font-family="Helvetica,sans-Serif" font-size="10.00">GalacticShrine.FichierReference.</text>
<text text-anchor="middle" x="80" y="-78.5" font-family="Helvetica,sans-Serif" font-size="10.00">RendreInscriptibles</text>
</a>
</g>
</g>
<!-- Node2 -->
<g id="Node000002" class="node">
<title>Node2</title>
<g id="a_Node000002"><a xlink:href="../../d2/dcf/class_galactic_shrine_1_1_fichier_reference.html#abd9dbaeef1cc8a5217fc7fb5afdf3a5d" target="_top" xlink:title="[FR] Définit les attributs d&#39;un fichier. [EN] Sets the attributes for a file.">
<polygon fill="white" stroke="#666666" points="356,-170 196,-170 196,-138 356,-138 356,-170"/>
<text text-anchor="start" x="204" y="-156.5" font-family="Helvetica,sans-Serif" font-size="10.00">GalacticShrine.FichierReference.</text>
<text text-anchor="middle" x="276" y="-144.5" font-family="Helvetica,sans-Serif" font-size="10.00">DefinirDesAttributs</text>
</a>
</g>
</g>
<!-- Node1&#45;&gt;Node2 -->
<g id="edge1_Node000001_Node000002" class="edge">
<title>Node1&#45;&gt;Node2</title>
<g id="a_edge1_Node000001_Node000002"><a xlink:title=" ">
<path fill="none" stroke="#63b8ff" d="M129.45,-104.48C155.71,-113.42 188.36,-124.52 216.08,-133.95"/>
<polygon fill="#63b8ff" stroke="#63b8ff" points="214.8,-137.22 225.39,-137.12 217.06,-130.59 214.8,-137.22"/>
</a>
</g>
</g>
<!-- Node3 -->
<g id="Node000003" class="node">
<title>Node3</title>
<g id="a_Node000003"><a xlink:href="../../d2/dcf/class_galactic_shrine_1_1_fichier_reference.html#aaec6fe3414802611f368b2f0314e04ac" target="_top" xlink:title="[FR] Constructeur par défaut. [EN] Default constructor.">
<polygon fill="white" stroke="#666666" points="552,-104 392,-104 392,-72 552,-72 552,-104"/>
<text text-anchor="start" x="400" y="-90.5" font-family="Helvetica,sans-Serif" font-size="10.00">GalacticShrine.FichierReference.</text>
<text text-anchor="middle" x="472" y="-78.5" font-family="Helvetica,sans-Serif" font-size="10.00">FichierReference</text>
</a>
</g>
</g>
<!-- Node1&#45;&gt;Node3 -->
<g id="edge3_Node000001_Node000003" class="edge">
<title>Node1&#45;&gt;Node3</title>
<g id="a_edge3_Node000001_Node000003"><a xlink:title=" ">
<path fill="none" stroke="#63b8ff" d="M160.49,-90.34C172.39,-90.62 184.52,-90.85 196,-91 267.11,-91.93 284.89,-91.93 356,-91 363.8,-90.9 371.91,-90.76 380.03,-90.59"/>
<polygon fill="#63b8ff" stroke="#63b8ff" points="380.08,-94.09 390,-90.38 379.92,-87.09 380.08,-94.09"/>
</a>
</g>
</g>
<!-- Node4 -->
<g id="Node000004" class="node">
<title>Node4</title>
<g id="a_Node000004"><a xlink:href="../../d2/dcf/class_galactic_shrine_1_1_fichier_reference.html#a3546cdaa1d22cb5fa21f74703039beae" target="_top" xlink:title="[FR] Récupère les attributs d&#39;un fichier. [EN] Gets the attributes for a file.">
<polygon fill="white" stroke="#666666" points="356,-82 196,-82 196,-50 356,-50 356,-82"/>
<text text-anchor="start" x="204" y="-68.5" font-family="Helvetica,sans-Serif" font-size="10.00">GalacticShrine.FichierReference.</text>
<text text-anchor="middle" x="276" y="-56.5" font-family="Helvetica,sans-Serif" font-size="10.00">ObtenirDesAttributs</text>
</a>
</g>
</g>
<!-- Node1&#45;&gt;Node4 -->
<g id="edge4_Node000001_Node000004" class="edge">
<title>Node1&#45;&gt;Node4</title>
<g id="a_edge4_Node000001_Node000004"><a xlink:title=" ">
<path fill="none" stroke="#63b8ff" d="M160.47,-78.99C168.36,-78.09 176.42,-77.18 184.41,-76.27"/>
<polygon fill="#63b8ff" stroke="#63b8ff" points="184.61,-79.77 194.15,-75.17 183.82,-72.82 184.61,-79.77"/>
</a>
</g>
</g>
<!-- Node5 -->
<g id="Node000005" class="node">
<title>Node5</title>
<g id="a_Node000005"><a xlink:href="../../d2/dcf/class_galactic_shrine_1_1_fichier_reference.html#a7d0d26fbec5ef0bf613a5df00d357c90" target="_top" xlink:title="[FR] Détermine si le nom de fichier donné existe ou non. [EN] Determines whether the given file name ...">
<polygon fill="white" stroke="#666666" points="356,-32 196,-32 196,0 356,0 356,-32"/>
<text text-anchor="start" x="204" y="-18.5" font-family="Helvetica,sans-Serif" font-size="10.00">GalacticShrine.FichierReference.</text>
<text text-anchor="middle" x="276" y="-6.5" font-family="Helvetica,sans-Serif" font-size="10.00">VerifieSiExiste</text>
</a>
</g>
</g>
<!-- Node1&#45;&gt;Node5 -->
<g id="edge6_Node000001_Node000005" class="edge">
<title>Node1&#45;&gt;Node5</title>
<g id="a_edge6_Node000001_Node000005"><a xlink:title=" ">
<path fill="none" stroke="#63b8ff" d="M119.03,-71.55C141.29,-62.14 170.04,-50.39 196,-41 200.61,-39.33 205.4,-37.66 210.23,-36.02"/>
<polygon fill="#63b8ff" stroke="#63b8ff" points="211.01,-39.45 219.4,-32.98 208.8,-32.81 211.01,-39.45"/>
</a>
</g>
</g>
<!-- Node2&#45;&gt;Node3 -->
<g id="edge2_Node000002_Node000003" class="edge">
<title>Node2&#45;&gt;Node3</title>
<g id="a_edge2_Node000002_Node000003"><a xlink:title=" ">
<path fill="none" stroke="#63b8ff" d="M325.45,-137.52C351.71,-128.58 384.36,-117.48 412.08,-108.05"/>
<polygon fill="#63b8ff" stroke="#63b8ff" points="413.06,-111.41 421.39,-104.88 410.8,-104.78 413.06,-111.41"/>
</a>
</g>
</g>
<!-- Node4&#45;&gt;Node3 -->
<g id="edge5_Node000004_Node000003" class="edge">
<title>Node4&#45;&gt;Node3</title>
<g id="a_edge5_Node000004_Node000003"><a xlink:title=" ">
<path fill="none" stroke="#63b8ff" d="M356.47,-75.01C364.36,-75.91 372.42,-76.82 380.41,-77.73"/>
<polygon fill="#63b8ff" stroke="#63b8ff" points="379.82,-81.18 390.15,-78.83 380.61,-74.23 379.82,-81.18"/>
</a>
</g>
</g>
<!-- Node5&#45;&gt;Node3 -->
<g id="edge7_Node000005_Node000003" class="edge">
<title>Node5&#45;&gt;Node3</title>
<g id="a_edge7_Node000005_Node000003"><a xlink:title=" ">
<path fill="none" stroke="#63b8ff" d="M331.17,-32.5C339.52,-35.23 348.02,-38.11 356,-41 378,-48.96 402.01,-58.62 422.38,-67.1"/>
<polygon fill="#63b8ff" stroke="#63b8ff" points="421,-70.32 431.57,-70.96 423.71,-63.86 421,-70.32"/>
</a>
</g>
</g>
</g>
</svg>
