<?xml version="1.0" encoding="UTF-8" standalone="no"?>
<!DOCTYPE svg PUBLIC "-//W3C//DTD SVG 1.1//EN"
 "http://www.w3.org/Graphics/SVG/1.1/DTD/svg11.dtd">
<!-- Generated by graphviz version 8.1.0 (20230707.0739)
 -->
<!-- Title: GalacticShrine.Modele.Configuration.Ini.DonneesIniInsensibleA_LaCasse Pages: 1 -->
<svg width="673pt" height="90pt"
 viewBox="0.00 0.00 672.50 90.00" xmlns="http://www.w3.org/2000/svg" xmlns:xlink="http://www.w3.org/1999/xlink">
<g id="graph0" class="graph" transform="scale(1 1) rotate(0) translate(4 86)">
<title>GalacticShrine.Modele.Configuration.Ini.DonneesIniInsensibleA_LaCasse</title>
<!-- Node1 -->
<g id="Node000001" class="node">
<title>Node1</title>
<g id="a_Node000001"><a xlink:title="[FR] Représente toutes les données d&#39;un fichier INI exactement comme la classe GalacticShrine....">
<polygon fill="#999999" stroke="#666666" points="664.5,-57 488,-57 488,-25 664.5,-25 664.5,-57"/>
<text text-anchor="start" x="496" y="-43.5" font-family="Helvetica,sans-Serif" font-size="10.00">GalacticShrine.Modele.Configuration.</text>
<text text-anchor="middle" x="576.25" y="-31.5" font-family="Helvetica,sans-Serif" font-size="10.00">Ini.DonneesIniInsensibleA_LaCasse</text>
</a>
</g>
</g>
<!-- Node2 -->
<g id="Node000002" class="node">
<title>Node2</title>
<g id="a_Node000002"><a xlink:href="class_galactic_shrine_1_1_configuration_1_1_donnees_ini.html" target="_top" xlink:title=" ">
<polygon fill="white" stroke="#666666" points="451,-51 387,-51 387,-31 451,-31 451,-51"/>
<text text-anchor="middle" x="419" y="-37.5" font-family="Helvetica,sans-Serif" font-size="10.00">DonneesIni</text>
</a>
</g>
</g>
<!-- Node2&#45;&gt;Node1 -->
<g id="edge1_Node000001_Node000002" class="edge">
<title>Node2&#45;&gt;Node1</title>
<g id="a_edge1_Node000001_Node000002"><a xlink:title=" ">
<path fill="none" stroke="#63b8ff" d="M462.24,-41C470.23,-41 478.85,-41 487.65,-41"/>
<polygon fill="#63b8ff" stroke="#63b8ff" points="462.42,-37.5 452.42,-41 462.42,-44.5 462.42,-37.5"/>
</a>
</g>
</g>
<!-- Node3 -->
<g id="Node000003" class="node">
<title>Node3</title>
<g id="a_Node000003"><a xlink:href="interface_galactic_shrine_1_1_interface_1_1_configuration_1_1_clonable_interface.html" target="_top" xlink:title=" ">
<polygon fill="white" stroke="#666666" points="252.38,-82 156.12,-82 156.12,-50 252.38,-50 252.38,-82"/>
<text text-anchor="start" x="164.12" y="-68.5" font-family="Helvetica,sans-Serif" font-size="10.00">ClonableInterface&lt;</text>
<text text-anchor="middle" x="204.25" y="-56.5" font-family="Helvetica,sans-Serif" font-size="10.00"> DonneesIni &gt;</text>
</a>
</g>
</g>
<!-- Node3&#45;&gt;Node2 -->
<g id="edge2_Node000002_Node000003" class="edge">
<title>Node3&#45;&gt;Node2</title>
<g id="a_edge2_Node000002_Node000003"><a xlink:title=" ">
<path fill="none" stroke="#63b8ff" d="M263.63,-59.14C303.41,-54.46 354.53,-48.46 386.79,-44.67"/>
<polygon fill="#63b8ff" stroke="#63b8ff" points="263.25,-55.78 253.73,-60.42 264.07,-62.73 263.25,-55.78"/>
</a>
</g>
</g>
<!-- Node4 -->
<g id="Node000004" class="node">
<title>Node4</title>
<g id="a_Node000004"><a xlink:href="class_galactic_shrine_1_1_configuration_1_1_configuration_1_1_schema_ini.html" target="_top" xlink:title="[FR] Cette structure définit le format du fichier INI en personnalisant les caractères utilisés &#160;pour...">
<polygon fill="white" stroke="#666666" points="275.25,-32 133.25,-32 133.25,0 275.25,0 275.25,-32"/>
<text text-anchor="start" x="141.25" y="-18.5" font-family="Helvetica,sans-Serif" font-size="10.00">GalacticShrine.Configuration.</text>
<text text-anchor="middle" x="204.25" y="-6.5" font-family="Helvetica,sans-Serif" font-size="10.00">Configuration.SchemaIni</text>
</a>
</g>
</g>
<!-- Node4&#45;&gt;Node2 -->
<g id="edge3_Node000002_Node000004" class="edge">
<title>Node4&#45;&gt;Node2</title>
<g id="a_edge3_Node000002_Node000004"><a xlink:title=" ">
<path fill="none" stroke="#9a32cd" stroke-dasharray="5,2" d="M286.31,-21.65C312.75,-23.97 342.19,-27.05 369,-31 374.75,-31.85 380.85,-32.94 386.72,-34.08"/>
<polygon fill="#9a32cd" stroke="#9a32cd" points="286.83,-18.1 276.57,-20.74 286.24,-25.07 286.83,-18.1"/>
</a>
</g>
<text text-anchor="middle" x="331.12" y="-33.5" font-family="Helvetica,sans-Serif" font-size="10.00" fill="grey"> SchemaInstance</text>
</g>
<!-- Node5 -->
<g id="Node000005" class="node">
<title>Node5</title>
<g id="a_Node000005"><a xlink:href="interface_galactic_shrine_1_1_interface_1_1_configuration_1_1_clonable_interface.html" target="_top" xlink:title=" ">
<polygon fill="white" stroke="#666666" points="96.25,-32 0,-32 0,0 96.25,0 96.25,-32"/>
<text text-anchor="start" x="8" y="-18.5" font-family="Helvetica,sans-Serif" font-size="10.00">ClonableInterface&lt;</text>
<text text-anchor="middle" x="48.12" y="-6.5" font-family="Helvetica,sans-Serif" font-size="10.00"> SchemaIni &gt;</text>
</a>
</g>
</g>
<!-- Node5&#45;&gt;Node4 -->
<g id="edge4_Node000004_Node000005" class="edge">
<title>Node5&#45;&gt;Node4</title>
<g id="a_edge4_Node000004_Node000005"><a xlink:title=" ">
<path fill="none" stroke="#63b8ff" d="M107.39,-16C115.74,-16 124.4,-16 132.96,-16"/>
<polygon fill="#63b8ff" stroke="#63b8ff" points="107.63,-12.5 97.63,-16 107.63,-19.5 107.63,-12.5"/>
</a>
</g>
</g>
</g>
</svg>
