<?xml version="1.0" encoding="UTF-8" standalone="no"?>
<!DOCTYPE svg PUBLIC "-//W3C//DTD SVG 1.1//EN"
 "http://www.w3.org/Graphics/SVG/1.1/DTD/svg11.dtd">
<!-- Generated by graphviz version 8.1.0 (20230707.0739)
 -->
<!-- Title: GalacticShrine.Configuration.Analyseur.TamponDeChaine.Garniture Pages: 1 -->
<svg width="724pt" height="90pt"
 viewBox="0.00 0.00 723.75 90.00" xmlns="http://www.w3.org/2000/svg" xmlns:xlink="http://www.w3.org/1999/xlink">
<g id="graph0" class="graph" transform="scale(1 1) rotate(0) translate(4 86)">
<title>GalacticShrine.Configuration.Analyseur.TamponDeChaine.Garniture</title>
<!-- Node1 -->
<g id="Node000001" class="node">
<title>Node1</title>
<g id="a_Node000001"><a xlink:title=" ">
<polygon fill="#999999" stroke="#666666" points="715.75,-57 534,-57 534,-25 715.75,-25 715.75,-57"/>
<text text-anchor="start" x="542" y="-43.5" font-family="Helvetica,sans-Serif" font-size="10.00">GalacticShrine.Configuration.</text>
<text text-anchor="middle" x="624.88" y="-31.5" font-family="Helvetica,sans-Serif" font-size="10.00">Analyseur.TamponDeChaine.Garniture</text>
</a>
</g>
</g>
<!-- Node2 -->
<g id="Node000002" class="node">
<title>Node2</title>
<g id="a_Node000002"><a xlink:href="class_galactic_shrine_1_1_configuration_1_1_ini.html#ac949b568fd2371b7546137b7092651dc" target="_top" xlink:title=" ">
<polygon fill="white" stroke="#666666" points="498,-82 356,-82 356,-50 498,-50 498,-82"/>
<text text-anchor="start" x="364" y="-68.5" font-family="Helvetica,sans-Serif" font-size="10.00">GalacticShrine.Configuration.</text>
<text text-anchor="middle" x="427" y="-56.5" font-family="Helvetica,sans-Serif" font-size="10.00">Ini.ProprieteDeProcessus</text>
</a>
</g>
</g>
<!-- Node1&#45;&gt;Node2 -->
<g id="edge1_Node000001_Node000002" class="edge">
<title>Node1&#45;&gt;Node2</title>
<g id="a_edge1_Node000001_Node000002"><a xlink:title=" ">
<path fill="none" stroke="#63b8ff" d="M522.83,-53.9C514.57,-54.95 506.34,-56 498.38,-57.02"/>
<polygon fill="#63b8ff" stroke="#63b8ff" points="523.2,-57.25 532.68,-52.51 522.31,-50.31 523.2,-57.25"/>
</a>
</g>
</g>
<!-- Node5 -->
<g id="Node000005" class="node">
<title>Node5</title>
<g id="a_Node000005"><a xlink:href="class_galactic_shrine_1_1_configuration_1_1_ini.html#a23f514b3f12d239e58c39e45cd133d51" target="_top" xlink:title="[FR] Traite une chaîne de caractères contenant une section ini. &#160;[EN] Processes a string containing a...">
<polygon fill="white" stroke="#666666" points="498,-32 356,-32 356,0 498,0 498,-32"/>
<text text-anchor="start" x="364" y="-18.5" font-family="Helvetica,sans-Serif" font-size="10.00">GalacticShrine.Configuration.</text>
<text text-anchor="middle" x="427" y="-6.5" font-family="Helvetica,sans-Serif" font-size="10.00">Ini.SectionDeProcessus</text>
</a>
</g>
</g>
<!-- Node1&#45;&gt;Node5 -->
<g id="edge4_Node000001_Node000005" class="edge">
<title>Node1&#45;&gt;Node5</title>
<g id="a_edge4_Node000001_Node000005"><a xlink:title=" ">
<path fill="none" stroke="#63b8ff" d="M522.83,-28.1C514.57,-27.05 506.34,-26 498.38,-24.98"/>
<polygon fill="#63b8ff" stroke="#63b8ff" points="522.31,-31.69 532.68,-29.49 523.2,-24.75 522.31,-31.69"/>
</a>
</g>
</g>
<!-- Node3 -->
<g id="Node000003" class="node">
<title>Node3</title>
<g id="a_Node000003"><a xlink:href="class_galactic_shrine_1_1_configuration_1_1_ini.html#ab6c8c10782835b28847a24c919e2ad6c" target="_top" xlink:title="[FR] Traite une ligne et analyse les données qui s&#39;y trouvent (section ou paire clé/valeur avec ou sa...">
<polygon fill="white" stroke="#666666" points="320,-57 178,-57 178,-25 320,-25 320,-57"/>
<text text-anchor="start" x="186" y="-43.5" font-family="Helvetica,sans-Serif" font-size="10.00">GalacticShrine.Configuration.</text>
<text text-anchor="middle" x="249" y="-31.5" font-family="Helvetica,sans-Serif" font-size="10.00">Ini.LigneDeProcessus</text>
</a>
</g>
</g>
<!-- Node2&#45;&gt;Node3 -->
<g id="edge2_Node000002_Node000003" class="edge">
<title>Node2&#45;&gt;Node3</title>
<g id="a_edge2_Node000002_Node000003"><a xlink:title=" ">
<path fill="none" stroke="#63b8ff" d="M345,-54.49C336.82,-53.33 328.55,-52.16 320.49,-51.01"/>
<polygon fill="#63b8ff" stroke="#63b8ff" points="344.29,-58.07 354.68,-56.01 345.27,-51.14 344.29,-58.07"/>
</a>
</g>
</g>
<!-- Node4 -->
<g id="Node000004" class="node">
<title>Node4</title>
<g id="a_Node000004"><a xlink:href="class_galactic_shrine_1_1_configuration_1_1_ini.html#ac15c07bfff5ae1ddc1dc255904aa5f70" target="_top" xlink:title="[FR] Analyse une chaîne contenant des données ini valides. &#160;[EN] Parses a string containing valid ini...">
<polygon fill="white" stroke="#666666" points="142,-57 0,-57 0,-25 142,-25 142,-57"/>
<text text-anchor="start" x="8" y="-43.5" font-family="Helvetica,sans-Serif" font-size="10.00">GalacticShrine.Configuration.</text>
<text text-anchor="middle" x="71" y="-31.5" font-family="Helvetica,sans-Serif" font-size="10.00">Ini.Analyse</text>
</a>
</g>
</g>
<!-- Node3&#45;&gt;Node4 -->
<g id="edge3_Node000003_Node000004" class="edge">
<title>Node3&#45;&gt;Node4</title>
<g id="a_edge3_Node000003_Node000004"><a xlink:title=" ">
<path fill="none" stroke="#63b8ff" d="M166.72,-41C158.63,-41 150.46,-41 142.49,-41"/>
<polygon fill="#63b8ff" stroke="#63b8ff" points="166.68,-44.5 176.68,-41 166.68,-37.5 166.68,-44.5"/>
</a>
</g>
</g>
<!-- Node5&#45;&gt;Node3 -->
<g id="edge5_Node000005_Node000003" class="edge">
<title>Node5&#45;&gt;Node3</title>
<g id="a_edge5_Node000005_Node000003"><a xlink:title=" ">
<path fill="none" stroke="#63b8ff" d="M345,-27.51C336.82,-28.67 328.55,-29.84 320.49,-30.99"/>
<polygon fill="#63b8ff" stroke="#63b8ff" points="345.27,-30.86 354.68,-25.99 344.29,-23.93 345.27,-30.86"/>
</a>
</g>
</g>
</g>
</svg>
