<?xml version="1.0" encoding="UTF-8" standalone="no"?>
<!DOCTYPE svg PUBLIC "-//W3C//DTD SVG 1.1//EN"
 "http://www.w3.org/Graphics/SVG/1.1/DTD/svg11.dtd">
<!-- Generated by graphviz version 8.1.0 (20230707.0739)
 -->
<!-- Title: GalacticShrine.Modele.Configuration.ProprieteCollection Pages: 1 -->
<svg width="262pt" height="108pt"
 viewBox="0.00 0.00 262.38 108.00" xmlns="http://www.w3.org/2000/svg" xmlns:xlink="http://www.w3.org/1999/xlink">
<g id="graph0" class="graph" transform="scale(1 1) rotate(0) translate(4 104)">
<title>GalacticShrine.Modele.Configuration.ProprieteCollection</title>
<!-- Node1 -->
<g id="Node000001" class="node">
<title>Node1</title>
<g id="a_Node000001"><a xlink:title="[FR] Représente une collection de données de clé. &#160;[EN] Represents a collection of key data.">
<polygon fill="#999999" stroke="#666666" points="211.12,-32 34.62,-32 34.62,0 211.12,0 211.12,-32"/>
<text text-anchor="start" x="42.62" y="-18.5" font-family="Helvetica,sans-Serif" font-size="10.00">GalacticShrine.Modele.Configuration.</text>
<text text-anchor="middle" x="122.88" y="-6.5" font-family="Helvetica,sans-Serif" font-size="10.00">ProprieteCollection</text>
</a>
</g>
</g>
<!-- Node2 -->
<g id="Node000002" class="node">
<title>Node2</title>
<g id="a_Node000002"><a xlink:href="interface_galactic_shrine_1_1_interface_1_1_configuration_1_1_clonable_interface.html" target="_top" xlink:title=" ">
<polygon fill="white" stroke="#666666" points="109.75,-100 0,-100 0,-68 109.75,-68 109.75,-100"/>
<text text-anchor="start" x="8" y="-86.5" font-family="Helvetica,sans-Serif" font-size="10.00">ClonableInterface&lt;</text>
<text text-anchor="middle" x="54.88" y="-74.5" font-family="Helvetica,sans-Serif" font-size="10.00"> ProprieteCollection &gt;</text>
</a>
</g>
</g>
<!-- Node2&#45;&gt;Node1 -->
<g id="edge1_Node000001_Node000002" class="edge">
<title>Node2&#45;&gt;Node1</title>
<g id="a_edge1_Node000001_Node000002"><a xlink:title=" ">
<path fill="none" stroke="#63b8ff" d="M78.3,-60.27C87.84,-51 98.62,-40.54 107.19,-32.22"/>
<polygon fill="#63b8ff" stroke="#63b8ff" points="76.38,-57.22 71.65,-66.69 81.26,-62.24 76.38,-57.22"/>
</a>
</g>
</g>
<!-- Node3 -->
<g id="Node000003" class="node">
<title>Node3</title>
<g id="a_Node000003"><a xlink:title=" ">
<polygon fill="white" stroke="#666666" points="254.38,-94 127.38,-94 127.38,-74 254.38,-74 254.38,-94"/>
<text text-anchor="middle" x="190.88" y="-80.5" font-family="Helvetica,sans-Serif" font-size="10.00">IEnumerable&lt; Propriete &gt;</text>
</a>
</g>
</g>
<!-- Node3&#45;&gt;Node1 -->
<g id="edge2_Node000001_Node000003" class="edge">
<title>Node3&#45;&gt;Node1</title>
<g id="a_edge2_Node000001_Node000003"><a xlink:title=" ">
<path fill="none" stroke="#63b8ff" d="M173.27,-65.91C162.56,-55.52 149,-42.35 138.64,-32.3"/>
<polygon fill="#63b8ff" stroke="#63b8ff" points="170.52,-68.09 180.13,-72.54 175.39,-63.07 170.52,-68.09"/>
</a>
</g>
</g>
</g>
</svg>
