<?xml version="1.0" encoding="UTF-8" standalone="no"?>
<!DOCTYPE svg PUBLIC "-//W3C//DTD SVG 1.1//EN"
 "http://www.w3.org/Graphics/SVG/1.1/DTD/svg11.dtd">
<!-- Generated by graphviz version 8.1.0 (20230707.0739)
 -->
<!-- Title: GalacticShrine.Configuration.Analyseur.TamponDeChaine.FinDeGarniture Pages: 1 -->
<svg width="967pt" height="134pt"
 viewBox="0.00 0.00 967.00 134.00" xmlns="http://www.w3.org/2000/svg" xmlns:xlink="http://www.w3.org/1999/xlink">
<g id="graph0" class="graph" transform="scale(1 1) rotate(0) translate(4 130)">
<title>GalacticShrine.Configuration.Analyseur.TamponDeChaine.FinDeGarniture</title>
<!-- Node1 -->
<g id="Node000001" class="node">
<title>Node1</title>
<g id="a_Node000001"><a xlink:title=" ">
<polygon fill="#999999" stroke="#666666" points="959,-101 751.75,-101 751.75,-69 959,-69 959,-101"/>
<text text-anchor="start" x="759.75" y="-87.5" font-family="Helvetica,sans-Serif" font-size="10.00">GalacticShrine.Configuration.</text>
<text text-anchor="middle" x="855.38" y="-75.5" font-family="Helvetica,sans-Serif" font-size="10.00">Analyseur.TamponDeChaine.FinDeGarniture</text>
</a>
</g>
</g>
<!-- Node2 -->
<g id="Node000002" class="node">
<title>Node2</title>
<g id="a_Node000002"><a xlink:href="class_galactic_shrine_1_1_configuration_1_1_ini.html#ab33c61b1a5f2a6e45d63e48113f20750" target="_top" xlink:title=" ">
<polygon fill="white" stroke="#666666" points="697.38,-126 552.38,-126 552.38,-94 697.38,-94 697.38,-126"/>
<text text-anchor="start" x="560.38" y="-112.5" font-family="Helvetica,sans-Serif" font-size="10.00">GalacticShrine.Configuration.</text>
<text text-anchor="middle" x="624.88" y="-100.5" font-family="Helvetica,sans-Serif" font-size="10.00">Ini.CommentaireDeProcessus</text>
</a>
</g>
</g>
<!-- Node1&#45;&gt;Node2 -->
<g id="edge1_Node000001_Node000002" class="edge">
<title>Node1&#45;&gt;Node2</title>
<g id="a_edge1_Node000001_Node000002"><a xlink:title=" ">
<path fill="none" stroke="#63b8ff" d="M740.84,-97.42C726.19,-99.02 711.53,-100.63 697.81,-102.13"/>
<polygon fill="#63b8ff" stroke="#63b8ff" points="740.93,-100.82 750.49,-96.26 740.17,-93.87 740.93,-100.82"/>
</a>
</g>
</g>
<!-- Node5 -->
<g id="Node000005" class="node">
<title>Node5</title>
<g id="a_Node000005"><a xlink:href="class_galactic_shrine_1_1_configuration_1_1_analyseur_1_1_tampon_de_chaine.html#a5ff6a33ce5c9c8b1c634b3242304a1b7" target="_top" xlink:title=" ">
<polygon fill="white" stroke="#666666" points="715.75,-76 534,-76 534,-44 715.75,-44 715.75,-76"/>
<text text-anchor="start" x="542" y="-62.5" font-family="Helvetica,sans-Serif" font-size="10.00">GalacticShrine.Configuration.</text>
<text text-anchor="middle" x="624.88" y="-50.5" font-family="Helvetica,sans-Serif" font-size="10.00">Analyseur.TamponDeChaine.Garniture</text>
</a>
</g>
</g>
<!-- Node1&#45;&gt;Node5 -->
<g id="edge4_Node000001_Node000005" class="edge">
<title>Node1&#45;&gt;Node5</title>
<g id="a_edge4_Node000001_Node000005"><a xlink:title=" ">
<path fill="none" stroke="#63b8ff" d="M740.63,-72.56C732.36,-71.65 724.08,-70.74 715.97,-69.86"/>
<polygon fill="#63b8ff" stroke="#63b8ff" points="740.17,-76.13 750.49,-73.74 740.93,-69.18 740.17,-76.13"/>
</a>
</g>
</g>
<!-- Node3 -->
<g id="Node000003" class="node">
<title>Node3</title>
<g id="a_Node000003"><a xlink:href="class_galactic_shrine_1_1_configuration_1_1_ini.html#ab6c8c10782835b28847a24c919e2ad6c" target="_top" xlink:title="[FR] Traite une ligne et analyse les données qui s&#39;y trouvent (section ou paire clé/valeur avec ou sa...">
<polygon fill="white" stroke="#666666" points="320,-82 178,-82 178,-50 320,-50 320,-82"/>
<text text-anchor="start" x="186" y="-68.5" font-family="Helvetica,sans-Serif" font-size="10.00">GalacticShrine.Configuration.</text>
<text text-anchor="middle" x="249" y="-56.5" font-family="Helvetica,sans-Serif" font-size="10.00">Ini.LigneDeProcessus</text>
</a>
</g>
</g>
<!-- Node2&#45;&gt;Node3 -->
<g id="edge2_Node000002_Node000003" class="edge">
<title>Node2&#45;&gt;Node3</title>
<g id="a_edge2_Node000002_Node000003"><a xlink:title=" ">
<path fill="none" stroke="#63b8ff" d="M541.17,-107.57C488.03,-105.16 417.66,-100.4 356,-91 341.79,-88.84 326.68,-85.75 312.45,-82.49"/>
<polygon fill="#63b8ff" stroke="#63b8ff" points="540.76,-111.1 550.9,-108.03 541.06,-104.1 540.76,-111.1"/>
</a>
</g>
</g>
<!-- Node4 -->
<g id="Node000004" class="node">
<title>Node4</title>
<g id="a_Node000004"><a xlink:href="class_galactic_shrine_1_1_configuration_1_1_ini.html#ac15c07bfff5ae1ddc1dc255904aa5f70" target="_top" xlink:title="[FR] Analyse une chaîne contenant des données ini valides. &#160;[EN] Parses a string containing valid ini...">
<polygon fill="white" stroke="#666666" points="142,-82 0,-82 0,-50 142,-50 142,-82"/>
<text text-anchor="start" x="8" y="-68.5" font-family="Helvetica,sans-Serif" font-size="10.00">GalacticShrine.Configuration.</text>
<text text-anchor="middle" x="71" y="-56.5" font-family="Helvetica,sans-Serif" font-size="10.00">Ini.Analyse</text>
</a>
</g>
</g>
<!-- Node3&#45;&gt;Node4 -->
<g id="edge3_Node000003_Node000004" class="edge">
<title>Node3&#45;&gt;Node4</title>
<g id="a_edge3_Node000003_Node000004"><a xlink:title=" ">
<path fill="none" stroke="#63b8ff" d="M166.72,-66C158.63,-66 150.46,-66 142.49,-66"/>
<polygon fill="#63b8ff" stroke="#63b8ff" points="166.68,-69.5 176.68,-66 166.68,-62.5 166.68,-69.5"/>
</a>
</g>
</g>
<!-- Node6 -->
<g id="Node000006" class="node">
<title>Node6</title>
<g id="a_Node000006"><a xlink:href="class_galactic_shrine_1_1_configuration_1_1_ini.html#ac949b568fd2371b7546137b7092651dc" target="_top" xlink:title=" ">
<polygon fill="white" stroke="#666666" points="498,-82 356,-82 356,-50 498,-50 498,-82"/>
<text text-anchor="start" x="364" y="-68.5" font-family="Helvetica,sans-Serif" font-size="10.00">GalacticShrine.Configuration.</text>
<text text-anchor="middle" x="427" y="-56.5" font-family="Helvetica,sans-Serif" font-size="10.00">Ini.ProprieteDeProcessus</text>
</a>
</g>
</g>
<!-- Node5&#45;&gt;Node6 -->
<g id="edge5_Node000005_Node000006" class="edge">
<title>Node5&#45;&gt;Node6</title>
<g id="a_edge5_Node000005_Node000006"><a xlink:title=" ">
<path fill="none" stroke="#63b8ff" d="M522.83,-63.1C514.57,-63.35 506.34,-63.6 498.38,-63.84"/>
<polygon fill="#63b8ff" stroke="#63b8ff" points="522.79,-66.57 532.68,-62.76 522.57,-59.57 522.79,-66.57"/>
</a>
</g>
</g>
<!-- Node7 -->
<g id="Node000007" class="node">
<title>Node7</title>
<g id="a_Node000007"><a xlink:href="class_galactic_shrine_1_1_configuration_1_1_ini.html#a23f514b3f12d239e58c39e45cd133d51" target="_top" xlink:title="[FR] Traite une chaîne de caractères contenant une section ini. &#160;[EN] Processes a string containing a...">
<polygon fill="white" stroke="#666666" points="498,-32 356,-32 356,0 498,0 498,-32"/>
<text text-anchor="start" x="364" y="-18.5" font-family="Helvetica,sans-Serif" font-size="10.00">GalacticShrine.Configuration.</text>
<text text-anchor="middle" x="427" y="-6.5" font-family="Helvetica,sans-Serif" font-size="10.00">Ini.SectionDeProcessus</text>
</a>
</g>
</g>
<!-- Node5&#45;&gt;Node7 -->
<g id="edge7_Node000005_Node000007" class="edge">
<title>Node5&#45;&gt;Node7</title>
<g id="a_edge7_Node000005_Node000007"><a xlink:title=" ">
<path fill="none" stroke="#63b8ff" d="M540.08,-41.18C526.13,-38.04 511.78,-34.82 498.2,-31.77"/>
<polygon fill="#63b8ff" stroke="#63b8ff" points="539.14,-44.78 549.66,-43.55 540.67,-37.95 539.14,-44.78"/>
</a>
</g>
</g>
<!-- Node6&#45;&gt;Node3 -->
<g id="edge6_Node000006_Node000003" class="edge">
<title>Node6&#45;&gt;Node3</title>
<g id="a_edge6_Node000006_Node000003"><a xlink:title=" ">
<path fill="none" stroke="#63b8ff" d="M344.72,-66C336.63,-66 328.46,-66 320.49,-66"/>
<polygon fill="#63b8ff" stroke="#63b8ff" points="344.68,-69.5 354.68,-66 344.68,-62.5 344.68,-69.5"/>
</a>
</g>
</g>
<!-- Node7&#45;&gt;Node3 -->
<g id="edge8_Node000007_Node000003" class="edge">
<title>Node7&#45;&gt;Node3</title>
<g id="a_edge8_Node000007_Node000003"><a xlink:title=" ">
<path fill="none" stroke="#63b8ff" d="M358.22,-35.26C341.67,-39.96 324.11,-44.95 308.06,-49.51"/>
<polygon fill="#63b8ff" stroke="#63b8ff" points="358.71,-38.47 367.37,-32.37 356.8,-31.74 358.71,-38.47"/>
</a>
</g>
</g>
</g>
</svg>
