<?xml version="1.0" encoding="UTF-8" standalone="no"?>
<!DOCTYPE svg PUBLIC "-//W3C//DTD SVG 1.1//EN"
 "http://www.w3.org/Graphics/SVG/1.1/DTD/svg11.dtd">
<!-- Generated by graphviz version 8.1.0 (20230707.0739)
 -->
<!-- Title: GalacticShrine.FichierReference.RendreInscriptibles Pages: 1 -->
<svg width="361pt" height="140pt"
 viewBox="0.00 0.00 361.00 140.00" xmlns="http://www.w3.org/2000/svg" xmlns:xlink="http://www.w3.org/1999/xlink">
<g id="graph0" class="graph" transform="scale(1 1) rotate(0) translate(4 136)">
<title>GalacticShrine.FichierReference.RendreInscriptibles</title>
<!-- Node1 -->
<g id="Node000001" class="node">
<title>Node1</title>
<g id="a_Node000001"><a xlink:title="[FR] Rend un emplacement de fichier inscriptible [EN] Makes a file location writeable">
<polygon fill="#999999" stroke="#666666" points="158.5,-82 0,-82 0,-50 158.5,-50 158.5,-82"/>
<text text-anchor="start" x="8" y="-68.5" font-family="Helvetica,sans-Serif" font-size="10.00">GalacticShrine.FichierReference.</text>
<text text-anchor="middle" x="79.25" y="-56.5" font-family="Helvetica,sans-Serif" font-size="10.00">RendreInscriptibles</text>
</a>
</g>
</g>
<!-- Node2 -->
<g id="Node000002" class="node">
<title>Node2</title>
<g id="a_Node000002"><a xlink:href="class_galactic_shrine_1_1_fichier_reference.html#abd9dbaeef1cc8a5217fc7fb5afdf3a5d" target="_top" xlink:title="[FR] Définit les attributs d&#39;un fichier [EN] Sets the attributes for a file">
<polygon fill="white" stroke="#666666" points="353,-132 194.5,-132 194.5,-100 353,-100 353,-132"/>
<text text-anchor="start" x="202.5" y="-118.5" font-family="Helvetica,sans-Serif" font-size="10.00">GalacticShrine.FichierReference.</text>
<text text-anchor="middle" x="273.75" y="-106.5" font-family="Helvetica,sans-Serif" font-size="10.00">DefinirDesAttributs</text>
</a>
</g>
</g>
<!-- Node1&#45;&gt;Node2 -->
<g id="edge1_Node000001_Node000002" class="edge">
<title>Node1&#45;&gt;Node2</title>
<g id="a_edge1_Node000001_Node000002"><a xlink:title=" ">
<path fill="none" stroke="#63b8ff" d="M143.55,-82.44C161.23,-87.03 180.59,-92.06 198.83,-96.8"/>
<polygon fill="#63b8ff" stroke="#63b8ff" points="197.85,-100.42 208.41,-99.55 199.61,-93.65 197.85,-100.42"/>
</a>
</g>
</g>
<!-- Node3 -->
<g id="Node000003" class="node">
<title>Node3</title>
<g id="a_Node000003"><a xlink:href="class_galactic_shrine_1_1_fichier_reference.html#a3546cdaa1d22cb5fa21f74703039beae" target="_top" xlink:title="[FR] Récupère les attributs d&#39;un fichier [EN] Gets the attributes for a file">
<polygon fill="white" stroke="#666666" points="353,-82 194.5,-82 194.5,-50 353,-50 353,-82"/>
<text text-anchor="start" x="202.5" y="-68.5" font-family="Helvetica,sans-Serif" font-size="10.00">GalacticShrine.FichierReference.</text>
<text text-anchor="middle" x="273.75" y="-56.5" font-family="Helvetica,sans-Serif" font-size="10.00">ObtenirDesAttributs</text>
</a>
</g>
</g>
<!-- Node1&#45;&gt;Node3 -->
<g id="edge2_Node000001_Node000003" class="edge">
<title>Node1&#45;&gt;Node3</title>
<g id="a_edge2_Node000001_Node000003"><a xlink:title=" ">
<path fill="none" stroke="#63b8ff" d="M158.82,-66C166.83,-66 175,-66 183.11,-66"/>
<polygon fill="#63b8ff" stroke="#63b8ff" points="183.11,-69.5 193.11,-66 183.11,-62.5 183.11,-69.5"/>
</a>
</g>
</g>
<!-- Node4 -->
<g id="Node000004" class="node">
<title>Node4</title>
<g id="a_Node000004"><a xlink:href="class_galactic_shrine_1_1_fichier_reference.html#a7d0d26fbec5ef0bf613a5df00d357c90" target="_top" xlink:title="[FR] Détermine si le nom de fichier donné existe ou non. [EN] Determines whether the given filename e...">
<polygon fill="white" stroke="#666666" points="353,-32 194.5,-32 194.5,0 353,0 353,-32"/>
<text text-anchor="start" x="202.5" y="-18.5" font-family="Helvetica,sans-Serif" font-size="10.00">GalacticShrine.FichierReference.</text>
<text text-anchor="middle" x="273.75" y="-6.5" font-family="Helvetica,sans-Serif" font-size="10.00">VerifieSiExiste</text>
</a>
</g>
</g>
<!-- Node1&#45;&gt;Node4 -->
<g id="edge3_Node000001_Node000004" class="edge">
<title>Node1&#45;&gt;Node4</title>
<g id="a_edge3_Node000001_Node000004"><a xlink:title=" ">
<path fill="none" stroke="#63b8ff" d="M143.55,-49.56C161.23,-44.97 180.59,-39.94 198.83,-35.2"/>
<polygon fill="#63b8ff" stroke="#63b8ff" points="199.61,-38.35 208.41,-32.45 197.85,-31.58 199.61,-38.35"/>
</a>
</g>
</g>
</g>
</svg>
