<?xml version="1.0" encoding="UTF-8" standalone="no"?>
<!DOCTYPE svg PUBLIC "-//W3C//DTD SVG 1.1//EN"
 "http://www.w3.org/Graphics/SVG/1.1/DTD/svg11.dtd">
<!-- Generated by graphviz version 8.1.0 (20230707.0739)
 -->
<!-- Title: GalacticShrine.FichierSystemeReference.ContientLeNom Pages: 1 -->
<svg width="350pt" height="58pt"
 viewBox="0.00 0.00 349.75 58.00" xmlns="http://www.w3.org/2000/svg" xmlns:xlink="http://www.w3.org/1999/xlink">
<g id="graph0" class="graph" transform="scale(1 1) rotate(0) translate(4 54)">
<title>GalacticShrine.FichierSystemeReference.ContientLeNom</title>
<!-- Node1 -->
<g id="Node000001" class="node">
<title>Node1</title>
<g id="a_Node000001"><a xlink:title="[FR] Détermine si l&#39;objet donné est sous le répertoire donné, dans un sous&#45;dossier du nom donné....">
<polygon fill="#999999" stroke="#666666" points="151,-32 0,-32 0,0 151,0 151,-32"/>
<text text-anchor="start" x="8" y="-18.5" font-family="Helvetica,sans-Serif" font-size="10.00">GalacticShrine.FichierSysteme</text>
<text text-anchor="middle" x="75.5" y="-6.5" font-family="Helvetica,sans-Serif" font-size="10.00">Reference.ContientLeNom</text>
</a>
</g>
</g>
<!-- Node1&#45;&gt;Node1 -->
<g id="edge1_Node000001_Node000001" class="edge">
<title>Node1&#45;&gt;Node1</title>
<g id="a_edge1_Node000001_Node000001"><a xlink:title=" ">
<path fill="none" stroke="#63b8ff" d="M41.78,-32.44C35.49,-41.58 46.73,-50 75.5,-50 92.13,-50 102.91,-47.19 107.82,-43.05"/>
<polygon fill="#63b8ff" stroke="#63b8ff" points="111.38,-43.81 109.22,-33.44 104.44,-42.9 111.38,-43.81"/>
</a>
</g>
</g>
<!-- Node2 -->
<g id="Node000002" class="node">
<title>Node2</title>
<g id="a_Node000002"><a xlink:href="class_galactic_shrine_1_1_fichier_systeme_reference.html#abfc03c5b2589c13d5ada90301886908f" target="_top" xlink:title="[FR] Détermine si l&#39;objet donné est dans ou sous le répertoire donné. [EN] Determines if the given ob...">
<polygon fill="white" stroke="#666666" points="341.75,-32 187,-32 187,0 341.75,0 341.75,-32"/>
<text text-anchor="start" x="195" y="-18.5" font-family="Helvetica,sans-Serif" font-size="10.00">GalacticShrine.FichierSysteme</text>
<text text-anchor="middle" x="264.38" y="-6.5" font-family="Helvetica,sans-Serif" font-size="10.00">Reference.EstSousLeRepertoire</text>
</a>
</g>
</g>
<!-- Node1&#45;&gt;Node2 -->
<g id="edge2_Node000001_Node000002" class="edge">
<title>Node1&#45;&gt;Node2</title>
<g id="a_edge2_Node000001_Node000002"><a xlink:title=" ">
<path fill="none" stroke="#63b8ff" d="M151.43,-16C159.39,-16 167.54,-16 175.62,-16"/>
<polygon fill="#63b8ff" stroke="#63b8ff" points="175.59,-19.5 185.59,-16 175.59,-12.5 175.59,-19.5"/>
</a>
</g>
</g>
</g>
</svg>
