<?xml version="1.0" encoding="UTF-8" standalone="no"?>
<!DOCTYPE svg PUBLIC "-//W3C//DTD SVG 1.1//EN"
 "http://www.w3.org/Graphics/SVG/1.1/DTD/svg11.dtd">
<!-- Generated by graphviz version 8.1.0 (20230707.0739)
 -->
<!-- Title: GalacticShrine.Modele.Configuration.Ini.ProprieteCollection.Effacer Pages: 1 -->
<svg width="575pt" height="90pt"
 viewBox="0.00 0.00 575.00 90.00" xmlns="http://www.w3.org/2000/svg" xmlns:xlink="http://www.w3.org/1999/xlink">
<g id="graph0" class="graph" transform="scale(1 1) rotate(0) translate(4 86)">
<title>GalacticShrine.Modele.Configuration.Ini.ProprieteCollection.Effacer</title>
<!-- Node1 -->
<g id="Node000001" class="node">
<title>Node1</title>
<g id="a_Node000001"><a xlink:title="[FR] Fonction de suppression. &#160;[EN] Deletion function.">
<polygon fill="#999999" stroke="#666666" points="567,-57 390.5,-57 390.5,-25 567,-25 567,-57"/>
<text text-anchor="start" x="398.5" y="-43.5" font-family="Helvetica,sans-Serif" font-size="10.00">GalacticShrine.Modele.Configuration.</text>
<text text-anchor="middle" x="478.75" y="-31.5" font-family="Helvetica,sans-Serif" font-size="10.00">Ini.ProprieteCollection.Effacer</text>
</a>
</g>
</g>
<!-- Node2 -->
<g id="Node000002" class="node">
<title>Node2</title>
<g id="a_Node000002"><a xlink:href="class_galactic_shrine_1_1_configuration_1_1_donnees_ini.html#acc7e48b9185281a6d872a5598a728143" target="_top" xlink:title="[FR] Fonction de suppression. &#160;[EN] Deletion function.">
<polygon fill="white" stroke="#666666" points="337.25,-82 195.25,-82 195.25,-50 337.25,-50 337.25,-82"/>
<text text-anchor="start" x="203.25" y="-68.5" font-family="Helvetica,sans-Serif" font-size="10.00">GalacticShrine.Configuration.</text>
<text text-anchor="middle" x="266.25" y="-56.5" font-family="Helvetica,sans-Serif" font-size="10.00">DonneesIni.Effacer</text>
</a>
</g>
</g>
<!-- Node1&#45;&gt;Node2 -->
<g id="edge1_Node000001_Node000002" class="edge">
<title>Node1&#45;&gt;Node2</title>
<g id="a_edge1_Node000001_Node000002"><a xlink:title=" ">
<path fill="none" stroke="#63b8ff" d="M379.28,-52.69C365.2,-54.37 350.95,-56.06 337.56,-57.65"/>
<polygon fill="#63b8ff" stroke="#63b8ff" points="379.49,-56.08 389,-51.42 378.66,-49.13 379.49,-56.08"/>
</a>
</g>
</g>
<!-- Node4 -->
<g id="Node000004" class="node">
<title>Node4</title>
<g id="a_Node000004"><a xlink:href="class_galactic_shrine_1_1_modele_1_1_configuration_1_1_ini_1_1_section.html#a3607f3b52d47ef96df71f9d0c8df2877" target="_top" xlink:title="[FR] Fonction de suppression. &#160;[EN] Deletion function.">
<polygon fill="white" stroke="#666666" points="354.5,-32 178,-32 178,0 354.5,0 354.5,-32"/>
<text text-anchor="start" x="186" y="-18.5" font-family="Helvetica,sans-Serif" font-size="10.00">GalacticShrine.Modele.Configuration.</text>
<text text-anchor="middle" x="266.25" y="-6.5" font-family="Helvetica,sans-Serif" font-size="10.00">Ini.Section.Effacer</text>
</a>
</g>
</g>
<!-- Node1&#45;&gt;Node4 -->
<g id="edge3_Node000001_Node000004" class="edge">
<title>Node1&#45;&gt;Node4</title>
<g id="a_edge3_Node000001_Node000004"><a xlink:title=" ">
<path fill="none" stroke="#63b8ff" d="M379.32,-29.31C371.15,-28.34 362.93,-27.36 354.85,-26.4"/>
<polygon fill="#63b8ff" stroke="#63b8ff" points="378.66,-32.87 389,-30.58 379.49,-25.92 378.66,-32.87"/>
</a>
</g>
</g>
<!-- Node3 -->
<g id="Node000003" class="node">
<title>Node3</title>
<g id="a_Node000003"><a xlink:href="class_galactic_shrine_1_1_configuration_1_1_ini.html#ac15c07bfff5ae1ddc1dc255904aa5f70" target="_top" xlink:title="[FR] Analyse une chaîne contenant des données ini valides. &#160;[EN] Parses a string containing valid ini...">
<polygon fill="white" stroke="#666666" points="142,-82 0,-82 0,-50 142,-50 142,-82"/>
<text text-anchor="start" x="8" y="-68.5" font-family="Helvetica,sans-Serif" font-size="10.00">GalacticShrine.Configuration.</text>
<text text-anchor="middle" x="71" y="-56.5" font-family="Helvetica,sans-Serif" font-size="10.00">Ini.Analyse</text>
</a>
</g>
</g>
<!-- Node2&#45;&gt;Node3 -->
<g id="edge2_Node000002_Node000003" class="edge">
<title>Node2&#45;&gt;Node3</title>
<g id="a_edge2_Node000002_Node000003"><a xlink:title=" ">
<path fill="none" stroke="#63b8ff" d="M183.94,-66C170.09,-66 155.8,-66 142.26,-66"/>
<polygon fill="#63b8ff" stroke="#63b8ff" points="183.94,-69.5 193.94,-66 183.94,-62.5 183.94,-69.5"/>
</a>
</g>
</g>
</g>
</svg>
