<?xml version="1.0" encoding="UTF-8" standalone="no"?>
<!DOCTYPE svg PUBLIC "-//W3C//DTD SVG 1.1//EN"
 "http://www.w3.org/Graphics/SVG/1.1/DTD/svg11.dtd">
<!-- Generated by graphviz version 8.1.0 (20230707.0739)
 -->
<!-- Title: GalacticShrine.FichierReference Pages: 1 -->
<svg width="306pt" height="165pt"
 viewBox="0.00 0.00 306.12 165.00" xmlns="http://www.w3.org/2000/svg" xmlns:xlink="http://www.w3.org/1999/xlink">
<g id="graph0" class="graph" transform="scale(1 1) rotate(0) translate(4 161)">
<title>GalacticShrine.FichierReference</title>
<!-- Node1 -->
<g id="Node000001" class="node">
<title>Node1</title>
<g id="a_Node000001"><a xlink:title="[FR] Représentation d&#39;un chemin de fichier absolu. Permet des hachages et des comparaisons rapides....">
<polygon fill="#999999" stroke="#666666" points="259.62,-20 104.12,-20 104.12,0 259.62,0 259.62,-20"/>
<text text-anchor="middle" x="181.88" y="-6.5" font-family="Helvetica,sans-Serif" font-size="10.00">GalacticShrine.FichierReference</text>
</a>
</g>
</g>
<!-- Node2 -->
<g id="Node000002" class="node">
<title>Node2</title>
<g id="a_Node000002"><a xlink:href="class_galactic_shrine_1_1_fichier_systeme_reference.html" target="_top" xlink:title="[FR] Classe de base pour les objets du système de fichiers (fichiers ou répertoires)....">
<polygon fill="white" stroke="#666666" points="127.75,-77 0,-77 0,-57 127.75,-57 127.75,-77"/>
<text text-anchor="middle" x="63.88" y="-63.5" font-family="Helvetica,sans-Serif" font-size="10.00">FichierSystemeReference</text>
</a>
</g>
</g>
<!-- Node2&#45;&gt;Node1 -->
<g id="edge1_Node000001_Node000002" class="edge">
<title>Node2&#45;&gt;Node1</title>
<g id="a_edge1_Node000001_Node000002"><a xlink:title=" ">
<path fill="none" stroke="#63b8ff" d="M94.01,-51.95C115.3,-42.03 143.26,-29 161.85,-20.33"/>
<polygon fill="#63b8ff" stroke="#63b8ff" points="92.75,-49.15 85.16,-56.55 95.7,-55.49 92.75,-49.15"/>
</a>
</g>
</g>
<!-- Node3 -->
<g id="Node000003" class="node">
<title>Node3</title>
<g id="a_Node000003"><a xlink:title=" ">
<polygon fill="white" stroke="#666666" points="83.88,-157 43.88,-157 43.88,-137 83.88,-137 83.88,-157"/>
<text text-anchor="middle" x="63.88" y="-143.5" font-family="Helvetica,sans-Serif" font-size="10.00">static</text>
</a>
</g>
</g>
<!-- Node3&#45;&gt;Node2 -->
<g id="edge2_Node000002_Node000003" class="edge">
<title>Node3&#45;&gt;Node2</title>
<g id="a_edge2_Node000002_Node000003"><a xlink:title=" ">
<path fill="none" stroke="#9a32cd" stroke-dasharray="5,2" d="M63.88,-126.05C63.88,-110.35 63.88,-89.2 63.88,-77.24"/>
<polygon fill="#9a32cd" stroke="#9a32cd" points="60.38,-125.75 63.88,-135.75 67.38,-125.75 60.38,-125.75"/>
</a>
</g>
<text text-anchor="middle" x="93.88" y="-109.5" font-family="Helvetica,sans-Serif" font-size="10.00" fill="grey"> Comparaison</text>
<text text-anchor="middle" x="93.88" y="-97.5" font-family="Helvetica,sans-Serif" font-size="10.00" fill="grey">Comparateur</text>
</g>
<!-- Node4 -->
<g id="Node000004" class="node">
<title>Node4</title>
<g id="a_Node000004"><a xlink:title=" ">
<polygon fill="white" stroke="#666666" points="298.12,-77 145.62,-77 145.62,-57 298.12,-57 298.12,-77"/>
<text text-anchor="middle" x="221.88" y="-63.5" font-family="Helvetica,sans-Serif" font-size="10.00">IEquatable&lt; FichierReference &gt;</text>
</a>
</g>
</g>
<!-- Node4&#45;&gt;Node1 -->
<g id="edge3_Node000001_Node000004" class="edge">
<title>Node4&#45;&gt;Node1</title>
<g id="a_edge3_Node000001_Node000004"><a xlink:title=" ">
<path fill="none" stroke="#63b8ff" d="M208.83,-48.06C202.08,-38.79 194.13,-27.86 188.62,-20.28"/>
<polygon fill="#63b8ff" stroke="#63b8ff" points="206.56,-49.89 215.27,-55.92 212.22,-45.77 206.56,-49.89"/>
</a>
</g>
</g>
</g>
</svg>
