<?xml version="1.0" encoding="UTF-8" standalone="no"?>
<!DOCTYPE svg PUBLIC "-//W3C//DTD SVG 1.1//EN"
 "http://www.w3.org/Graphics/SVG/1.1/DTD/svg11.dtd">
<!-- Generated by graphviz version 8.1.0 (20230707.0739)
 -->
<!-- Title: GalacticShrine.FichierSystemeReference Pages: 1 -->
<svg width="340pt" height="96pt"
 viewBox="0.00 0.00 340.38 96.00" xmlns="http://www.w3.org/2000/svg" xmlns:xlink="http://www.w3.org/1999/xlink">
<g id="graph0" class="graph" transform="scale(1 1) rotate(0) translate(4 92)">
<title>GalacticShrine.FichierSystemeReference</title>
<!-- Node1 -->
<g id="Node000001" class="node">
<title>Node1</title>
<g id="a_Node000001"><a xlink:title="[FR] Classe de base pour les objets du système de fichiers (fichiers ou répertoires)....">
<polygon fill="#999999" stroke="#666666" points="242.12,-88 91.12,-88 91.12,-56 242.12,-56 242.12,-88"/>
<text text-anchor="start" x="99.12" y="-74.5" font-family="Helvetica,sans-Serif" font-size="10.00">GalacticShrine.FichierSysteme</text>
<text text-anchor="middle" x="166.62" y="-62.5" font-family="Helvetica,sans-Serif" font-size="10.00">Reference</text>
</a>
</g>
</g>
<!-- Node2 -->
<g id="Node000002" class="node">
<title>Node2</title>
<g id="a_Node000002"><a xlink:href="class_galactic_shrine_1_1_dossier_reference.html" target="_top" xlink:title="[FR] Représentation d&#39;un chemin de répertoire absolu. Permet un hachage et des comparaisons rapides....">
<polygon fill="white" stroke="#666666" points="159.25,-20 0,-20 0,0 159.25,0 159.25,-20"/>
<text text-anchor="middle" x="79.62" y="-6.5" font-family="Helvetica,sans-Serif" font-size="10.00">GalacticShrine.DossierReference</text>
</a>
</g>
</g>
<!-- Node1&#45;&gt;Node2 -->
<g id="edge1_Node000001_Node000002" class="edge">
<title>Node1&#45;&gt;Node2</title>
<g id="a_edge1_Node000001_Node000002"><a xlink:title=" ">
<path fill="none" stroke="#63b8ff" d="M135.53,-49.55C121.04,-39.56 104.56,-28.2 93.27,-20.41"/>
<polygon fill="#63b8ff" stroke="#63b8ff" points="133,-52.75 143.22,-55.55 136.98,-46.99 133,-52.75"/>
</a>
</g>
</g>
<!-- Node3 -->
<g id="Node000003" class="node">
<title>Node3</title>
<g id="a_Node000003"><a xlink:href="class_galactic_shrine_1_1_fichier_reference.html" target="_top" xlink:title="[FR] Représentation d&#39;un chemin de fichier absolu. Permet des hachages et des comparaisons rapides....">
<polygon fill="white" stroke="#666666" points="332.38,-20 176.88,-20 176.88,0 332.38,0 332.38,-20"/>
<text text-anchor="middle" x="254.62" y="-6.5" font-family="Helvetica,sans-Serif" font-size="10.00">GalacticShrine.FichierReference</text>
</a>
</g>
</g>
<!-- Node1&#45;&gt;Node3 -->
<g id="edge2_Node000001_Node000003" class="edge">
<title>Node1&#45;&gt;Node3</title>
<g id="a_edge2_Node000001_Node000003"><a xlink:title=" ">
<path fill="none" stroke="#63b8ff" d="M198.08,-49.55C212.73,-39.56 229.4,-28.2 240.83,-20.41"/>
<polygon fill="#63b8ff" stroke="#63b8ff" points="196.58,-47.02 190.29,-55.55 200.52,-52.81 196.58,-47.02"/>
</a>
</g>
</g>
</g>
</svg>
