<?xml version="1.0" encoding="UTF-8" standalone="no"?>
<!DOCTYPE svg PUBLIC "-//W3C//DTD SVG 1.1//EN"
 "http://www.w3.org/Graphics/SVG/1.1/DTD/svg11.dtd">
<!-- Generated by graphviz version 8.1.0 (20230707.0739)
 -->
<!-- Title: GalacticShrine.Configuration.DonneesIni.Fusionner Pages: 1 -->
<svg width="788pt" height="90pt"
 viewBox="0.00 0.00 787.50 90.00" xmlns="http://www.w3.org/2000/svg" xmlns:xlink="http://www.w3.org/1999/xlink">
<g id="graph0" class="graph" transform="scale(1 1) rotate(0) translate(4 86)">
<title>GalacticShrine.Configuration.DonneesIni.Fusionner</title>
<!-- Node1 -->
<g id="Node000001" class="node">
<title>Node1</title>
<g id="a_Node000001"><a xlink:title="[FR] Fusionne les autres iniData dans celle&#45;ci en écrasant les valeurs existantes....">
<polygon fill="#999999" stroke="#666666" points="142,-57 0,-57 0,-25 142,-25 142,-57"/>
<text text-anchor="start" x="8" y="-43.5" font-family="Helvetica,sans-Serif" font-size="10.00">GalacticShrine.Configuration.</text>
<text text-anchor="middle" x="71" y="-31.5" font-family="Helvetica,sans-Serif" font-size="10.00">DonneesIni.Fusionner</text>
</a>
</g>
</g>
<!-- Node2 -->
<g id="Node000002" class="node">
<title>Node2</title>
<g id="a_Node000002"><a xlink:href="class_galactic_shrine_1_1_modele_1_1_configuration_1_1_ini_1_1_propriete_collection.html#ad3c80f6686b1e2a9450af794508039fe" target="_top" xlink:title="[FR] Fusionne les autres propriétés, &#160;en ajoutant de nouvelles propriétés si elles n&#39;existent pas déj...">
<polygon fill="white" stroke="#666666" points="354.5,-82 178,-82 178,-50 354.5,-50 354.5,-82"/>
<text text-anchor="start" x="186" y="-68.5" font-family="Helvetica,sans-Serif" font-size="10.00">GalacticShrine.Modele.Configuration.</text>
<text text-anchor="middle" x="266.25" y="-56.5" font-family="Helvetica,sans-Serif" font-size="10.00">Ini.ProprieteCollection.Fusionner</text>
</a>
</g>
</g>
<!-- Node1&#45;&gt;Node2 -->
<g id="edge1_Node000001_Node000002" class="edge">
<title>Node1&#45;&gt;Node2</title>
<g id="a_edge1_Node000001_Node000002"><a xlink:title=" ">
<path fill="none" stroke="#63b8ff" d="M142.31,-50.1C150.27,-51.13 158.48,-52.19 166.71,-53.25"/>
<polygon fill="#63b8ff" stroke="#63b8ff" points="166.15,-56.84 176.52,-54.65 167.05,-49.9 166.15,-56.84"/>
</a>
</g>
</g>
<!-- Node4 -->
<g id="Node000004" class="node">
<title>Node4</title>
<g id="a_Node000004"><a xlink:href="class_galactic_shrine_1_1_modele_1_1_configuration_1_1_ini_1_1_section_collection.html#ac2f833e033dd9b7cb49023856a6ae7c9" target="_top" xlink:title=" ">
<polygon fill="white" stroke="#666666" points="354.5,-32 178,-32 178,0 354.5,0 354.5,-32"/>
<text text-anchor="start" x="186" y="-18.5" font-family="Helvetica,sans-Serif" font-size="10.00">GalacticShrine.Modele.Configuration.</text>
<text text-anchor="middle" x="266.25" y="-6.5" font-family="Helvetica,sans-Serif" font-size="10.00">Ini.SectionCollection.Fusionner</text>
</a>
</g>
</g>
<!-- Node1&#45;&gt;Node4 -->
<g id="edge3_Node000001_Node000004" class="edge">
<title>Node1&#45;&gt;Node4</title>
<g id="a_edge3_Node000001_Node000004"><a xlink:title=" ">
<path fill="none" stroke="#63b8ff" d="M142.31,-31.9C150.27,-30.87 158.48,-29.81 166.71,-28.75"/>
<polygon fill="#63b8ff" stroke="#63b8ff" points="167.05,-32.1 176.52,-27.35 166.15,-25.16 167.05,-32.1"/>
</a>
</g>
</g>
<!-- Node3 -->
<g id="Node000003" class="node">
<title>Node3</title>
<g id="a_Node000003"><a xlink:href="class_galactic_shrine_1_1_modele_1_1_configuration_1_1_ini_1_1_propriete_collection.html#adc268cf273d84c086d7c84efe77aa488" target="_top" xlink:title="[FR] Ajoute une nouvelle clé avec le nom spécifié, une valeur vide et des commentaires....">
<polygon fill="white" stroke="#666666" points="567,-82 390.5,-82 390.5,-50 567,-50 567,-82"/>
<text text-anchor="start" x="398.5" y="-68.5" font-family="Helvetica,sans-Serif" font-size="10.00">GalacticShrine.Modele.Configuration.</text>
<text text-anchor="middle" x="478.75" y="-56.5" font-family="Helvetica,sans-Serif" font-size="10.00">Ini.ProprieteCollection.Ajouter</text>
</a>
</g>
</g>
<!-- Node2&#45;&gt;Node3 -->
<g id="edge2_Node000002_Node000003" class="edge">
<title>Node2&#45;&gt;Node3</title>
<g id="a_edge2_Node000002_Node000003"><a xlink:title=" ">
<path fill="none" stroke="#63b8ff" d="M355,-66C362.99,-66 371.11,-66 379.19,-66"/>
<polygon fill="#63b8ff" stroke="#63b8ff" points="379.15,-69.5 389.15,-66 379.15,-62.5 379.15,-69.5"/>
</a>
</g>
</g>
<!-- Node5 -->
<g id="Node000005" class="node">
<title>Node5</title>
<g id="a_Node000005"><a xlink:href="class_galactic_shrine_1_1_modele_1_1_configuration_1_1_ini_1_1_section_collection.html#ab439f8ed108317714dae058d645f56c0" target="_top" xlink:title="[FR] Crée une nouvelle section avec des données vides. &#160;[EN] Creates a new section with empty data.">
<polygon fill="white" stroke="#666666" points="567,-32 390.5,-32 390.5,0 567,0 567,-32"/>
<text text-anchor="start" x="398.5" y="-18.5" font-family="Helvetica,sans-Serif" font-size="10.00">GalacticShrine.Modele.Configuration.</text>
<text text-anchor="middle" x="478.75" y="-6.5" font-family="Helvetica,sans-Serif" font-size="10.00">Ini.SectionCollection.Ajouter</text>
</a>
</g>
</g>
<!-- Node4&#45;&gt;Node5 -->
<g id="edge4_Node000004_Node000005" class="edge">
<title>Node4&#45;&gt;Node5</title>
<g id="a_edge4_Node000004_Node000005"><a xlink:title=" ">
<path fill="none" stroke="#63b8ff" d="M355,-16C362.99,-16 371.11,-16 379.19,-16"/>
<polygon fill="#63b8ff" stroke="#63b8ff" points="379.15,-19.5 389.15,-16 379.15,-12.5 379.15,-19.5"/>
</a>
</g>
</g>
<!-- Node6 -->
<g id="Node000006" class="node">
<title>Node6</title>
<g id="a_Node000006"><a xlink:href="class_galactic_shrine_1_1_modele_1_1_configuration_1_1_ini_1_1_section_collection.html#a059d00b51e709988710f540717083478" target="_top" xlink:title="[FR] Permet de savoir si une section portant le nom spécifié existe dans la collection....">
<polygon fill="white" stroke="#666666" points="779.5,-32 603,-32 603,0 779.5,0 779.5,-32"/>
<text text-anchor="start" x="611" y="-18.5" font-family="Helvetica,sans-Serif" font-size="10.00">GalacticShrine.Modele.Configuration.</text>
<text text-anchor="middle" x="691.25" y="-6.5" font-family="Helvetica,sans-Serif" font-size="10.00">Ini.SectionCollection.Contient</text>
</a>
</g>
</g>
<!-- Node5&#45;&gt;Node6 -->
<g id="edge5_Node000005_Node000006" class="edge">
<title>Node5&#45;&gt;Node6</title>
<g id="a_edge5_Node000005_Node000006"><a xlink:title=" ">
<path fill="none" stroke="#63b8ff" d="M567.5,-16C575.49,-16 583.61,-16 591.69,-16"/>
<polygon fill="#63b8ff" stroke="#63b8ff" points="591.65,-19.5 601.65,-16 591.65,-12.5 591.65,-19.5"/>
</a>
</g>
</g>
</g>
</svg>
