<?xml version="1.0" encoding="UTF-8" standalone="no"?>
<!DOCTYPE svg PUBLIC "-//W3C//DTD SVG 1.1//EN"
 "http://www.w3.org/Graphics/SVG/1.1/DTD/svg11.dtd">
<!-- Generated by graphviz version 8.1.0 (20230707.0739)
 -->
<!-- Title: GalacticShrine.Configuration.DonneesIni Pages: 1 -->
<svg width="537pt" height="90pt"
 viewBox="0.00 0.00 537.00 90.00" xmlns="http://www.w3.org/2000/svg" xmlns:xlink="http://www.w3.org/1999/xlink">
<g id="graph0" class="graph" transform="scale(1 1) rotate(0) translate(4 86)">
<title>GalacticShrine.Configuration.DonneesIni</title>
<!-- Node1 -->
<g id="Node000001" class="node">
<title>Node1</title>
<g id="a_Node000001"><a xlink:title=" ">
<polygon fill="#999999" stroke="#666666" points="529,-57 387,-57 387,-25 529,-25 529,-57"/>
<text text-anchor="start" x="395" y="-43.5" font-family="Helvetica,sans-Serif" font-size="10.00">GalacticShrine.Configuration.</text>
<text text-anchor="middle" x="458" y="-31.5" font-family="Helvetica,sans-Serif" font-size="10.00">DonneesIni</text>
</a>
</g>
</g>
<!-- Node2 -->
<g id="Node000002" class="node">
<title>Node2</title>
<g id="a_Node000002"><a xlink:href="interface_galactic_shrine_1_1_interface_1_1_configuration_1_1_clonable_interface.html" target="_top" xlink:title=" ">
<polygon fill="white" stroke="#666666" points="252.38,-82 156.12,-82 156.12,-50 252.38,-50 252.38,-82"/>
<text text-anchor="start" x="164.12" y="-68.5" font-family="Helvetica,sans-Serif" font-size="10.00">ClonableInterface&lt;</text>
<text text-anchor="middle" x="204.25" y="-56.5" font-family="Helvetica,sans-Serif" font-size="10.00"> DonneesIni &gt;</text>
</a>
</g>
</g>
<!-- Node2&#45;&gt;Node1 -->
<g id="edge1_Node000001_Node000002" class="edge">
<title>Node2&#45;&gt;Node1</title>
<g id="a_edge1_Node000001_Node000002"><a xlink:title=" ">
<path fill="none" stroke="#63b8ff" d="M263.14,-60.25C299.86,-56.6 347.62,-51.86 386.54,-48"/>
<polygon fill="#63b8ff" stroke="#63b8ff" points="263.21,-56.83 253.6,-61.3 263.9,-63.79 263.21,-56.83"/>
</a>
</g>
</g>
<!-- Node3 -->
<g id="Node000003" class="node">
<title>Node3</title>
<g id="a_Node000003"><a xlink:href="class_galactic_shrine_1_1_configuration_1_1_configuration_1_1_schema_ini.html" target="_top" xlink:title="[FR] Cette structure définit le format du fichier INI en personnalisant les caractères utilisés &#160;pour...">
<polygon fill="white" stroke="#666666" points="275.25,-32 133.25,-32 133.25,0 275.25,0 275.25,-32"/>
<text text-anchor="start" x="141.25" y="-18.5" font-family="Helvetica,sans-Serif" font-size="10.00">GalacticShrine.Configuration.</text>
<text text-anchor="middle" x="204.25" y="-6.5" font-family="Helvetica,sans-Serif" font-size="10.00">Configuration.SchemaIni</text>
</a>
</g>
</g>
<!-- Node3&#45;&gt;Node1 -->
<g id="edge2_Node000001_Node000003" class="edge">
<title>Node3&#45;&gt;Node1</title>
<g id="a_edge2_Node000001_Node000003"><a xlink:title=" ">
<path fill="none" stroke="#9a32cd" stroke-dasharray="5,2" d="M286.46,-24.06C318.71,-27.27 355.45,-30.92 386.56,-34"/>
<polygon fill="#9a32cd" stroke="#9a32cd" points="287.01,-20.5 276.71,-23 286.32,-27.47 287.01,-20.5"/>
</a>
</g>
<text text-anchor="middle" x="331.12" y="-34.5" font-family="Helvetica,sans-Serif" font-size="10.00" fill="grey"> SchemaInstance</text>
</g>
<!-- Node4 -->
<g id="Node000004" class="node">
<title>Node4</title>
<g id="a_Node000004"><a xlink:href="interface_galactic_shrine_1_1_interface_1_1_configuration_1_1_clonable_interface.html" target="_top" xlink:title=" ">
<polygon fill="white" stroke="#666666" points="96.25,-32 0,-32 0,0 96.25,0 96.25,-32"/>
<text text-anchor="start" x="8" y="-18.5" font-family="Helvetica,sans-Serif" font-size="10.00">ClonableInterface&lt;</text>
<text text-anchor="middle" x="48.12" y="-6.5" font-family="Helvetica,sans-Serif" font-size="10.00"> SchemaIni &gt;</text>
</a>
</g>
</g>
<!-- Node4&#45;&gt;Node3 -->
<g id="edge3_Node000003_Node000004" class="edge">
<title>Node4&#45;&gt;Node3</title>
<g id="a_edge3_Node000003_Node000004"><a xlink:title=" ">
<path fill="none" stroke="#63b8ff" d="M107.39,-16C115.74,-16 124.4,-16 132.96,-16"/>
<polygon fill="#63b8ff" stroke="#63b8ff" points="107.63,-12.5 97.63,-16 107.63,-19.5 107.63,-12.5"/>
</a>
</g>
</g>
</g>
</svg>
