<?xml version="1.0" encoding="UTF-8" standalone="no"?>
<!DOCTYPE svg PUBLIC "-//W3C//DTD SVG 1.1//EN"
 "http://www.w3.org/Graphics/SVG/1.1/DTD/svg11.dtd">
<!-- Generated by graphviz version 12.2.0 (20241103.1931)
 -->
<!-- Title: GalacticShrine.Interface.Configuration.ClonableInterface&#45;1&#45;g.CloneEnProfondeur Pages: 1 -->
<svg width="1201pt" height="364pt"
 viewBox="0.00 0.00 1200.50 364.00" xmlns="http://www.w3.org/2000/svg" xmlns:xlink="http://www.w3.org/1999/xlink">
<g id="graph0" class="graph" transform="scale(1 1) rotate(0) translate(4 360)">
<title>GalacticShrine.Interface.Configuration.ClonableInterface&#45;1&#45;g.CloneEnProfondeur</title>
<!-- Node1 -->
<g id="Node000001" class="node">
<title>Node1</title>
<g id="a_Node000001"><a xlink:title="[FR] Crée un nouvel objet qui est une copie de l&#39;instance actuelle. [EN] Creates a new object that is...">
<polygon fill="#999999" stroke="#666666" points="1192.5,-184 1039.25,-184 1039.25,-140 1192.5,-140 1192.5,-184"/>
<text text-anchor="start" x="1047.25" y="-170.5" font-family="Helvetica,sans-Serif" font-size="10.00">GalacticShrine.Interface.</text>
<text text-anchor="start" x="1047.25" y="-158.5" font-family="Helvetica,sans-Serif" font-size="10.00">Configuration.ClonableInterface</text>
<text text-anchor="middle" x="1115.88" y="-146.5" font-family="Helvetica,sans-Serif" font-size="10.00">&#45;1&#45;g.CloneEnProfondeur</text>
</a>
</g>
</g>
<!-- Node2 -->
<g id="Node000002" class="node">
<title>Node2</title>
<g id="a_Node000002"><a xlink:href="../../d2/dc5/class_galactic_shrine_1_1_modele_1_1_configuration_1_1_ini_1_1_section_collection.html#a059d00b51e709988710f540717083478" target="_top" xlink:title="[FR] Permet de savoir si une section portant le nom spécifié existe dans la collection....">
<polygon fill="white" stroke="#666666" points="984.12,-306 806.12,-306 806.12,-274 984.12,-274 984.12,-306"/>
<text text-anchor="start" x="814.12" y="-292.5" font-family="Helvetica,sans-Serif" font-size="10.00">GalacticShrine.Modele.Configuration.</text>
<text text-anchor="middle" x="895.12" y="-280.5" font-family="Helvetica,sans-Serif" font-size="10.00">Ini.SectionCollection.Contient</text>
</a>
</g>
</g>
<!-- Node1&#45;&gt;Node2 -->
<g id="edge1_Node000001_Node000002" class="edge">
<title>Node1&#45;&gt;Node2</title>
<g id="a_edge1_Node000001_Node000002"><a xlink:title=" ">
<path fill="none" stroke="#63b8ff" d="M1089.73,-192.58C1068.92,-215.88 1037.34,-246.94 1003.25,-265 997.09,-268.26 990.51,-271.1 983.75,-273.58"/>
<polygon fill="#63b8ff" stroke="#63b8ff" points="1092.22,-195.04 1096.17,-185.21 1086.95,-190.44 1092.22,-195.04"/>
</a>
</g>
</g>
<!-- Node9 -->
<g id="Node000009" class="node">
<title>Node9</title>
<g id="a_Node000009"><a xlink:href="../../d2/d45/class_galactic_shrine_1_1_configuration_1_1_donnees_ini.html#a9642ba6cb2fcaa90b88f939c12ade18c" target="_top" xlink:title="[FR] Initialise une instance DonneesIni. &#160;[EN] Initializes an IniData instance.">
<polygon fill="white" stroke="#666666" points="966.88,-256 823.38,-256 823.38,-224 966.88,-224 966.88,-256"/>
<text text-anchor="start" x="831.38" y="-242.5" font-family="Helvetica,sans-Serif" font-size="10.00">GalacticShrine.Configuration.</text>
<text text-anchor="middle" x="895.12" y="-230.5" font-family="Helvetica,sans-Serif" font-size="10.00">DonneesIni.DonneesIni</text>
</a>
</g>
</g>
<!-- Node1&#45;&gt;Node9 -->
<g id="edge9_Node000001_Node000009" class="edge">
<title>Node1&#45;&gt;Node9</title>
<g id="a_edge9_Node000001_Node000009"><a xlink:title=" ">
<path fill="none" stroke="#63b8ff" d="M1062.86,-189.53C1044.4,-198.54 1023.23,-208.01 1003.25,-215 991.8,-219 979.44,-222.56 967.33,-225.64"/>
<polygon fill="#63b8ff" stroke="#63b8ff" points="1064.35,-192.7 1071.75,-185.12 1061.24,-186.43 1064.35,-192.7"/>
</a>
</g>
</g>
<!-- Node10 -->
<g id="Node000010" class="node">
<title>Node10</title>
<g id="a_Node000010"><a xlink:href="../../d2/d45/class_galactic_shrine_1_1_configuration_1_1_donnees_ini.html#aab972dd194e66917eecad57bff736890" target="_top" xlink:title="[FR] Initialise une instance avec un schéma donné. &#160;[EN] Initializes an instance with a given schema.">
<polygon fill="white" stroke="#666666" points="966.88,-206 823.38,-206 823.38,-174 966.88,-174 966.88,-206"/>
<text text-anchor="start" x="831.38" y="-192.5" font-family="Helvetica,sans-Serif" font-size="10.00">GalacticShrine.Configuration.</text>
<text text-anchor="middle" x="895.12" y="-180.5" font-family="Helvetica,sans-Serif" font-size="10.00">DonneesIni.DonneesIni</text>
</a>
</g>
</g>
<!-- Node1&#45;&gt;Node10 -->
<g id="edge10_Node000001_Node000010" class="edge">
<title>Node1&#45;&gt;Node10</title>
<g id="a_edge10_Node000001_Node000010"><a xlink:title=" ">
<path fill="none" stroke="#63b8ff" d="M1027.62,-173.17C1007.53,-175.74 986.41,-178.44 967.11,-180.91"/>
<polygon fill="#63b8ff" stroke="#63b8ff" points="1028,-176.65 1037.48,-171.91 1027.12,-169.7 1028,-176.65"/>
</a>
</g>
</g>
<!-- Node11 -->
<g id="Node000011" class="node">
<title>Node11</title>
<g id="a_Node000011"><a xlink:href="../../df/da5/class_galactic_shrine_1_1_modele_1_1_configuration_1_1_ini_1_1_donnees_ini_insensible_a___la_casse.html#ad080218198a71aaf88312025d16a6add" target="_top" xlink:title="[FR] Copie une instance de la classe GalacticShrine.Modele.Configuration.Ini.DonneesIniInsensibleA_La...">
<polygon fill="white" stroke="#666666" points="1003.25,-156 787,-156 787,-112 1003.25,-112 1003.25,-156"/>
<text text-anchor="start" x="795" y="-142.5" font-family="Helvetica,sans-Serif" font-size="10.00">GalacticShrine.Modele.Configuration.</text>
<text text-anchor="start" x="795" y="-130.5" font-family="Helvetica,sans-Serif" font-size="10.00">Ini.DonneesIniInsensibleA_LaCasse.Donnees</text>
<text text-anchor="middle" x="895.12" y="-118.5" font-family="Helvetica,sans-Serif" font-size="10.00">IniInsensibleA_LaCasse</text>
</a>
</g>
</g>
<!-- Node1&#45;&gt;Node11 -->
<g id="edge11_Node000001_Node000011" class="edge">
<title>Node1&#45;&gt;Node11</title>
<g id="a_edge11_Node000001_Node000011"><a xlink:title=" ">
<path fill="none" stroke="#63b8ff" d="M1027.8,-150.85C1019.81,-149.83 1011.64,-148.79 1003.5,-147.74"/>
<polygon fill="#63b8ff" stroke="#63b8ff" points="1027.12,-154.3 1037.48,-152.09 1028,-147.35 1027.12,-154.3"/>
</a>
</g>
</g>
<!-- Node12 -->
<g id="Node000012" class="node">
<title>Node12</title>
<g id="a_Node000012"><a xlink:href="../../df/da5/class_galactic_shrine_1_1_modele_1_1_configuration_1_1_ini_1_1_donnees_ini_insensible_a___la_casse.html#a36cf809ae0401e81d4427aafaa8d2c3e" target="_top" xlink:title=" ">
<polygon fill="white" stroke="#666666" points="1003.25,-94 787,-94 787,-50 1003.25,-50 1003.25,-94"/>
<text text-anchor="start" x="795" y="-80.5" font-family="Helvetica,sans-Serif" font-size="10.00">GalacticShrine.Modele.Configuration.</text>
<text text-anchor="start" x="795" y="-68.5" font-family="Helvetica,sans-Serif" font-size="10.00">Ini.DonneesIniInsensibleA_LaCasse.Donnees</text>
<text text-anchor="middle" x="895.12" y="-56.5" font-family="Helvetica,sans-Serif" font-size="10.00">IniInsensibleA_LaCasse</text>
</a>
</g>
</g>
<!-- Node1&#45;&gt;Node12 -->
<g id="edge12_Node000001_Node000012" class="edge">
<title>Node1&#45;&gt;Node12</title>
<g id="a_edge12_Node000001_Node000012"><a xlink:title=" ">
<path fill="none" stroke="#63b8ff" d="M1067.25,-134.07C1047.83,-123.41 1024.88,-111.74 1003.25,-103 995.8,-99.99 987.95,-97.14 980.03,-94.48"/>
<polygon fill="#63b8ff" stroke="#63b8ff" points="1065.3,-136.99 1075.74,-138.79 1068.7,-130.87 1065.3,-136.99"/>
</a>
</g>
</g>
<!-- Node13 -->
<g id="Node000013" class="node">
<title>Node13</title>
<g id="a_Node000013"><a xlink:href="../../d9/d27/class_galactic_shrine_1_1_modele_1_1_configuration_1_1_ini_1_1_propriete_collection.html#a277616e1439c56affdc45f8165b70793" target="_top" xlink:title="[FR] Initialise une nouvelle instance de la classe GalacticShrine.Modele.Configuration....">
<polygon fill="white" stroke="#666666" points="993.88,-32 796.38,-32 796.38,0 993.88,0 993.88,-32"/>
<text text-anchor="start" x="804.38" y="-18.5" font-family="Helvetica,sans-Serif" font-size="10.00">GalacticShrine.Modele.Configuration.</text>
<text text-anchor="middle" x="895.12" y="-6.5" font-family="Helvetica,sans-Serif" font-size="10.00">Ini.ProprieteCollection.ProprieteCollection</text>
</a>
</g>
</g>
<!-- Node1&#45;&gt;Node13 -->
<g id="edge13_Node000001_Node000013" class="edge">
<title>Node1&#45;&gt;Node13</title>
<g id="a_edge13_Node000001_Node000013"><a xlink:title=" ">
<path fill="none" stroke="#63b8ff" d="M1094.24,-130.64C1074.27,-102.83 1041.47,-63.26 1003.25,-41 997.64,-37.73 991.63,-34.89 985.43,-32.42"/>
<polygon fill="#63b8ff" stroke="#63b8ff" points="1091.28,-132.52 1099.89,-138.7 1097.02,-128.5 1091.28,-132.52"/>
</a>
</g>
</g>
<!-- Node3 -->
<g id="Node000003" class="node">
<title>Node3</title>
<g id="a_Node000003"><a xlink:href="../../d2/dc5/class_galactic_shrine_1_1_modele_1_1_configuration_1_1_ini_1_1_section_collection.html#ae22f32de4181a433da5d6ab3bd28d365" target="_top" xlink:title="[FR] Ajoute une nouvelle instance de section à la collection. &#160;[EN] Adds a new section instance to th...">
<polygon fill="white" stroke="#666666" points="751,-356 573,-356 573,-324 751,-324 751,-356"/>
<text text-anchor="start" x="581" y="-342.5" font-family="Helvetica,sans-Serif" font-size="10.00">GalacticShrine.Modele.Configuration.</text>
<text text-anchor="middle" x="662" y="-330.5" font-family="Helvetica,sans-Serif" font-size="10.00">Ini.SectionCollection.Ajouter</text>
</a>
</g>
</g>
<!-- Node2&#45;&gt;Node3 -->
<g id="edge2_Node000002_Node000003" class="edge">
<title>Node2&#45;&gt;Node3</title>
<g id="a_edge2_Node000002_Node000003"><a xlink:title=" ">
<path fill="none" stroke="#63b8ff" d="M806.95,-308.86C784.62,-313.69 760.77,-318.85 739.04,-323.55"/>
<polygon fill="#63b8ff" stroke="#63b8ff" points="807.61,-312.3 816.65,-306.76 806.13,-305.45 807.61,-312.3"/>
</a>
</g>
</g>
<!-- Node4 -->
<g id="Node000004" class="node">
<title>Node4</title>
<g id="a_Node000004"><a xlink:href="../../d2/dc5/class_galactic_shrine_1_1_modele_1_1_configuration_1_1_ini_1_1_section_collection.html#ab439f8ed108317714dae058d645f56c0" target="_top" xlink:title="[FR] Crée une nouvelle section avec des données vides. &#160;[EN] Creates a new section with empty data.">
<polygon fill="white" stroke="#666666" points="751,-306 573,-306 573,-274 751,-274 751,-306"/>
<text text-anchor="start" x="581" y="-292.5" font-family="Helvetica,sans-Serif" font-size="10.00">GalacticShrine.Modele.Configuration.</text>
<text text-anchor="middle" x="662" y="-280.5" font-family="Helvetica,sans-Serif" font-size="10.00">Ini.SectionCollection.Ajouter</text>
</a>
</g>
</g>
<!-- Node2&#45;&gt;Node4 -->
<g id="edge3_Node000002_Node000004" class="edge">
<title>Node2&#45;&gt;Node4</title>
<g id="a_edge3_Node000002_Node000004"><a xlink:title=" ">
<path fill="none" stroke="#63b8ff" d="M794.36,-290C780.04,-290 765.4,-290 751.32,-290"/>
<polygon fill="#63b8ff" stroke="#63b8ff" points="794.24,-293.5 804.24,-290 794.24,-286.5 794.24,-293.5"/>
</a>
</g>
</g>
<!-- Node6 -->
<g id="Node000006" class="node">
<title>Node6</title>
<g id="a_Node000006"><a xlink:href="../../dd/da8/class_galactic_shrine_1_1_configuration_1_1_ini.html#a23f514b3f12d239e58c39e45cd133d51" target="_top" xlink:title="[FR] Traite une chaîne de caractères contenant une section ini. &#160;[EN] Processes a string containing a...">
<polygon fill="white" stroke="#666666" points="519.75,-262 376.25,-262 376.25,-230 519.75,-230 519.75,-262"/>
<text text-anchor="start" x="384.25" y="-248.5" font-family="Helvetica,sans-Serif" font-size="10.00">GalacticShrine.Configuration.</text>
<text text-anchor="middle" x="448" y="-236.5" font-family="Helvetica,sans-Serif" font-size="10.00">Ini.SectionDeProcessus</text>
</a>
</g>
</g>
<!-- Node2&#45;&gt;Node6 -->
<g id="edge8_Node000002_Node000006" class="edge">
<title>Node2&#45;&gt;Node6</title>
<g id="a_edge8_Node000002_Node000006"><a xlink:title=" ">
<path fill="none" stroke="#63b8ff" d="M797.6,-271.65C782.06,-269.13 766.12,-266.79 751,-265 672.22,-255.67 581.31,-250.74 519.98,-248.26"/>
<polygon fill="#63b8ff" stroke="#63b8ff" points="796.9,-275.08 807.34,-273.27 798.05,-268.18 796.9,-275.08"/>
</a>
</g>
</g>
<!-- Node5 -->
<g id="Node000005" class="node">
<title>Node5</title>
<g id="a_Node000005"><a xlink:href="../../d2/dc5/class_galactic_shrine_1_1_modele_1_1_configuration_1_1_ini_1_1_section_collection.html#ac2f833e033dd9b7cb49023856a6ae7c9" target="_top" xlink:title=" ">
<polygon fill="white" stroke="#666666" points="537,-312 359,-312 359,-280 537,-280 537,-312"/>
<text text-anchor="start" x="367" y="-298.5" font-family="Helvetica,sans-Serif" font-size="10.00">GalacticShrine.Modele.Configuration.</text>
<text text-anchor="middle" x="448" y="-286.5" font-family="Helvetica,sans-Serif" font-size="10.00">Ini.SectionCollection.Fusionner</text>
</a>
</g>
</g>
<!-- Node4&#45;&gt;Node5 -->
<g id="edge4_Node000004_Node000005" class="edge">
<title>Node4&#45;&gt;Node5</title>
<g id="a_edge4_Node000004_Node000005"><a xlink:title=" ">
<path fill="none" stroke="#63b8ff" d="M561.31,-292.82C553.27,-293.05 545.18,-293.28 537.23,-293.5"/>
<polygon fill="#63b8ff" stroke="#63b8ff" points="561.22,-296.33 571.12,-292.54 561.02,-289.33 561.22,-296.33"/>
</a>
</g>
</g>
<!-- Node4&#45;&gt;Node6 -->
<g id="edge5_Node000004_Node000006" class="edge">
<title>Node4&#45;&gt;Node6</title>
<g id="a_edge5_Node000004_Node000006"><a xlink:title=" ">
<path fill="none" stroke="#63b8ff" d="M570.74,-271.27C553.82,-267.75 536.35,-264.13 520.12,-260.76"/>
<polygon fill="#63b8ff" stroke="#63b8ff" points="569.77,-274.64 580.28,-273.25 571.2,-267.79 569.77,-274.64"/>
</a>
</g>
</g>
<!-- Node7 -->
<g id="Node000007" class="node">
<title>Node7</title>
<g id="a_Node000007"><a xlink:href="../../dd/da8/class_galactic_shrine_1_1_configuration_1_1_ini.html#ab6c8c10782835b28847a24c919e2ad6c" target="_top" xlink:title="[FR] Traite une ligne et analyse les données qui s&#39;y trouvent (section ou paire clé/valeur avec ou sa...">
<polygon fill="white" stroke="#666666" points="323,-262 179.5,-262 179.5,-230 323,-230 323,-262"/>
<text text-anchor="start" x="187.5" y="-248.5" font-family="Helvetica,sans-Serif" font-size="10.00">GalacticShrine.Configuration.</text>
<text text-anchor="middle" x="251.25" y="-236.5" font-family="Helvetica,sans-Serif" font-size="10.00">Ini.LigneDeProcessus</text>
</a>
</g>
</g>
<!-- Node6&#45;&gt;Node7 -->
<g id="edge6_Node000006_Node000007" class="edge">
<title>Node6&#45;&gt;Node7</title>
<g id="a_edge6_Node000006_Node000007"><a xlink:title=" ">
<path fill="none" stroke="#63b8ff" d="M364.45,-246C350.73,-246 336.6,-246 323.19,-246"/>
<polygon fill="#63b8ff" stroke="#63b8ff" points="364.35,-249.5 374.35,-246 364.35,-242.5 364.35,-249.5"/>
</a>
</g>
</g>
<!-- Node8 -->
<g id="Node000008" class="node">
<title>Node8</title>
<g id="a_Node000008"><a xlink:href="../../dd/da8/class_galactic_shrine_1_1_configuration_1_1_ini.html#ac15c07bfff5ae1ddc1dc255904aa5f70" target="_top" xlink:title="[FR] Analyse une chaîne contenant des données ini valides. &#160;[EN] Parses a string containing valid ini...">
<polygon fill="white" stroke="#666666" points="143.5,-262 0,-262 0,-230 143.5,-230 143.5,-262"/>
<text text-anchor="start" x="8" y="-248.5" font-family="Helvetica,sans-Serif" font-size="10.00">GalacticShrine.Configuration.</text>
<text text-anchor="middle" x="71.75" y="-236.5" font-family="Helvetica,sans-Serif" font-size="10.00">Ini.Analyse</text>
</a>
</g>
</g>
<!-- Node7&#45;&gt;Node8 -->
<g id="edge7_Node000007_Node000008" class="edge">
<title>Node7&#45;&gt;Node8</title>
<g id="a_edge7_Node000007_Node000008"><a xlink:title=" ">
<path fill="none" stroke="#63b8ff" d="M167.58,-246C159.68,-246 151.72,-246 143.94,-246"/>
<polygon fill="#63b8ff" stroke="#63b8ff" points="167.56,-249.5 177.56,-246 167.56,-242.5 167.56,-249.5"/>
</a>
</g>
</g>
</g>
</svg>
