<?xml version="1.0" encoding="UTF-8" standalone="no"?>
<!DOCTYPE svg PUBLIC "-//W3C//DTD SVG 1.1//EN"
 "http://www.w3.org/Graphics/SVG/1.1/DTD/svg11.dtd">
<!-- Generated by graphviz version 12.2.0 (20241103.1931)
 -->
<!-- Title: GalacticShrine.FichierSystemeReference.ContientLeNom Pages: 1 -->
<svg width="359pt" height="58pt"
 viewBox="0.00 0.00 358.75 58.00" xmlns="http://www.w3.org/2000/svg" xmlns:xlink="http://www.w3.org/1999/xlink">
<g id="graph0" class="graph" transform="scale(1 1) rotate(0) translate(4 54)">
<title>GalacticShrine.FichierSystemeReference.ContientLeNom</title>
<!-- Node1 -->
<g id="Node000001" class="node">
<title>Node1</title>
<g id="a_Node000001"><a xlink:title="[FR] Détermine si l&#39;objet donné est sous le répertoire donné, dans un sous&#45;dossier du nom donné....">
<polygon fill="#999999" stroke="#666666" points="350.75,-32 199.75,-32 199.75,0 350.75,0 350.75,-32"/>
<text text-anchor="start" x="207.75" y="-18.5" font-family="Helvetica,sans-Serif" font-size="10.00">GalacticShrine.FichierSysteme</text>
<text text-anchor="middle" x="275.25" y="-6.5" font-family="Helvetica,sans-Serif" font-size="10.00">Reference.ContientLeNom</text>
</a>
</g>
</g>
<!-- Node1&#45;&gt;Node1 -->
<g id="edge1_Node000001_Node000001" class="edge">
<title>Node1&#45;&gt;Node1</title>
<g id="a_edge1_Node000001_Node000001"><a xlink:title=" ">
<path fill="none" stroke="#63b8ff" d="M307.48,-43.71C302.1,-47.48 291.36,-50 275.25,-50 245.79,-50 234.28,-41.58 240.73,-32.44"/>
<polygon fill="#63b8ff" stroke="#63b8ff" points="310.9,-44.42 309.47,-33.93 304.04,-43.02 310.9,-44.42"/>
</a>
</g>
</g>
<!-- Node2 -->
<g id="Node000002" class="node">
<title>Node2</title>
<g id="a_Node000002"><a xlink:href="../../dd/daf/class_galactic_shrine_1_1_fichier_systeme_reference.html#ade1b9c34676e637966af385496b1c289" target="_top" xlink:title="[FR] Détermine si l&#39;objet donné est sous le répertoire donné, dans un sous&#45;dossier du nom donné....">
<polygon fill="white" stroke="#666666" points="163.75,-32 0,-32 0,0 163.75,0 163.75,-32"/>
<text text-anchor="start" x="8" y="-18.5" font-family="Helvetica,sans-Serif" font-size="10.00">GalacticShrine.FichierSysteme</text>
<text text-anchor="middle" x="81.88" y="-6.5" font-family="Helvetica,sans-Serif" font-size="10.00">Reference.ContientTousLesNoms</text>
</a>
</g>
</g>
<!-- Node1&#45;&gt;Node2 -->
<g id="edge2_Node000001_Node000002" class="edge">
<title>Node1&#45;&gt;Node2</title>
<g id="a_edge2_Node000001_Node000002"><a xlink:title=" ">
<path fill="none" stroke="#63b8ff" d="M188.15,-16C180.1,-16 171.96,-16 163.96,-16"/>
<polygon fill="#63b8ff" stroke="#63b8ff" points="187.92,-19.5 197.92,-16 187.92,-12.5 187.92,-19.5"/>
</a>
</g>
</g>
</g>
</svg>
