<?xml version="1.0" encoding="UTF-8" standalone="no"?>
<!DOCTYPE svg PUBLIC "-//W3C//DTD SVG 1.1//EN"
 "http://www.w3.org/Graphics/SVG/1.1/DTD/svg11.dtd">
<!-- Generated by graphviz version 12.2.0 (20241103.1931)
 -->
<!-- Title: GalacticShrine.FichierSystemeReference.EstSousLeRepertoire Pages: 1 -->
<svg width="552pt" height="80pt"
 viewBox="0.00 0.00 551.75 80.00" xmlns="http://www.w3.org/2000/svg" xmlns:xlink="http://www.w3.org/1999/xlink">
<g id="graph0" class="graph" transform="scale(1 1) rotate(0) translate(4 76)">
<title>GalacticShrine.FichierSystemeReference.EstSousLeRepertoire</title>
<!-- Node1 -->
<g id="Node000001" class="node">
<title>Node1</title>
<g id="a_Node000001"><a xlink:title="[FR] Détermine si l&#39;objet donné est dans ou sous le répertoire donné. [EN] Determines if the given ob...">
<polygon fill="#999999" stroke="#666666" points="543.75,-32 386.75,-32 386.75,0 543.75,0 543.75,-32"/>
<text text-anchor="start" x="394.75" y="-18.5" font-family="Helvetica,sans-Serif" font-size="10.00">GalacticShrine.FichierSysteme</text>
<text text-anchor="middle" x="465.25" y="-6.5" font-family="Helvetica,sans-Serif" font-size="10.00">Reference.EstSousLeRepertoire</text>
</a>
</g>
</g>
<!-- Node2 -->
<g id="Node000002" class="node">
<title>Node2</title>
<g id="a_Node000002"><a xlink:href="../../dd/daf/class_galactic_shrine_1_1_fichier_systeme_reference.html#acc47c56ccbec6b6c4b35722936c8719b" target="_top" xlink:title="[FR] Détermine si l&#39;objet donné est sous le répertoire donné, dans un sous&#45;dossier du nom donné....">
<polygon fill="white" stroke="#666666" points="350.75,-54 199.75,-54 199.75,-22 350.75,-22 350.75,-54"/>
<text text-anchor="start" x="207.75" y="-40.5" font-family="Helvetica,sans-Serif" font-size="10.00">GalacticShrine.FichierSysteme</text>
<text text-anchor="middle" x="275.25" y="-28.5" font-family="Helvetica,sans-Serif" font-size="10.00">Reference.ContientLeNom</text>
</a>
</g>
</g>
<!-- Node1&#45;&gt;Node2 -->
<g id="edge1_Node000001_Node000002" class="edge">
<title>Node1&#45;&gt;Node2</title>
<g id="a_edge1_Node000001_Node000002"><a xlink:title=" ">
<path fill="none" stroke="#63b8ff" d="M375.08,-26.43C367.02,-27.38 358.91,-28.33 350.99,-29.25"/>
<polygon fill="#63b8ff" stroke="#63b8ff" points="375.4,-29.92 384.92,-25.28 374.58,-22.97 375.4,-29.92"/>
</a>
</g>
</g>
<!-- Node3 -->
<g id="Node000003" class="node">
<title>Node3</title>
<g id="a_Node000003"><a xlink:href="../../dd/daf/class_galactic_shrine_1_1_fichier_systeme_reference.html#ade1b9c34676e637966af385496b1c289" target="_top" xlink:title="[FR] Détermine si l&#39;objet donné est sous le répertoire donné, dans un sous&#45;dossier du nom donné....">
<polygon fill="white" stroke="#666666" points="163.75,-32 0,-32 0,0 163.75,0 163.75,-32"/>
<text text-anchor="start" x="8" y="-18.5" font-family="Helvetica,sans-Serif" font-size="10.00">GalacticShrine.FichierSysteme</text>
<text text-anchor="middle" x="81.88" y="-6.5" font-family="Helvetica,sans-Serif" font-size="10.00">Reference.ContientTousLesNoms</text>
</a>
</g>
</g>
<!-- Node1&#45;&gt;Node3 -->
<g id="edge4_Node000001_Node000003" class="edge">
<title>Node1&#45;&gt;Node3</title>
<g id="a_edge4_Node000001_Node000003"><a xlink:title=" ">
<path fill="none" stroke="#63b8ff" d="M375.17,-13.42C366.91,-13.25 358.68,-13.1 350.75,-13 283.64,-12.11 266.86,-12.14 199.75,-13 188.18,-13.15 175.97,-13.38 163.98,-13.65"/>
<polygon fill="#63b8ff" stroke="#63b8ff" points="374.82,-16.92 384.9,-13.64 374.98,-9.92 374.82,-16.92"/>
</a>
</g>
</g>
<!-- Node2&#45;&gt;Node2 -->
<g id="edge2_Node000002_Node000002" class="edge">
<title>Node2&#45;&gt;Node2</title>
<g id="a_edge2_Node000002_Node000002"><a xlink:title=" ">
<path fill="none" stroke="#63b8ff" d="M306.91,-65.71C301.63,-69.48 291.08,-72 275.25,-72 246.3,-72 235,-63.58 241.33,-54.44"/>
<polygon fill="#63b8ff" stroke="#63b8ff" points="310.34,-66.42 308.87,-55.93 303.48,-65.04 310.34,-66.42"/>
</a>
</g>
</g>
<!-- Node2&#45;&gt;Node3 -->
<g id="edge3_Node000002_Node000003" class="edge">
<title>Node2&#45;&gt;Node3</title>
<g id="a_edge3_Node000002_Node000003"><a xlink:title=" ">
<path fill="none" stroke="#63b8ff" d="M188.15,-28.1C180.1,-27.18 171.96,-26.24 163.96,-25.32"/>
<polygon fill="#63b8ff" stroke="#63b8ff" points="187.6,-31.56 197.93,-29.23 188.4,-24.61 187.6,-31.56"/>
</a>
</g>
</g>
</g>
</svg>
